<svg width="152" height="152" viewBox="0 0 152 152" fill="none" xmlns="http://www.w3.org/2000/svg">
<path d="M76 129.978C108.553 129.978 134.943 128.438 134.943 126.537C134.943 124.636 108.553 123.096 76 123.096C43.4469 123.096 17.0574 124.636 17.0574 126.537C17.0574 128.438 43.4469 129.978 76 129.978Z" fill="#F5F5F5"/>
<path d="M113.03 76.1307L113.058 74.0027C113.058 74.0027 112.62 73.7443 112.589 73.4403C112.559 73.1363 112.285 71.7531 112.413 71.6163C112.541 71.4795 114.368 71.0691 114.499 71.4096C114.629 71.7501 114.836 73.4555 114.711 73.5771C114.538 73.7181 114.357 73.85 114.17 73.9723L114.292 76.4043L113.03 76.1307Z" fill="#EBB376"/>
<path d="M96.4653 64.8098C96.4653 64.8098 95.3861 69.6342 92.6349 73.5862C94.7098 75.0951 97.0375 76.2214 99.5083 76.912C101.979 77.5377 104.579 77.4117 106.978 76.5502C106.978 76.5502 108.78 69.163 107.698 66.7006C106.616 64.2382 98.4078 62.7456 96.4653 64.8098Z" fill="#263238"/>
<path d="M106.479 78.2739C108.519 79.7088 110.626 82.1773 111.328 81.7578C112.03 81.3382 112.963 74.9755 112.963 74.9755L114.602 75.4984C114.602 75.4984 115.012 83.8432 112.322 84.7613C109.92 85.579 105.406 81.393 105.406 81.393L106.479 78.2739Z" fill="#006D77"/>
<path opacity="0.7" d="M105.406 81.396C106.185 82.097 107.012 82.743 107.88 83.3294C109.324 84.2962 111.097 85.1778 112.322 84.7613C115.012 83.8493 114.605 75.4984 114.605 75.4984L112.966 74.9755C112.966 74.9755 112.027 81.3352 111.328 81.7547C110.629 82.1742 108.519 79.7088 106.479 78.2739L105.926 79.8851L105.406 81.396Z" fill="white"/>
<path d="M115.031 75.4862L112.848 74.6776L112.644 75.4315L115.031 76.3344V75.4862Z" fill="#006D77"/>
<path opacity="0.2" d="M105.406 81.396C106.185 82.097 107.012 82.743 107.88 83.3294C107.821 82.6486 107.616 81.9886 107.279 81.3942C106.941 80.7999 106.48 80.2852 105.926 79.8851L105.406 81.396Z" fill="black"/>
<path d="M105.406 96.9061C114.544 106.783 117.156 117.882 117.156 117.882L114.842 119.423C114.842 119.423 111.416 108.625 100.952 100.861L105.406 96.9061Z" fill="#EBB376"/>
<path d="M98.1738 102.165C97.8884 109.904 96.8602 117.597 95.1034 125.139L92.3339 124.911C93.3709 117.231 93.587 109.462 92.9784 101.737L98.1738 102.165Z" fill="#EBB376"/>
<path d="M95.4074 123.947L92.5862 123.774C92.563 123.771 92.5394 123.772 92.5169 123.779C92.4943 123.785 92.4733 123.796 92.4551 123.811C92.437 123.826 92.422 123.844 92.4111 123.865C92.4001 123.886 92.3936 123.908 92.3917 123.932L92.112 126.16C92.1045 126.277 92.1434 126.392 92.2202 126.48C92.2971 126.568 92.4057 126.623 92.5224 126.631C93.5074 126.677 93.9786 126.649 95.2189 126.719C95.9819 126.762 97.4837 126.926 98.5325 126.823C99.5813 126.719 99.4445 125.686 99.0006 125.637C97.9245 125.512 96.5018 124.725 95.8269 124.117C95.7094 124.016 95.5621 123.956 95.4074 123.947Z" fill="#263238"/>
<path d="M96.2707 124.43C96.0447 124.411 95.8215 124.367 95.605 124.3C95.5944 124.297 95.585 124.291 95.5779 124.283C95.5708 124.275 95.5664 124.265 95.5654 124.254C95.5639 124.243 95.5654 124.231 95.5697 124.22C95.5739 124.21 95.5808 124.2 95.5898 124.193C95.6749 124.141 96.4166 123.704 96.7176 123.84C96.7514 123.856 96.7807 123.881 96.8025 123.911C96.8243 123.941 96.838 123.977 96.8422 124.014C96.8603 124.07 96.8612 124.131 96.845 124.189C96.8288 124.246 96.7961 124.297 96.751 124.336C96.6087 124.427 96.437 124.461 96.2707 124.43ZM96.669 123.959C96.5078 123.883 96.0762 124.068 95.7752 124.236C96.216 124.351 96.5474 124.357 96.6872 124.251C96.7128 124.224 96.7311 124.191 96.7407 124.154C96.7502 124.118 96.7507 124.08 96.7419 124.044C96.74 124.026 96.7334 124.009 96.7227 123.994C96.7121 123.979 96.6977 123.967 96.6811 123.959H96.669Z" fill="#006D77"/>
<path d="M95.6202 124.303H95.5928C95.5852 124.297 95.5789 124.291 95.5741 124.283C95.5694 124.275 95.5664 124.266 95.5654 124.257C95.5654 124.233 95.5654 123.5 95.8208 123.269C95.8561 123.24 95.8972 123.219 95.9412 123.208C95.9853 123.196 96.0313 123.194 96.0762 123.202C96.1262 123.207 96.1731 123.229 96.2095 123.263C96.2459 123.298 96.2696 123.344 96.2768 123.394C96.3163 123.67 95.909 124.172 95.6506 124.306C95.6456 124.307 95.6403 124.308 95.635 124.307C95.6298 124.307 95.6247 124.305 95.6202 124.303ZM96.0275 123.324C96.0042 123.322 95.9807 123.325 95.9586 123.332C95.9366 123.34 95.9165 123.353 95.8998 123.369C95.7357 123.506 95.6931 123.916 95.684 124.154C95.9278 123.975 96.0976 123.713 96.1613 123.418C96.1613 123.384 96.137 123.342 96.0549 123.327L96.0275 123.324Z" fill="#006D77"/>
<path d="M116.909 117.241L114.377 118.493C114.355 118.503 114.336 118.516 114.32 118.533C114.303 118.551 114.291 118.571 114.282 118.593C114.274 118.615 114.27 118.638 114.27 118.662C114.271 118.685 114.276 118.709 114.286 118.73L115.155 120.794C115.208 120.899 115.299 120.979 115.41 121.018C115.521 121.056 115.642 121.049 115.748 120.998C116.624 120.545 117.019 120.287 118.128 119.727C118.812 119.387 120.192 118.779 121.053 118.165C121.913 117.551 121.287 116.721 120.867 116.903C119.873 117.335 118.244 117.359 117.359 117.174C117.206 117.145 117.048 117.169 116.909 117.241Z" fill="#263238"/>
<path d="M117.897 117.228C117.692 117.323 117.477 117.396 117.256 117.444C117.246 117.448 117.234 117.448 117.224 117.445C117.214 117.441 117.205 117.435 117.198 117.426C117.192 117.416 117.189 117.405 117.189 117.394C117.189 117.383 117.192 117.372 117.198 117.362C117.247 117.274 117.669 116.523 118.001 116.493C118.038 116.49 118.075 116.497 118.109 116.512C118.143 116.527 118.173 116.551 118.195 116.581C118.239 116.621 118.271 116.673 118.285 116.731C118.3 116.789 118.297 116.85 118.277 116.906C118.196 117.058 118.06 117.173 117.897 117.228ZM118.007 116.62C117.83 116.636 117.548 117.01 117.368 117.304C117.812 117.186 118.101 117.025 118.156 116.87C118.166 116.834 118.166 116.795 118.157 116.759C118.147 116.723 118.128 116.689 118.101 116.663C118.09 116.648 118.076 116.637 118.06 116.629C118.043 116.622 118.025 116.619 118.007 116.62Z" fill="#006D77"/>
<path d="M117.268 117.441C117.265 117.443 117.261 117.444 117.257 117.444C117.254 117.444 117.25 117.443 117.247 117.441C117.237 117.441 117.228 117.439 117.22 117.435C117.211 117.43 117.204 117.424 117.198 117.417C117.198 117.396 116.812 116.766 116.928 116.432C116.943 116.389 116.968 116.351 117.001 116.319C117.034 116.288 117.073 116.264 117.116 116.25C117.162 116.228 117.213 116.222 117.263 116.234C117.312 116.246 117.355 116.274 117.387 116.313C117.557 116.532 117.456 117.171 117.298 117.417C117.292 117.429 117.281 117.437 117.268 117.441ZM117.134 116.389C117.113 116.399 117.094 116.414 117.079 116.432C117.064 116.449 117.053 116.47 117.046 116.493C116.973 116.69 117.14 117.07 117.253 117.28C117.373 117.003 117.389 116.692 117.298 116.405C117.277 116.377 117.241 116.35 117.162 116.377L117.134 116.389Z" fill="#006D77"/>
<path d="M106.516 91.3611C110.018 100.177 112.377 104.16 112.377 104.16C108.777 106.574 104.551 107.885 100.217 107.932C94.4194 107.932 90.6072 106.74 90.6072 106.74C91.3946 102.266 92.0147 92.0451 92.7048 91.5405L106.516 91.3611Z" fill="#006D77"/>
<path d="M106.391 90.6589L106.85 91.884L92.4099 92.2214L92.644 90.9325L106.391 90.6589Z" fill="#006D77"/>
<path opacity="0.5" d="M106.391 90.6589L106.85 91.884L92.4099 92.2214L92.644 90.9325L106.391 90.6589Z" fill="white"/>
<path d="M106.613 90.5586C106.342 88.8653 105.336 81.8733 106.479 78.2739C106.479 78.2739 105.129 76.7934 100.6 76.4195C96.0701 76.0456 93.8934 77.0062 93.8934 77.0062C92.8807 81.6071 92.3852 86.3067 92.416 91.0176C92.4164 91.0622 92.4256 91.1062 92.4431 91.1472C92.4606 91.1882 92.4861 91.2253 92.518 91.2564C92.55 91.2875 92.5878 91.312 92.6292 91.3284C92.6707 91.3448 92.7149 91.3528 92.7595 91.352L106.297 90.9446C106.344 90.9426 106.39 90.9307 106.432 90.9097C106.474 90.8886 106.511 90.8589 106.541 90.8224C106.571 90.7859 106.593 90.7436 106.605 90.6981C106.618 90.6527 106.62 90.6051 106.613 90.5586Z" fill="#006D77"/>
<path opacity="0.7" d="M92.416 91.0176C92.4164 91.0624 92.4257 91.1067 92.4434 91.1479C92.4611 91.1891 92.4869 91.2264 92.5191 91.2575C92.5514 91.2886 92.5895 91.313 92.6313 91.3293C92.6731 91.3455 92.7177 91.3532 92.7626 91.352L106.294 90.9446C106.341 90.9436 106.388 90.9323 106.431 90.9114C106.474 90.8904 106.512 90.8605 106.543 90.8235C106.573 90.7865 106.595 90.7434 106.607 90.6972C106.619 90.6509 106.621 90.6026 106.613 90.5555C106.345 88.8653 105.339 81.8733 106.482 78.2739C106.482 78.2739 105.132 76.7934 100.606 76.4195C96.0792 76.0456 93.8965 77.0062 93.8965 77.0062C93.8965 77.0062 93.6229 78.1402 93.3098 80.0098C93.0544 81.5298 92.7778 83.521 92.5984 85.7858C92.4677 87.4182 92.3917 89.1875 92.416 91.0176Z" fill="white"/>
<path d="M99.6482 76.0547C96.7723 76.0547 95.8086 78.0429 97.2891 79.2406C99.4171 80.9582 101.396 78.6174 101.396 78.6174C101.396 78.6174 103.108 80.5083 104.059 79.2893C105.011 78.0702 103.928 76.0547 99.6482 76.0547Z" fill="#006D77"/>
<path d="M102.913 77.3194L101.393 78.3104L97.9488 77.5778C98.1252 77.4024 98.2757 77.2028 98.3957 76.985C99.1739 75.5501 97.8424 74.1486 97.8424 74.1486L99.3624 73.7018L102.752 72.7229C101.284 75.4771 102.913 77.3194 102.913 77.3194Z" fill="#EBB376"/>
<path opacity="0.2" d="M102.187 73.9176C102.187 73.9176 100.651 76.9029 98.3866 76.985C99.1648 75.5501 97.8333 74.1486 97.8333 74.1486L99.3533 73.7018L102.187 73.9176Z" fill="black"/>
<path d="M98.5872 63.3658C98.5872 63.3658 94.5227 65.585 97.8302 69.4458C101.566 73.8355 98.5872 63.3658 98.5872 63.3658Z" fill="#263238"/>
<path d="M106.187 69.7741C105.476 72.4493 103.375 75.1579 101.047 75.1336C96.7906 75.091 95.3192 73.9936 95.4499 70.8442C95.5533 68.0109 97.3621 63.8522 100.922 63.688C104.482 63.5238 107.175 66.0653 106.187 69.7741Z" fill="#EBB376"/>
<path d="M97.8302 65.0894C99.0318 65.7773 100.398 66.1252 101.782 66.0957C101.782 66.0957 104.497 67.8376 103.783 69.6282C103.068 71.4187 103.919 71.6802 103.533 74.1547C103.533 74.1547 106.157 74.3341 107.583 69.0232C108.622 65.1533 105.503 62.9797 101.992 62.3808C99.0493 61.8792 96.5778 63.5968 97.8302 65.0894Z" fill="#263238"/>
<path d="M101.302 69.92C101.258 70.024 101.181 70.1103 101.082 70.1653C100.983 70.2204 100.869 70.241 100.758 70.224C100.708 70.2193 100.659 70.2028 100.617 70.176C100.574 70.1492 100.538 70.1127 100.512 70.0695C100.486 70.0264 100.471 69.9777 100.467 69.9274C100.463 69.8772 100.471 69.8267 100.49 69.7802C100.535 69.6765 100.612 69.5905 100.711 69.5355C100.809 69.4805 100.923 69.4596 101.034 69.4762C101.085 69.4809 101.133 69.4973 101.176 69.5242C101.218 69.551 101.254 69.5875 101.28 69.6306C101.306 69.6738 101.322 69.7224 101.325 69.7727C101.329 69.823 101.321 69.8734 101.302 69.92Z" fill="#263238"/>
<path d="M96.4288 68.6766C96.3915 68.777 96.388 68.8868 96.4187 68.9894C96.4494 69.092 96.5127 69.1818 96.599 69.2451C96.635 69.2738 96.677 69.2939 96.7219 69.304C96.7668 69.3141 96.8134 69.3139 96.8582 69.3033C96.9029 69.2928 96.9448 69.2722 96.9804 69.2432C97.0161 69.2141 97.0447 69.1774 97.0642 69.1357C97.1006 69.0349 97.1034 68.9251 97.0722 68.8226C97.041 68.7201 96.9773 68.6305 96.8909 68.5672C96.855 68.5391 96.8132 68.5194 96.7686 68.5097C96.7241 68.4999 96.6779 68.5003 96.6335 68.5108C96.5892 68.5213 96.5477 68.5417 96.5123 68.5704C96.4768 68.5991 96.4483 68.6354 96.4288 68.6766Z" fill="#263238"/>
<path d="M101.089 67.6856C101.068 67.6597 101.055 67.6279 101.053 67.5944C101.055 67.553 101.074 67.5142 101.104 67.4863C101.135 67.4585 101.175 67.4438 101.217 67.4454C101.468 67.4482 101.716 67.5122 101.937 67.6319C102.158 67.7516 102.347 67.9234 102.488 68.1325C102.508 68.1686 102.514 68.2112 102.503 68.2514C102.493 68.2916 102.468 68.3263 102.433 68.3483C102.396 68.3675 102.353 68.3725 102.313 68.3624C102.273 68.3523 102.237 68.3279 102.214 68.2936C102.099 68.1295 101.946 67.9957 101.768 67.9036C101.59 67.8114 101.393 67.7638 101.192 67.7646C101.171 67.7596 101.15 67.7499 101.132 67.7362C101.114 67.7226 101.1 67.7054 101.089 67.6856Z" fill="#263238"/>
<path d="M96.5778 66.9499C96.5473 66.9356 96.5211 66.9136 96.5018 66.8861C96.4845 66.848 96.4825 66.8048 96.4961 66.7652C96.5096 66.7257 96.5377 66.6928 96.5747 66.6733C96.7974 66.5564 97.0452 66.4953 97.2967 66.4953C97.5482 66.4953 97.796 66.5564 98.0187 66.6733C98.0367 66.6836 98.0525 66.6975 98.065 66.714C98.0776 66.7306 98.0867 66.7495 98.0918 66.7696C98.0969 66.7897 98.0979 66.8107 98.0947 66.8312C98.0916 66.8518 98.0843 66.8714 98.0734 66.8891C98.0514 66.9243 98.0167 66.9496 97.9765 66.9598C97.9363 66.97 97.8937 66.9643 97.8576 66.9438C97.6782 66.8554 97.4801 66.8114 97.2801 66.8156C97.0801 66.8199 96.884 66.8722 96.7085 66.9682C96.6866 66.9743 96.6637 66.9759 96.6412 66.9728C96.6187 66.9696 96.5971 66.9618 96.5778 66.9499Z" fill="#263238"/>
<path d="M98.2893 68.853L98.3106 70.373C97.9294 70.3824 97.5543 70.2765 97.2344 70.069C97.6571 69.7312 98.0146 69.3191 98.2893 68.853Z" fill="#D58745"/>
<path d="M97.3742 71.4005C97.5562 71.7842 97.7106 72.1804 97.8363 72.5861L98.0582 72.5557C99.0645 72.4037 99.481 72.0024 99.639 71.6011C99.7514 71.2908 99.7514 70.9508 99.639 70.6405C99.1557 71.0387 98.2285 71.2485 97.7269 71.3427C97.508 71.3853 97.3742 71.4005 97.3742 71.4005Z" fill="#263238"/>
<path d="M97.7147 71.3427L97.8606 71.6893C98.8091 71.5464 99.4566 71.3154 99.709 70.984C99.6976 70.8662 99.67 70.7506 99.6269 70.6405C99.1435 71.0387 98.2163 71.2515 97.7147 71.3427Z" fill="white"/>
<path d="M98.0582 72.5557C99.0645 72.4037 99.481 72.0024 99.639 71.6011C99.2585 71.6674 98.8924 71.799 98.5568 71.9902C98.3349 72.1211 98.1603 72.3191 98.0582 72.5557Z" fill="#DE5753"/>
<path d="M100.977 70.7165H100.961C100.247 70.5797 100.247 70.0933 100.247 70.072C100.247 70.0618 100.249 70.0516 100.253 70.0422C100.257 70.0328 100.263 70.0243 100.27 70.0172C100.278 70.0101 100.286 70.0045 100.296 70.0009C100.306 69.9973 100.316 69.9956 100.326 69.996C100.346 69.9968 100.364 70.0051 100.378 70.0193C100.391 70.0335 100.399 70.0524 100.399 70.072C100.399 70.0933 100.399 70.455 100.989 70.5675C101.009 70.5712 101.026 70.5826 101.037 70.5991C101.049 70.6156 101.053 70.6359 101.05 70.6557C101.046 70.6726 101.037 70.6878 101.024 70.6989C101.011 70.7099 100.994 70.7161 100.977 70.7165Z" fill="#D58745"/>
<path d="M96.5626 69.6403C96.4181 69.6359 96.281 69.576 96.1795 69.4731C96.1675 69.4592 96.1609 69.4413 96.161 69.4228C96.1612 69.4044 96.168 69.3866 96.1803 69.3728C96.1926 69.3591 96.2095 69.3502 96.2278 69.348C96.2461 69.3458 96.2646 69.3502 96.2798 69.3606C96.3605 69.4415 96.4697 69.4873 96.5838 69.4883C96.6905 69.4703 96.788 69.4167 96.8605 69.3363C96.8673 69.329 96.8755 69.3232 96.8847 69.3193C96.8938 69.3153 96.9037 69.3133 96.9137 69.3133C96.9237 69.3133 96.9335 69.3153 96.9427 69.3193C96.9518 69.3232 96.9601 69.329 96.9669 69.3363C96.9808 69.3505 96.9886 69.3696 96.9886 69.3895C96.9886 69.4094 96.9808 69.4285 96.9669 69.4427C96.8691 69.5565 96.7326 69.6302 96.5838 69.6494L96.5626 69.6403Z" fill="#D58745"/>
<path d="M104.533 64.6486C103.799 63.4703 102.631 62.6276 101.281 62.3018C97.5566 61.9613 96.3619 63.2928 95.9394 66.6672C96.296 66.5987 96.6585 66.5651 97.0216 66.5669C97.2778 65.9945 97.5981 65.453 97.9762 64.9526C97.6938 65.4609 97.4811 66.0049 97.3438 66.5699C97.8049 66.587 98.2636 66.644 98.7149 66.7402C98.9757 66.0957 99.3103 65.4836 99.712 64.9162C99.3935 65.5157 99.1943 66.1712 99.1253 66.8466C99.6418 66.9835 100.143 67.1729 100.621 67.412C100.7 66.8587 100.831 66.3571 100.831 66.3571C100.787 66.7419 100.787 67.1305 100.831 67.5154C101.365 67.7995 101.87 68.1377 102.336 68.5246C102.399 68.0506 102.547 67.5916 102.77 67.1688C102.635 67.6954 102.588 68.2411 102.633 68.783L102.919 69.0506L103.527 67.8102C103.527 67.8102 102.852 70.1936 104.047 71.8078C105.242 73.4221 105.689 66.576 104.533 64.6486Z" fill="#263238"/>
<path d="M102.819 70.832C102.819 70.832 103.88 69.312 104.628 70.0234C105.376 70.7347 104.628 73.4616 103.351 73.1941C102.074 72.9266 102.056 71.6072 102.819 70.832Z" fill="#EBB376"/>
<path d="M101.469 69.391C101.456 69.3909 101.444 69.3874 101.432 69.381C101.421 69.3746 101.412 69.3655 101.405 69.3546C101.357 69.288 101.285 69.2423 101.205 69.2269C101.113 69.2172 101.021 69.2256 100.933 69.2517C100.844 69.2778 100.762 69.321 100.691 69.3789C100.683 69.3867 100.673 69.3927 100.663 69.3963C100.652 69.4 100.641 69.4013 100.63 69.4C100.618 69.3988 100.608 69.3952 100.598 69.3894C100.589 69.3835 100.58 69.3756 100.574 69.3663C100.568 69.3569 100.564 69.3463 100.563 69.3352C100.561 69.3241 100.562 69.3128 100.565 69.3021C100.568 69.2914 100.574 69.2816 100.582 69.2733C100.589 69.265 100.598 69.2585 100.609 69.2542C100.696 69.1835 100.797 69.1313 100.905 69.101C101.013 69.0707 101.127 69.0628 101.238 69.0779C101.36 69.1038 101.469 69.1743 101.542 69.2755C101.552 69.2933 101.555 69.3144 101.55 69.3342C101.545 69.3541 101.532 69.3712 101.515 69.3819C101.501 69.3891 101.485 69.3923 101.469 69.391Z" fill="#D58745"/>
<path d="M97.2344 68.5733C97.2203 68.5734 97.2065 68.5694 97.1947 68.5619C97.1828 68.5543 97.1734 68.5435 97.1675 68.5307C97.1182 68.4345 97.0368 68.3586 96.9375 68.3158C96.8382 68.2731 96.7271 68.2663 96.6234 68.2966C96.6044 68.3024 96.584 68.3006 96.5664 68.2915C96.5487 68.2824 96.5354 68.2668 96.5291 68.248C96.5258 68.2384 96.5244 68.2283 96.5251 68.2182C96.5257 68.2081 96.5284 68.1982 96.533 68.1891C96.5375 68.18 96.5438 68.172 96.5515 68.1654C96.5592 68.1588 96.5681 68.1538 96.5778 68.1507C96.7148 68.1077 96.8627 68.1147 96.9951 68.1703C97.1276 68.226 97.236 68.3267 97.3013 68.4547C97.3059 68.4634 97.3087 68.473 97.3096 68.4829C97.3104 68.4927 97.3092 68.5027 97.3061 68.512C97.303 68.5214 97.2979 68.5301 97.2914 68.5375C97.2848 68.5449 97.2768 68.5508 97.2678 68.555C97.2589 68.5645 97.2472 68.5709 97.2344 68.5733Z" fill="#D58745"/>
<path d="M101.609 81.016C101.857 81.016 102.059 80.8146 102.059 80.5661C102.059 80.3176 101.857 80.1162 101.609 80.1162C101.36 80.1162 101.159 80.3176 101.159 80.5661C101.159 80.8146 101.36 81.016 101.609 81.016Z" fill="#006D77"/>
<path d="M102.056 84.1867C102.304 84.1867 102.506 83.9853 102.506 83.7368C102.506 83.4883 102.304 83.2869 102.056 83.2869C101.807 83.2869 101.606 83.4883 101.606 83.7368C101.606 83.9853 101.807 84.1867 102.056 84.1867Z" fill="#006D77"/>
<path opacity="0.2" d="M92.5954 85.7949C94.0181 84.053 94.0029 81.3078 94.0029 81.3078C93.9456 80.802 93.6964 80.3374 93.3067 80.0098C93.0514 81.5237 92.7747 83.521 92.5954 85.7949Z" fill="black"/>
<path d="M87.5186 91.0024L86.5093 92.869C86.5093 92.869 86.7768 93.3006 86.6613 93.5803C86.5458 93.86 86.1566 95.2219 85.9773 95.2736C85.7979 95.3253 83.9922 94.851 84.0347 94.4862C84.0773 94.1214 84.6853 92.5194 84.8525 92.4707C85.0704 92.4255 85.2906 92.392 85.5122 92.3704L86.5336 90.1634L87.5186 91.0024Z" fill="#EBB376"/>
<path d="M93.8934 77.0062C92.1029 77.5656 89.6222 84.4178 89.0781 85.2142C88.5339 86.0107 85.7827 90.6862 85.7827 90.6862L86.9531 92.1819C86.9531 92.1819 91.5557 86.0411 91.8688 85.6307C92.1819 85.2203 93.9968 81.1528 93.9968 81.1528L93.8934 77.0062Z" fill="#006D77"/>
<path opacity="0.7" d="M93.8934 77.0062C92.1029 77.5656 89.6222 84.4178 89.0781 85.2142C88.5339 86.0107 85.7827 90.6862 85.7827 90.6862L86.9531 92.1819C86.9531 92.1819 91.5557 86.0411 91.8688 85.6307C92.1819 85.2203 93.9968 81.1528 93.9968 81.1528L93.8934 77.0062Z" fill="white"/>
<path d="M85.4453 90.6467L87.0048 92.3734L87.5338 91.8019L85.8405 89.8928L85.4453 90.6467Z" fill="#006D77"/>
<path d="M88.4093 99.1557H88.385C88.3753 99.1526 88.3664 99.1476 88.3588 99.141C88.3512 99.1343 88.3451 99.1262 88.3408 99.117C88.3365 99.1079 88.3342 99.098 88.3339 99.0879C88.3337 99.0778 88.3355 99.0677 88.3394 99.0584C88.7102 97.9822 88.1387 95.7144 85.7371 94.2826C79.9368 90.8078 73.8446 86.3938 74.9512 77.9547C74.9542 77.935 74.9648 77.9173 74.9807 77.9054C74.9966 77.8935 75.0166 77.8883 75.0363 77.8909C75.0462 77.892 75.0558 77.8951 75.0645 77.9C75.0731 77.905 75.0807 77.9116 75.0867 77.9196C75.0926 77.9276 75.0969 77.9367 75.0993 77.9464C75.1016 77.9561 75.1019 77.9662 75.1002 77.976C74.0058 86.3208 80.0584 90.7014 85.8162 94.1518C88.2877 95.6323 88.8562 97.9853 88.4822 99.1101C88.4761 99.1242 88.4659 99.1361 88.4528 99.1442C88.4398 99.1523 88.4246 99.1563 88.4093 99.1557Z" fill="#263238"/>
<path d="M75.0272 78.28C74.1973 78.2253 73.9115 79.9642 73.9115 79.9642C73.9115 79.9642 74.9026 80.3928 76.459 79.7331C76.459 79.7331 75.9058 78.3408 75.0272 78.28Z" fill="#006D77"/>
<path opacity="0.3" d="M75.0272 78.28C74.1973 78.2253 73.9115 79.9642 73.9115 79.9642C73.9115 79.9642 74.9026 80.3928 76.459 79.7331C76.459 79.7331 75.9058 78.3408 75.0272 78.28Z" fill="white"/>
<path d="M61.6269 59.2496C61.6269 67.2752 69.7802 78.432 75.2035 78.432C80.6269 78.432 88.7832 67.2752 88.7832 59.2496C88.7832 51.224 82.7032 45.7915 75.2035 45.7915C67.7038 45.7915 61.6269 51.224 61.6269 59.2496Z" fill="#006D77"/>
<path opacity="0.5" d="M61.6269 59.2496C61.6269 67.2752 69.7802 78.432 75.2035 78.432C80.6269 78.432 88.7832 67.2752 88.7832 59.2496C88.7832 51.224 82.7032 45.7915 75.2035 45.7915C67.7038 45.7915 61.6269 51.224 61.6269 59.2496Z" fill="white"/>
<path d="M75.2035 56.3038V57.9667C75.2035 57.9667 78.6539 54.0755 80.8458 54.7352C80.57 54.3741 80.2067 54.0894 79.7901 53.908C79.3736 53.7265 78.9176 53.6545 78.4654 53.6986C76.8178 53.808 75.2035 56.3038 75.2035 56.3038Z" fill="#006D77"/>
<path opacity="0.2" d="M75.2035 56.3038V57.9667C75.2035 57.9667 78.6539 54.0755 80.8458 54.7352C80.57 54.3741 80.2067 54.0894 79.7901 53.908C79.3736 53.7265 78.9176 53.6545 78.4654 53.6986C76.8178 53.808 75.2035 56.3038 75.2035 56.3038Z" fill="black"/>
<path d="M75.2035 56.3038V57.9667C75.2035 57.9667 71.7562 54.0755 69.5643 54.7352C69.8401 54.3741 70.2034 54.0894 70.62 53.908C71.0365 53.7265 71.4925 53.6545 71.9446 53.6986C73.5923 53.808 75.2035 56.3038 75.2035 56.3038Z" fill="#E6E6E6"/>
<path d="M68.8074 68.7861C71.9828 67.3038 74.787 65.131 77.0154 62.4264C80.7667 57.8968 80.7667 55.3827 78.9974 54.3765C77.2282 53.3702 75.2005 56.3038 75.2005 56.3038C75.2005 56.3038 76.8725 52.8838 79.5629 53.6925C82.2533 54.5011 82.6029 57.6445 80.9765 60.3227C76.8755 67.0563 71.136 69.5734 71.136 69.5734L68.8074 68.7861Z" fill="#006D77"/>
<path d="M81.6027 68.7861C78.4273 67.3038 75.6231 65.131 73.3947 62.4264C69.6434 57.8968 69.6434 55.3827 71.4126 54.3765C73.1819 53.3702 75.2066 56.3038 75.2066 56.3038C75.2066 56.3038 73.5346 52.896 70.832 53.6925C68.1294 54.489 67.792 57.6445 69.4184 60.3227C73.5224 67.0563 79.2528 69.5734 79.2528 69.5734L81.6027 68.7861Z" fill="white"/>
<g opacity="0.5">
<path d="M63.2502 59.0794H63.2107C63.1187 59.0658 63.0356 59.0169 62.9788 58.9432C62.9221 58.8695 62.8963 58.7766 62.9067 58.6842C62.9493 58.2859 63.004 57.8907 63.0678 57.5077C63.0728 57.4587 63.0878 57.4113 63.1118 57.3684C63.1359 57.3254 63.1686 57.2879 63.2078 57.2581C63.2469 57.2284 63.2918 57.207 63.3397 57.1953C63.3875 57.1836 63.4372 57.1819 63.4857 57.1903C63.5342 57.1986 63.5805 57.2169 63.6216 57.2439C63.6627 57.2709 63.6979 57.3061 63.7249 57.3473C63.7518 57.3885 63.77 57.4347 63.7783 57.4833C63.7866 57.5318 63.7849 57.5815 63.7731 57.6293C63.7123 57.9971 63.6576 58.3771 63.6181 58.7602C63.6082 58.8499 63.5648 58.9326 63.4966 58.9917C63.4285 59.0509 63.3405 59.0822 63.2502 59.0794Z" fill="white"/>
</g>
<g opacity="0.5">
<path d="M63.9738 55.632C63.9405 55.6364 63.9067 55.6364 63.8734 55.632C63.7822 55.6045 63.7055 55.5422 63.66 55.4585C63.6145 55.3749 63.6038 55.2766 63.6302 55.1851C65.1502 50.0171 70.4003 46.3478 75.8206 46.6731C75.9107 46.6849 75.9929 46.7303 76.0507 46.8003C76.1085 46.8702 76.1377 46.9595 76.1323 47.0501C76.1269 47.1408 76.0873 47.226 76.0216 47.2886C75.9559 47.3512 75.8689 47.3865 75.7781 47.3875C70.677 47.0835 65.7461 50.5187 64.3173 55.3858C64.2927 55.4574 64.2464 55.5196 64.1848 55.5637C64.1233 55.6078 64.0495 55.6317 63.9738 55.632Z" fill="white"/>
</g>
<path d="M54.72 73.6653L54.112 71.6315C54.112 71.6315 53.6165 71.519 53.504 71.2394C53.3915 70.9597 52.7014 69.7194 52.7896 69.5582C52.8778 69.3971 54.492 68.4517 54.72 68.7374C54.948 69.0232 55.6533 70.5888 55.5712 70.7408C55.4891 70.8928 55.176 71.2789 55.176 71.2789L56.0181 73.5589L54.72 73.6653Z" fill="#EBB376"/>
<path d="M49.1264 77.672C51.5006 78.429 54.2488 80.1526 54.793 79.5416C55.3371 78.9306 54.3248 72.58 54.3248 72.58H56.0424C56.0424 72.58 58.9334 80.4202 56.6504 82.1013C54.6075 83.6 49.0504 80.9582 49.0504 80.9582L49.1264 77.672Z" fill="#006D77"/>
<path opacity="0.7" d="M56.6413 82.1104C55.6654 82.8218 53.9053 82.5998 52.3093 82.1682L51.984 82.08C50.9791 81.7837 49.9967 81.416 49.0443 80.9795L49.0808 79.569V79.3805L49.1264 77.6811C51.5006 78.4381 54.2488 80.1648 54.793 79.5507C55.3371 78.9366 54.3248 72.5891 54.3248 72.5891H56.0454C56.0454 72.5891 58.9365 80.4293 56.6413 82.1104Z" fill="white"/>
<path d="M56.4498 72.4493L54.1242 72.3338L54.1576 73.112L56.7051 73.2579L56.4498 72.4493Z" fill="#006D77"/>
<path opacity="0.2" d="M52.3093 82.1682L51.984 82.08C50.9791 81.7837 49.9967 81.416 49.0443 80.9795L49.0808 79.569C50.0384 79.952 51.8198 80.8214 52.3093 82.1682Z" fill="black"/>
<path d="M52.0053 122.558L49.6584 120.992C49.6204 120.964 49.5729 120.952 49.5263 120.959C49.4796 120.966 49.4375 120.991 49.4091 121.028L48.0472 122.816C47.9835 122.912 47.9599 123.03 47.9815 123.143C48.0031 123.257 48.0681 123.358 48.1627 123.424C48.9926 123.959 49.4122 124.175 50.4518 124.859C51.0872 125.281 52.3002 126.178 53.2608 126.619C54.2214 127.06 54.6288 126.102 54.264 125.832C53.3946 125.181 52.5616 123.78 52.285 122.922C52.2343 122.773 52.136 122.645 52.0053 122.558Z" fill="#263238"/>
<path d="M52.5069 123.424C52.3218 123.293 52.1515 123.142 51.9992 122.974C51.9932 122.965 51.99 122.955 51.99 122.944C51.99 122.933 51.9932 122.922 51.9992 122.913C52.0033 122.903 52.0104 122.894 52.0196 122.887C52.0288 122.881 52.0396 122.877 52.0509 122.877C52.1512 122.877 53.0146 122.877 53.203 123.138C53.2242 123.169 53.2373 123.205 53.241 123.242C53.2447 123.279 53.239 123.317 53.2243 123.351C53.2114 123.41 53.1815 123.463 53.1382 123.505C53.0949 123.547 53.0402 123.574 52.9811 123.585C52.8083 123.594 52.6386 123.536 52.5069 123.424ZM53.0906 123.214C52.9872 123.068 52.5221 123.011 52.1786 123.004C52.5008 123.327 52.7866 123.5 52.9477 123.47C52.9836 123.46 53.0164 123.441 53.043 123.415C53.0696 123.389 53.0891 123.356 53.0997 123.321C53.1087 123.304 53.1135 123.286 53.1135 123.267C53.1135 123.249 53.1087 123.231 53.0997 123.214H53.0906Z" fill="#006D77"/>
<path d="M52.0114 122.971C52.0035 122.974 51.9949 122.974 51.987 122.971C51.9825 122.963 51.9801 122.953 51.9801 122.944C51.9801 122.934 51.9825 122.925 51.987 122.916C51.987 122.898 52.3579 122.257 52.7045 122.193C52.7493 122.185 52.7953 122.188 52.8389 122.201C52.8826 122.213 52.9229 122.236 52.9568 122.266C52.9983 122.294 53.0289 122.336 53.0433 122.384C53.0577 122.432 53.055 122.484 53.0358 122.53C52.9294 122.789 52.3245 123.02 52.0357 123.001C52.0287 123 52.0225 122.996 52.018 122.991C52.0136 122.985 52.0112 122.978 52.0114 122.971ZM52.8534 122.333C52.8342 122.319 52.8124 122.31 52.7894 122.305C52.7664 122.3 52.7427 122.3 52.7197 122.305C52.513 122.342 52.2667 122.676 52.1421 122.877C52.4418 122.844 52.7195 122.704 52.9234 122.482C52.9328 122.458 52.9334 122.431 52.925 122.406C52.9167 122.382 52.8999 122.361 52.8778 122.348L52.8534 122.333Z" fill="#006D77"/>
<path d="M52.9264 91.1544C52.9264 91.1544 56.4589 101.84 57.0608 107.312C57.6627 112.784 52.0053 122.564 52.0053 122.564L49.6584 120.992C49.6584 120.992 51.9901 111.601 52.2242 109.495C52.4582 107.388 43.8733 93.024 43.8733 93.024L52.9264 91.1544Z" fill="#006D77"/>
<path d="M50.0414 92.4342C50.0414 92.799 48.5579 101.448 48.5579 101.448L45.0194 123.868L41.8821 124.041C41.8821 124.041 42.1466 108.397 41.8821 105.354C41.6176 102.311 41.2741 100.363 41.2741 100.363C41.2741 100.363 39.7541 96.1522 40.2891 93.1091C40.8242 90.0661 50.0414 92.4342 50.0414 92.4342Z" fill="#006D77"/>
<path d="M54.1546 92.7413C54.1546 92.7413 50.8106 84.4755 50.388 79.6358C50.3411 79.0735 50.1053 78.5436 49.7189 78.1324C49.3325 77.7212 48.8183 77.4528 48.26 77.371C46.9279 77.2055 45.5797 77.2157 44.2502 77.4014C39.7419 77.9517 37.8024 79.3318 37.8024 79.3318C37.8024 79.3318 37.693 87.5186 39.3862 95.0426L54.1546 92.7413Z" fill="#006D77"/>
<path opacity="0.7" d="M54.1576 92.7413L39.3832 95.0426C38.7875 92.299 38.3702 89.5196 38.1338 86.7221C37.9878 85.0866 37.9027 83.6091 37.8571 82.4114C37.7811 80.5235 37.7963 79.3318 37.7963 79.3318C37.7963 79.3318 39.292 78.2709 42.6938 77.6386C41.9976 77.8514 41.4413 78.2466 41.2771 78.9154C41.2771 78.9154 43.9158 80.7394 45.8371 80.3198C47.7584 79.9003 46.9406 77.6264 46.9406 77.6264C46.0222 77.4602 45.0891 77.3889 44.156 77.4136H44.2563C45.5858 77.2278 46.9339 77.2176 48.2661 77.3832C48.8242 77.4655 49.3381 77.734 49.7244 78.1451C50.1106 78.5563 50.3467 79.0859 50.3941 79.648C50.8045 84.4755 54.1576 92.7413 54.1576 92.7413Z" fill="white"/>
<path d="M39.3832 95.0426V95.684L54.3947 93.3067L54.1546 92.7413L39.3832 95.0426Z" fill="#006D77"/>
<path opacity="0.5" d="M39.3832 95.0426V95.684L54.3947 93.3067L54.1546 92.7413L39.3832 95.0426Z" fill="white"/>
<path d="M45.7794 76.2189C45.7336 76.4875 45.7414 76.7625 45.8025 77.0281C45.8635 77.2937 45.9766 77.5446 46.135 77.7662C46.1914 77.8447 46.2523 77.9198 46.3174 77.9912C46.4218 78.1001 46.5336 78.2016 46.6518 78.2952C46.6518 78.2952 46.9558 79.6845 45.6061 79.8152C43.5632 80.0341 41.6875 78.663 41.6875 78.663C41.9574 78.1967 42.1259 77.6787 42.182 77.1428C42.238 76.6069 42.1804 76.0652 42.0128 75.5531C41.8485 75.0262 41.6001 74.5293 41.2771 74.0818L44.7458 74.6229L46.3235 74.8691C46.0471 75.2746 45.8615 75.735 45.7794 76.2189Z" fill="#EBB376"/>
<path opacity="0.2" d="M45.7794 76.2189C45.7336 76.4875 45.7414 76.7625 45.8025 77.0281C45.8635 77.2937 45.9766 77.5446 46.135 77.7662C46.1914 77.8447 46.2523 77.9198 46.3174 77.9912C44.4326 78.0368 42.8488 76.5442 42.0128 75.5592C41.8485 75.0323 41.6001 74.5354 41.2771 74.0878L44.7458 74.629L46.3235 74.8752C46.048 75.2789 45.8624 75.7372 45.7794 76.2189Z" fill="black"/>
<path d="M46.3418 65.056C46.3418 65.056 50.2938 67.4515 46.8312 71.1786C42.9096 75.392 46.3418 65.056 46.3418 65.056Z" fill="#263238"/>
<path d="M38.4682 71.136C39.0762 73.8386 41.043 76.6384 43.3686 76.7174C47.6246 76.8634 49.1446 75.8267 49.1446 72.6773C49.1659 69.841 47.5395 65.5971 43.9766 65.287C40.4138 64.977 37.6443 67.3846 38.4682 71.136Z" fill="#EBB376"/>
<path d="M47.0227 66.8222C45.7916 67.4543 44.4122 67.7411 43.0312 67.6522C43.0312 67.6522 41.4078 68.1629 42.0432 69.9838C42.6786 71.8048 40.6509 73.1394 40.9306 75.6261C40.9306 75.6261 38.2979 75.693 37.1062 70.3213C36.2398 66.4088 39.4501 64.375 42.9856 63.9373C45.9435 63.5603 48.336 65.3813 47.0227 66.8222Z" fill="#263238"/>
<path d="M43.6301 71.4886C43.6627 71.6019 43.7335 71.7005 43.8304 71.7675C43.9274 71.8346 44.0446 71.866 44.1621 71.8565C44.2145 71.8501 44.2647 71.832 44.3091 71.8034C44.3535 71.7748 44.3908 71.7366 44.4183 71.6916C44.4458 71.6465 44.4627 71.5959 44.4678 71.5433C44.473 71.4908 44.4661 71.4378 44.4478 71.3883C44.4153 71.2756 44.345 71.1775 44.2487 71.1105C44.1523 71.0435 44.0359 71.0117 43.9189 71.0205C43.8662 71.0264 43.8156 71.0443 43.7709 71.0727C43.7261 71.101 43.6884 71.1392 43.6606 71.1843C43.6328 71.2294 43.6156 71.2802 43.6103 71.333C43.605 71.3857 43.6118 71.4389 43.6301 71.4886Z" fill="#263238"/>
<path d="M48.336 70.7347C48.3144 70.8453 48.2556 70.9452 48.1693 71.0177C48.083 71.0902 47.9744 71.1309 47.8618 71.133C47.8122 71.1301 47.764 71.1163 47.7205 71.0925C47.677 71.0687 47.6393 71.0355 47.6102 70.9953C47.5811 70.9552 47.5613 70.909 47.5522 70.8603C47.5432 70.8115 47.5451 70.7614 47.5578 70.7134C47.5792 70.6033 47.6376 70.5038 47.7233 70.4314C47.809 70.359 47.9168 70.318 48.029 70.3152C48.0787 70.3176 48.1273 70.3311 48.1712 70.3548C48.2151 70.3784 48.2531 70.4115 48.2826 70.4517C48.312 70.4919 48.3321 70.5382 48.3413 70.5872C48.3506 70.6361 48.3487 70.6865 48.336 70.7347Z" fill="#263238"/>
<path d="M44.308 69.388C44.329 69.3628 44.3427 69.3323 44.3475 69.2998C44.3461 69.2581 44.329 69.2184 44.2998 69.1886C44.2705 69.1588 44.2312 69.141 44.1894 69.1387C43.938 69.1312 43.6886 69.1848 43.4625 69.2949C43.2364 69.405 43.0404 69.5684 42.8914 69.771C42.88 69.7884 42.8721 69.8078 42.8683 69.8282C42.8644 69.8486 42.8646 69.8696 42.8688 69.8899C42.8731 69.9103 42.8813 69.9295 42.8929 69.9467C42.9046 69.9639 42.9196 69.9785 42.937 69.9899C42.9726 70.0107 43.0147 70.0175 43.0551 70.0091C43.0956 70.0007 43.1314 69.9776 43.1558 69.9443C43.2776 69.7856 43.4361 69.6589 43.6178 69.5752C43.7995 69.4915 43.9988 69.4533 44.1986 69.464C44.221 69.4595 44.2424 69.4504 44.2612 69.4374C44.28 69.4243 44.2959 69.4075 44.308 69.388Z" fill="#263238"/>
<path d="M48.1931 68.7344C48.2244 68.7215 48.2516 68.7005 48.2722 68.6736C48.291 68.6363 48.2949 68.5931 48.2831 68.553C48.2712 68.5129 48.2445 68.4788 48.2083 68.4578C47.991 68.3319 47.7465 68.2604 47.4957 68.2492C47.2448 68.2381 46.9949 68.2878 46.7674 68.3939C46.7303 68.4133 46.7025 68.4466 46.69 68.4865C46.6774 68.5264 46.6812 68.5696 46.7005 68.6067C46.7216 68.6428 46.7554 68.6698 46.7954 68.6821C46.8353 68.6945 46.8785 68.6915 46.9163 68.6736C47.099 68.592 47.2987 68.556 47.4984 68.5687C47.698 68.5814 47.8916 68.6424 48.0624 68.7466C48.0838 68.7538 48.1065 68.7565 48.1291 68.7544C48.1516 68.7523 48.1734 68.7455 48.1931 68.7344Z" fill="#263238"/>
<path d="M46.7947 70.5675L46.7066 72.0875C47.0873 72.1111 47.4664 72.02 47.7949 71.8261C47.3875 71.4711 47.0485 71.0445 46.7947 70.5675Z" fill="#D58745"/>
<path d="M41.7878 72.352C41.7878 72.352 40.7938 70.7925 40.0155 71.4643C39.2373 72.1362 39.8666 74.8965 41.1525 74.6867C42.4384 74.477 42.5174 73.1454 41.7878 72.352Z" fill="#EBB376"/>
<path d="M47.2781 72.808C47.1082 73.2023 46.968 73.6088 46.8586 74.024C46.7856 74.024 46.7096 74.024 46.6366 73.9997C45.6243 73.8872 45.1926 73.5011 45.0194 73.109C44.9409 72.9165 44.9097 72.708 44.9282 72.501C44.9341 72.3819 44.9566 72.2642 44.995 72.1514C45.4966 72.5314 46.4299 72.7077 46.9315 72.7837C47.1443 72.7989 47.2781 72.808 47.2781 72.808Z" fill="#263238"/>
<path d="M46.9315 72.7654L46.8008 73.115C45.8493 73.0086 45.1926 72.811 44.9282 72.4827C44.9341 72.3636 44.9566 72.246 44.995 72.1331C45.4966 72.5131 46.4299 72.6894 46.9315 72.7654Z" fill="white"/>
<path d="M46.6366 73.9875C45.6243 73.875 45.1926 73.489 45.0194 73.0968C45.4036 73.1473 45.776 73.2645 46.1198 73.4434C46.3438 73.5675 46.5242 73.7575 46.6366 73.9875Z" fill="#DE5753"/>
<path d="M46.3478 65.5181C47.8891 65.6549 47.6581 67.5397 45.8402 68.0595L46.281 67.4515C46.281 67.4515 44.913 68.5459 43.5632 68.1872C43.7907 68.0785 43.988 67.9154 44.1375 67.7123C44.287 67.5092 44.3842 67.2724 44.4205 67.0229C44.5058 66.5815 44.7479 66.186 45.1022 65.9094C45.4565 65.6328 45.899 65.4938 46.3478 65.5181Z" fill="#263238"/>
<path d="M44.0982 72.2486C43.9843 72.2465 43.8723 72.2196 43.7699 72.1696C43.7604 72.166 43.7518 72.1604 43.7446 72.1533C43.7374 72.1462 43.7317 72.1376 43.728 72.1282C43.7243 72.1187 43.7226 72.1086 43.723 72.0985C43.7234 72.0883 43.7259 72.0784 43.7304 72.0693C43.739 72.0512 43.7543 72.0373 43.7731 72.0305C43.7919 72.0236 43.8126 72.0245 43.8307 72.0328C43.8979 72.0709 43.973 72.0926 44.0501 72.0963C44.1272 72.1 44.2041 72.0856 44.2746 72.0541C44.3483 72.0006 44.4107 71.933 44.4582 71.8553C44.5056 71.7775 44.5373 71.6911 44.5512 71.6011C44.5528 71.5911 44.5563 71.5816 44.5616 71.573C44.5669 71.5643 44.5739 71.5569 44.5821 71.5509C44.5902 71.545 44.5995 71.5407 44.6094 71.5384C44.6192 71.5361 44.6294 71.5357 44.6394 71.5373C44.6493 71.5389 44.6589 71.5424 44.6675 71.5477C44.6761 71.553 44.6836 71.5599 44.6895 71.5681C44.6955 71.5763 44.6997 71.5856 44.7021 71.5954C44.7044 71.6053 44.7048 71.6155 44.7032 71.6254C44.6854 71.7385 44.6447 71.8467 44.5835 71.9434C44.5223 72.0401 44.442 72.1233 44.3475 72.1878C44.2712 72.2296 44.1852 72.2506 44.0982 72.2486Z" fill="#D58745"/>
<path d="M48.032 71.4613C47.9252 71.4596 47.8204 71.4329 47.7258 71.3833C47.6313 71.3336 47.5498 71.2625 47.4878 71.1755C47.4821 71.1676 47.478 71.1586 47.4758 71.149C47.4736 71.1395 47.4733 71.1296 47.475 71.12C47.4767 71.1103 47.4804 71.1011 47.4857 71.0929C47.491 71.0847 47.498 71.0776 47.5061 71.0722C47.5143 71.0663 47.5235 71.0622 47.5333 71.0599C47.5431 71.0577 47.5532 71.0574 47.5631 71.0591C47.573 71.0608 47.5824 71.0644 47.5909 71.0698C47.5994 71.0752 47.6067 71.0822 47.6125 71.0904C47.6819 71.1875 47.7827 71.2577 47.8979 71.2893C48.013 71.3208 48.1355 71.3118 48.2448 71.2637C48.2634 71.2563 48.2841 71.2563 48.3027 71.2637C48.3214 71.271 48.3365 71.2851 48.3451 71.3032C48.3491 71.3126 48.3511 71.3226 48.3511 71.3328C48.3511 71.3429 48.349 71.353 48.345 71.3623C48.3411 71.3717 48.3353 71.3802 48.328 71.3872C48.3207 71.3943 48.312 71.3998 48.3026 71.4035C48.2169 71.44 48.1251 71.4596 48.032 71.4613Z" fill="#D58745"/>
<path d="M47.3936 70.5858C47.3734 70.5858 47.3541 70.5778 47.3399 70.5635C47.3256 70.5492 47.3176 70.5299 47.3176 70.5098C47.318 70.3347 47.3867 70.1667 47.5091 70.0416C47.5703 69.9938 47.6411 69.9598 47.7167 69.942C47.7922 69.9241 47.8708 69.9229 47.9469 69.9382C47.9578 69.9382 47.9685 69.9406 47.9784 69.9451C47.9883 69.9496 47.9972 69.9562 48.0043 69.9644C48.0114 69.9727 48.0167 69.9823 48.0198 69.9928C48.0229 70.0032 48.0237 70.0142 48.0221 70.025C48.0206 70.0358 48.0167 70.0461 48.0109 70.0553C48.005 70.0644 47.9972 70.0722 47.9881 70.0781C47.9789 70.084 47.9686 70.0879 47.9578 70.0894C47.947 70.091 47.936 70.0902 47.9256 70.0872C47.8728 70.0774 47.8186 70.0786 47.7663 70.0906C47.7141 70.1027 47.6648 70.1253 47.6216 70.1571C47.5322 70.2529 47.4823 70.3788 47.4818 70.5098C47.4818 70.5299 47.4738 70.5492 47.4595 70.5635C47.4452 70.5778 47.4259 70.5858 47.4058 70.5858H47.3936Z" fill="#D58745"/>
<path d="M44.4661 71.0691C44.4545 71.0695 44.4431 71.0672 44.4325 71.0625C44.422 71.0577 44.4127 71.0506 44.4053 71.0418C44.4053 71.0205 44.004 70.5523 43.6027 70.7894C43.5849 70.7996 43.5638 70.8024 43.544 70.7973C43.5241 70.7922 43.507 70.7795 43.4963 70.7621C43.4863 70.7447 43.4836 70.7241 43.4888 70.7048C43.4939 70.6854 43.5064 70.6689 43.5237 70.6587C43.9371 70.4155 44.3597 70.7378 44.5238 70.9445C44.5311 70.9513 44.5369 70.9595 44.5409 70.9687C44.5448 70.9778 44.5469 70.9877 44.5469 70.9977C44.5469 71.0076 44.5448 71.0175 44.5409 71.0267C44.5369 71.0358 44.5311 71.0441 44.5238 71.0509C44.5163 71.0582 44.5072 71.0637 44.4971 71.0669C44.4871 71.0701 44.4765 71.0708 44.4661 71.0691Z" fill="#D58745"/>
<path d="M37.617 72.1027C37.617 72.1027 38.9971 67.333 42.177 66.0866C45.3568 64.8402 47.2507 65.4086 47.2507 65.4086C47.2507 65.4086 45.4054 63.3962 44.2107 62.7699C43.016 62.1437 38.2736 62.8885 36.9603 65.892C35.647 68.8955 37.617 72.1027 37.617 72.1027Z" fill="#006D77"/>
<path d="M39.3619 68.5003C39.3619 68.5003 40.7482 63.7458 42.9187 62.8094C45.0893 61.8731 49.1446 62.1467 49.7283 63.3171C50.312 64.4875 48.1354 67.333 48.1354 67.333C48.1354 67.333 47.6611 66.047 45.5939 65.813C43.5267 65.5789 40.3043 67.184 39.3619 68.5003Z" fill="#006D77"/>
<path opacity="0.2" d="M39.3619 68.5003C39.3619 68.5003 40.7482 63.7458 42.9187 62.8094C45.0893 61.8731 49.1446 62.1467 49.7283 63.3171C50.312 64.4875 48.1354 67.333 48.1354 67.333C48.1354 67.333 47.6611 66.047 45.5939 65.813C43.5267 65.5789 40.3043 67.184 39.3619 68.5003Z" fill="black"/>
<path d="M44.7853 123.947L41.9672 123.774C41.9438 123.771 41.92 123.772 41.8973 123.779C41.8746 123.785 41.8534 123.796 41.835 123.811C41.8165 123.826 41.8013 123.844 41.79 123.865C41.7788 123.885 41.7719 123.908 41.7696 123.932L41.493 126.154C41.4854 126.271 41.5243 126.386 41.6012 126.474C41.6781 126.562 41.7866 126.617 41.9034 126.625C42.8883 126.671 43.3626 126.643 44.6029 126.713C45.3629 126.756 46.8646 126.92 47.9165 126.817C48.9683 126.713 48.8285 125.68 48.3846 125.631C47.3085 125.506 45.8827 124.719 45.2109 124.111C45.091 124.011 44.9414 123.953 44.7853 123.947Z" fill="#263238"/>
<path d="M45.6517 124.43C45.4256 124.411 45.2023 124.368 44.9859 124.3C44.975 124.297 44.9651 124.292 44.9575 124.283C44.9499 124.275 44.945 124.265 44.9434 124.254C44.943 124.242 44.9453 124.231 44.95 124.22C44.9548 124.21 44.9618 124.201 44.9707 124.193C45.0528 124.141 45.7976 123.704 46.0986 123.84C46.1321 123.857 46.161 123.881 46.1827 123.911C46.2045 123.942 46.2184 123.977 46.2232 124.014C46.2409 124.071 46.2414 124.132 46.2246 124.189C46.2078 124.246 46.1746 124.297 46.129 124.336C45.9877 124.427 45.817 124.461 45.6517 124.43ZM46.0469 123.959C45.8888 123.883 45.4571 124.068 45.1531 124.236C45.597 124.351 45.9283 124.357 46.0651 124.251C46.0919 124.224 46.1112 124.191 46.1208 124.155C46.1304 124.119 46.1301 124.08 46.1198 124.044C46.1179 124.026 46.1113 124.009 46.1006 123.994C46.09 123.979 46.0756 123.967 46.059 123.959H46.0469Z" fill="#006D77"/>
<path d="M44.992 124.303H44.9677C44.9598 124.297 44.9531 124.291 44.9478 124.283C44.9426 124.275 44.939 124.266 44.9373 124.257C44.9373 124.233 44.9373 123.5 45.1926 123.269C45.2282 123.241 45.2692 123.22 45.3132 123.208C45.3572 123.197 45.4031 123.195 45.448 123.202C45.4984 123.207 45.5458 123.228 45.5826 123.263C45.6195 123.298 45.6438 123.344 45.6517 123.394C45.6912 123.67 45.2838 124.172 45.0254 124.306C45.02 124.307 45.0142 124.308 45.0084 124.308C45.0027 124.307 44.9971 124.305 44.992 124.303ZM45.3994 123.324C45.3761 123.322 45.3527 123.325 45.3307 123.333C45.3087 123.341 45.2886 123.353 45.2717 123.369C45.1106 123.506 45.068 123.916 45.0589 124.154C45.3038 123.978 45.475 123.718 45.5392 123.424C45.5392 123.391 45.5179 123.348 45.4358 123.333L45.3994 123.324Z" fill="#006D77"/>
<path opacity="0.2" d="M38.1338 86.7221C37.9878 85.0866 37.9027 83.6091 37.8571 82.4114C38.181 82.2919 38.5177 82.2103 38.8603 82.1682C38.8603 82.1682 40.0094 85.0744 38.1338 86.7221Z" fill="black"/>
<path d="M38.9359 97.1421C41.5232 96.0704 42.7519 93.1042 41.6802 90.5169C40.6085 87.9296 37.6423 86.7009 35.0549 87.7726C32.4676 88.8443 31.239 91.8106 32.3107 94.3979C33.3824 96.9852 36.3486 98.2138 38.9359 97.1421Z" fill="#006D77"/>
<path opacity="0.2" d="M41.9307 93.6077C41.719 94.5162 41.2607 95.3486 40.6062 96.0133C39.9517 96.678 39.1265 97.1492 38.2213 97.3749C37.3162 97.6006 36.3663 97.572 35.4764 97.2925C34.5864 97.0129 33.7909 96.4931 33.1775 95.7903C32.564 95.0876 32.1565 94.2291 31.9997 93.3096C31.8429 92.39 31.9429 91.445 32.2888 90.5786C32.6347 89.7123 33.213 88.9583 33.96 88.3995C34.7071 87.8408 35.5938 87.4992 36.5226 87.4122C35.8622 87.6635 35.2725 88.0707 34.8035 88.5991C34.3345 89.1275 34.0001 89.7615 33.8289 90.447C33.6578 91.1325 33.6548 91.8492 33.8203 92.536C33.9858 93.2229 34.3149 93.8596 34.7795 94.3918C35.2442 94.9241 35.8306 95.3362 36.4888 95.593C37.147 95.8498 37.8575 95.9437 38.5598 95.8666C39.2622 95.7896 39.9355 95.544 40.5224 95.1507C41.1093 94.7573 41.5925 94.228 41.9307 93.6077Z" fill="black"/>
<path d="M32.3365 92.0178L32.9992 93.9694C32.9992 93.9694 33.9112 93.9512 34.0906 94.2126C34.2699 94.4741 34.8718 95.4894 35.0269 95.684C35.1819 95.8786 33.3883 97.049 33.3123 97.0094C33.2363 96.9699 31.9474 95.9576 31.9261 95.684C31.9048 95.4104 31.9261 94.6686 31.9261 94.6686L31.0506 92.565L32.3365 92.0178Z" fill="#EBB376"/>
<path d="M37.7994 79.344C37.7994 79.344 31.7893 83.071 30.4638 86.7312C29.1384 90.3913 31.1661 93.5894 31.1661 93.5894L33.0387 93.2003C33.0387 93.2003 32.1267 89.6496 33.0387 87.4243C33.817 85.5182 38.3222 84.3114 38.3222 84.3114C38.3222 84.3114 39.824 81.168 37.7994 79.344Z" fill="#006D77"/>
<path opacity="0.7" d="M37.7994 79.344C37.7994 79.344 31.7893 83.071 30.4638 86.7312C29.1384 90.3913 31.1661 93.5894 31.1661 93.5894L33.0387 93.2003C33.0387 93.2003 32.1267 89.6496 33.0387 87.4243C33.817 85.5182 38.3222 84.3114 38.3222 84.3114C38.3222 84.3114 39.824 81.168 37.7994 79.344Z" fill="white"/>
<path d="M30.5429 93.4222L33.1542 92.7413L33.3123 93.4222L31.011 93.9694L30.5429 93.4222Z" fill="#006D77"/>
</svg>
