<svg width="390" height="390" viewBox="0 0 390 390" fill="none" xmlns="http://www.w3.org/2000/svg">
<path opacity="0.9" d="M48.5684 98.8996C50.676 95.8553 53.0628 93.0145 55.6976 90.4132C67.889 78.3856 84.9398 72.3874 101.85 75.7024C115.89 78.4558 129.891 85.6474 139.906 95.9122C152.558 108.876 161.021 126.746 180.154 131.457C191.035 134.148 202.774 131.332 212.4 125.544C233.873 112.612 239.31 87.145 258.498 72.6448C274.238 60.7498 296.881 60.5626 311.35 74.6182C321.147 84.1186 326.17 97.5736 328.682 110.982C335.647 148.203 333.736 185.519 313.004 218.294C281.328 268.37 219.053 286.56 162.464 281.677C121.779 278.175 87.2486 256.14 65.5724 221.773C44.9492 189.083 23.8814 134.585 48.5684 98.8996Z" fill="#006D77" fill-opacity="0.2"/>
<path d="M182.927 328.39C266.452 328.39 334.162 324.436 334.162 319.56C334.162 314.684 266.452 310.73 182.927 310.73C99.403 310.73 31.6931 314.684 31.6931 319.56C31.6931 324.436 99.403 328.39 182.927 328.39Z" fill="#006D77"/>
<path d="M309.233 178.068L307.743 177.998C307.743 177.998 305.2 196.398 303.515 197.841C301.83 199.284 277.112 194.503 275.669 193.457C275.62 193.414 275.584 193.357 275.568 193.294C274.484 190.587 278.774 160.058 280.349 158.638C281.925 157.219 286.737 158.638 286.737 158.638C286.737 158.638 297.15 161.08 303.117 162.702C304.476 163.023 305.808 163.446 307.103 163.966C308.663 164.886 309.233 178.068 309.233 178.068Z" fill="#263238"/>
<path opacity="0.2" d="M303.695 176.68C303.695 176.68 301.144 195.08 299.467 196.523C298.157 197.646 282.978 195.017 275.568 193.294C274.484 190.587 278.774 160.058 280.349 158.638C281.925 157.219 286.737 158.638 286.737 158.638C286.737 158.638 297.15 161.08 303.117 162.702C304.607 163.942 303.695 176.68 303.695 176.68Z" fill="white"/>
<path d="M260.342 128.444L259.071 123.265L264.859 124.466C264.859 124.466 265.717 129.146 263.299 129.497L260.342 128.444Z" fill="#EEC1BB"/>
<path d="M260.662 118.234L265.287 120.956L264.859 124.466L259.071 123.265L260.662 118.234Z" fill="#EEC1BB"/>
<path d="M280.716 159.169C279.811 159.608 278.882 159.994 277.931 160.323C277.245 160.066 276.574 159.8 275.911 159.543C275.576 159.403 275.233 159.27 274.905 159.122C273.688 158.623 272.495 158.084 271.309 157.515L269.897 156.829C269.507 156.626 269.117 156.431 268.719 156.22C267.83 155.737 266.941 155.261 266.06 154.738C265.451 154.387 264.843 154.013 264.242 153.623C263.642 153.233 263.01 152.788 262.386 152.32L262.019 152.047C261.221 151.452 260.474 150.789 259.789 150.066C259.373 149.644 258.995 149.187 258.657 148.701C258.451 148.412 258.263 148.11 258.096 147.796C258.049 147.703 257.994 147.601 257.948 147.492C257.831 147.227 257.721 146.954 257.651 146.712C257.313 145.631 257.137 144.506 257.129 143.374C257.11 141.841 257.22 140.309 257.456 138.795C257.456 138.53 257.534 138.257 257.573 138.015C257.898 136.124 258.322 134.252 258.845 132.407C259.235 131.024 259.679 129.646 260.179 128.273L264.016 129.115C263.954 130.379 263.876 131.642 263.829 132.906C263.743 134.809 263.681 136.697 263.681 138.538V139.318C263.681 140.402 263.751 141.463 263.868 142.438C263.868 142.57 263.907 142.711 263.922 142.843C263.989 143.326 264.117 143.798 264.305 144.247C264.344 144.325 264.305 144.247 264.352 144.294C264.398 144.341 264.352 144.333 264.461 144.403C264.57 144.473 264.726 144.676 264.929 144.848C265.964 145.688 267.074 146.432 268.244 147.071H268.314C269.57 147.773 270.896 148.467 272.269 149.114L272.557 149.247C274.476 150.167 276.457 151.064 278.477 151.907C279.257 152.234 280.037 152.562 280.763 152.866C280.763 152.866 283.298 153.56 284.195 155.308C284.92 156.774 282.705 158.209 280.716 159.169Z" fill="#006D77"/>
<path opacity="0.2" d="M280.716 159.169C279.811 159.608 278.881 159.994 277.931 160.323C277.245 160.066 276.574 159.8 275.911 159.543C275.576 159.403 275.232 159.27 274.905 159.122C273.688 158.623 272.495 158.084 271.309 157.515C275.583 155.495 278.93 157.538 280.716 159.169Z" fill="black"/>
<path d="M252.94 310.114L248.018 308.328L250.725 296.464L255.654 298.25L252.94 310.114Z" fill="#EEC1BB"/>
<path d="M291.784 316.658H286.558L285.068 304.553H290.294L291.784 316.658Z" fill="#EEC1BB"/>
<path d="M285.887 316.05H292.26C292.364 316.051 292.464 316.087 292.545 316.152C292.625 316.217 292.682 316.308 292.704 316.409L293.789 321.089C293.811 321.203 293.807 321.32 293.778 321.433C293.749 321.545 293.695 321.65 293.62 321.739C293.545 321.828 293.452 321.899 293.346 321.947C293.24 321.995 293.125 322.019 293.009 322.017C290.957 321.978 289.46 321.861 286.878 321.861C285.318 321.861 280.497 322.025 278.298 322.025C276.098 322.025 275.802 319.856 276.738 319.685C280.755 318.803 283.758 317.587 285.053 316.424C285.277 316.203 285.573 316.071 285.887 316.05Z" fill="#263238"/>
<path d="M247.839 307.33L253.431 308.523C253.533 308.547 253.624 308.603 253.69 308.684C253.756 308.764 253.794 308.864 253.798 308.968L253.876 313.726C253.878 313.841 253.854 313.955 253.807 314.061C253.759 314.166 253.689 314.259 253.6 314.333C253.512 314.408 253.409 314.462 253.297 314.492C253.186 314.522 253.069 314.526 252.956 314.506C250.943 314.038 248.049 313.289 245.514 312.751C242.55 312.111 240.71 311.51 237.231 310.769C235.125 310.317 234.977 308.071 235.897 308.063C240.086 308.063 242.621 308.843 246.521 307.486C246.936 307.308 247.394 307.253 247.839 307.33Z" fill="#263238"/>
<path opacity="0.2" d="M250.725 296.464L249.329 302.579L254.258 304.373L255.654 298.258L250.725 296.464Z" fill="black"/>
<path opacity="0.2" d="M290.302 304.553H285.068L285.84 310.793H291.067L290.302 304.553Z" fill="black"/>
<path d="M247.886 300.778L256.247 303.773C256.247 303.773 262.76 275.092 266.223 259.188C267.746 252.904 269.624 246.711 271.847 240.64C275.014 231.716 278.789 222.107 281.839 214.595C285.06 206.686 287.455 201.101 287.455 201.101L269.421 197.451C269.421 197.451 255.67 237.036 252.573 252.683C249.391 268.954 247.886 300.778 247.886 300.778Z" fill="#263238"/>
<g opacity="0.3">
<path d="M247.886 300.778L256.247 303.773C256.247 303.773 262.76 275.092 266.223 259.188C267.746 252.904 269.624 246.711 271.847 240.64C275.014 231.716 278.789 222.107 281.839 214.595C285.06 206.686 287.455 201.101 287.455 201.101L269.421 197.451C269.421 197.451 255.67 237.036 252.573 252.683C249.391 268.954 247.886 300.778 247.886 300.778Z" fill="white"/>
</g>
<path opacity="0.2" d="M271.847 240.64C275.014 231.716 278.789 222.107 281.839 214.595L280.443 210.282C275.318 215.056 272.097 231.506 271.847 240.64Z" fill="black"/>
<path d="M279.179 199.424C279.179 199.424 275.966 244.555 275.771 259.898C275.552 276.691 283.407 309.584 283.407 309.584H292.985C292.985 309.584 289.155 279.905 290.435 263.267C291.854 244.657 296.877 203.005 296.877 203.005L279.179 199.424Z" fill="#263238"/>
<g opacity="0.3">
<path d="M279.179 199.424C279.179 199.424 275.966 244.555 275.771 259.898C275.552 276.691 283.407 309.584 283.407 309.584H292.985C292.985 309.584 289.155 279.905 290.435 263.267C291.854 244.657 296.877 203.005 296.877 203.005L279.179 199.424Z" fill="white"/>
</g>
<path d="M282.268 309.794H293.539L293.508 306.425L281.738 305.746L282.268 309.794Z" fill="#263238"/>
<path d="M246.77 300.668L256.754 304.132L257.846 300.91L246.926 296.932L246.77 300.668Z" fill="#263238"/>
<path d="M284.148 316.963C283.792 316.992 283.437 316.898 283.142 316.697C283.049 316.617 282.977 316.515 282.931 316.402C282.885 316.288 282.866 316.165 282.877 316.042C282.875 315.97 282.894 315.898 282.931 315.836C282.968 315.774 283.022 315.724 283.087 315.691C283.657 315.395 285.357 316.471 285.552 316.549C285.571 316.563 285.587 316.582 285.596 316.604C285.606 316.626 285.61 316.65 285.607 316.674C285.604 316.699 285.593 316.722 285.576 316.74C285.559 316.758 285.537 316.771 285.513 316.775C285.066 316.888 284.608 316.951 284.148 316.963ZM283.368 315.886C283.317 315.873 283.263 315.873 283.212 315.886C283.173 315.886 283.134 315.933 283.134 316.027C283.123 316.11 283.133 316.195 283.163 316.274C283.193 316.353 283.242 316.423 283.306 316.479C283.89 316.747 284.554 316.78 285.162 316.573C284.612 316.229 284 315.995 283.36 315.886H283.368Z" fill="#006D77"/>
<path d="M285.489 316.783H285.427C284.881 316.487 283.828 315.34 283.929 314.763C283.947 314.672 283.996 314.59 284.067 314.53C284.138 314.471 284.227 314.437 284.319 314.435C284.414 314.424 284.51 314.432 284.601 314.458C284.692 314.485 284.777 314.531 284.85 314.591C285.458 315.091 285.63 316.596 285.63 316.666C285.633 316.688 285.629 316.71 285.619 316.729C285.61 316.749 285.594 316.765 285.575 316.775C285.563 316.784 285.548 316.79 285.533 316.791C285.518 316.792 285.503 316.79 285.489 316.783ZM284.413 314.693H284.327C284.171 314.693 284.156 314.786 284.148 314.818C284.085 315.169 284.764 316.034 285.302 316.44C285.26 315.843 285.04 315.273 284.67 314.802C284.599 314.738 284.509 314.7 284.413 314.693Z" fill="#006D77"/>
<path d="M247.184 307.922C246.326 307.922 244.844 307.798 244.36 307.181C244.291 307.092 244.244 306.987 244.225 306.875C244.206 306.764 244.215 306.649 244.251 306.542C244.267 306.477 244.3 306.417 244.346 306.369C244.393 306.321 244.452 306.286 244.516 306.269C245.21 306.05 247.059 307.532 247.262 307.704C247.283 307.72 247.299 307.742 247.306 307.767C247.313 307.793 247.311 307.82 247.301 307.844C247.294 307.869 247.278 307.891 247.256 307.905C247.235 307.919 247.209 307.925 247.184 307.922ZM244.625 306.495H244.547C244.521 306.501 244.498 306.515 244.48 306.534C244.462 306.554 244.45 306.578 244.446 306.604C244.42 306.674 244.412 306.749 244.423 306.823C244.434 306.896 244.463 306.966 244.508 307.025C244.766 307.376 245.6 307.603 246.77 307.657C246.107 307.103 245.039 306.44 244.625 306.495Z" fill="#006D77"/>
<path d="M247.184 307.922C247.171 307.93 247.156 307.934 247.141 307.934C247.126 307.934 247.111 307.93 247.098 307.922C246.536 307.517 245.538 306.144 245.748 305.582C245.803 305.45 245.936 305.302 246.271 305.341C246.395 305.354 246.514 305.392 246.623 305.452C246.731 305.512 246.826 305.594 246.903 305.692C247.253 306.346 247.389 307.093 247.293 307.829C247.293 307.851 247.286 307.872 247.273 307.89C247.261 307.909 247.243 307.922 247.223 307.93L247.184 307.922ZM246.115 305.582C246.087 305.584 246.06 305.592 246.037 305.607C246.014 305.622 245.995 305.643 245.982 305.668C245.858 306.004 246.513 307.057 247.067 307.564C247.127 306.968 247.002 306.369 246.708 305.848C246.654 305.774 246.585 305.713 246.506 305.669C246.427 305.624 246.338 305.597 246.248 305.59L246.115 305.582Z" fill="#006D77"/>
<path d="M307.056 158.732C306.256 160.671 305.52 162.624 304.849 164.59C304.67 165.112 304.498 165.627 304.326 166.15C303.796 167.78 303.305 169.41 302.852 171.025C302.696 171.594 302.54 172.163 302.392 172.725C302.15 173.614 301.924 174.496 301.706 175.369C301.589 175.861 301.472 176.344 301.362 176.82C301.089 177.974 300.84 179.105 300.582 180.221C300.325 181.336 300.146 182.342 299.951 183.341C299.756 184.339 299.529 185.517 299.35 186.562C299.171 187.607 298.999 188.614 298.843 189.596C298.687 190.579 298.508 191.734 298.367 192.716C298.188 193.972 298.024 195.15 297.884 196.226C297.431 199.463 297.104 201.842 296.862 202.973L269.445 197.42C269.445 195.267 269.445 193.2 269.538 191.18C269.593 189.846 269.655 188.543 269.749 187.28C269.796 186.445 269.858 185.626 269.928 184.823C270.038 183.598 270.155 182.413 270.287 181.258C270.435 179.963 270.599 178.715 270.786 177.514C271.114 175.291 271.496 173.232 271.902 171.321C272.401 168.981 272.931 166.914 273.462 165.042C274.14 162.702 274.835 160.69 275.474 159.044C276.231 156.986 277.166 154.997 278.267 153.1C280.504 152.977 282.747 152.993 284.982 153.147C285.45 153.147 285.934 153.233 286.418 153.28C290.359 153.834 294.266 154.616 298.118 155.62C298.843 155.807 299.584 156.017 300.302 156.228C303.913 157.398 307.056 158.732 307.056 158.732Z" fill="#006D77"/>
<path d="M299.475 142.313C298.016 145.916 295.957 152.64 298.102 155.674C296.711 156.649 295.126 157.311 293.455 157.615C291.784 157.919 290.067 157.858 288.422 157.437C285.209 156.712 285.482 154.418 286.441 153.319C290.817 153.163 291.308 150.035 291.121 146.977L299.475 142.313Z" fill="#EEC1BB"/>
<path opacity="0.2" d="M296.074 144.247L291.144 146.993C291.19 147.708 291.177 148.425 291.105 149.138C292.743 149.231 295.278 147.921 295.785 146.283C296.006 145.628 296.104 144.938 296.074 144.247Z" fill="black"/>
<path d="M289.959 129.295C288.531 130.855 287.104 134.755 290.216 134.716C293.328 134.677 292.408 126.619 289.959 129.295Z" fill="#263238"/>
<path d="M301.947 137.882C300.044 142.703 299.171 145.62 295.871 147.313C290.903 149.855 285.575 145.558 286.004 140.293C286.386 135.511 289.444 128.437 294.888 128.101C296.089 128.03 297.289 128.263 298.376 128.779C299.463 129.295 300.401 130.077 301.106 131.052C301.81 132.028 302.256 133.165 302.403 134.359C302.55 135.553 302.394 136.765 301.947 137.882Z" fill="#EEC1BB"/>
<path d="M302.696 128.608H299.147L300.848 131.814C301.425 131.9 300.278 133.858 300.777 133.865C300.777 133.865 298.437 138.124 299.896 141.002C305.138 140.581 308.843 136.463 306.464 133.491C307.985 130.886 305.325 128.951 302.696 128.608Z" fill="#263238"/>
<path d="M302.509 142.601C302.133 143.124 301.657 143.567 301.108 143.903C300.558 144.239 299.948 144.462 299.311 144.559C297.611 144.809 296.971 143.225 297.603 141.72C298.188 140.363 299.771 138.6 301.402 139.045C301.756 139.147 302.08 139.336 302.344 139.594C302.608 139.852 302.803 140.172 302.913 140.525C303.023 140.877 303.043 141.252 302.973 141.614C302.902 141.977 302.743 142.316 302.509 142.601Z" fill="#EEC1BB"/>
<path d="M290.903 135.909C290.025 136.929 289.009 137.822 287.884 138.561C288.099 138.838 288.37 139.067 288.679 139.232C288.988 139.397 289.328 139.495 289.678 139.52L290.903 135.909Z" fill="#D4827D"/>
<path d="M295.926 135.761C295.881 135.752 295.839 135.732 295.805 135.701C295.771 135.671 295.745 135.633 295.731 135.589C295.638 135.292 295.477 135.021 295.26 134.797C295.043 134.574 294.777 134.404 294.483 134.302C294.451 134.294 294.421 134.28 294.395 134.26C294.369 134.24 294.347 134.216 294.33 134.187C294.314 134.159 294.303 134.128 294.298 134.095C294.293 134.063 294.295 134.03 294.303 133.998C294.312 133.966 294.326 133.936 294.346 133.91C294.365 133.884 294.39 133.862 294.418 133.845C294.447 133.829 294.478 133.818 294.51 133.813C294.543 133.809 294.576 133.81 294.608 133.819C294.976 133.947 295.309 134.16 295.58 134.44C295.851 134.72 296.052 135.061 296.168 135.433C296.19 135.495 296.187 135.564 296.16 135.624C296.132 135.684 296.081 135.73 296.019 135.753C295.989 135.76 295.957 135.762 295.926 135.761Z" fill="#263238"/>
<path d="M288.095 133.015C288.046 133.008 288.002 132.983 287.97 132.945C287.924 132.898 287.898 132.835 287.898 132.77C287.898 132.704 287.924 132.641 287.97 132.594C288.234 132.304 288.563 132.081 288.931 131.946C289.299 131.81 289.695 131.765 290.084 131.814C290.149 131.827 290.207 131.866 290.245 131.921C290.283 131.976 290.298 132.044 290.286 132.11C290.273 132.174 290.236 132.23 290.182 132.267C290.128 132.303 290.062 132.317 289.998 132.305C289.689 132.262 289.375 132.296 289.082 132.404C288.79 132.511 288.528 132.689 288.321 132.922C288.295 132.957 288.261 132.984 288.221 133C288.181 133.017 288.137 133.022 288.095 133.015Z" fill="#263238"/>
<path d="M289.109 140.472C289.474 141.297 289.779 142.146 290.021 143.015L290.489 142.96C292.626 142.695 293.531 141.868 293.89 141.034C294.057 140.621 294.121 140.174 294.077 139.731C294.061 139.48 294.008 139.234 293.921 138.998C292.876 139.778 290.903 140.207 289.834 140.378C289.389 140.449 289.109 140.472 289.109 140.472Z" fill="#263238"/>
<path d="M289.834 140.378L290.123 141.119C292.135 140.87 293.516 140.417 294.077 139.731C294.061 139.48 294.008 139.234 293.921 138.998C292.907 139.809 290.903 140.207 289.834 140.378Z" fill="white"/>
<path d="M290.489 142.96C292.626 142.695 293.531 141.868 293.89 141.034C293.07 141.152 292.277 141.416 291.55 141.814C291.087 142.078 290.717 142.478 290.489 142.96Z" fill="#DE5753"/>
<path d="M305.504 129.661C305.504 129.661 302.447 124.934 295.255 124.638C288.064 124.342 287.845 129.131 290.279 130.777L290.489 130.075C291.072 130.779 291.805 131.344 292.634 131.728V130.777C293.65 131.714 294.819 132.472 296.09 133.015V131.814C296.09 131.814 297.962 133.374 301.854 133.811C305.746 134.248 307.283 132.664 305.504 129.661Z" fill="#263238"/>
<path d="M294.085 137.024C294.046 137.025 294.007 137.013 293.975 136.991C293.943 136.969 293.919 136.937 293.906 136.9C293.879 136.789 293.828 136.685 293.756 136.596C293.685 136.507 293.595 136.435 293.492 136.385C293.362 136.331 293.217 136.331 293.087 136.385C293.042 136.408 292.99 136.414 292.94 136.401C292.891 136.388 292.849 136.357 292.821 136.315C292.804 136.271 292.803 136.222 292.819 136.178C292.835 136.133 292.866 136.096 292.907 136.073C293.016 136.009 293.137 135.97 293.262 135.958C293.388 135.946 293.514 135.961 293.633 136.003C293.795 136.073 293.938 136.181 294.052 136.316C294.165 136.451 294.246 136.611 294.288 136.783C294.303 136.831 294.3 136.884 294.278 136.93C294.257 136.977 294.218 137.013 294.171 137.032L294.085 137.024Z" fill="#263238"/>
<path d="M289.655 135.862C289.616 135.862 289.578 135.85 289.546 135.827C289.514 135.805 289.489 135.774 289.475 135.737C289.448 135.627 289.397 135.523 289.326 135.434C289.254 135.345 289.164 135.273 289.062 135.223C288.929 135.184 288.787 135.198 288.664 135.262C288.618 135.288 288.564 135.295 288.513 135.282C288.462 135.269 288.419 135.236 288.391 135.191C288.369 135.146 288.364 135.094 288.377 135.046C288.39 134.997 288.42 134.955 288.461 134.926C288.571 134.864 288.692 134.826 288.817 134.814C288.941 134.802 289.068 134.816 289.187 134.856C289.349 134.927 289.492 135.034 289.606 135.169C289.719 135.305 289.8 135.464 289.842 135.636C289.857 135.685 289.854 135.738 289.832 135.784C289.811 135.83 289.772 135.866 289.725 135.886L289.655 135.862Z" fill="#263238"/>
<path d="M302.462 156.673C302.462 156.673 297.314 172.499 301.167 187.093L300.177 188.013C300.177 188.013 293.789 172.491 299.163 155.994L302.462 156.673Z" fill="#263238"/>
<path d="M284.327 153.085C284.327 153.085 272.393 168.334 270.162 182.514L270.381 179.222C270.381 179.222 270.303 166.571 280.755 152.921L284.327 153.085Z" fill="#263238"/>
<path d="M300.809 185.611L302.829 189.097L301.487 193.645C300.526 191.286 299.868 188.814 299.529 186.289L300.809 185.611Z" fill="#263238"/>
<path d="M308.804 199.307L295.832 193.847L294.998 204.767C294.998 204.767 309.615 205.04 309.818 205.126C310.02 205.212 308.804 199.307 308.804 199.307Z" fill="#263238"/>
<path opacity="0.4" d="M308.804 199.307L295.832 193.847L294.998 204.767C294.998 204.767 309.615 205.04 309.818 205.126C310.02 205.212 308.804 199.307 308.804 199.307Z" fill="white"/>
<path d="M295.817 204.128L296.675 194.76L298.874 191.242L307.548 198.777L306.043 203.948L295.817 204.128Z" fill="#263238"/>
<path opacity="0.7" d="M295.817 204.128L296.675 194.76L298.874 191.242L307.548 198.777L306.043 203.948L295.817 204.128Z" fill="white"/>
<path d="M298.086 190.22L297.93 202.264L294.998 204.814L312.228 212.006L315.207 208.925L315.332 198.059L298.086 190.22Z" fill="#263238"/>
<path opacity="0.5" d="M298.086 190.22L297.93 202.264L294.998 204.814L312.228 212.006L315.207 208.925L315.332 198.059L298.086 190.22Z" fill="white"/>
<path d="M308.921 202.162L308.453 207.466L303.367 204.455C303.367 204.455 304.077 199.775 306.487 200.212L308.921 202.162Z" fill="#EEC1BB"/>
<path d="M305.317 211.717L301.823 207.638L303.367 204.455L308.453 207.466L305.317 211.717Z" fill="#EEC1BB"/>
<path opacity="0.2" d="M304.326 166.15C303.796 167.78 303.305 169.41 302.852 171.025C302.696 171.594 302.54 172.163 302.392 172.725C301.3 170.463 301.823 166.649 301.823 166.649L304.326 166.15Z" fill="black"/>
<path d="M310.301 161.103C311.862 162.672 313.287 164.37 314.56 166.181C316.475 168.856 318.18 171.675 319.661 174.613C320.682 176.584 321.527 178.64 322.188 180.759C322.442 181.561 322.594 182.392 322.641 183.232C322.695 184.994 321.081 187.997 318.936 191.133C317.727 192.919 316.354 194.752 315.036 196.429C312.142 200.103 309.576 203.02 309.576 203.02L305.676 200.29C305.676 200.29 307.602 196.78 309.576 192.989C310.629 190.985 311.69 188.894 312.47 187.21C313.02 186.187 313.439 185.1 313.718 183.973C313.729 183.628 313.702 183.282 313.64 182.943C313.343 181.297 308.515 171.048 301.885 166.649L304.225 158.069C305.855 157.609 308.039 158.88 310.301 161.103Z" fill="#006D77"/>
<path d="M231.108 180.899C234.283 182.974 228.066 191.819 220.867 190.579C213.667 189.339 214.525 183.598 215.828 181.477C217.13 179.355 223.76 176.095 231.108 180.899Z" fill="#006D77"/>
<path opacity="0.3" d="M231.108 180.899C234.283 182.974 228.066 191.819 220.867 190.579C213.667 189.339 214.525 183.598 215.828 181.477C217.13 179.355 223.76 176.095 231.108 180.899Z" fill="black"/>
<path d="M221.592 178.825C221.592 178.825 230.125 185.111 231.053 190.579C231.982 196.047 221.335 200.337 213.62 199.424C205.906 198.512 199.112 184.893 199.112 184.893C199.112 184.893 214.127 185.213 221.592 178.825Z" fill="#006D77"/>
<path opacity="0.2" d="M221.592 178.825C221.592 178.825 230.125 185.111 231.053 190.579C231.982 196.047 221.335 200.337 213.62 199.424C205.906 198.512 199.112 184.893 199.112 184.893C199.112 184.893 214.127 185.213 221.592 178.825Z" fill="black"/>
<path d="M220.367 182.459C220.367 182.459 219.868 174.862 231.124 180.899C231.124 180.899 225.96 177.389 221.108 178.045C216.257 178.7 211.202 183.871 205.867 183.364C200.532 182.857 203.324 189.183 203.324 189.183C203.324 189.183 215.212 188.27 220.367 182.459Z" fill="#006D77"/>
<path d="M197.537 146.384C200.056 140.78 202.183 135.007 203.902 129.107C204.409 127.001 204.12 124.778 203.902 122.524C203.566 119.693 203.051 116.721 202.521 113.827L206.156 112.509C208.468 116.774 210.05 121.395 210.836 126.182C211.099 128.035 211.022 129.919 210.61 131.744C209.383 137.975 207.368 144.025 204.611 149.746L197.591 146.384H197.537Z" fill="#FFB573"/>
<path d="M194.627 146.852C198.098 144.427 201.039 137.976 201.039 137.976L208.176 142.352C208.176 142.352 204.877 149.785 204.159 154.606C203.753 157.531 194.627 146.852 194.627 146.852Z" fill="#263238"/>
<path opacity="0.2" d="M200.633 153.124C202.451 154.762 204.019 155.776 204.198 154.598C204.337 153.69 204.53 152.792 204.775 151.907C203.726 150.76 202.479 149.811 201.094 149.107C200.731 150.413 200.576 151.769 200.633 153.124Z" fill="black"/>
<path d="M191.195 294.343L196.328 294.631L199.081 282.869L193.957 282.58L191.195 294.343Z" fill="#FFB573"/>
<path d="M196.39 293.461L192.147 289.561C192.072 289.497 191.977 289.462 191.878 289.462C191.779 289.462 191.684 289.497 191.609 289.561L188.029 292.478C187.942 292.555 187.873 292.65 187.825 292.755C187.778 292.861 187.753 292.975 187.753 293.091C187.753 293.206 187.778 293.321 187.825 293.426C187.873 293.532 187.942 293.626 188.029 293.703C189.526 295.045 190.322 295.614 192.186 297.338C193.34 298.391 196.523 301.55 198.114 303.016C199.705 304.483 201.234 303.016 200.696 302.236C198.356 298.867 197.045 296.066 196.796 294.311C196.767 293.989 196.623 293.687 196.39 293.461Z" fill="#263238"/>
<g opacity="0.2">
<path d="M199.081 282.869L197.662 288.937L192.529 288.649L193.949 282.588L199.081 282.869Z" fill="black"/>
</g>
<path d="M199.307 147.344C199.307 147.344 206.507 156.322 206.866 178.497C198.832 180.509 190.486 181.024 186.586 182.007C184.862 173.684 183.653 168.583 175.478 152.663C178.137 151.374 180.888 150.281 183.707 149.395C186.711 148.397 189.781 147.616 192.896 147.055C195.026 146.648 197.222 146.747 199.307 147.344Z" fill="#FFB573"/>
<path d="M182.046 138.826C183.364 141.634 185.306 146.907 183.731 149.395C183.731 149.395 185.291 152.195 190.751 150.815C196.796 149.302 192.888 147.094 192.888 147.094C189.394 147.133 188.863 144.668 188.863 142.227L182.046 138.826Z" fill="#FFB573"/>
<path d="M183.707 149.403C186.71 148.402 189.78 147.62 192.896 147.063L193.512 146.977C194.596 148.178 195.314 150.269 194.347 153.849C194.347 153.849 185.47 152.624 182.514 149.754C182.927 149.653 183.333 149.52 183.707 149.403Z" fill="#FFB573"/>
<path opacity="0.2" d="M184.838 140.215L188.894 142.219C188.88 142.791 188.922 143.363 189.019 143.927C187.709 144.06 185.634 143.147 185.166 141.821C184.962 141.31 184.851 140.765 184.838 140.215Z" fill="black"/>
<path d="M206.905 179.035C206.905 179.035 210.407 218.659 209.853 234.322C209.276 250.608 198.629 287.635 198.629 287.635L191.679 287.533C191.679 287.533 197.443 251.396 197.053 235.39C196.624 217.934 191.593 178.825 191.593 178.825L206.905 179.035Z" fill="#006D77"/>
<path opacity="0.2" d="M206.905 179.035C206.905 179.035 210.407 218.659 209.853 234.322C209.276 250.608 198.629 287.635 198.629 287.635L191.679 287.533C191.679 287.533 197.443 251.396 197.053 235.39C196.624 217.934 191.593 178.825 191.593 178.825L206.905 179.035Z" fill="white"/>
<path d="M191.071 287.775L199.222 287.892L199.861 285.295L190.735 284.858L191.071 287.775Z" fill="#006D77"/>
<path opacity="0.2" d="M197.747 188.754C202.724 199.136 198.371 217.879 196.46 224.852C195.68 214.33 194.292 201.452 193.2 192.014C194.074 186.695 195.47 183.965 197.747 188.754Z" fill="black"/>
<path d="M147.125 247.917L148.795 252.776L160.658 250.702L158.997 245.842L147.125 247.917Z" fill="#FFB573"/>
<path d="M150.167 252.948L149.84 247.184C149.834 247.08 149.794 246.981 149.726 246.902C149.658 246.824 149.567 246.769 149.465 246.747L144.832 245.756C144.721 245.73 144.605 245.732 144.494 245.76C144.383 245.789 144.281 245.844 144.195 245.92C144.11 245.997 144.045 246.093 144.005 246.2C143.965 246.308 143.952 246.423 143.966 246.536C144.107 248.549 144.286 249.524 144.427 252.059C144.512 253.619 144.598 258.088 144.723 260.241C144.848 262.394 146.993 262.659 147.141 261.801C147.781 257.846 148.826 255.101 149.894 253.829C149.996 253.708 150.073 253.568 150.12 253.416C150.167 253.265 150.183 253.106 150.167 252.948Z" fill="#263238"/>
<g opacity="0.2">
<path d="M160.658 250.702L154.543 251.77L152.874 246.911L158.989 245.842L160.658 250.702Z" fill="black"/>
</g>
<path d="M201.133 178.973C201.133 178.973 194.893 219.736 190.79 235.047C186.554 250.967 156.571 251.918 156.571 251.918L153.607 245.632C153.607 245.632 171.165 241.225 178.864 230.812C182.366 213.652 185.884 178.762 185.884 178.762L201.133 178.973Z" fill="#006D77"/>
<path opacity="0.2" d="M201.133 178.973C201.133 178.973 194.893 219.736 190.79 235.047C186.554 250.967 156.571 251.918 156.571 251.918L153.607 245.632C153.607 245.632 171.165 241.225 178.864 230.812C182.366 213.652 185.884 178.762 185.884 178.762L201.133 178.973Z" fill="white"/>
<path d="M153.264 245.023L155.83 252.761L158.599 252.831L156.033 244.103L153.264 245.023Z" fill="#006D77"/>
<path d="M149.387 254.804C149.374 255.258 149.508 255.704 149.77 256.076C149.845 256.162 149.939 256.231 150.044 256.276C150.149 256.322 150.263 256.344 150.378 256.341C150.443 256.342 150.508 256.325 150.564 256.292C150.62 256.259 150.666 256.211 150.698 256.154C151.01 255.553 149.84 253.432 149.707 253.19C149.694 253.167 149.674 253.148 149.651 253.136C149.628 253.123 149.601 253.118 149.575 253.12C149.551 253.121 149.53 253.131 149.513 253.146C149.496 253.162 149.484 253.183 149.481 253.205C149.399 253.734 149.368 254.27 149.387 254.804ZM150.503 255.803C150.525 255.874 150.525 255.95 150.503 256.021C150.493 256.045 150.475 256.065 150.452 256.078C150.43 256.09 150.404 256.095 150.378 256.091C150.303 256.098 150.228 256.086 150.159 256.058C150.09 256.029 150.028 255.985 149.98 255.928C149.676 255.592 149.582 254.75 149.707 253.588C150.096 254.276 150.368 255.025 150.511 255.803H150.503Z" fill="#006D77"/>
<path d="M149.489 253.229C149.485 253.247 149.485 253.265 149.489 253.283C149.801 253.915 150.986 255.202 151.564 255.155C151.704 255.155 151.868 255.054 151.883 254.719C151.889 254.593 151.87 254.468 151.827 254.351C151.784 254.233 151.719 254.125 151.634 254.032C151.061 253.538 150.356 253.221 149.606 253.12C149.586 253.115 149.565 253.117 149.546 253.123C149.526 253.13 149.509 253.143 149.497 253.159C149.49 253.169 149.486 253.181 149.484 253.193C149.483 253.205 149.484 253.217 149.489 253.229ZM151.649 254.633V254.703C151.649 254.921 151.548 254.929 151.525 254.929C151.174 254.929 150.253 254.079 149.832 253.432C150.439 253.531 151.004 253.801 151.462 254.212C151.569 254.328 151.634 254.476 151.649 254.633Z" fill="#006D77"/>
<path d="M197.201 295.435C197.5 295.758 197.898 295.973 198.332 296.043C198.442 296.045 198.551 296.019 198.649 295.969C198.747 295.919 198.831 295.845 198.894 295.754C198.939 295.704 198.969 295.643 198.981 295.577C198.994 295.511 198.988 295.443 198.964 295.38C198.738 294.701 196.523 294.077 196.265 294.015C196.241 294.007 196.215 294.008 196.191 294.016C196.167 294.025 196.147 294.041 196.133 294.062C196.12 294.083 196.113 294.107 196.113 294.132C196.113 294.157 196.12 294.181 196.133 294.202C196.451 294.645 196.809 295.057 197.201 295.435ZM198.598 295.271C198.659 295.319 198.705 295.384 198.73 295.458C198.745 295.48 198.753 295.506 198.753 295.532C198.753 295.559 198.745 295.584 198.73 295.606C198.689 295.666 198.634 295.714 198.571 295.748C198.507 295.782 198.436 295.8 198.364 295.801C197.942 295.801 197.287 295.255 196.577 294.35C197.298 294.541 197.981 294.852 198.598 295.271Z" fill="#006D77"/>
<path d="M196.187 294.218C196.193 294.221 196.2 294.223 196.207 294.223C196.214 294.223 196.22 294.221 196.226 294.218C196.866 294.436 198.512 294.436 198.832 293.945C198.91 293.828 198.956 293.641 198.73 293.383C198.65 293.292 198.552 293.218 198.442 293.165C198.332 293.113 198.212 293.084 198.091 293.079C197.373 293.183 196.707 293.51 196.187 294.015C196.178 294.033 196.174 294.053 196.174 294.074C196.174 294.094 196.178 294.114 196.187 294.132C196.182 294.146 196.179 294.16 196.179 294.175C196.179 294.19 196.182 294.204 196.187 294.218ZM198.527 293.516C198.547 293.532 198.566 293.55 198.582 293.57C198.73 293.734 198.676 293.812 198.66 293.836C198.465 294.132 197.272 294.218 196.554 294.07C196.986 293.673 197.531 293.421 198.114 293.352C198.245 293.369 198.368 293.426 198.465 293.516H198.527Z" fill="#006D77"/>
<path d="M185.642 179.441L185.455 181.25C185.408 181.399 185.611 181.523 185.852 181.508L207.263 179.948C207.451 179.948 207.591 179.831 207.583 179.722L207.427 177.935C207.427 177.811 207.232 177.717 207.029 177.733L185.969 179.293C185.906 179.284 185.842 179.293 185.784 179.319C185.726 179.345 185.677 179.388 185.642 179.441Z" fill="#006D77"/>
<path opacity="0.7" d="M185.642 179.441L185.455 181.25C185.408 181.399 185.611 181.523 185.852 181.508L207.263 179.948C207.451 179.948 207.591 179.831 207.583 179.722L207.427 177.935C207.427 177.811 207.232 177.717 207.029 177.733L185.969 179.293C185.906 179.284 185.842 179.293 185.784 179.319C185.726 179.345 185.677 179.388 185.642 179.441Z" fill="white"/>
<path d="M187.467 181.539L186.905 181.578C186.788 181.578 186.695 181.539 186.687 181.469L186.508 179.129C186.508 179.059 186.586 178.996 186.703 178.988H187.264C187.373 178.988 187.475 178.988 187.475 179.098L187.662 181.438C187.67 181.469 187.607 181.531 187.467 181.539Z" fill="#006D77"/>
<g opacity="0.2">
<path d="M187.467 181.539L186.905 181.578C186.788 181.578 186.695 181.539 186.687 181.469L186.508 179.129C186.508 179.059 186.586 178.996 186.703 178.988H187.264C187.373 178.988 187.475 178.988 187.475 179.098L187.662 181.438C187.67 181.469 187.607 181.531 187.467 181.539Z" fill="#006D77"/>
</g>
<path d="M204.276 180.299L203.707 180.346C203.597 180.346 203.504 180.299 203.496 180.236L203.309 177.896C203.309 177.826 203.395 177.764 203.504 177.756L204.073 177.717C204.182 177.717 204.284 177.756 204.284 177.818L204.471 180.158C204.471 180.229 204.385 180.291 204.276 180.299Z" fill="#006D77"/>
<path opacity="0.2" d="M204.276 180.299L203.707 180.346C203.597 180.346 203.504 180.299 203.496 180.236L203.309 177.896C203.309 177.826 203.395 177.764 203.504 177.756L204.073 177.717C204.182 177.717 204.284 177.756 204.284 177.818L204.471 180.158C204.471 180.229 204.385 180.291 204.276 180.299Z" fill="#006D77"/>
<path d="M195.868 180.923L195.306 180.962C195.197 180.962 195.095 180.923 195.095 180.853L194.908 178.513C194.908 178.442 194.994 178.38 195.103 178.372L195.665 178.333C195.782 178.333 195.875 178.372 195.883 178.442L196.063 180.782C196.07 180.853 195.985 180.915 195.868 180.923Z" fill="#006D77"/>
<path opacity="0.2" d="M195.868 180.923L195.306 180.962C195.197 180.962 195.095 180.923 195.095 180.853L194.908 178.513C194.908 178.442 194.994 178.38 195.103 178.372L195.665 178.333C195.782 178.333 195.875 178.372 195.883 178.442L196.063 180.782C196.07 180.853 195.985 180.915 195.868 180.923Z" fill="#006D77"/>
<g opacity="0.2">
<path d="M187.467 181.539L186.905 181.578C186.788 181.578 186.695 181.539 186.687 181.469L186.508 179.129C186.508 179.059 186.586 178.996 186.703 178.988H187.264C187.373 178.988 187.475 178.988 187.475 179.098L187.662 181.438C187.67 181.469 187.607 181.531 187.467 181.539Z" fill="white"/>
<g opacity="0.2">
<path d="M187.467 181.539L186.905 181.578C186.788 181.578 186.695 181.539 186.687 181.469L186.508 179.129C186.508 179.059 186.586 178.996 186.703 178.988H187.264C187.373 178.988 187.475 178.988 187.475 179.098L187.662 181.438C187.67 181.469 187.607 181.531 187.467 181.539Z" fill="white"/>
</g>
<path d="M204.276 180.299L203.707 180.346C203.597 180.346 203.504 180.299 203.496 180.236L203.309 177.896C203.309 177.826 203.395 177.764 203.504 177.756L204.073 177.717C204.182 177.717 204.284 177.756 204.284 177.818L204.471 180.158C204.471 180.229 204.385 180.291 204.276 180.299Z" fill="white"/>
<path opacity="0.2" d="M204.276 180.299L203.707 180.346C203.597 180.346 203.504 180.299 203.496 180.236L203.309 177.896C203.309 177.826 203.395 177.764 203.504 177.756L204.073 177.717C204.182 177.717 204.284 177.756 204.284 177.818L204.471 180.158C204.471 180.229 204.385 180.291 204.276 180.299Z" fill="white"/>
<path d="M195.868 180.923L195.306 180.962C195.197 180.962 195.095 180.923 195.095 180.853L194.908 178.513C194.908 178.442 194.994 178.38 195.103 178.372L195.665 178.333C195.782 178.333 195.875 178.372 195.883 178.442L196.063 180.782C196.07 180.853 195.985 180.915 195.868 180.923Z" fill="white"/>
<path opacity="0.2" d="M195.868 180.923L195.306 180.962C195.197 180.962 195.095 180.923 195.095 180.853L194.908 178.513C194.908 178.442 194.994 178.38 195.103 178.372L195.665 178.333C195.782 178.333 195.875 178.372 195.883 178.442L196.063 180.782C196.07 180.853 195.985 180.915 195.868 180.923Z" fill="white"/>
</g>
<path d="M179.612 124.287C176.375 126.167 171.142 131.518 176.773 137.625C182.405 143.732 193.832 137.297 191.866 129.77C189.901 122.243 184.238 121.604 179.612 124.287Z" fill="#263238"/>
<path d="M177.569 134.513C179.909 139.045 180.798 141.018 184.199 142.375C189.323 144.411 194.378 140.55 193.442 135.41C192.607 130.784 188.926 124.154 183.551 124.303C182.366 124.331 181.208 124.662 180.187 125.264C179.165 125.865 178.315 126.718 177.715 127.741C177.116 128.764 176.788 129.923 176.762 131.108C176.737 132.293 177.014 133.465 177.569 134.513Z" fill="#FFB573"/>
<path d="M178.474 129.653C180.556 130.55 181.009 135.597 179.254 137.625C175.627 137.633 172.265 126.97 178.474 129.653Z" fill="#263238"/>
<path d="M188.809 131.845C189.528 132.561 190.341 133.175 191.227 133.67C191.095 133.895 190.916 134.087 190.702 134.234C190.487 134.381 190.243 134.479 189.986 134.521L188.809 131.845Z" fill="#ED893E"/>
<path d="M178.185 139.325C178.876 140.031 179.818 140.435 180.806 140.449C182.108 140.449 182.42 139.201 181.765 138.109C181.11 137.017 179.8 136.018 178.645 136.549C178.389 136.66 178.164 136.834 177.992 137.055C177.82 137.276 177.706 137.536 177.66 137.812C177.615 138.088 177.639 138.371 177.73 138.635C177.822 138.9 177.978 139.137 178.185 139.325Z" fill="#FFB573"/>
<path d="M183.442 132.352C183.492 132.338 183.536 132.308 183.568 132.268C183.6 132.227 183.619 132.178 183.622 132.126C183.692 131.735 183.844 131.363 184.067 131.033C184.29 130.704 184.579 130.426 184.916 130.215C184.97 130.18 185.008 130.125 185.021 130.062C185.034 129.999 185.022 129.933 184.987 129.88C184.951 129.826 184.896 129.788 184.833 129.775C184.77 129.762 184.705 129.774 184.651 129.809C184.241 130.057 183.89 130.39 183.62 130.785C183.351 131.181 183.171 131.631 183.091 132.103C183.089 132.168 183.112 132.231 183.156 132.279C183.2 132.327 183.26 132.356 183.325 132.36L183.442 132.352Z" fill="#263238"/>
<path d="M190.252 128.039C190.292 128.026 190.328 128.004 190.358 127.974C190.388 127.944 190.41 127.907 190.423 127.867C190.44 127.804 190.431 127.737 190.399 127.68C190.367 127.623 190.314 127.581 190.252 127.563C189.882 127.451 189.491 127.428 189.111 127.497C188.731 127.567 188.374 127.726 188.068 127.961C188.043 127.982 188.024 128.007 188.01 128.036C187.995 128.065 187.987 128.096 187.985 128.128C187.983 128.159 187.987 128.191 187.997 128.222C188.007 128.252 188.023 128.28 188.044 128.304C188.065 128.328 188.091 128.348 188.119 128.362C188.148 128.376 188.179 128.385 188.211 128.387C188.243 128.389 188.275 128.385 188.305 128.375C188.335 128.365 188.363 128.348 188.387 128.327C188.631 128.144 188.916 128.021 189.217 127.969C189.518 127.918 189.828 127.939 190.119 128.031C190.162 128.045 190.207 128.048 190.252 128.039Z" fill="#263238"/>
<path d="M190.634 135.745C190.469 136.472 190.354 137.21 190.291 137.953H189.901C188.122 138.077 187.256 137.547 186.835 136.923C186.637 136.613 186.517 136.26 186.484 135.893C186.453 135.687 186.453 135.476 186.484 135.269C187.614 135.679 188.819 135.844 190.018 135.753C190.4 135.769 190.634 135.745 190.634 135.745Z" fill="#263238"/>
<path d="M190.025 135.784L189.908 136.432C188.239 136.541 187.038 136.393 186.484 135.925C186.453 135.718 186.453 135.507 186.484 135.301C187.617 135.712 188.824 135.877 190.025 135.784Z" fill="white"/>
<path d="M189.901 137.984C188.122 138.109 187.256 137.578 186.835 136.954C187.513 136.921 188.191 137.006 188.84 137.204C189.266 137.347 189.637 137.619 189.901 137.984Z" fill="#DE5753"/>
<path d="M186.383 131.845L186.898 131.416C186.898 131.416 186.773 132.142 186.297 132.118C186.041 132.058 185.771 132.097 185.543 132.229C185.316 132.361 185.147 132.576 185.072 132.828C185.049 131.564 186.047 131.744 186.383 131.845Z" fill="#263238"/>
<path d="M190.423 130.098L190.938 129.669C190.938 129.669 190.813 130.394 190.337 130.371C190.081 130.312 189.812 130.353 189.585 130.485C189.358 130.616 189.189 130.829 189.113 131.081C189.089 129.833 190.08 129.997 190.423 130.098Z" fill="#263238"/>
<path d="M180.073 133.327C180.073 133.327 181.711 130.098 180.26 127.267C181.092 128.156 181.602 129.298 181.711 130.511C182.359 129.68 183.115 128.938 183.957 128.304C183.774 127.235 183.39 126.211 182.826 125.285C183.284 125.617 183.667 126.04 183.953 126.527C184.239 127.014 184.421 127.556 184.487 128.117C184.555 127.108 184.31 126.103 183.785 125.239C184.642 125.807 185.278 126.652 185.587 127.633L187.327 126.986C187.327 126.986 186.937 125.379 186.125 124.942C186.903 125.374 187.606 125.927 188.208 126.58C188.208 126.58 189.838 126.463 190.213 126.947C189.873 126.193 189.364 125.528 188.726 125.003C188.087 124.478 187.336 124.108 186.531 123.92C187.95 124.037 189.315 124.518 190.493 125.317C190.493 125.317 188.302 121.69 182.327 123.234C176.352 124.778 175.127 129.053 175.057 130.847C174.987 132.641 180.073 133.327 180.073 133.327Z" fill="#263238"/>
<path d="M176.773 127.493C175.426 126.542 173.854 125.959 172.213 125.8C170.572 125.641 168.917 125.913 167.413 126.588C161.86 128.85 164.738 140.737 171.118 145.597C177.499 150.456 180.962 147.469 180.962 147.469C180.962 147.469 177.514 148.888 174.316 145.043C175.272 145.709 176.361 146.161 177.508 146.367C178.655 146.573 179.833 146.528 180.962 146.236L179.129 145.776L180.962 145.097C180.158 145.23 179.336 145.198 178.545 145.004C177.754 144.809 177.01 144.456 176.36 143.966C176.36 143.966 178.505 144.583 179.901 143.966C179.901 143.966 172.764 143.654 170.806 137.079C168.848 130.504 175.9 131.479 175.9 131.479L176.773 127.493Z" fill="#263238"/>
<path d="M202.154 113.024L199.877 109.428L205.079 109.912C205.079 109.912 206.405 112.93 205.079 114.592L204.58 114.529C204.09 114.473 203.618 114.309 203.198 114.049C202.779 113.789 202.422 113.439 202.154 113.024Z" fill="#FFB573"/>
<path d="M199.627 105.622L204.003 105.356L205.079 109.912L199.877 109.428L199.627 105.622Z" fill="#FFB573"/>
<path d="M208.472 174.433L185.314 180.899C183.996 176.016 182.359 171.225 180.416 166.555C179.332 163.88 178.286 161.509 177.428 159.535C177.428 159.457 177.366 159.379 177.327 159.301C175.767 155.612 174.831 153.256 175.486 152.687C177.046 151.337 182.553 149.317 182.553 149.317C182.553 149.317 189.339 153.28 193.317 151.603C195.977 150.479 194.097 146.923 194.097 146.923C197.108 144.497 198.418 144.653 199.892 146.361C200.719 147.414 201.401 148.574 201.92 149.809C205.087 156.829 207.614 169.738 208.301 173.443C208.348 173.684 208.387 173.895 208.41 174.051C208.41 174.137 208.41 174.207 208.41 174.262C208.41 174.316 208.472 174.433 208.472 174.433Z" fill="#263238"/>
<path opacity="0.7" d="M208.472 174.433L185.314 180.899C183.996 176.016 182.359 171.225 180.416 166.555C179.332 163.88 178.286 161.509 177.428 159.535C177.422 159.446 177.398 159.358 177.358 159.278L180.587 159.473L181.414 159.52C181.414 159.52 181.781 152.624 183.107 150.815C183.107 150.815 189.643 153.997 193.434 152.375C197.225 150.752 195.462 147.484 195.462 147.484C197.757 147.744 199.958 148.546 201.881 149.824H201.92C205.446 157.445 207.934 171.469 208.371 174.004C208.371 174.09 208.371 174.16 208.371 174.215C208.371 174.269 208.472 174.433 208.472 174.433Z" fill="white"/>
<path opacity="0.2" d="M180.416 166.555C179.332 163.88 178.286 161.509 177.428 159.535C177.428 159.457 177.366 159.379 177.327 159.301C178.252 158.771 179.314 158.529 180.377 158.607C180.377 158.607 180.47 158.935 180.58 159.504C181.06 161.836 181.004 164.248 180.416 166.555Z" fill="black"/>
<path d="M181.367 158.318C177.795 163.973 173.271 169.145 167.125 172.101C166.58 172.364 165.987 172.514 165.382 172.541C164.777 172.568 164.174 172.472 163.607 172.258C163.041 172.044 162.524 171.717 162.089 171.297C161.653 170.878 161.307 170.373 161.072 169.816C159.855 167.281 159.605 164.909 159.247 162.367C158.905 159.34 158.778 156.293 158.864 153.248L162.702 152.819C163.482 155.627 164.262 158.474 165.042 161.197C165.596 162.959 166.134 165.019 167.031 166.423C167.078 166.477 167.093 166.477 167.07 166.423C166.673 165.995 166.149 165.708 165.576 165.602C165.002 165.497 164.41 165.579 163.888 165.838C168.209 163.201 171.797 158.49 174.714 154.239L181.375 158.303L181.367 158.318Z" fill="#FFB573"/>
<path d="M175.946 152.453C173.887 153.186 170.284 158.81 170.284 158.81L176.82 166.337C176.82 166.337 181.672 161.86 181.445 159.02C181.219 156.181 178.286 151.595 175.946 152.453Z" fill="#263238"/>
<path d="M180.33 149.926C180.33 149.926 210.992 160.175 222.512 180.346L221.483 183.364C221.483 183.364 215.352 164.644 179.129 150.682L180.33 149.926Z" fill="#006D77"/>
<path opacity="0.3" d="M180.33 149.926C180.33 149.926 210.992 160.175 222.512 180.346L221.483 183.364C221.483 183.364 215.352 164.644 179.129 150.682L180.33 149.926Z" fill="black"/>
<path d="M157.702 143.069L171.883 148.6L171.204 161.665L154.902 155.284L156.127 143.397L157.702 143.069Z" fill="#006D77"/>
<path opacity="0.2" d="M157.702 143.069L171.883 148.6L171.204 161.665L154.902 155.284L156.127 143.397L157.702 143.069Z" fill="black"/>
<path d="M171.235 149.138L170.26 160.456L166.891 161.438L166.516 148.888L171.235 149.138Z" fill="#006D77"/>
<path opacity="0.7" d="M171.235 149.138L170.26 160.456L166.891 161.438L166.516 148.888L171.235 149.138Z" fill="white"/>
<path d="M171.883 148.6L169.644 149.684L168.544 161.899L153.755 155.947L156.127 143.397L157.702 143.069L171.883 148.6Z" fill="#006D77"/>
<path d="M166.04 164.317C165.682 163.334 165.338 162.273 165.026 161.197C164.246 158.474 163.466 155.627 162.686 152.819L158.849 153.248C158.762 156.293 158.89 159.34 159.231 162.367C159.41 163.943 159.689 165.506 160.066 167.047C160.291 167.994 160.624 168.912 161.056 169.784C161.218 170.103 161.408 170.406 161.626 170.689C161.975 171.164 162.409 171.572 162.905 171.89L163.17 172.046L163.505 172.21L163.856 172.343C163.995 172.389 164.135 172.428 164.278 172.46C164.866 172.589 165.475 172.589 166.064 172.46C166.331 172.4 166.592 172.316 166.844 172.21L167.125 172.078L167.429 171.937C167.717 171.797 167.99 171.649 168.263 171.508C168.256 171.532 166.797 163.708 166.04 164.317Z" fill="#FFB573"/>
<path d="M158.833 153.88L158.318 147.718L163.201 150.729C163.201 150.729 163.03 154.348 160.908 155.354L158.833 153.88Z" fill="#FFB573"/>
<path d="M160.651 143.592L164.605 146.338L163.201 150.729L158.318 147.726L160.651 143.592Z" fill="#FFB573"/>
<path d="M118.039 194.573C118.039 194.573 105.489 199.69 99.2099 198.761C92.9309 197.833 91.1915 213.581 99.2099 217.076C107.228 220.57 116.541 219.697 119.888 217.513C123.234 215.329 118.039 194.573 118.039 194.573Z" fill="#006D77"/>
<path opacity="0.2" d="M118.039 194.573C118.039 194.573 105.489 199.69 99.2099 198.761C92.9309 197.833 91.1915 213.581 99.2099 217.076C107.228 220.57 116.541 219.697 119.888 217.513C123.234 215.329 118.039 194.573 118.039 194.573Z" fill="black"/>
<path d="M118.039 194.573C118.039 194.573 128.421 203.699 129.045 206.476C129.669 209.252 122.15 218.098 118.554 217.481C114.958 216.865 116.214 195.509 116.214 195.509L118.039 194.573Z" fill="#006D77"/>
<path opacity="0.2" d="M118.039 194.573C118.039 194.573 128.421 203.699 129.045 206.476C129.669 209.252 122.15 218.098 118.554 217.481C114.958 216.865 116.214 195.509 116.214 195.509L118.039 194.573Z" fill="white"/>
<path d="M92.7593 161.938C98.3831 157.718 104.459 153.685 110.005 149.458C111.565 147.445 112.111 144.895 112.782 142.367C113.562 139.146 114.163 135.722 114.662 132.368L118.312 132.43C118.647 136.044 118.647 139.682 118.312 143.296C117.829 147.157 117.181 151.735 114.194 154.66C108.746 159.398 103.035 163.825 97.0883 167.92L92.7983 161.914L92.7593 161.938Z" fill="#DC897C"/>
<path d="M96.3473 172.195C101.168 172.39 111.355 160.346 111.355 160.346L104.584 153.709C100.765 155.715 97.2207 158.206 94.0385 161.119C89.3273 165.713 90.9887 171.953 96.3473 172.195Z" fill="#263238"/>
<path opacity="0.2" d="M96.3473 172.195C101.168 172.39 111.355 160.346 111.355 160.346L104.584 153.709C100.765 155.715 97.2207 158.206 94.0385 161.119C89.3273 165.713 90.9887 171.953 96.3473 172.195Z" fill="white"/>
<path opacity="0.1" d="M96.948 172.171C95.466 170.549 95.5674 168.201 98.508 164.972C101.43 161.977 104.808 159.463 108.515 157.523L111.401 160.346C111.401 160.346 101.956 171.563 96.948 172.171Z" fill="black"/>
<path d="M114.537 136.073L113.289 128.975L119.584 128.889C119.584 128.889 121.144 133.725 117.907 136.377L114.537 136.073Z" fill="#E4897B"/>
<path d="M114.872 124.123L119.584 125.176V128.912L113.289 128.998L114.872 124.123Z" fill="#E4897B"/>
<path d="M83.9531 311.846L77.3933 311.955C77.2865 311.956 77.1834 311.994 77.1011 312.062C77.0188 312.131 76.9623 312.225 76.9409 312.329L75.9503 317.15C75.9277 317.253 75.9263 317.36 75.9461 317.463C75.966 317.567 76.0067 317.666 76.0657 317.753C76.1248 317.841 76.2011 317.915 76.2898 317.972C76.3786 318.03 76.478 318.068 76.5821 318.086C76.6417 318.094 76.702 318.094 76.7615 318.086C78.8831 318.016 80.4197 317.867 83.0873 317.821C84.7253 317.821 89.6783 317.891 91.9481 317.821C94.2179 317.75 94.4675 315.543 93.5081 315.356C89.3351 314.513 86.1839 313.304 84.8345 312.134C84.5857 311.934 84.2723 311.831 83.9531 311.846Z" fill="#263238"/>
<path d="M139.247 311.846L132.695 311.955C132.587 311.955 132.482 311.992 132.398 312.06C132.314 312.128 132.257 312.223 132.235 312.329L131.252 317.15C131.23 317.252 131.228 317.359 131.247 317.462C131.267 317.565 131.307 317.663 131.365 317.751C131.423 317.838 131.499 317.913 131.586 317.971C131.674 318.028 131.773 318.067 131.876 318.086C131.936 318.094 131.996 318.094 132.056 318.086C134.177 318.016 135.722 317.867 138.382 317.821C140.02 317.821 144.973 317.891 147.242 317.821C149.512 317.75 149.77 315.543 148.802 315.356C144.629 314.513 141.478 313.304 140.129 312.134C139.88 311.934 139.566 311.831 139.247 311.846Z" fill="#263238"/>
<path d="M75.9347 312.181H84.8657C84.8657 312.181 96.2381 274.694 97.2131 265.132C98.1881 255.569 98.5469 231.592 98.5469 231.592V231.638C98.9369 232.153 102.306 236.896 106.191 242.41C111.269 249.625 117.228 258.158 118.484 260.249C122.165 266.411 131.182 312.15 131.182 312.15H140.105C140.105 312.15 137.859 271.208 133.272 257.714C128.686 244.22 108.858 214.751 108 213.168C106.901 211.148 104.202 204.736 104.202 204.736L77.4401 208.457C77.4401 208.457 77.0033 212.989 77.0345 216.951C77.1593 231.818 79.9673 251.911 80.4197 257.316C81.3011 267.62 75.9347 312.181 75.9347 312.181Z" fill="#006D77"/>
<path d="M97.9073 161.571C97.9073 161.571 105.918 175.853 104.218 204.767L77.4635 208.488C76.6835 204.409 76.5041 184.012 69.8507 165.206C72.7303 164.238 75.6692 163.456 78.6491 162.866C82.4064 162.125 86.2036 161.604 90.0215 161.306C92.653 161.19 95.2895 161.279 97.9073 161.571Z" fill="#263238"/>
<path opacity="0.2" d="M104.241 204.767L77.4791 208.488C77.0033 205.937 76.7459 196.983 74.9909 186.024C74.5229 183.099 73.9457 180.026 73.2203 176.906C72.3215 172.946 71.2018 169.04 69.8663 165.206C72.7447 164.234 75.6838 163.452 78.6647 162.866C82.4246 162.125 86.2244 161.604 90.0449 161.306C92.6778 161.213 95.314 161.32 97.9307 161.626C97.9307 161.626 105.934 175.853 104.241 204.767Z" fill="white"/>
<path d="M77.0813 149.848C78.5867 153.303 80.7551 159.754 78.7583 162.718C82.5413 163.427 85.2557 163.864 88.7657 165.838C89.3195 163.388 89.9747 160.229 89.9747 160.229C85.7393 160.159 85.1777 157.109 85.2947 154.192L77.0813 149.848Z" fill="#E4897B"/>
<path opacity="0.2" d="M80.4197 151.626L85.2557 154.2C85.2315 154.89 85.2628 155.582 85.3493 156.267C83.7893 156.384 81.2855 155.167 80.7629 153.592C80.5268 152.964 80.4104 152.297 80.4197 151.626Z" fill="black"/>
<path opacity="0.5" d="M75.9347 312.181H84.8657C84.8657 312.181 96.2381 274.694 97.2131 265.132C98.1881 255.569 98.5469 231.592 98.5469 231.592V231.638C98.9369 232.153 102.306 236.896 106.191 242.41C111.269 249.625 117.228 258.158 118.484 260.249C122.165 266.411 131.182 312.15 131.182 312.15H140.105C140.105 312.15 137.859 271.208 133.272 257.714C128.686 244.22 108.858 214.751 108 213.168C106.901 211.148 104.202 204.736 104.202 204.736L77.4401 208.457C77.4401 208.457 77.0033 212.989 77.0345 216.951C77.1593 231.818 79.9673 251.911 80.4197 257.316C81.3011 267.62 75.9347 312.181 75.9347 312.181Z" fill="white"/>
<path d="M75.3185 163.583L77.5415 160.807L84.7409 162.195L88.3991 166.384L88.8593 161.548L90.2087 159.933L93.1649 161.204V164.231L91.0589 163.544L89.2415 167.772L83.4929 165.409L82.2137 167.039L75.3185 163.583Z" fill="#263238"/>
<path opacity="0.3" d="M75.3185 163.583L77.5415 160.807L84.7409 162.195L88.3991 166.384L88.8593 161.548L90.2087 159.933L93.1649 161.204V164.231L91.0589 163.544L89.2415 167.772L83.4929 165.409L82.2137 167.039L75.3185 163.583Z" fill="white"/>
<path opacity="0.1" d="M89.2415 167.772L89.9357 162.718L93.1649 164.231L91.0589 163.544L89.2415 167.772Z" fill="black"/>
<path opacity="0.1" d="M89.2415 167.772L83.9141 163.849L82.2137 167.039L83.4929 165.409L89.2415 167.772Z" fill="black"/>
<path opacity="0.1" d="M74.9909 185.993C74.5229 183.068 73.9457 179.995 73.2203 176.875C74.0838 175.804 75.3108 175.087 76.6679 174.862C76.6679 174.862 77.4011 181.976 74.9909 185.993Z" fill="black"/>
<path opacity="0.2" d="M98.5469 231.607V231.654C98.9369 232.169 102.307 236.911 106.191 242.426C106.575 239.441 106.068 236.41 104.732 233.713C103.397 231.016 101.294 228.774 98.6873 227.27L98.5469 231.607Z" fill="black"/>
<path d="M85.0061 135.332C87.6893 136.018 90.3023 142.757 87.4085 144.824C84.5147 146.891 79.9673 134.045 85.0061 135.332Z" fill="#263238"/>
<path d="M75.0221 144.895C76.9565 149.575 77.8457 152.445 81.1295 154.169C82.1914 154.739 83.389 155.008 84.5927 154.947C85.7965 154.886 86.9607 154.497 87.9596 153.823C88.9585 153.148 89.7541 152.214 90.2604 151.12C90.7668 150.026 90.9647 148.815 90.8327 147.617C90.4037 142.991 87.3227 136.073 81.9251 135.605C80.7602 135.471 79.5804 135.645 78.5042 136.111C77.428 136.577 76.4933 137.317 75.7939 138.259C75.0944 139.2 74.6549 140.308 74.5195 141.473C74.384 142.638 74.5574 143.818 75.0221 144.895Z" fill="#E4897B"/>
<path d="M78.5945 138.077L77.5181 133.858C76.534 134.564 75.3519 134.941 74.1407 134.934C68.8679 134.692 65.6075 138.655 68.4857 141.041C66.2939 142.523 68.2205 145.542 70.2095 147.328C72.9629 149.809 75.5759 150.729 76.9643 149.114C78.2825 148.132 77.5805 143.046 76.7459 141.26C75.4979 138.584 78.5945 138.077 78.5945 138.077Z" fill="#263238"/>
<path d="M74.8037 150.199C75.7631 151.016 76.9757 151.476 78.2357 151.501C79.7958 151.501 79.9206 149.996 78.891 148.756C77.9628 147.64 76.0206 146.299 74.7102 146.907C73.3998 147.515 73.5869 149.177 74.8037 150.199Z" fill="#E4897B"/>
<path d="M82.8299 144.013C82.9625 144.403 83.2823 144.661 83.5397 144.583C83.7971 144.505 83.8985 144.122 83.7659 143.732C83.6333 143.342 83.3135 143.093 83.0561 143.171C82.7987 143.249 82.6973 143.623 82.8299 144.013Z" fill="#263238"/>
<path d="M87.2915 142.672C87.4241 143.062 87.7439 143.311 88.0013 143.233C88.2587 143.155 88.3601 142.773 88.2275 142.383C88.0949 141.993 87.7751 141.743 87.5177 141.821C87.2603 141.899 87.1589 142.313 87.2915 142.672Z" fill="#263238"/>
<path d="M85.9421 143.288C86.8203 144.341 87.8355 145.273 88.9607 146.057C88.7525 146.33 88.4866 146.555 88.182 146.714C87.8773 146.873 87.5413 146.963 87.1979 146.977L85.9421 143.288Z" fill="#DE5753"/>
<path d="M80.9657 143.007C80.9276 143.019 80.8869 143.019 80.8487 143.007C80.8183 142.997 80.7903 142.98 80.7663 142.959C80.7423 142.937 80.7229 142.911 80.7091 142.882C80.6953 142.853 80.6874 142.822 80.6859 142.789C80.6845 142.757 80.6894 142.725 80.7005 142.695C80.8177 142.334 81.0209 142.007 81.2927 141.742C81.5645 141.477 81.8966 141.282 82.2605 141.174C82.2918 141.167 82.3241 141.167 82.3555 141.172C82.387 141.178 82.4171 141.19 82.4439 141.207C82.4707 141.225 82.4939 141.247 82.5119 141.274C82.53 141.3 82.5426 141.33 82.5491 141.361C82.5612 141.423 82.5494 141.487 82.5161 141.541C82.4828 141.594 82.4305 141.633 82.3697 141.65C82.0829 141.737 81.8215 141.893 81.6081 142.103C81.3948 142.314 81.2359 142.573 81.1451 142.859C81.1301 142.897 81.1058 142.93 81.0744 142.956C81.043 142.982 81.0057 142.999 80.9657 143.007Z" fill="#263238"/>
<path d="M88.6955 140.573C88.6562 140.578 88.6163 140.575 88.5786 140.562C88.5409 140.55 88.5063 140.53 88.4771 140.503C88.2663 140.276 88.0064 140.099 87.7172 139.987C87.428 139.875 87.1171 139.83 86.8079 139.856C86.7449 139.867 86.6798 139.853 86.6272 139.816C86.5745 139.78 86.5385 139.724 86.5271 139.661C86.518 139.597 86.5341 139.532 86.5719 139.48C86.6097 139.427 86.6664 139.392 86.7299 139.38C87.1151 139.338 87.5048 139.386 87.8678 139.522C88.2308 139.657 88.557 139.876 88.8204 140.16C88.843 140.183 88.861 140.209 88.8732 140.239C88.8855 140.268 88.8918 140.3 88.8918 140.332C88.8918 140.364 88.8855 140.395 88.8732 140.425C88.861 140.454 88.843 140.481 88.8204 140.503C88.7875 140.54 88.7437 140.564 88.6955 140.573Z" fill="#263238"/>
<path d="M73.9379 135.535C73.9379 135.535 76.6445 128.21 83.4617 128.78C82.8314 129 82.2489 129.339 81.7457 129.778C81.7457 129.778 87.4787 128.546 89.7953 132.391L88.6019 131.884C88.6019 131.884 90.4973 135.067 89.0465 137.508L88.5863 136.432C88.5863 136.432 86.5817 139.669 82.9313 139.279L84.0779 138.499C84.0779 138.499 77.9549 139.076 76.2779 137.719C75.4183 137.081 74.6333 136.348 73.9379 135.535Z" fill="#263238"/>
<path d="M88.3679 148.217C86.2889 148.061 84.1997 148.1 82.1279 148.334C82.7753 149.676 83.8673 150.721 86.2151 150.511C86.5107 150.514 86.8037 150.455 87.0756 150.339C87.3475 150.223 87.5923 150.052 87.7946 149.836C87.9969 149.621 88.1524 149.366 88.251 149.087C88.3497 148.808 88.3895 148.512 88.3679 148.217Z" fill="#263238"/>
<path d="M85.0295 149.512C85.9281 149.388 86.8431 149.551 87.6425 149.98C87.2299 150.3 86.7288 150.485 86.2073 150.511C85.3112 150.639 84.3975 150.475 83.6021 150.043C84.0118 149.723 84.5104 149.538 85.0295 149.512Z" fill="#A02724"/>
<path d="M88.1573 148.194C88.1326 148.374 88.0571 148.543 87.9397 148.681C87.8222 148.819 87.6677 148.921 87.4943 148.974C86.1341 149.084 84.7673 149.084 83.4071 148.974C83.1896 148.972 82.9758 148.917 82.7852 148.812C82.5945 148.707 82.433 148.556 82.3151 148.373C84.2553 148.168 86.2082 148.108 88.1573 148.194Z" fill="white"/>
<path d="M83.1887 186.773L76.7693 179.347L72.2453 194.448C72.2453 194.448 74.7257 199.986 74.8193 199.713C74.9129 199.44 83.1887 186.773 83.1887 186.773Z" fill="#006D77"/>
<path d="M82.3463 186.921L76.7693 180.689L73.5947 179.948L72.6821 192.95L76.3559 195.509L82.3463 186.921Z" fill="#006D77"/>
<path opacity="0.7" d="M82.3463 186.921L76.7693 180.689L73.5947 179.948L72.6821 192.95L76.3559 195.509L82.3463 186.921Z" fill="white"/>
<path d="M73.4933 178.52L79.2263 185.86L83.1887 186.734L77.1515 206.78L71.4263 207.388L67.8071 199.058L73.4933 178.52Z" fill="#006D77"/>
<path opacity="0.2" d="M73.4933 178.52L79.2263 185.86L83.1887 186.734L77.1515 206.78L71.4263 207.388L67.8071 199.058L73.4933 178.52Z" fill="white"/>
<path d="M79.0079 187.061L71.9879 180.166L68.6651 195.579C68.6651 195.579 71.5823 200.899 71.6525 200.618C71.7227 200.337 79.0079 187.061 79.0079 187.061Z" fill="#006D77"/>
<path opacity="0.4" d="M79.0079 187.061L71.9879 180.166L68.6651 195.579C68.6651 195.579 71.5823 200.899 71.6525 200.618C71.7227 200.337 79.0079 187.061 79.0079 187.061Z" fill="black"/>
<path d="M78.1889 187.319L72.1361 181.539L68.9147 181.055L69.0239 194.089L72.8927 196.351L78.1889 187.319Z" fill="#006D77"/>
<path opacity="0.7" d="M78.1889 187.319L72.1361 181.539L68.9147 181.055L69.0239 194.089L72.8927 196.351L78.1889 187.319Z" fill="white"/>
<path d="M68.7041 179.636L74.9987 186.508L79.0079 187.061L74.5775 207.529L68.9147 208.574L64.6481 200.563L68.7041 179.636Z" fill="#006D77"/>
<path opacity="0.2" d="M68.7041 179.636L74.9987 186.508L79.0079 187.061L74.5775 207.529L68.9147 208.574L64.6481 200.563L68.7041 179.636Z" fill="black"/>
<path d="M73.6571 171.953C69.2423 176.578 64.3439 181.172 60.7403 186.445C60.5921 186.687 60.4361 186.976 60.3737 187.093C60.4002 186.946 60.4002 186.795 60.3737 186.648C60.3737 186.5 60.2645 186.476 60.2879 186.547C60.5765 187.264 61.8479 188.161 62.6279 188.699C65.2129 190.287 67.9173 191.672 70.7165 192.841L69.8273 196.343C66.4104 195.947 63.0687 195.059 59.9057 193.707C55.6001 191.897 52.0277 188.044 54.8435 183.169C56.7761 179.789 59.0782 176.634 61.7075 173.762C63.8993 171.274 66.1301 168.926 68.5403 166.625L73.6805 171.914L73.6571 171.953Z" fill="#DC897C"/>
<path d="M73.5869 164.683C65.9507 163.123 56.6921 177.569 56.6921 177.569L64.3673 183.653C68.3049 181.164 72.0397 178.368 75.5369 175.291C80.3651 170.83 78.6647 165.713 73.5869 164.683Z" fill="#263238"/>
<path opacity="0.2" d="M73.5869 164.683C65.9507 163.123 56.6921 177.569 56.6921 177.569L64.3673 183.653C68.3049 181.164 72.0397 178.368 75.5369 175.291C80.3651 170.83 78.6647 165.713 73.5869 164.683Z" fill="white"/>
<path d="M68.7587 192.092L75.9269 191.312L75.5759 197.607C75.5759 197.607 70.6463 198.839 68.2205 195.407L68.7587 192.092Z" fill="#E4897B"/>
<path d="M80.6849 193.262L79.2965 197.888L75.5759 197.63L75.9269 191.336L80.6849 193.262Z" fill="#E4897B"/>
<path d="M92.2211 160.705C92.2211 160.705 108.04 175.619 116.401 195.985L118.008 194.573C118.008 194.573 108.047 173.357 94.9589 160.378L92.2211 160.705Z" fill="#006D77"/>
</svg>
