<svg width="128" height="128" viewBox="0 0 128 128" fill="none" xmlns="http://www.w3.org/2000/svg">
<path d="M81.8995 44.5414H46.1005V94.4921H81.8995V44.5414Z" fill="#006D77"/>
<path opacity="0.7" d="M81.8995 44.5414H46.1005V94.4921H81.8995V44.5414Z" fill="white"/>
<path d="M76.7795 77.5782H51.2205V78.8659H76.7795V77.5782Z" fill="#006D77"/>
<path d="M71.8233 78.8658H56.192V93.4706H71.8233V78.8658Z" fill="#455A64"/>
<path d="M70.7712 79.9436H57.2442V93.4706H70.7712V79.9436Z" fill="#37474F"/>
<g opacity="0.5">
<path d="M70.7712 85.5884V88.0997L65.4029 93.4706H62.8915L70.7712 85.5884Z" fill="#455A64"/>
<path d="M60.7769 79.9436L57.2467 83.4738V80.9625L58.263 79.9436H60.7769Z" fill="#455A64"/>
<path d="M68.3238 79.9436L57.2467 91.0233V89.7689L67.0694 79.9436H68.3238Z" fill="#455A64"/>
<path d="M70.7712 89.4053V90.6622L67.9629 93.4706H66.7059L70.7712 89.4053Z" fill="#455A64"/>
<path d="M70.7712 81.2006V81.4284L58.7341 93.4706H58.4985L70.7712 81.2006Z" fill="#455A64"/>
<path d="M62.2413 79.9436L57.2467 84.9382V84.7052L62.0083 79.9436H62.2413Z" fill="#455A64"/>
<path d="M66.5011 79.9436L57.2467 89.198V88.9625L66.2656 79.9436H66.5011Z" fill="#455A64"/>
</g>
<path d="M64.4454 79.9436H63.575V93.4706H64.4454V79.9436Z" fill="#455A64"/>
<path d="M57.2672 49.9891H51.6864V58.6394H57.2672V49.9891Z" fill="#455A64"/>
<path d="M56.6938 50.624H52.2624V58.0071H56.6938V50.624Z" fill="#37474F"/>
<path d="M58.0659 58.6393H50.8877V59.8834H58.0659V58.6393Z" fill="#006D77"/>
<g opacity="0.5">
<path d="M56.6937 50.624V51.5354L52.2598 55.9693V54.2823L55.9206 50.624H56.6937Z" fill="#455A64"/>
<path d="M56.6938 56.0973V56.9395L55.6262 58.007H54.784L56.6938 56.0973Z" fill="#455A64"/>
<path d="M53.7523 50.624L52.2598 52.1165V51.2717L52.9075 50.624H53.7523Z" fill="#455A64"/>
<path d="M56.6938 54.7764V55.0477L53.7318 58.0071H53.4605L56.6938 54.7764Z" fill="#455A64"/>
</g>
<path d="M57.2672 54.9657H51.6864V55.598H57.2672V54.9657Z" fill="#455A64"/>
<path d="M66.7904 49.9891H61.2096V58.6394H66.7904V49.9891Z" fill="#455A64"/>
<path d="M66.2169 50.624H61.7856V58.0071H66.2169V50.624Z" fill="#37474F"/>
<path d="M67.5891 58.6393H60.4109V59.8834H67.5891V58.6393Z" fill="#006D77"/>
<g opacity="0.5">
<path d="M66.2169 50.624V51.5354L61.783 55.9693V54.2823L65.4438 50.624H66.2169Z" fill="#455A64"/>
<path d="M66.2169 56.0973V56.9395L65.1494 58.007H64.3046L66.2169 56.0973Z" fill="#455A64"/>
<path d="M63.2755 50.624L61.783 52.1165V51.2717L62.4307 50.624H63.2755Z" fill="#455A64"/>
<path d="M66.217 54.7764V55.0477L63.255 58.0071H62.9837L66.217 54.7764Z" fill="#455A64"/>
</g>
<path d="M66.7904 54.9657H61.2096V55.598H66.7904V54.9657Z" fill="#455A64"/>
<path d="M76.3136 49.9891H70.7328V58.6394H76.3136V49.9891Z" fill="#455A64"/>
<path d="M75.7402 50.624H71.3088V58.0071H75.7402V50.624Z" fill="#37474F"/>
<path d="M77.1123 58.6393H69.9341V59.8834H77.1123V58.6393Z" fill="#006D77"/>
<g opacity="0.5">
<path d="M75.7402 50.624V51.5354L71.3062 55.9693V54.2823L74.967 50.624H75.7402Z" fill="#455A64"/>
<path d="M75.7402 56.0973V56.9395L74.6727 58.007H73.8304L75.7402 56.0973Z" fill="#455A64"/>
<path d="M72.7987 50.624L71.3062 52.1165V51.2717L71.9539 50.624H72.7987Z" fill="#455A64"/>
<path d="M75.7402 54.7764V55.0477L72.7783 58.0071H72.5069L75.7402 54.7764Z" fill="#455A64"/>
</g>
<path d="M76.3136 54.9657H70.7328V55.598H76.3136V54.9657Z" fill="#455A64"/>
<path d="M57.2672 63.0527H51.6864V71.703H57.2672V63.0527Z" fill="#455A64"/>
<path d="M56.6938 63.6851H52.2624V71.0681H56.6938V63.6851Z" fill="#37474F"/>
<path d="M58.0659 71.703H50.8877V72.9472H58.0659V71.703Z" fill="#006D77"/>
<g opacity="0.5">
<path d="M56.6937 63.6851V64.599L52.2598 69.0303V67.3459L55.9206 63.6851H56.6937Z" fill="#455A64"/>
<path d="M56.6938 69.1583V70.0031L55.6262 71.0706H54.784L56.6938 69.1583Z" fill="#455A64"/>
<path d="M53.7523 63.6851L52.2598 65.1775V64.3353L52.9075 63.6851H53.7523Z" fill="#455A64"/>
<path d="M56.6938 67.8374V68.1088L53.7318 71.0707H53.4605L56.6938 67.8374Z" fill="#455A64"/>
</g>
<path d="M57.2672 68.0294H51.6864V68.6617H57.2672V68.0294Z" fill="#455A64"/>
<path d="M66.7904 63.0527H61.2096V71.703H66.7904V63.0527Z" fill="#455A64"/>
<path d="M66.2169 63.6851H61.7856V71.0681H66.2169V63.6851Z" fill="#37474F"/>
<path d="M67.5891 71.703H60.4109V72.9472H67.5891V71.703Z" fill="#006D77"/>
<g opacity="0.5">
<path d="M66.2169 63.6851V64.599L61.783 69.0303V67.3459L65.4438 63.6851H66.2169Z" fill="#455A64"/>
<path d="M66.2169 69.1583V70.0031L65.1494 71.0706H64.3046L66.2169 69.1583Z" fill="#455A64"/>
<path d="M63.2755 63.6851L61.783 65.1775V64.3353L62.4307 63.6851H63.2755Z" fill="#455A64"/>
<path d="M66.217 67.8374V68.1088L63.255 71.0707H62.9837L66.217 67.8374Z" fill="#455A64"/>
</g>
<path d="M66.7904 68.0294H61.2096V68.6617H66.7904V68.0294Z" fill="#455A64"/>
<path d="M76.3136 63.0527H70.7328V71.703H76.3136V63.0527Z" fill="#455A64"/>
<path d="M75.7402 63.6851H71.3088V71.0681H75.7402V63.6851Z" fill="#37474F"/>
<path d="M77.1123 71.703H69.9341V72.9472H77.1123V71.703Z" fill="#006D77"/>
<g opacity="0.5">
<path d="M75.7402 63.6851V64.599L71.3062 69.0303V67.3459L74.967 63.6851H75.7402Z" fill="#455A64"/>
<path d="M75.7402 69.1583V70.0031L74.6727 71.0706H73.8304L75.7402 69.1583Z" fill="#455A64"/>
<path d="M72.7987 63.6851L71.3062 65.1775V64.3353L71.9539 63.6851H72.7987Z" fill="#455A64"/>
<path d="M75.7402 67.8374V68.1088L72.7783 71.0707H72.5069L75.7402 67.8374Z" fill="#455A64"/>
</g>
<path d="M76.3136 68.0294H70.7328V68.6617H76.3136V68.0294Z" fill="#455A64"/>
<path opacity="0.5" d="M81.8995 74.9875H46.1005V75.4253L81.8995 75.2051V74.9875Z" fill="#006D77"/>
<path d="M81.8995 74.3782H46.1005V74.9875H81.8995V74.3782Z" fill="white"/>
<path opacity="0.5" d="M81.8995 61.527H46.1005V61.9673L81.8995 61.7471V61.527Z" fill="#006D77"/>
<path d="M81.8995 60.9177H46.1005V61.527H81.8995V60.9177Z" fill="white"/>
<path opacity="0.5" d="M81.8995 48.0691H46.1005V48.5094L81.8995 48.2893V48.0691Z" fill="#006D77"/>
<path d="M81.8995 47.4598H46.1005V48.0691H81.8995V47.4598Z" fill="white"/>
<path d="M46.1005 44.5414H44.5645V94.4921H46.1005V44.5414Z" fill="#006D77"/>
<path opacity="0.8" d="M46.1005 44.5414H44.5645V94.4921H46.1005V44.5414Z" fill="white"/>
<path d="M83.4355 44.5414H81.8995V94.4921H83.4355V44.5414Z" fill="#006D77"/>
<path opacity="0.8" d="M83.4355 44.5414H81.8995V94.4921H83.4355V44.5414Z" fill="white"/>
<path d="M75.6966 78.8658H74.3757V93.4706H75.6966V78.8658Z" fill="#006D77"/>
<path opacity="0.9" d="M75.6966 78.8658H74.3757V93.4706H75.6966V78.8658Z" fill="white"/>
<path d="M53.6243 78.8658H52.3033V93.4706H53.6243V78.8658Z" fill="#006D77"/>
<path opacity="0.9" d="M53.6243 78.8658H52.3033V93.4706H53.6243V78.8658Z" fill="white"/>
<path d="M78.2669 93.9854H49.7306V94.4999H78.2669V93.9854Z" fill="#EBEBEB"/>
<path d="M76.8768 93.4707H51.1232V93.9853H76.8768V93.4707Z" fill="#EBEBEB"/>
<path d="M76.8768 93.8548L51.1232 93.7268V93.9854H76.8768V93.8548Z" fill="#DBDBDB"/>
<path d="M44.567 58.3807H12.7053V94.4947H44.567V58.3807Z" fill="#006D77"/>
<path opacity="0.7" d="M44.567 58.3807H12.7053V94.4947H44.567V58.3807Z" fill="white"/>
<path opacity="0.5" d="M44.567 89.0342H12.7053V94.4947H44.567V89.0342Z" fill="#006D77"/>
<path d="M21.9008 62.9913H16.32V71.6416H21.9008V62.9913Z" fill="#455A64"/>
<path d="M21.3274 63.6237H16.896V71.0067H21.3274V63.6237Z" fill="#37474F"/>
<path d="M22.6995 71.6416H15.5213V72.8858H22.6995V71.6416Z" fill="#006D77"/>
<g opacity="0.5">
<path d="M21.3274 63.6262V64.5376L16.896 68.9715V67.2845L20.5542 63.6262H21.3274Z" fill="#455A64"/>
<path d="M21.3274 69.0995V69.9417L20.2598 71.0092H19.4176L21.3274 69.0995Z" fill="#455A64"/>
<path d="M18.3885 63.6262L16.896 65.1187V64.2739L17.5411 63.6262H18.3885Z" fill="#455A64"/>
<path d="M21.3274 67.7786V68.0474L18.368 71.0093H18.0966L21.3274 67.7786Z" fill="#455A64"/>
</g>
<path d="M21.9008 67.968H16.32V68.6003H21.9008V67.968Z" fill="#455A64"/>
<path d="M31.424 62.9913H25.8432V71.6416H31.424V62.9913Z" fill="#455A64"/>
<path d="M30.8506 63.6237H26.4192V71.0067H30.8506V63.6237Z" fill="#37474F"/>
<path d="M32.2227 71.6416H25.0445V72.8858H32.2227V71.6416Z" fill="#006D77"/>
<g opacity="0.5">
<path d="M30.8506 63.6262V64.5376L26.4192 68.9715V67.2845L30.0774 63.6262H30.8506Z" fill="#455A64"/>
<path d="M30.8506 69.0995V69.9417L29.783 71.0092H28.9408L30.8506 69.0995Z" fill="#455A64"/>
<path d="M27.9117 63.6262L26.4192 65.1187V64.2739L27.0643 63.6262H27.9117Z" fill="#455A64"/>
<path d="M30.8506 67.7786V68.0474L27.8886 71.0093H27.6198L30.8506 67.7786Z" fill="#455A64"/>
</g>
<path d="M31.424 67.968H25.8432V68.6003H31.424V67.968Z" fill="#455A64"/>
<path d="M40.9472 62.9913H35.3664V71.6416H40.9472V62.9913Z" fill="#455A64"/>
<path d="M40.3737 63.6237H35.9424V71.0067H40.3737V63.6237Z" fill="#37474F"/>
<path d="M41.7459 71.6416H34.5677V72.8858H41.7459V71.6416Z" fill="#006D77"/>
<g opacity="0.5">
<path d="M40.3737 63.6262V64.5376L35.9424 68.9715V67.2845L39.6006 63.6262H40.3737Z" fill="#455A64"/>
<path d="M40.3738 69.0995V69.9417L39.3062 71.0092H38.464L40.3738 69.0995Z" fill="#455A64"/>
<path d="M37.4349 63.6262L35.9424 65.1187V64.2739L36.5901 63.6262H37.4349Z" fill="#455A64"/>
<path d="M40.3738 67.7786V68.0474L37.4144 71.0093H37.143L40.3738 67.7786Z" fill="#455A64"/>
</g>
<path d="M40.9472 67.968H35.3664V68.6003H40.9472V67.968Z" fill="#455A64"/>
<path d="M21.9008 76.0525H16.32V84.7027H21.9008V76.0525Z" fill="#455A64"/>
<path d="M21.3274 76.6874H16.896V84.0704H21.3274V76.6874Z" fill="#37474F"/>
<path d="M22.6995 84.7053H15.5213V85.9495H22.6995V84.7053Z" fill="#006D77"/>
<g opacity="0.5">
<path d="M21.3274 76.6874V77.6013L16.896 82.0327V80.3482L20.5542 76.6874H21.3274Z" fill="#455A64"/>
<path d="M21.3274 82.1606V83.0054L20.2598 84.0704H19.4176L21.3274 82.1606Z" fill="#455A64"/>
<path d="M18.3885 76.6874L16.896 78.1799V77.3376L17.5411 76.6874H18.3885Z" fill="#455A64"/>
<path d="M21.3274 80.8397V81.1111L18.368 84.0704H18.0966L21.3274 80.8397Z" fill="#455A64"/>
</g>
<path d="M21.9008 81.0291H16.32V81.6614H21.9008V81.0291Z" fill="#455A64"/>
<path d="M31.424 76.0525H25.8432V84.7027H31.424V76.0525Z" fill="#455A64"/>
<path d="M30.8506 76.6874H26.4192V84.0704H30.8506V76.6874Z" fill="#37474F"/>
<path d="M32.2227 84.7053H25.0445V85.9495H32.2227V84.7053Z" fill="#006D77"/>
<g opacity="0.5">
<path d="M30.8506 76.6874V77.6013L26.4192 82.0327V80.3482L30.0774 76.6874H30.8506Z" fill="#455A64"/>
<path d="M30.8506 82.1606V83.0054L29.783 84.0704H28.9408L30.8506 82.1606Z" fill="#455A64"/>
<path d="M27.9117 76.6874L26.4192 78.1799V77.3376L27.0643 76.6874H27.9117Z" fill="#455A64"/>
<path d="M30.8506 80.8397V81.1111L27.8886 84.0704H27.6198L30.8506 80.8397Z" fill="#455A64"/>
</g>
<path d="M31.424 81.0291H25.8432V81.6614H31.424V81.0291Z" fill="#455A64"/>
<path d="M40.9472 76.0525H35.3664V84.7027H40.9472V76.0525Z" fill="#455A64"/>
<path d="M40.3737 76.6874H35.9424V84.0704H40.3737V76.6874Z" fill="#37474F"/>
<path d="M41.7459 84.7053H34.5677V85.9495H41.7459V84.7053Z" fill="#006D77"/>
<g opacity="0.5">
<path d="M40.3737 76.6874V77.6013L35.9424 82.0327V80.3482L39.6006 76.6874H40.3737Z" fill="#455A64"/>
<path d="M40.3738 82.1606V83.0054L39.3062 84.0704H38.464L40.3738 82.1606Z" fill="#455A64"/>
<path d="M37.4349 76.6874L35.9424 78.1799V77.3376L36.5901 76.6874H37.4349Z" fill="#455A64"/>
<path d="M40.3738 80.8397V81.1111L37.4144 84.0704H37.143L40.3738 80.8397Z" fill="#455A64"/>
</g>
<path d="M40.9472 81.0291H35.3664V81.6614H40.9472V81.0291Z" fill="#455A64"/>
<path d="M44.5645 56.5811H11.6173V58.3807H44.5645V56.5811Z" fill="#006D77"/>
<path opacity="0.5" d="M44.5645 74.5804H12.7053V75.0182L44.5645 74.798V74.5804Z" fill="#006D77"/>
<path d="M44.567 73.9712H12.7053V74.5805H44.567V73.9712Z" fill="white"/>
<path opacity="0.5" d="M42.2272 58.3807H44.5645V94.4947H43.8144L42.2272 58.3807Z" fill="#006D77"/>
<path d="M83.433 94.4946H115.295V58.3807L83.433 58.3807V94.4946Z" fill="#006D77"/>
<path opacity="0.7" d="M83.433 94.4946H115.295V58.3807L83.433 58.3807V94.4946Z" fill="white"/>
<path d="M92.631 62.9913H87.0502V71.6416H92.631V62.9913Z" fill="#455A64"/>
<path d="M92.0576 63.6237H87.6263V71.0067H92.0576V63.6237Z" fill="#37474F"/>
<path d="M93.4298 71.6416H86.2515V72.8858H93.4298V71.6416Z" fill="#006D77"/>
<g opacity="0.5">
<path d="M92.0576 63.6262V64.5376L87.6263 68.9715V67.2845L91.2845 63.6262H92.0576Z" fill="#455A64"/>
<path d="M92.0576 69.0995V69.9417L90.9901 71.0092H90.1479L92.0576 69.0995Z" fill="#455A64"/>
<path d="M89.1187 63.6262L87.6263 65.1187V64.2739L88.2739 63.6262H89.1187Z" fill="#455A64"/>
<path d="M92.0576 67.7786V68.0474L89.0982 71.0093H88.8269L92.0576 67.7786Z" fill="#455A64"/>
</g>
<path d="M92.631 67.968H87.0502V68.6003H92.631V67.968Z" fill="#455A64"/>
<path d="M102.154 62.9913H96.5734V71.6416H102.154V62.9913Z" fill="#455A64"/>
<path d="M101.581 63.6237H97.1494V71.0067H101.581V63.6237Z" fill="#37474F"/>
<path d="M102.953 71.6416H95.7747V72.8858H102.953V71.6416Z" fill="#006D77"/>
<g opacity="0.5">
<path d="M101.581 63.6262V64.5376L97.1494 68.9715V67.2845L100.808 63.6262H101.581Z" fill="#455A64"/>
<path d="M101.581 69.0995V69.9417L100.513 71.0092H99.6711L101.581 69.0995Z" fill="#455A64"/>
<path d="M98.6419 63.6262L97.1494 65.1187V64.2739L97.7971 63.6262H98.6419Z" fill="#455A64"/>
<path d="M101.581 67.7786V68.0474L98.6215 71.0093H98.3501L101.581 67.7786Z" fill="#455A64"/>
</g>
<path d="M102.154 67.968H96.5734V68.6003H102.154V67.968Z" fill="#455A64"/>
<path d="M111.677 62.9913H106.097V71.6416H111.677V62.9913Z" fill="#455A64"/>
<path d="M111.104 63.6237H106.673V71.0067H111.104V63.6237Z" fill="#37474F"/>
<path d="M112.476 71.6416H105.298V72.8858H112.476V71.6416Z" fill="#006D77"/>
<g opacity="0.5">
<path d="M111.104 63.6262V64.5376L106.673 68.9715V67.2845L110.331 63.6262H111.104Z" fill="#455A64"/>
<path d="M111.104 69.0995V69.9417L110.036 71.0092H109.194L111.104 69.0995Z" fill="#455A64"/>
<path d="M108.165 63.6262L106.673 65.1187V64.2739L107.32 63.6262H108.165Z" fill="#455A64"/>
<path d="M111.104 67.7786V68.0474L108.145 71.0093H107.873L111.104 67.7786Z" fill="#455A64"/>
</g>
<path d="M111.677 67.968H106.097V68.6003H111.677V67.968Z" fill="#455A64"/>
<path d="M92.631 76.0525H87.0502V84.7027H92.631V76.0525Z" fill="#455A64"/>
<path d="M92.0576 76.6874H87.6263V84.0704H92.0576V76.6874Z" fill="#37474F"/>
<path d="M93.4298 84.7053H86.2515V85.9495H93.4298V84.7053Z" fill="#006D77"/>
<g opacity="0.5">
<path d="M92.0576 76.6874V77.6013L87.6263 82.0327V80.3482L91.2845 76.6874H92.0576Z" fill="#455A64"/>
<path d="M92.0576 82.1606V83.0054L90.9901 84.0704H90.1479L92.0576 82.1606Z" fill="#455A64"/>
<path d="M89.1187 76.6874L87.6263 78.1799V77.3376L88.2739 76.6874H89.1187Z" fill="#455A64"/>
<path d="M92.0576 80.8397V81.1111L89.0982 84.0704H88.8269L92.0576 80.8397Z" fill="#455A64"/>
</g>
<path d="M92.631 81.0291H87.0502V81.6614H92.631V81.0291Z" fill="#455A64"/>
<path d="M102.154 76.0525H96.5734V84.7027H102.154V76.0525Z" fill="#455A64"/>
<path d="M101.581 76.6874H97.1494V84.0704H101.581V76.6874Z" fill="#37474F"/>
<path d="M102.953 84.7053H95.7747V85.9495H102.953V84.7053Z" fill="#006D77"/>
<g opacity="0.5">
<path d="M101.581 76.6874V77.6013L97.1494 82.0327V80.3482L100.808 76.6874H101.581Z" fill="#455A64"/>
<path d="M101.581 82.1606V83.0054L100.513 84.0704H99.6711L101.581 82.1606Z" fill="#455A64"/>
<path d="M98.6419 76.6874L97.1494 78.1799V77.3376L97.7971 76.6874H98.6419Z" fill="#455A64"/>
<path d="M101.581 80.8397V81.1111L98.6215 84.0704H98.3501L101.581 80.8397Z" fill="#455A64"/>
</g>
<path d="M102.154 81.0291H96.5734V81.6614H102.154V81.0291Z" fill="#455A64"/>
<path d="M111.677 76.0525H106.097V84.7027H111.677V76.0525Z" fill="#455A64"/>
<path d="M111.104 76.6874H106.673V84.0704H111.104V76.6874Z" fill="#37474F"/>
<path d="M112.476 84.7053H105.298V85.9495H112.476V84.7053Z" fill="#006D77"/>
<g opacity="0.5">
<path d="M111.104 76.6874V77.6013L106.673 82.0327V80.3482L110.331 76.6874H111.104Z" fill="#455A64"/>
<path d="M111.104 82.1606V83.0054L110.036 84.0704H109.194L111.104 82.1606Z" fill="#455A64"/>
<path d="M108.165 76.6874L106.673 78.1799V77.3376L107.32 76.6874H108.165Z" fill="#455A64"/>
<path d="M111.104 80.8397V81.1111L108.145 84.0704H107.873L111.104 80.8397Z" fill="#455A64"/>
</g>
<path d="M111.677 81.0291H106.097V81.6614H111.677V81.0291Z" fill="#455A64"/>
<path d="M83.4355 58.3807L116.383 58.3807V56.5811L83.4355 56.5811V58.3807Z" fill="#006D77"/>
<path opacity="0.5" d="M115.297 89.0342H83.4355V94.4947H115.297V89.0342Z" fill="#006D77"/>
<path opacity="0.5" d="M115.295 74.5804H83.4355V75.0182L115.295 74.798V74.5804Z" fill="#006D77"/>
<path d="M115.297 73.9712H83.4355V74.5805H115.297V73.9712Z" fill="white"/>
<path opacity="0.5" d="M85.7728 58.3807H83.4355V94.4947H84.1856L85.7728 58.3807Z" fill="#006D77"/>
<path d="M78.9376 39.5366H49.065V45.3555H78.9376V39.5366Z" fill="#006D77"/>
<path d="M78.9351 44.6566H49.0624V44.7846H78.9351V44.6566Z" fill="white"/>
<path d="M78.9351 40.1075H49.0624V40.2355H78.9351V40.1075Z" fill="white"/>
<path d="M51.9987 43.4943V41.4719C52.0041 41.4252 52.0266 41.382 52.0617 41.3507C52.0969 41.3194 52.1424 41.3021 52.1894 41.3021C52.2365 41.3021 52.282 41.3194 52.3171 41.3507C52.3523 41.382 52.3747 41.4252 52.3802 41.4719V42.2963H53.271V41.4719C53.2707 41.447 53.2754 41.4222 53.2848 41.399C53.2942 41.3759 53.3081 41.3549 53.3258 41.3372C53.3434 41.3195 53.3644 41.3056 53.3876 41.2962C53.4107 41.2868 53.4355 41.2821 53.4605 41.2825C53.511 41.2825 53.5594 41.3024 53.5953 41.3378C53.6313 41.3733 53.6518 41.4215 53.6525 41.4719V43.4994C53.6525 43.5245 53.6475 43.5494 53.6378 43.5725C53.6281 43.5957 53.614 43.6167 53.5961 43.6343C53.5782 43.6519 53.557 43.6658 53.5338 43.6752C53.5105 43.6846 53.4856 43.6892 53.4605 43.6889C53.4355 43.6892 53.4107 43.6846 53.3876 43.6752C53.3644 43.6658 53.3434 43.6518 53.3258 43.6342C53.3081 43.6165 53.2942 43.5955 53.2848 43.5724C53.2754 43.5492 53.2707 43.5244 53.271 43.4994V42.6751H52.3802V43.4994C52.3747 43.5462 52.3523 43.5894 52.3171 43.6207C52.282 43.652 52.2365 43.6693 52.1894 43.6693C52.1424 43.6693 52.0969 43.652 52.0617 43.6207C52.0266 43.5894 52.0041 43.5462 51.9987 43.4994V43.4943Z" fill="white"/>
<path d="M54.2899 41.4719C54.2896 41.447 54.2943 41.4222 54.3036 41.399C54.313 41.3759 54.327 41.3549 54.3446 41.3372C54.3623 41.3195 54.3833 41.3056 54.4065 41.2962C54.4296 41.2868 54.4544 41.2821 54.4794 41.2825C54.5299 41.2825 54.5783 41.3024 54.6142 41.3378C54.6502 41.3733 54.6707 41.4215 54.6714 41.4719V43.4994C54.6707 43.5499 54.6502 43.5981 54.6142 43.6336C54.5783 43.669 54.5299 43.6889 54.4794 43.6889C54.4544 43.6892 54.4296 43.6846 54.4065 43.6752C54.3833 43.6658 54.3623 43.6518 54.3446 43.6342C54.327 43.6165 54.313 43.5955 54.3036 43.5724C54.2943 43.5492 54.2896 43.5244 54.2899 43.4994V41.4719Z" fill="white"/>
<path d="M55.2064 42.4499C55.208 42.2842 55.2426 42.1205 55.308 41.9682C55.3734 41.816 55.4684 41.6782 55.5875 41.563C55.7066 41.4477 55.8473 41.3572 56.0016 41.2968C56.1559 41.2364 56.3207 41.2072 56.4864 41.2109C56.7688 41.2064 57.0445 41.2965 57.2698 41.4669C57.2931 41.4815 57.3131 41.5009 57.3285 41.5237C57.3439 41.5466 57.3544 41.5724 57.3592 41.5995C57.364 41.6267 57.363 41.6545 57.3564 41.6813C57.3498 41.708 57.3376 41.7331 57.3207 41.7548C57.3038 41.7766 57.2825 41.7946 57.2583 41.8076C57.234 41.8206 57.2072 41.8284 57.1798 41.8305C57.1523 41.8325 57.1247 41.8288 57.0987 41.8195C57.0728 41.8103 57.0491 41.7957 57.0291 41.7767C56.8731 41.6578 56.6825 41.5931 56.4864 41.5923C56.3712 41.5909 56.2569 41.6129 56.1504 41.6569C56.0439 41.7009 55.9475 41.766 55.8669 41.8483C55.7853 41.9243 55.7203 42.0162 55.6758 42.1184C55.6313 42.2206 55.6084 42.3308 55.6084 42.4422C55.6084 42.5537 55.6313 42.6639 55.6758 42.7661C55.7203 42.8683 55.7853 42.9602 55.8669 43.0362C55.9475 43.1185 56.0439 43.1836 56.1504 43.2276C56.2569 43.2716 56.3712 43.2936 56.4864 43.2922C56.6521 43.2905 56.8145 43.2455 56.9574 43.1616V42.6906H56.4659C56.4141 42.6906 56.3643 42.6702 56.3274 42.6337C56.2905 42.5973 56.2695 42.5478 56.2688 42.496C56.2688 42.4702 56.2739 42.4447 56.2838 42.421C56.2938 42.3972 56.3083 42.3756 56.3267 42.3575C56.345 42.3394 56.3668 42.3251 56.3907 42.3155C56.4146 42.3059 56.4401 42.3011 56.4659 42.3015H57.1494C57.1754 42.3008 57.2013 42.3053 57.2255 42.3148C57.2497 42.3242 57.2717 42.3385 57.2903 42.3566C57.3089 42.3747 57.3237 42.3964 57.3338 42.4204C57.3439 42.4443 57.3491 42.47 57.3491 42.496V43.264C57.3508 43.2836 57.3508 43.3033 57.3491 43.3229C57.3481 43.3288 57.3481 43.3349 57.3491 43.3408C57.3373 43.3751 57.3137 43.4041 57.2826 43.4227C57.0964 43.5627 56.8755 43.6493 56.6438 43.673C56.4121 43.6968 56.1783 43.6569 55.9676 43.5576C55.7569 43.4583 55.5773 43.3034 55.4481 43.1095C55.3189 42.9157 55.2451 42.6903 55.2346 42.4576L55.2064 42.4499Z" fill="white"/>
<path d="M57.9584 43.4943V41.4719C57.9581 41.447 57.9627 41.4222 57.9721 41.399C57.9815 41.3759 57.9955 41.3549 58.0131 41.3372C58.0308 41.3195 58.0518 41.3056 58.0749 41.2962C58.0981 41.2868 58.1229 41.2821 58.1479 41.2825C58.1983 41.2825 58.2468 41.3024 58.2827 41.3378C58.3187 41.3733 58.3392 41.4215 58.3399 41.4719V42.2963H59.2282V41.4719C59.2336 41.4252 59.256 41.382 59.2912 41.3507C59.3264 41.3194 59.3718 41.3021 59.4189 41.3021C59.466 41.3021 59.5114 41.3194 59.5466 41.3507C59.5818 41.382 59.6042 41.4252 59.6096 41.4719V43.4994C59.6042 43.5462 59.5818 43.5894 59.5466 43.6207C59.5114 43.652 59.466 43.6693 59.4189 43.6693C59.3718 43.6693 59.3264 43.652 59.2912 43.6207C59.256 43.5894 59.2336 43.5462 59.2282 43.4994V42.6751H58.3399V43.4994C58.3399 43.5245 58.3349 43.5494 58.3252 43.5725C58.3155 43.5957 58.3013 43.6167 58.2835 43.6343C58.2656 43.6519 58.2444 43.6658 58.2211 43.6752C58.1979 43.6846 58.1729 43.6892 58.1479 43.6889C58.1224 43.6893 58.0972 43.6844 58.0737 43.6747C58.0502 43.665 58.029 43.6506 58.0112 43.6324C57.9935 43.6142 57.9797 43.5925 57.9706 43.5688C57.9615 43.5451 57.9574 43.5197 57.9584 43.4943Z" fill="white"/>
<path d="M61.3504 43.0847C61.3813 43.0477 61.4256 43.0245 61.4736 43.0202C61.5216 43.0159 61.5694 43.0308 61.6064 43.0617C61.7921 43.2161 62.023 43.306 62.2643 43.3177C62.4169 43.3195 62.5667 43.2759 62.6944 43.1922C62.7381 43.165 62.7743 43.1274 62.7997 43.0827C62.8252 43.038 62.8392 42.9877 62.8403 42.9362C62.8407 42.8974 62.8301 42.8592 62.8096 42.8262C62.7837 42.7847 62.7486 42.7497 62.7072 42.7238C62.5613 42.6417 62.4017 42.587 62.2361 42.5625C62.0832 42.537 61.9343 42.4914 61.7933 42.4268C61.6646 42.3733 61.5537 42.2846 61.4733 42.1708C61.4209 42.0862 61.3934 41.9887 61.3939 41.8892C61.3954 41.7879 61.4213 41.6885 61.4695 41.5994C61.5176 41.5102 61.5865 41.434 61.6704 41.3772C61.8443 41.2557 62.0521 41.192 62.2643 41.1954C62.5361 41.2096 62.7974 41.305 63.0144 41.4694C63.0335 41.4822 63.0498 41.4987 63.0625 41.518C63.0752 41.5372 63.0839 41.5587 63.0882 41.5813C63.0925 41.604 63.0922 41.6272 63.0875 41.6497C63.0827 41.6723 63.0735 41.6936 63.0605 41.7126C63.0483 41.7323 63.0322 41.7494 63.0131 41.7628C62.9941 41.7762 62.9726 41.7855 62.9498 41.7903C62.9271 41.7951 62.9036 41.7952 62.8808 41.7907C62.858 41.7861 62.8364 41.7769 62.8173 41.7638C62.6594 41.6361 62.4666 41.5594 62.2643 41.5436C62.1271 41.5415 61.9927 41.5827 61.8803 41.6614C61.8415 41.6832 61.8091 41.7147 61.7862 41.7528C61.7633 41.791 61.7507 41.8345 61.7497 41.879C61.7469 41.9122 61.755 41.9454 61.7728 41.9737C61.7976 42.0091 61.8289 42.0395 61.8649 42.0633C61.9972 42.141 62.1432 42.1923 62.295 42.2143C62.4582 42.2436 62.6172 42.2926 62.7686 42.3602C62.9085 42.419 63.0279 42.5179 63.1117 42.6444C63.166 42.7321 63.1953 42.8331 63.1961 42.9362C63.1926 43.0422 63.1639 43.1459 63.1122 43.2385C63.0606 43.3311 62.9875 43.41 62.8992 43.4687C62.714 43.6005 62.4915 43.6696 62.2643 43.6658C61.941 43.6494 61.6319 43.5281 61.3837 43.3202C61.3516 43.291 61.3308 43.2514 61.3247 43.2085C61.3186 43.1655 61.3277 43.1217 61.3504 43.0847Z" fill="white"/>
<path d="M63.6134 42.4473C63.6195 42.1168 63.7552 41.802 63.9913 41.5706C64.2274 41.3393 64.545 41.2101 64.8755 41.2108C65.1612 41.2052 65.4406 41.2953 65.6691 41.4668C65.7085 41.5002 65.7338 41.5473 65.74 41.5985C65.7461 41.6498 65.7327 41.7015 65.7024 41.7433C65.6702 41.7834 65.6237 41.8096 65.5726 41.8162C65.5216 41.8229 65.4699 41.8096 65.4285 41.7791C65.2716 41.6543 65.076 41.5882 64.8755 41.5923C64.6439 41.5955 64.4223 41.6871 64.256 41.8483C64.0952 42.0065 64.0032 42.2217 64 42.4473C64.0008 42.5588 64.0239 42.6689 64.0678 42.7714C64.1118 42.8738 64.1758 42.9664 64.256 43.0438C64.4225 43.2047 64.644 43.2963 64.8755 43.2998C65.0761 43.3021 65.2714 43.2352 65.4285 43.1103C65.4709 43.0819 65.5222 43.0701 65.5728 43.0772C65.6233 43.0843 65.6695 43.1098 65.7024 43.1487C65.7326 43.1901 65.7459 43.2414 65.7397 43.2923C65.7336 43.3431 65.7083 43.3897 65.6691 43.4227C65.4406 43.5942 65.1612 43.6843 64.8755 43.6787C64.5456 43.6801 64.2285 43.5518 63.9923 43.3214C63.7562 43.091 63.6201 42.7771 63.6134 42.4473Z" fill="white"/>
<path d="M66.3706 43.4943V41.4719C66.3702 41.447 66.3749 41.4222 66.3843 41.399C66.3937 41.3759 66.4076 41.3549 66.4253 41.3372C66.4429 41.3195 66.464 41.3056 66.4871 41.2962C66.5102 41.2868 66.535 41.2821 66.56 41.2825C66.5851 41.2821 66.61 41.2868 66.6333 41.2962C66.6565 41.3055 66.6777 41.3194 66.6956 41.3371C66.7135 41.3547 66.7276 41.3757 66.7373 41.3988C66.747 41.422 66.752 41.4468 66.752 41.4719V42.2963H67.6429V41.4719C67.6425 41.447 67.6472 41.4222 67.6566 41.399C67.666 41.3759 67.6799 41.3549 67.6976 41.3372C67.7152 41.3195 67.7363 41.3056 67.7594 41.2962C67.7825 41.2868 67.8073 41.2821 67.8323 41.2825C67.8828 41.2825 67.9312 41.3024 67.9672 41.3378C68.0031 41.3733 68.0236 41.4215 68.0243 41.4719V43.4994C68.0243 43.5245 68.0193 43.5494 68.0096 43.5725C68 43.5957 67.9858 43.6167 67.9679 43.6343C67.9501 43.6519 67.9289 43.6658 67.9056 43.6752C67.8823 43.6846 67.8574 43.6892 67.8323 43.6889C67.8073 43.6892 67.7825 43.6846 67.7594 43.6752C67.7363 43.6658 67.7152 43.6518 67.6976 43.6342C67.6799 43.6165 67.666 43.5955 67.6566 43.5724C67.6472 43.5492 67.6425 43.5244 67.6429 43.4994V42.6751H66.752V43.4994C66.7523 43.5246 66.7476 43.5496 66.738 43.573C66.7285 43.5963 66.7143 43.6174 66.6964 43.6351C66.6784 43.6528 66.6571 43.6667 66.6337 43.6759C66.6102 43.6852 66.5852 43.6896 66.56 43.6889C66.5346 43.6893 66.5093 43.6844 66.4859 43.6747C66.4624 43.665 66.4411 43.6506 66.4234 43.6324C66.4056 43.6142 66.3918 43.5925 66.3827 43.5688C66.3736 43.5451 66.3695 43.5197 66.3706 43.4943Z" fill="white"/>
<path d="M70.6023 41.5769C70.8242 41.8126 70.9486 42.1236 70.9504 42.4473C70.9505 42.7706 70.8258 43.0815 70.6023 43.3151C70.4984 43.4303 70.3717 43.5226 70.2302 43.586C70.0887 43.6495 69.9356 43.6828 69.7805 43.6838C69.6223 43.6833 69.466 43.6503 69.3211 43.5869C69.1762 43.5235 69.0459 43.431 68.9383 43.3151C68.7168 43.0808 68.5948 42.7697 68.5978 42.4473C68.5957 42.1243 68.7176 41.8128 68.9383 41.5769C69.046 41.4614 69.1764 41.3693 69.3213 41.3063C69.4662 41.2433 69.6225 41.2108 69.7805 41.2108C69.9354 41.2115 70.0884 41.2444 70.2299 41.3074C70.3714 41.3704 70.4982 41.4622 70.6023 41.5769ZM70.5587 42.4473C70.558 42.2244 70.474 42.0098 70.3232 41.8457C70.2536 41.7692 70.1688 41.7081 70.0743 41.6663C69.9797 41.6245 69.8775 41.6029 69.7741 41.6029C69.6707 41.6029 69.5685 41.6245 69.4739 41.6663C69.3793 41.7081 69.2946 41.7692 69.225 41.8457C69.0722 42.0086 68.9879 42.224 68.9895 42.4473C68.9868 42.6693 69.0714 42.8835 69.225 43.0438C69.2937 43.1217 69.3782 43.1841 69.4729 43.2268C69.5675 43.2696 69.6702 43.2917 69.7741 43.2917C69.878 43.2917 69.9807 43.2696 70.0753 43.2268C70.17 43.1841 70.2545 43.1217 70.3232 43.0438C70.4748 42.8822 70.559 42.6689 70.5587 42.4473Z" fill="white"/>
<path d="M73.4899 41.5769C73.7119 41.8126 73.8363 42.1236 73.8381 42.4473C73.8382 42.7706 73.7135 43.0815 73.4899 43.3151C73.3861 43.4303 73.2593 43.5226 73.1179 43.586C72.9764 43.6495 72.8232 43.6828 72.6681 43.6838C72.5104 43.6831 72.3545 43.65 72.21 43.5866C72.0656 43.5232 71.9357 43.4308 71.8285 43.3151C71.6061 43.0814 71.4839 42.7699 71.488 42.4473C71.4849 42.1241 71.6069 41.8122 71.8285 41.5769C71.9359 41.4616 72.0658 41.3696 72.2103 41.3066C72.3547 41.2436 72.5106 41.211 72.6681 41.2108C72.823 41.2115 72.9761 41.2444 73.1175 41.3074C73.259 41.3704 73.3858 41.4622 73.4899 41.5769ZM73.4464 42.4473C73.4466 42.2247 73.3635 42.0101 73.2134 41.8457C73.1436 41.7692 73.0586 41.708 72.9638 41.6662C72.8691 41.6244 72.7666 41.6028 72.663 41.6028C72.5594 41.6028 72.457 41.6244 72.3622 41.6662C72.2674 41.708 72.1824 41.7692 72.1126 41.8457C71.9617 42.0095 71.8784 42.2245 71.8797 42.4473C71.8774 42.6687 71.9609 42.8825 72.1126 43.0438C72.1816 43.1217 72.2663 43.1842 72.3612 43.2269C72.4561 43.2697 72.5589 43.2918 72.663 43.2918C72.7671 43.2918 72.87 43.2697 72.9649 43.2269C73.0598 43.1842 73.1445 43.1217 73.2134 43.0438C73.3643 42.8819 73.4476 42.6685 73.4464 42.4473Z" fill="white"/>
<path d="M74.496 43.4944V41.472C74.496 41.4218 74.5159 41.3736 74.5515 41.3381C74.587 41.3026 74.6352 41.2826 74.6854 41.2826C74.7359 41.2826 74.7844 41.3025 74.8203 41.3379C74.8562 41.3734 74.8767 41.4216 74.8774 41.472V43.3076H75.8093C75.856 43.313 75.8992 43.3354 75.9305 43.3706C75.9618 43.4057 75.9791 43.4512 75.9791 43.4983C75.9791 43.5454 75.9618 43.5908 75.9305 43.626C75.8992 43.6611 75.856 43.6836 75.8093 43.689H74.6854C74.6601 43.689 74.635 43.6839 74.6117 43.6741C74.5884 43.6643 74.5673 43.6498 74.5496 43.6317C74.532 43.6136 74.5181 43.5921 74.5089 43.5685C74.4997 43.5449 74.4953 43.5197 74.496 43.4944Z" fill="white"/>
<g opacity="0.5">
<path d="M17.0829 86.8965H15.0042V87.6133H17.0829V86.8965Z" fill="#006D77"/>
<path d="M15.9232 88.5196C15.3088 88.5196 14.4563 88.5478 13.847 88.5478H13.824V87.7798H13.8573C14.4691 87.7798 15.3318 87.7798 15.9334 87.7951H15.9514V87.8079L15.9334 88.5273L15.9232 88.5196ZM15.9232 88.5196L15.9078 87.8079L15.9232 87.8259C15.5776 87.8259 15.232 87.8259 14.8864 87.8259H13.847L13.8778 87.7926V88.5119L13.8496 88.4812C14.4461 88.4812 15.319 88.4991 15.9258 88.5119L15.9232 88.5196Z" fill="#006D77"/>
<path d="M51.095 66.9439C50.4781 66.9439 49.6256 66.9721 49.0163 66.9721H48.9882V66.2041H49.0214C49.6333 66.2041 50.496 66.2041 51.1002 66.2195H51.1155V66.2348L51.1002 66.9542L51.095 66.9439ZM51.095 66.9439L51.0771 66.2246L51.095 66.2425C50.7469 66.2425 50.4013 66.2425 50.0557 66.2425H49.0163L49.047 66.2092V66.9286L49.0189 66.8979C49.6154 66.8979 50.4909 66.9183 51.0976 66.9286L51.095 66.9439Z" fill="#006D77"/>
<path d="M49.9354 67.1309H47.8567V67.8477H49.9354V67.1309Z" fill="#006D77"/>
<path d="M48.7808 66.9439C48.1638 66.9439 47.3114 66.9721 46.7021 66.9721H46.6739V66.9439V66.2246V66.1938H46.7072C47.319 66.1938 48.1818 66.1938 48.7859 66.2092H48.8013V66.2246L48.7859 66.9439H48.7808ZM48.7808 66.9439L48.7629 66.2246L48.7808 66.2425C48.4326 66.2425 48.087 66.2425 47.7414 66.2425H46.7021L46.7328 66.2092V66.9286L46.7046 66.8978C47.3011 66.8978 48.1766 66.9183 48.7834 66.9286L48.7808 66.9439Z" fill="#006D77"/>
<path d="M113.121 61.7472C112.504 61.7472 111.652 61.7779 111.043 61.7753H111.014V61.0073H111.048C111.66 61.0073 112.522 61.0073 113.126 61.0252H113.142V61.0406L113.126 61.7574L113.121 61.7472ZM113.121 61.7472L113.103 61.0304L113.121 61.0457H112.082H111.043L111.073 61.015V61.7318L111.045 61.7036C111.642 61.7036 112.517 61.7216 113.124 61.7318L113.121 61.7472Z" fill="#006D77"/>
<path d="M113.121 76.4134C112.504 76.4134 111.652 76.4441 111.043 76.4441H111.014V75.6633H111.048C111.66 75.6633 112.522 75.6633 113.126 75.6813H113.142V75.6966L113.126 76.4134H113.121ZM113.121 76.4134L113.103 75.6966L113.121 75.712L112.082 75.7248H111.043L111.073 75.694V76.4109L111.045 76.3827C111.642 76.3827 112.517 76.4006 113.124 76.4109L113.121 76.4134Z" fill="#006D77"/>
<path d="M114.266 60.1216H112.187V60.8384H114.266V60.1216Z" fill="#006D77"/>
<path d="M87.9514 61.6089H85.8727V62.3257H87.9514V61.6089Z" fill="#006D77"/>
<path d="M87.9591 88.3328C87.3421 88.3328 86.4896 88.3636 85.8803 88.361H85.8522V88.3328V87.616V87.5828H85.8855C86.4973 87.5828 87.36 87.5828 87.9642 87.5981H87.9795V87.616L87.9642 88.3328H87.9591ZM87.9591 88.3328L87.9411 87.616L87.9591 87.6314C87.6109 87.6314 87.2653 87.6314 86.9197 87.6314H85.8803L85.9111 87.6007V88.3175L85.8829 88.2868C86.4794 88.2868 87.3549 88.3072 87.9616 88.3175L87.9591 88.3328Z" fill="#006D77"/>
<path d="M89.1034 86.707H87.0247V87.4238H89.1034V86.707Z" fill="#006D77"/>
<path d="M111.956 60.8409C111.342 60.8409 110.49 60.8716 109.88 60.8691H109.85V60.1011H109.883C110.495 60.1011 111.357 60.1011 111.959 60.1164H111.977V60.1318L111.959 60.8486L111.956 60.8409ZM111.956 60.8409L111.941 60.1241L111.956 60.1395L110.92 60.1523H109.88L109.911 60.1216V60.8384L109.883 60.8102C110.479 60.8102 111.352 60.8281 111.959 60.8384L111.956 60.8409Z" fill="#006D77"/>
<path d="M26.327 68.3878C25.7101 68.3878 24.8576 68.4185 24.2483 68.4185H24.2202V67.6505H24.2534C24.8653 67.6505 25.728 67.6505 26.3322 67.6659H26.3475V67.6812L26.3322 68.398L26.327 68.3878ZM26.327 68.3878L26.3117 67.671L26.327 67.6863L25.2877 67.6992H24.2483L24.2816 67.6659V68.3827L24.2534 68.3545C24.8499 68.3545 25.7254 68.3724 26.3322 68.3827L26.327 68.3878Z" fill="#006D77"/>
<path d="M49.9431 88.0843C49.3261 88.0843 48.4736 88.115 47.8643 88.1125H47.8362V87.3445H47.872C48.4839 87.3445 49.3466 87.3445 49.9507 87.3598H49.9661V87.3778L49.9507 88.0946L49.9431 88.0843ZM49.9431 88.0843L49.9277 87.3675L49.9431 87.3829L48.9037 87.3957H47.872L47.9053 87.365V88.0818L47.872 88.0638C48.4685 88.0638 49.344 88.0818 49.9507 88.092L49.9431 88.0843Z" fill="#006D77"/>
<path d="M24.0128 68.3878C23.3958 68.3878 22.5434 68.4185 21.9341 68.4185H21.9059V67.6505H21.9366C22.5485 67.6505 23.4112 67.6505 24.0154 67.6659H24.0307V67.6812L24.0154 68.398L24.0128 68.3878ZM24.0128 68.3878L23.9974 67.671L24.0128 67.6863L22.9734 67.6992H21.9341L21.9674 67.6659V68.3827L21.9392 68.3545C22.5357 68.3545 23.4112 68.3724 24.0179 68.3827L24.0128 68.3878Z" fill="#006D77"/>
<path d="M79.5111 80.7397C78.8967 80.7397 78.0416 80.7679 77.4349 80.7679H77.4042V79.9999H77.4375C78.0493 79.9999 78.9095 79.9999 79.5136 80.0152H79.5315V80.0306L79.5136 80.75L79.5111 80.7397ZM79.5111 80.7397L79.4957 80.0204L79.5111 80.0383C79.1655 80.0383 78.8199 80.0383 78.4717 80.0383H77.4477L77.4784 80.005V80.7244L77.4503 80.6936C78.0467 80.6936 78.9197 80.7141 79.5264 80.7244L79.5111 80.7397Z" fill="#006D77"/>
<path d="M79.5111 51.2921C78.8967 51.2921 78.0416 51.3228 77.4349 51.3202H77.4042V50.5522H77.4375C78.0493 50.5522 78.9095 50.5522 79.5136 50.5676H79.5315V50.583L79.5136 51.2998L79.5111 51.2921ZM79.5111 51.2921L79.4957 50.5753L79.5111 50.5906H78.4717H77.4477L77.4784 50.5599V51.2767L77.4503 51.2486C78.0467 51.2486 78.9197 51.2665 79.5264 51.2767L79.5111 51.2921Z" fill="#006D77"/>
<path d="M80.6707 51.479H78.592V52.1958H80.6707V51.479Z" fill="#006D77"/>
<path d="M34.304 59.525H32.2253V60.2418H34.304V59.525Z" fill="#006D77"/>
</g>
<path d="M8.84991 96.4174C44.1779 96.2613 83.817 96.2613 119.15 96.4174C83.8221 96.5761 44.183 96.5761 8.84991 96.4174Z" fill="#263238"/>
<path d="M8.84991 117.614C44.1779 117.458 83.817 117.455 119.15 117.614C83.8221 117.773 44.183 117.77 8.84991 117.614Z" fill="#263238"/>
<path d="M117.409 94.4973H10.5882V96.3584H117.409V94.4973Z" fill="#C7C7C7"/>
<path d="M18.0787 94.4973C18.246 95.1064 18.246 95.7493 18.0787 96.3584C17.9887 96.0571 17.9456 95.7436 17.9507 95.4292C17.9467 95.1139 17.9898 94.7998 18.0787 94.4973Z" fill="#263238"/>
<path d="M26.4269 94.4973C26.5158 94.7998 26.5589 95.1139 26.5549 95.4292C26.56 95.7436 26.5169 96.0571 26.4269 96.3584C26.2596 95.7493 26.2596 95.1064 26.4269 94.4973Z" fill="#263238"/>
<path d="M34.7776 94.4973C34.9448 95.1064 34.9448 95.7493 34.7776 96.3584C34.6876 96.0571 34.6444 95.7436 34.6496 95.4292C34.6455 95.1139 34.6887 94.7998 34.7776 94.4973Z" fill="#263238"/>
<path d="M43.1258 94.4973C43.2147 94.7998 43.2578 95.1139 43.2538 95.4292C43.2589 95.7436 43.2157 96.0571 43.1258 96.3584C42.9585 95.7493 42.9585 95.1064 43.1258 94.4973Z" fill="#263238"/>
<path d="M51.4765 94.4973C51.6437 95.1064 51.6437 95.7493 51.4765 96.3584C51.3865 96.0571 51.3433 95.7436 51.3485 95.4292C51.3444 95.1139 51.3875 94.7998 51.4765 94.4973Z" fill="#263238"/>
<path d="M59.8246 94.4973C59.9136 94.7998 59.9567 95.1139 59.9526 95.4292C59.9578 95.7436 59.9146 96.0571 59.8246 96.3584C59.6574 95.7493 59.6574 95.1064 59.8246 94.4973Z" fill="#263238"/>
<path d="M68.1753 94.4973C68.3426 95.1064 68.3426 95.7493 68.1753 96.3584C68.0854 96.0571 68.0422 95.7436 68.0473 95.4292C68.0433 95.1139 68.0864 94.7998 68.1753 94.4973Z" fill="#263238"/>
<path d="M76.5235 94.4973C76.6125 94.7998 76.6556 95.1139 76.6515 95.4292C76.6567 95.7436 76.6135 96.0571 76.5235 96.3584C76.3563 95.7493 76.3563 95.1064 76.5235 94.4973Z" fill="#263238"/>
<path d="M84.8742 94.4973C85.0415 95.1064 85.0415 95.7493 84.8742 96.3584C84.7842 96.0571 84.7411 95.7436 84.7462 95.4292C84.7422 95.1139 84.7853 94.7998 84.8742 94.4973Z" fill="#263238"/>
<path d="M93.2224 94.4973C93.3113 94.7998 93.3545 95.1139 93.3504 95.4292C93.3556 95.7436 93.3124 96.0571 93.2224 96.3584C93.0552 95.7493 93.0552 95.1064 93.2224 94.4973Z" fill="#263238"/>
<path d="M101.573 94.4973C101.74 95.1064 101.74 95.7493 101.573 96.3584C101.483 96.0571 101.44 95.7436 101.445 95.4292C101.441 95.1139 101.484 94.7998 101.573 94.4973Z" fill="#263238"/>
<path d="M109.921 94.4973C110.01 94.7998 110.053 95.1139 110.049 95.4292C110.054 95.7436 110.011 96.0571 109.921 96.3584C109.754 95.7493 109.754 95.1064 109.921 94.4973Z" fill="#263238"/>
<path d="M56.3533 96.4172H71.6467L100.541 117.614H27.4765L56.3533 96.4172Z" fill="#EBEBEB"/>
<path d="M22.6355 94.4972C22.6355 94.4972 22.4205 93.4937 21.9904 93.3376C21.5603 93.1814 21.2966 93.6345 21.2966 93.6345C21.2966 93.6345 21.1968 92.672 20.585 92.3852C19.9731 92.0985 19.5174 92.6873 19.5174 92.6873C19.5174 92.6873 19.049 91.4688 18.2118 91.4688C17.3747 91.4688 16.9549 93.2608 16.9549 93.2608C16.9549 93.2608 16.4608 92.7308 15.9539 93.0304C15.447 93.3299 15.4419 94.5075 15.4419 94.5075L22.6355 94.4972Z" fill="#37474F"/>
<path d="M94.0186 94.4972C94.0186 94.4972 93.8035 93.4937 93.3734 93.3376C92.9433 93.1814 92.6822 93.6345 92.6822 93.6345C92.6822 93.6345 92.5798 92.672 91.9706 92.3852C91.3613 92.0985 90.903 92.6873 90.903 92.6873C90.903 92.6873 90.4345 91.4688 89.5974 91.4688C88.7603 91.4688 88.3379 93.2608 88.3379 93.2608C88.3379 93.2608 87.8464 92.7308 87.3395 93.0304C86.8326 93.3299 86.8275 94.5075 86.8275 94.5075L94.0186 94.4972Z" fill="#455A64"/>
<path d="M41.6512 94.4971H34.0864C34.0864 94.4971 34.3424 93.4322 34.8365 93.3554C34.9875 93.342 35.139 93.3751 35.2707 93.4501C35.4025 93.5251 35.5082 93.6385 35.5738 93.7752C35.5738 93.7752 35.5507 92.2879 36.4877 92.0344C37.4246 91.781 38.208 93.0943 38.208 93.0943C38.208 93.0943 38.7968 92.3467 39.5955 92.3928C40.3942 92.4389 40.6016 93.6728 40.6016 93.6728C40.6016 93.6728 41.3286 93.2504 41.6512 94.4971Z" fill="#37474F"/>
<path d="M15.913 94.4972H11.9322C11.9322 94.4972 11.9322 93.9059 12.3315 93.7471C12.4379 93.7013 12.5564 93.6912 12.669 93.7184C12.7817 93.7457 12.8824 93.8087 12.9562 93.8982C12.9562 93.8982 13.1149 92.8076 13.8445 92.8076C14.5741 92.8076 14.9248 93.7471 14.9248 93.7471C14.9867 93.6574 15.0735 93.5878 15.1745 93.5469C15.2755 93.5059 15.3862 93.4955 15.4931 93.5167C15.8976 93.5705 15.913 94.4972 15.913 94.4972Z" fill="#455A64"/>
<path d="M44.7744 94.4972H40.7936C40.7936 94.4972 40.7936 93.9059 41.193 93.7471C41.2994 93.7013 41.4178 93.6912 41.5305 93.7184C41.6431 93.7457 41.7439 93.8087 41.8176 93.8982C41.8176 93.8982 41.9789 92.8076 42.7085 92.8076C43.4381 92.8076 43.776 93.7471 43.776 93.7471C43.8379 93.6574 43.9247 93.5878 44.0257 93.5469C44.1267 93.5059 44.2374 93.4955 44.3443 93.5167C44.759 93.5705 44.7744 94.4972 44.7744 94.4972Z" fill="#455A64"/>
<path d="M110.259 94.4972H106.278C106.278 94.4972 106.278 93.9059 106.678 93.7471C106.784 93.7013 106.903 93.6912 107.015 93.7184C107.128 93.7457 107.229 93.8087 107.302 93.8982C107.302 93.8982 107.461 92.8076 108.191 92.8076C108.92 92.8076 109.271 93.7471 109.271 93.7471C109.333 93.6572 109.419 93.5874 109.521 93.5464C109.622 93.5054 109.732 93.4951 109.839 93.5167C110.244 93.5705 110.259 94.4972 110.259 94.4972Z" fill="#455A64"/>
<path d="M116.068 94.4973H109.504C109.504 94.4973 109.519 93.522 110.164 93.2609C110.34 93.1872 110.534 93.1723 110.719 93.2184C110.904 93.2646 111.068 93.3693 111.188 93.5169C111.188 93.5169 111.444 91.7249 112.655 91.7249C113.866 91.7249 114.432 93.2609 114.432 93.2609C114.534 93.1128 114.677 92.9979 114.843 92.9301C115.01 92.8623 115.193 92.8447 115.369 92.8794C116.042 92.9665 116.068 94.4973 116.068 94.4973Z" fill="#37474F"/>
</svg>
