<svg width="126" height="84" viewBox="0 0 126 84" fill="none" xmlns="http://www.w3.org/2000/svg">
<path d="M9.31728 41.496C43.7102 41.3935 82.2898 41.3918 116.683 41.496C82.2898 41.6002 43.7102 41.5985 9.31728 41.496Z" fill="#263238"/>
<path d="M78.5316 65.2797L95.2157 61.1789L116.414 64.1323L99.0091 68.5373L78.5316 65.2797Z" fill="#DBDBDB"/>
<path d="M78.5316 65.2797L95.2106 61.1604C95.2106 61.1604 116.424 64.0937 116.424 64.092L116.637 64.1205L116.424 64.176L99.0091 68.5608C99.0091 68.5608 78.5383 65.2781 78.5316 65.2797ZM78.5316 65.2797C78.5316 65.2797 99.041 68.5171 99.0041 68.5154L116.404 64.092V64.1743C116.404 64.1743 95.1888 61.1957 95.2207 61.1973L78.5316 65.2797Z" fill="#DBDBDB"/>
<path d="M98.3455 67.3949C99.372 67.079 100.43 66.785 101.492 66.4944C102.554 66.2037 103.632 65.9248 104.714 65.6544C105.796 65.3839 106.898 65.11 108.004 64.853L109.67 64.4683C110.238 64.3473 110.794 64.2196 111.369 64.1054C110.865 64.265 110.331 64.4112 109.812 64.5657L108.224 65.0042C107.166 65.2982 106.084 65.5754 105.002 65.8442C103.92 66.113 102.818 66.3885 101.712 66.6456C100.607 66.9026 99.4913 67.1597 98.3455 67.3949Z" fill="#C7C7C7"/>
<path d="M101.102 65.7266C102.278 65.3234 103.548 64.9773 104.835 64.6481C106.122 64.3188 107.449 64.008 108.864 63.7661C107.688 64.1709 106.42 64.5153 105.131 64.8446C103.842 65.1739 102.509 65.478 101.102 65.7266Z" fill="#C7C7C7"/>
<path d="M93.319 66.7279C94.3454 66.4121 95.4038 66.1181 96.4656 65.8274C97.5274 65.5368 98.6059 65.2579 99.6878 64.9874C100.77 64.717 101.872 64.4431 102.976 64.1861L104.644 63.803C105.21 63.6821 105.768 63.5544 106.342 63.4385C105.838 63.5981 105.304 63.7459 104.785 63.8988L103.197 64.339C102.137 64.6313 101.057 64.9085 99.9751 65.179C98.8932 65.4494 97.7911 65.7233 96.6857 65.9803C95.5802 66.2374 94.4647 66.4927 93.319 66.7279Z" fill="#C7C7C7"/>
<path d="M92.6772 65.9198C94.4227 65.3721 96.2556 64.8849 98.1103 64.4078C99.965 63.9307 101.857 63.4872 103.822 63.0957C102.077 63.6434 100.244 64.1306 98.3909 64.6077C96.5378 65.0849 94.6495 65.5284 92.6772 65.9198Z" fill="#C7C7C7"/>
<path d="M94.8578 64.3994C95.8205 64.05 96.8738 63.7593 97.944 63.4838C99.0142 63.2083 100.128 62.9597 101.316 62.7648C100.353 63.1159 99.2998 63.4048 98.2313 63.6804C97.1628 63.9559 96.0473 64.2045 94.8578 64.3994Z" fill="#C7C7C7"/>
<path d="M9.58608 48.0581L32.7365 43.6766L55.0754 50.2034L32.041 54.7428L9.58608 48.0581Z" fill="#EBEBEB"/>
<path d="M9.58608 48.0581L32.7382 43.6548C32.7382 43.6548 55.0822 50.1648 55.0822 50.1631L55.2502 50.2118L55.0822 50.2454L32.041 54.768C32.0326 54.768 9.5928 48.0631 9.58608 48.0631V48.0581ZM9.58608 48.0581L32.0477 54.7209C31.9922 54.7327 55.0822 50.1581 55.0637 50.1631V50.2437L32.7314 43.6917C32.7751 43.6817 9.57936 48.0597 9.58608 48.0597V48.0581Z" fill="#DBDBDB"/>
<path d="M31.7167 53.4122C33.2287 53.0628 34.7525 52.7402 36.283 52.416C37.8134 52.0917 39.3557 51.7826 40.8996 51.4769C42.4435 51.1711 43.9958 50.872 45.5582 50.5881L47.9018 50.1614C48.6898 50.027 49.471 49.8859 50.2656 49.7582C49.513 49.9346 48.7536 50.0942 47.9909 50.2622L45.696 50.7544C44.1672 51.0804 42.6233 51.3878 41.081 51.6936C39.5388 51.9993 37.9848 52.2984 36.4224 52.5823C34.86 52.8662 33.2993 53.1535 31.7167 53.4122Z" fill="#DBDBDB"/>
<path d="M37.6505 51.0888C39.3002 50.6637 41.0105 50.3042 42.7258 49.9615C44.441 49.6188 46.1882 49.3063 47.9825 49.0526C46.3327 49.4777 44.6225 49.8372 42.9072 50.1799C41.1919 50.5226 39.4447 50.8351 37.6505 51.0888Z" fill="#DBDBDB"/>
<path d="M29.4336 51.5525C30.7524 51.24 32.0897 50.9527 33.4303 50.6671C34.771 50.3815 36.1183 50.111 37.4758 49.8405C38.8332 49.5701 40.1923 49.3113 41.5649 49.0644L43.6229 48.6948C44.3167 48.5789 45.0022 48.4562 45.701 48.347C45.0442 48.5049 44.3755 48.6494 43.7119 48.8006L41.7043 49.2324C40.3603 49.5197 39.0163 49.7885 37.6589 50.0589C36.3014 50.3294 34.944 50.5865 33.5714 50.8351C32.1989 51.0837 30.828 51.3307 29.4336 51.5525Z" fill="#DBDBDB"/>
<path d="M28.3567 50.61C29.5747 50.3177 30.8112 50.0489 32.0527 49.7834C33.2942 49.518 34.5442 49.266 35.7974 49.0173C37.0507 48.7687 38.3174 48.5268 39.5842 48.3L41.491 47.964C42.1344 47.8581 42.7711 47.7456 43.4196 47.6465C42.8131 47.796 42.1932 47.9287 41.5817 48.0715L39.7236 48.473C38.4854 48.7401 37.2322 48.9905 35.9789 49.2391C34.7256 49.4877 33.4589 49.728 32.1922 49.9565C30.9254 50.1849 29.6503 50.4 28.3567 50.61Z" fill="#DBDBDB"/>
<path d="M22.5893 50.5915C24.1013 50.2421 25.625 49.9195 27.1555 49.5936C28.686 49.2677 30.2282 48.9619 31.7722 48.6545C33.3161 48.347 34.8684 48.0513 36.4291 47.7657L38.7811 47.339C39.569 47.2063 40.3502 47.0635 41.1449 46.9358C40.3922 47.1139 39.6329 47.2718 38.8702 47.4398L36.577 47.927C35.0482 48.2513 33.5042 48.5587 31.962 48.8661C30.4198 49.1736 28.8658 49.4693 27.3034 49.7549C25.741 50.0405 24.1718 50.3311 22.5893 50.5915Z" fill="#DBDBDB"/>
<path d="M22.3978 49.4743C23.7317 49.1585 25.0858 48.8678 26.4415 48.5789C27.7973 48.2899 29.1665 48.0161 30.5357 47.7389C31.9049 47.4617 33.2825 47.2029 34.6702 46.9526L36.7534 46.578C37.4539 46.4604 38.1494 46.3361 38.855 46.2269C38.183 46.3865 37.511 46.5309 36.839 46.6855L34.8079 47.1206C33.4538 47.4113 32.0846 47.6834 30.7154 47.9606C29.3462 48.2378 27.967 48.4965 26.5793 48.7469C25.1916 48.9972 23.8073 49.2492 22.3978 49.4743Z" fill="#DBDBDB"/>
<path d="M18.0247 49.1803C19.5367 48.8309 21.0605 48.5083 22.5926 48.1841C24.1248 47.8598 25.6654 47.544 27.216 47.2449C28.7666 46.9459 30.3122 46.6401 31.8746 46.3562L34.2182 45.9295C35.0062 45.7951 35.789 45.654 36.582 45.5263C35.8294 45.7027 35.07 45.8623 34.309 46.0303L32.0158 46.5192C30.487 46.8434 28.943 47.1509 27.3991 47.4566C25.8552 47.7624 24.3029 48.0614 22.7405 48.3453C21.1781 48.6293 19.609 48.9216 18.0247 49.1803Z" fill="#DBDBDB"/>
<path d="M23.3285 46.9812C25.0841 46.5343 26.8951 46.1546 28.7196 45.7917C30.5441 45.4289 32.3921 45.0945 34.2922 44.8207C32.5366 45.2676 30.7272 45.6456 28.901 46.0101C27.0749 46.3747 25.2286 46.704 23.3285 46.9812Z" fill="#DBDBDB"/>
<path d="M43.5086 70.4256L72.9288 64.8581L101.314 73.1522L72.0434 78.9197L43.5086 70.4256Z" fill="#EBEBEB"/>
<path d="M43.512 70.4256L72.9288 64.8362C72.9288 64.8362 101.321 73.1136 101.321 73.1119L101.489 73.1606L101.321 73.1942L72.0434 78.9415C72.035 78.9432 43.512 70.4256 43.512 70.4256ZM43.512 70.4256L72.0535 78.8995C72.0014 78.8995 101.322 73.1085 101.309 73.1119V73.1925L72.9221 64.8782C72.9658 64.8648 43.5019 70.434 43.5086 70.4222L43.512 70.4256Z" fill="#DBDBDB"/>
<path d="M71.6302 77.2296C73.547 76.7861 75.4942 76.3711 77.4346 75.9629C79.375 75.5546 81.3389 75.1598 83.2994 74.7701C85.26 74.3803 87.234 74.0023 89.2198 73.6394L92.1984 73.0985C93.2064 72.9305 94.1926 72.7473 95.2022 72.5861C94.2463 72.8112 93.2753 73.0178 92.3126 73.2345L89.3978 73.8528C87.4558 74.2661 85.4935 74.6558 83.533 75.0456C81.5724 75.4353 79.5984 75.8133 77.6126 76.1745C75.6269 76.5357 73.6428 76.9003 71.6302 77.2296Z" fill="#DBDBDB"/>
<path d="M79.1717 74.2761C81.2683 73.7369 83.4355 73.2799 85.6195 72.8448C87.8035 72.4097 90.0211 72.0048 92.3026 71.6889C90.2059 72.2299 88.037 72.6869 85.853 73.122C83.669 73.5571 81.4514 73.9536 79.1717 74.2761Z" fill="#DBDBDB"/>
<path d="M68.7305 74.8658C70.4105 74.4694 72.1056 74.1031 73.8091 73.7419C75.5126 73.3807 77.2313 73.0346 78.9499 72.6919C80.6686 72.3492 82.4006 72.0199 84.1445 71.7041L86.7619 71.2337C87.6422 71.0875 88.5141 70.9313 89.4029 70.7935C88.5629 70.9951 87.7229 71.1782 86.8829 71.3698L84.3326 71.9174C82.6308 72.282 80.9105 72.6247 79.1918 72.9674C77.4732 73.3102 75.7394 73.6394 73.9956 73.9536C72.2518 74.2678 70.5012 74.592 68.7305 74.8658Z" fill="#DBDBDB"/>
<path d="M67.368 73.668C68.9153 73.2967 70.4878 72.9557 72.072 72.6197C73.6562 72.2837 75.2371 71.9611 76.8298 71.6436C78.4224 71.3261 80.0218 71.022 81.6413 70.733L84.0672 70.2996C84.8837 70.1669 85.6918 70.0224 86.5166 69.8964C85.7455 70.0862 84.9593 70.2559 84.1798 70.4357L81.8194 70.9397C80.2469 71.2757 78.6542 71.5966 77.0616 71.9141C75.469 72.2316 73.8696 72.5357 72.2501 72.8246C70.6306 73.1136 69.0043 73.416 67.368 73.668Z" fill="#DBDBDB"/>
<path d="M60.0314 73.6445C61.9483 73.2009 63.8954 72.786 65.8358 72.3777C67.7762 71.9695 69.7402 71.5747 71.7007 71.1849C73.6613 70.7952 75.6353 70.4172 77.616 70.056L80.5946 69.515C81.6026 69.347 82.5888 69.1639 83.5985 69.011C82.6426 69.2361 81.6715 69.4428 80.7089 69.6595L77.7941 70.2777C75.852 70.691 73.8898 71.0808 71.9292 71.4705C69.9686 71.8603 67.9946 72.2383 66.0089 72.5995C64.0231 72.9607 62.0441 73.3152 60.0314 73.6445Z" fill="#DBDBDB"/>
<path d="M59.7895 72.2249C61.4846 71.825 63.205 71.4537 64.9286 71.0892C66.6523 70.7246 68.3894 70.3735 70.1366 70.0257C71.8838 69.678 73.6277 69.3453 75.3917 69.0278L78.031 68.544C78.923 68.3961 79.805 68.2382 80.7038 68.0971C79.8638 68.3004 78.9986 68.4852 78.1452 68.6801L75.5647 69.2345C73.8427 69.6024 72.1022 69.9501 70.3567 70.2962C68.6112 70.6423 66.8657 70.9682 65.1017 71.2941C63.3377 71.6201 61.5804 71.9393 59.7895 72.2249Z" fill="#DBDBDB"/>
<path d="M54.2321 71.8519C56.149 71.4084 58.0961 70.9934 60.0365 70.5852C61.9769 70.1769 63.9408 69.7821 65.9014 69.3924C67.8619 69.0026 69.8359 68.6246 71.8217 68.2617L74.8003 67.7208C75.8083 67.5528 76.7945 67.3697 77.8025 67.2084C76.8482 67.4335 75.8772 67.6401 74.9146 67.8569L71.9998 68.4751C70.0577 68.8884 68.0954 69.2781 66.1349 69.6679C64.1743 70.0577 62.2003 70.4357 60.2146 70.7969C58.2288 71.1581 56.2447 71.5226 54.2321 71.8519Z" fill="#DBDBDB"/>
<path d="M60.9722 69.0564C63.2033 68.4902 65.5082 68.008 67.8216 67.5444C70.135 67.0807 72.4903 66.6573 74.9045 66.3096C72.6734 66.8774 70.3685 67.3596 68.0534 67.8216C65.7384 68.2836 63.3864 68.712 60.9722 69.0564Z" fill="#DBDBDB"/>
<path d="M115.399 56.3153L60.9302 71.3647V60.517L115.399 45.4675C118.285 50.7898 115.399 56.3153 115.399 56.3153Z" fill="#37474F"/>
<path d="M7.7784 63.84L60.9302 71.3647V68.6146L12.6386 62.7077L7.7784 63V63.84Z" fill="#455A64"/>
<path d="M60.9319 60.5674C62.9177 65.347 60.9319 71.3647 60.9319 71.3647L10.3421 63.3746V53.9986L60.9319 60.5674Z" fill="#455A64"/>
<path d="M59.6803 60.4061C61.614 65.1672 59.8399 70.2946 59.8399 70.2946L10.3421 63.336V53.9952L59.6803 60.4061Z" fill="white"/>
<path d="M59.6803 60.4061C59.7458 60.5909 59.9357 61.1117 60.0012 61.2948C60.3942 62.6027 60.5935 63.9611 60.5926 65.3268C60.5999 67.0114 60.3547 68.6877 59.8651 70.2996C59.8886 70.3735 10.3471 63.3931 10.3303 63.4116L10.2581 63.4015V63.336V53.9952V53.9095L10.3421 53.9213L35.0213 57.1519L59.6702 60.4027L59.6803 60.4061ZM59.6803 60.4061C47.544 58.7748 22.1474 55.7642 10.416 53.9986L10.4244 63.3394L10.3522 63.2554C10.3522 63.2738 59.9525 70.2425 59.8114 70.2862C60.0622 69.4862 60.2499 68.6678 60.3725 67.8384C60.7471 65.357 60.6026 62.753 59.6786 60.4061H59.6803Z" fill="#DBDBDB"/>
<path d="M34.2922 58.044C42.551 59.052 51.8011 60.2952 60.0314 61.5166C51.7726 60.5086 42.5225 59.2637 34.2922 58.044Z" fill="#DBDBDB"/>
<path d="M10.3421 57.4157C17.4216 58.2557 25.2756 59.3208 32.3299 60.3809C25.2454 59.5409 17.3947 58.4791 10.3421 57.4157Z" fill="#DBDBDB"/>
<path d="M11.5214 58.338C23.5519 59.85 37.0306 61.6677 49.0291 63.3965C37.0003 61.8845 23.5217 60.0667 11.5214 58.338Z" fill="#DBDBDB"/>
<path d="M18.0247 61.5115C30.5038 63.0554 44.4864 64.9101 56.9352 66.6708C44.4578 65.1285 30.4752 63.2721 18.0247 61.5115Z" fill="#DBDBDB"/>
<path d="M26.413 63.4872C37.296 64.848 49.5012 66.491 60.359 68.0669C49.471 66.7094 37.2725 65.063 26.413 63.4872Z" fill="#DBDBDB"/>
<path d="M16.632 63.4687C30.576 65.2462 46.2 67.3529 60.1087 69.3336C46.1647 67.5578 30.5407 65.4494 16.632 63.4687Z" fill="#DBDBDB"/>
<path d="M60.9319 60.5674L115.399 45.4675L60.359 42.9744L7.7784 52.7251V53.6659L60.9319 60.5674Z" fill="#455A64"/>
<path d="M62.328 58.9075C69.085 56.8596 76.025 55.0099 82.9584 53.4122C76.2031 55.4618 69.263 57.3082 62.328 58.9075Z" fill="#37474F"/>
<path d="M49.261 57.9466C51.1426 58.044 53.0863 58.2624 54.9545 58.4892C56.8226 58.716 58.7513 58.9932 60.5825 59.3712C58.7009 59.2754 56.7571 59.0554 54.8906 58.8286C53.0242 58.6018 51.0938 58.3162 49.261 57.9466Z" fill="#37474F"/>
<path d="M9.24 52.9082C22.0332 54.2825 34.9289 55.9037 47.6364 57.7399C34.8331 56.369 21.9391 54.7445 9.24 52.9082Z" fill="#37474F"/>
<path d="M97.944 51.5861C103.26 49.9162 108.639 48.3946 114.084 47.0215C108.77 48.6914 103.391 50.213 97.944 51.5861Z" fill="#455A64"/>
<path d="M69.7015 43.3121C68.9959 43.4498 66.0828 43.6061 66.024 42.9761C65.9333 42.0286 72.9002 35.3086 75.4001 34.0452C77.7773 32.8423 85.4364 30.2182 87.3281 30.161L87.3449 36.1956C86.2747 36.4678 77.7487 35.6362 75.9578 36.587C75.18 37.0003 74.1502 38.7139 72.0535 41.4355C71.316 42.3948 70.1182 43.2298 69.7015 43.3121Z" fill="#006D77"/>
<g opacity="0.3">
<path d="M69.7015 43.3121C68.9959 43.4498 66.0828 43.6061 66.024 42.9761C65.9333 42.0286 72.9002 35.3086 75.4001 34.0452C77.7773 32.8423 85.4364 30.2182 87.3281 30.161L87.3449 36.1956C86.2747 36.4678 77.7487 35.6362 75.9578 36.587C75.18 37.0003 74.1502 38.7139 72.0535 41.4355C71.316 42.3948 70.1182 43.2298 69.7015 43.3121Z" fill="black"/>
</g>
<path d="M68.255 43.3121C67.5478 43.4498 64.8396 43.6061 64.7791 42.9761C64.6901 42.0286 71.657 35.3086 74.1552 34.0452C76.5324 32.8423 85.4364 30.2182 87.3281 30.161L87.3449 36.1956C86.2747 36.4678 76.5055 35.6362 74.7146 36.587C73.9368 37.0003 72.6986 38.7139 70.6054 41.4355C69.8695 42.3948 68.6717 43.2298 68.255 43.3121Z" fill="#006D77"/>
<g opacity="0.2">
<path d="M68.255 43.3121C67.5478 43.4498 64.8396 43.6061 64.7791 42.9761C64.6901 42.0286 71.657 35.3086 74.1552 34.0452C76.5324 32.8423 85.4364 30.2182 87.3281 30.161L87.3449 36.1956C86.2747 36.4678 76.5055 35.6362 74.7146 36.587C73.9368 37.0003 72.6986 38.7139 70.6054 41.4355C69.8695 42.3948 68.6717 43.2298 68.255 43.3121Z" fill="black"/>
</g>
<path d="M95.7247 51.319C96.3329 51.5743 98.7252 51.7037 99.1351 51.1879C99.7534 50.4067 92.2102 39.7774 87.7783 37.8487C83.6338 36.0595 25.1614 24.7027 23.9551 24.5146L23.9114 29.232C32.0578 30.5054 83.748 38.7408 86.945 40.1335C89.0299 41.039 91.686 45.817 93.5945 49.1182C94.3656 50.4588 95.0191 51.0233 95.7247 51.319Z" fill="#006D77"/>
<g opacity="0.2">
<path d="M95.7247 51.319C96.3329 51.5743 98.7252 51.7037 99.1351 51.1879C99.7534 50.4067 92.2102 39.7774 87.7783 37.8487C83.6338 36.0595 25.1614 24.7027 23.9551 24.5146L23.9114 29.232C32.0578 30.5054 83.748 38.7408 86.945 40.1335C89.0299 41.039 91.686 45.817 93.5945 49.1182C94.3656 50.4588 95.0191 51.0233 95.7247 51.319Z" fill="black"/>
</g>
<path d="M94.715 51.319C95.3232 51.5743 97.7155 51.7037 98.1254 51.1879C98.7437 50.4067 91.2559 39.5203 86.8258 37.5917C82.6795 35.8025 25.1614 24.696 23.9551 24.5146L22.9018 29.232C31.0481 30.5054 82.7383 38.7408 85.9354 40.1335C88.0202 41.039 90.6763 45.817 92.5848 49.1182C93.3559 50.4588 94.0094 51.0233 94.715 51.319Z" fill="#006D77"/>
<g opacity="0.1">
<path d="M94.715 51.319C95.3232 51.5743 97.7155 51.7037 98.1254 51.1879C98.7437 50.4067 91.2559 39.5203 86.8258 37.5917C82.6795 35.8025 25.1614 24.696 23.9551 24.5146L22.9018 29.232C31.0481 30.5054 82.7383 38.7408 85.9354 40.1335C88.0202 41.039 90.6763 45.817 92.5848 49.1182C93.3559 50.4588 94.0094 51.0233 94.715 51.319Z" fill="black"/>
</g>
<g opacity="0.1">
<path d="M35.28 26.6918L30.8549 30.497C27.174 29.909 24.3499 29.4638 22.9051 29.237L23.9568 24.5146C24.2844 24.565 28.7986 25.4302 35.28 26.6918Z" fill="black"/>
<path d="M46.5965 33.0439L43.848 32.592L41.2944 27.8678L45.3415 28.6675L46.5965 33.0439Z" fill="black"/>
<path d="M62.076 32.0309L58.968 35.0935L56.2078 34.6298L58.4153 31.2849C59.6417 31.5325 60.8619 31.7811 62.076 32.0309Z" fill="black"/>
<path d="M86.4461 37.4522L85.3759 39.9537C84.8618 39.8093 84.0874 39.6278 83.0911 39.4178L82.32 36.3686C84.2587 36.8256 85.6901 37.1969 86.4461 37.4522Z" fill="black"/>
</g>
<path d="M35.0683 53.7902C28.9766 53.4962 24.3415 46.5965 24.7346 38.4115C24.9211 34.5055 26.213 30.8734 28.3702 28.1837C30.5995 25.405 33.4774 23.9467 36.5014 24.0996C39.5254 24.2525 42.2503 25.9661 44.2008 28.9481C46.0908 31.8276 47.0282 35.569 46.8384 39.4783C46.4654 47.2231 41.7178 53.3887 36.0444 53.7802C35.7195 53.802 35.3936 53.8054 35.0683 53.7902ZM29.9208 29.4302C28.0241 31.7906 26.88 35.0162 26.712 38.509C26.376 45.5986 30.161 51.5642 35.1607 51.8045C40.1604 52.0447 44.5066 46.4722 44.851 39.3725C45.019 35.8798 44.1941 32.5618 42.5359 30.0266C40.9382 27.5923 38.7593 26.1895 36.4006 26.077C36.1493 26.0618 35.8974 26.0618 35.6462 26.077C33.5563 26.2366 31.547 27.4008 29.9208 29.4269V29.4302ZM24.743 39.4514C24.4356 33.4639 25.1059 32.5265 24.8338 30.7608C24.7044 29.9208 23.5217 29.1144 23.5217 29.1144L24.5549 24.8153C24.5549 24.8153 27.7754 25.1294 28.518 25.1412C29.8385 25.1597 32.6894 24.1954 35.1725 24.1332C35.1725 24.1332 29.7746 26.5591 28.0392 29.652C26.3038 32.7449 24.743 39.4481 24.743 39.4481V39.4514Z" fill="#006D77"/>
<path opacity="0.1" d="M35.0683 53.7902C28.9766 53.4962 24.3415 46.5965 24.7346 38.4115C24.9211 34.5055 26.213 30.8734 28.3702 28.1837C30.5995 25.405 33.4774 23.9467 36.5014 24.0996C39.5254 24.2525 42.2503 25.9661 44.2008 28.9481C46.0908 31.8276 47.0282 35.569 46.8384 39.4783C46.4654 47.2231 41.7178 53.3887 36.0444 53.7802C35.7195 53.802 35.3936 53.8054 35.0683 53.7902ZM29.9208 29.4302C28.0241 31.7906 26.88 35.0162 26.712 38.509C26.376 45.5986 30.161 51.5642 35.1607 51.8045C40.1604 52.0447 44.5066 46.4722 44.851 39.3725C45.019 35.8798 44.1941 32.5618 42.5359 30.0266C40.9382 27.5923 38.7593 26.1895 36.4006 26.077C36.1493 26.0618 35.8974 26.0618 35.6462 26.077C33.5563 26.2366 31.547 27.4008 29.9208 29.4269V29.4302ZM24.743 39.4514C24.4356 33.4639 25.1059 32.5265 24.8338 30.7608C24.7044 29.9208 23.5217 29.1144 23.5217 29.1144L24.5549 24.8153C24.5549 24.8153 27.7754 25.1294 28.518 25.1412C29.8385 25.1597 32.6894 24.1954 35.1725 24.1332C35.1725 24.1332 29.7746 26.5591 28.0392 29.652C26.3038 32.7449 24.743 39.4481 24.743 39.4481V39.4514Z" fill="black"/>
<path d="M34.2401 53.7902C28.1467 53.4962 23.5116 46.5965 23.9047 38.4115C24.0912 34.5055 25.3831 30.8734 27.5402 28.1837C29.7696 25.405 32.6474 23.9467 35.6714 24.0996C38.6954 24.2525 41.4204 25.9661 43.3709 28.9481C45.2609 31.8276 46.1983 35.569 46.0085 39.4783C45.6355 47.2231 40.8878 53.3887 35.2145 53.7802C34.8901 53.802 34.5648 53.8054 34.2401 53.7902ZM29.0909 29.4302C27.1942 31.794 26.0568 35.0196 25.8888 38.5123C25.5528 45.6019 29.3362 51.5676 34.3358 51.8078C39.3355 52.0481 43.6817 46.4755 44.0261 39.3758C44.1941 35.8831 43.3692 32.5651 41.711 30.03C40.115 27.5957 37.9344 26.1929 35.5757 26.0803C35.3245 26.0652 35.0726 26.0652 34.8214 26.0803C32.7281 26.2366 30.7171 27.4008 29.0909 29.4269V29.4302ZM23.9131 39.4514C23.6057 33.4639 24.276 32.5265 24.0038 30.7608C23.8745 29.9208 22.6918 29.1144 22.6918 29.1144L23.772 24.323C23.772 24.323 27.0463 24.9026 27.7872 24.9127C29.1077 24.9329 31.8595 24.1954 34.3392 24.1399C34.3392 24.1399 28.9414 26.5658 27.2059 29.6587C25.4705 32.7516 23.9131 39.4481 23.9131 39.4481V39.4514Z" fill="#006D77"/>
<path d="M27.001 26.5154C26.9623 26.8128 26.4096 26.9842 25.7662 26.8985C25.1227 26.8128 24.6355 26.502 24.6758 26.2063C24.7162 25.9106 25.2672 25.7376 25.9106 25.8233C26.5541 25.909 27.048 26.2181 27.001 26.5154Z" fill="#A6A6A6"/>
<path d="M24.9581 26.2164C25.0102 26.0736 25.5696 25.9123 26.1811 26.077L24.9581 26.2164Z" fill="white"/>
<path d="M23.52 29.153C24.6826 29.8049 25.1798 30.7658 25.0488 32.0964C24.9194 34.4047 24.659 36.6912 24.6557 38.9995C24.6398 40.1515 24.714 41.3031 24.8774 42.4435C24.1332 39.6312 24.355 36.666 24.617 33.8016L24.785 32.0813C24.9665 30.7944 24.5599 29.9141 23.5166 29.153H23.52Z" fill="white"/>
<path d="M29.5915 25.1899C31.2043 24.7296 32.8793 24.3499 34.566 24.4255C32.886 24.575 31.2547 24.9513 29.5915 25.1899Z" fill="white"/>
<path opacity="0.1" d="M29.5898 29.5495C27.757 31.9015 26.6582 35.1069 26.4936 38.5812C26.166 45.6372 29.8284 51.5642 34.6601 51.8045C39.4918 52.0447 43.6934 46.5007 44.0261 39.4481C44.1941 35.9755 43.3927 32.6743 41.79 30.1543C40.2461 27.7317 38.1394 26.3373 35.8579 26.2248C35.6151 26.2097 35.3716 26.2097 35.1288 26.2248C33.1044 26.376 31.1623 27.5318 29.5898 29.5495Z" fill="#EBEBEB"/>
<g opacity="0.2">
<path d="M38.8618 27.1723L26.4802 39.9118C26.4684 39.4716 26.4802 39.0298 26.4953 38.5795C26.5539 37.2651 26.7555 35.961 27.0967 34.6903L35.3287 26.2248C35.4967 26.2248 35.6832 26.2248 35.8613 26.2248C36.9248 26.2853 37.9563 26.6111 38.8618 27.1723Z" fill="white"/>
<path d="M43.176 33.096L28.7566 47.9321C28.4914 47.5208 28.2513 47.0938 28.0375 46.6536L42.6048 31.6646C42.8221 32.1306 43.0128 32.6085 43.176 33.096Z" fill="white"/>
<path d="M43.7371 41.9597C43.561 42.9167 43.3036 43.857 42.9677 44.7703L36.2561 51.6751C35.7321 51.7882 35.1955 51.8317 34.6601 51.8045C34.5089 51.7961 34.3577 51.7843 34.2082 51.7641L43.7371 41.9597Z" fill="white"/>
<path d="M43.764 35.3791L30.0132 49.5264C29.9477 49.4626 29.8855 49.3954 29.825 49.3265L43.7002 35.0465C43.7254 35.1574 43.7438 35.2699 43.764 35.3791Z" fill="white"/>
</g>
<path d="M54.049 39.8446L55.393 38.3846C53.2325 36.3854 48.1471 33.5933 44.3369 37.2977L45.7212 38.7223C49.135 35.3976 53.849 39.6631 54.049 39.8446Z" fill="#006D77"/>
<path d="M66.9077 55.608C63.0292 54.8959 59.592 52.6736 57.3508 49.4292C55.1096 46.1847 54.2477 42.1834 54.9545 38.304C55.4838 35.4112 56.8591 32.7404 58.9063 30.6292C60.9536 28.518 63.5809 27.0612 66.456 26.4431C69.3311 25.825 72.3249 26.0733 75.0589 27.1567C77.7929 28.24 80.1443 30.1097 81.8158 32.5293C83.4872 34.949 84.4036 37.8099 84.4492 40.7504C84.4947 43.6908 83.6673 46.5788 82.0716 49.049C80.4759 51.5193 78.1836 53.4609 75.4844 54.6284C72.7853 55.7958 69.8006 56.1368 66.9077 55.608ZM56.91 38.6669C56.4314 41.3034 56.7883 44.0236 57.9307 46.4475C59.073 48.8713 60.944 50.8779 63.2821 52.1869C65.6202 53.4959 68.3088 54.042 70.9723 53.7489C73.6358 53.4557 76.1413 52.3381 78.1388 50.5519C80.1363 48.7658 81.526 46.4004 82.114 43.786C82.7019 41.1717 82.4586 38.4391 81.4181 35.9697C80.3777 33.5004 78.5919 31.4176 76.3104 30.0124C74.0288 28.6072 71.3653 27.9496 68.6918 28.1316C65.8373 28.3311 63.1303 29.4747 60.9972 31.3821C58.8641 33.2895 57.4262 35.8523 56.91 38.6669Z" fill="#006D77"/>
<path d="M82.824 34.6282C81.8009 31.2312 75.8419 27.4966 75.8419 27.4966C78.2544 28.0896 80.9155 29.2958 82.2091 29.5646C82.9349 29.7142 87.3365 30.1644 87.3365 30.1644L87.3533 36.199C87.3533 36.199 86.1437 36.2662 85.8413 37.0574C85.1928 38.7223 85.5204 39.1255 83.921 44.9014C83.9059 44.9014 83.832 38.0234 82.824 34.6282Z" fill="#006D77"/>
<g opacity="0.1">
<path d="M66.9077 55.608C63.0292 54.8959 59.592 52.6736 57.3508 49.4292C55.1096 46.1847 54.2477 42.1834 54.9545 38.304C55.4838 35.4112 56.8591 32.7404 58.9063 30.6292C60.9536 28.518 63.5809 27.0612 66.456 26.4431C69.3311 25.825 72.3249 26.0733 75.0589 27.1567C77.7929 28.24 80.1443 30.1097 81.8158 32.5293C83.4872 34.949 84.4036 37.8099 84.4492 40.7504C84.4947 43.6908 83.6673 46.5788 82.0716 49.049C80.4759 51.5193 78.1836 53.4609 75.4844 54.6284C72.7853 55.7958 69.8006 56.1368 66.9077 55.608ZM56.91 38.6669C56.4314 41.3034 56.7883 44.0236 57.9307 46.4475C59.073 48.8713 60.944 50.8779 63.2821 52.1869C65.6202 53.4959 68.3088 54.042 70.9723 53.7489C73.6358 53.4557 76.1413 52.3381 78.1388 50.5519C80.1363 48.7658 81.526 46.4004 82.114 43.786C82.7019 41.1717 82.4586 38.4391 81.4181 35.9697C80.3777 33.5004 78.5919 31.4176 76.3104 30.0124C74.0288 28.6072 71.3653 27.9496 68.6918 28.1316C65.8373 28.3311 63.1303 29.4747 60.9972 31.3821C58.8641 33.2895 57.4262 35.8523 56.91 38.6669Z" fill="black"/>
<path d="M82.824 34.6282C81.8009 31.2312 75.8419 27.4966 75.8419 27.4966C78.2544 28.0896 80.9155 29.2958 82.2091 29.5646C82.9349 29.7142 87.3365 30.1644 87.3365 30.1644L87.3533 36.199C87.3533 36.199 86.1437 36.2662 85.8413 37.0574C85.1928 38.7223 85.5204 39.1255 83.921 44.9014C83.9059 44.9014 83.832 38.0234 82.824 34.6282Z" fill="black"/>
</g>
<path d="M65.5855 55.3913C61.7102 54.6791 58.2755 52.459 56.0347 49.218C53.794 45.9769 52.93 41.9795 53.6323 38.1024C54.1583 35.2064 55.5315 32.5315 57.5782 30.4162C59.6249 28.3009 62.2531 26.8403 65.1302 26.2192C68.0073 25.5981 71.004 25.8445 73.741 26.9271C76.4781 28.0097 78.8325 29.8799 80.5062 32.3011C82.18 34.7222 83.0979 37.5855 83.1439 40.5285C83.1898 43.4715 82.3617 46.362 80.7643 48.8342C79.1669 51.3064 76.872 53.2492 74.1701 54.4167C71.4681 55.5842 68.4806 55.924 65.5855 55.393V55.3913ZM55.5878 38.4586C55.1072 41.0972 55.4628 43.8201 56.6051 46.2467C57.7474 48.6733 59.6192 50.6825 61.959 51.9934C64.2988 53.3044 66.9898 53.8516 69.6558 53.5587C72.3218 53.2657 74.8296 52.1472 76.8289 50.3595C78.8283 48.5717 80.2191 46.204 80.8072 43.5872C81.3953 40.9705 81.1512 38.2353 80.109 35.764C79.0668 33.2928 77.2787 31.2088 74.9944 29.8033C72.7101 28.3979 70.0437 27.7412 67.368 27.925C64.514 28.1248 61.8075 29.2682 59.6748 31.1753C57.5421 33.0823 56.1043 35.6446 55.5878 38.4586Z" fill="#006D77"/>
<path d="M81.4934 34.4198C80.4703 31.0229 74.5114 27.2882 74.5114 27.2882C76.9238 27.8813 79.585 29.0875 80.8786 29.3563C81.6043 29.5058 86.0059 29.9561 86.0059 29.9561L86.0227 35.4816C86.0227 35.4816 84.8131 35.8478 84.5107 36.6374C83.8606 38.3023 84.1882 38.9172 82.5888 44.7014C82.5838 44.688 82.5166 37.8151 81.4934 34.4198Z" fill="#006D77"/>
<path d="M84.121 32.4374C84.0806 32.7348 83.5279 32.9062 82.8862 32.8205C82.2444 32.7348 81.7538 32.4257 81.7942 32.1283C81.8345 31.831 82.3872 31.6596 83.029 31.7453C83.6707 31.831 84.168 32.1418 84.121 32.4374Z" fill="#A6A6A6"/>
<path d="M82.0764 32.1401C82.1285 31.9973 82.6879 31.8343 83.2994 32.0006L82.0764 32.1401Z" fill="white"/>
<path d="M61.4594 28.3701C62.7333 27.4 64.2934 26.8805 65.8946 26.8934C64.3826 27.3369 62.9278 27.8174 61.4594 28.3701Z" fill="white"/>
<path d="M55.1678 35.784C55.9205 32.7785 58.4338 29.8788 61.2007 28.5264C58.6102 30.3744 56.4379 32.8541 55.1678 35.784Z" fill="white"/>
<path opacity="0.1" d="M56.201 38.4586C54.9578 45.4423 59.4905 52.1623 66.3079 53.4374C73.1254 54.7126 79.6807 50.0657 80.9239 43.0836C82.1671 36.1015 77.6328 29.3782 70.8154 28.1047C69.7902 27.9117 68.7445 27.8513 67.704 27.925C62.1046 28.3198 57.2527 32.5534 56.201 38.4586Z" fill="#EBEBEB"/>
<g opacity="0.2">
<path d="M81.1171 41.3649L69.1404 53.6289C68.1917 53.6727 67.2412 53.6062 66.3079 53.4307C65.9039 53.3558 65.5041 53.2599 65.1101 53.1434L80.64 37.2355C81.0195 38.5775 81.1806 39.9718 81.1171 41.3649Z" fill="white"/>
<path d="M70.1736 28.0022L56.1002 42.4233C55.9337 41.1042 55.9677 39.7675 56.201 38.4585C56.2582 38.1326 56.3304 37.8084 56.411 37.4909L65.352 28.3231C66.1211 28.1139 66.9089 27.9806 67.704 27.9249C68.5277 27.8657 69.3553 27.8916 70.1736 28.0022Z" fill="white"/>
<path d="M79.0759 33.7327L61.6896 51.5407C61.2925 51.2765 60.9116 50.9887 60.5489 50.6789L78.2376 32.5634C78.5395 32.9366 78.8194 33.327 79.0759 33.7327Z" fill="white"/>
<path d="M73.6361 28.9884L57.0679 45.9564C56.8597 45.4739 56.6813 44.979 56.5337 44.4746L72.1896 28.434C72.6828 28.5886 73.1659 28.7737 73.6361 28.9884Z" fill="white"/>
<path d="M80.9558 42.9055C80.9474 42.9643 80.9357 43.0248 80.9256 43.0836C80.9088 43.1878 80.8886 43.2919 80.8668 43.3927L71.1228 53.3786C70.9666 53.4122 70.807 53.4425 70.6457 53.4694L80.9558 42.9055Z" fill="white"/>
<path d="M77.2481 31.4714L59.4871 49.6692C59.4233 49.602 59.3611 49.5331 59.3006 49.4642L77.0498 31.2782L77.2481 31.4714Z" fill="white"/>
</g>
</svg>
