<svg width="106" height="106" viewBox="0 0 106 106" fill="none" xmlns="http://www.w3.org/2000/svg">
<path d="M68.9212 24.4456V37.9288C68.9212 38.3632 69.2733 38.7153 69.7077 38.7153H89.7396C90.174 38.7153 90.5261 38.3632 90.5261 37.9288V24.4456C90.5261 24.0112 90.174 23.6591 89.7396 23.6591H69.7077C69.2733 23.6591 68.9212 24.0112 68.9212 24.4456Z" fill="#455A64"/>
<path d="M70.3988 24.134V38.2405H88.4422V24.134H70.3988Z" fill="white"/>
<path d="M89.9709 31.4001C90.0919 31.1056 89.9512 30.7687 89.6566 30.6477C89.362 30.5267 89.0251 30.6674 88.9041 30.962C88.7831 31.2566 88.9239 31.5935 89.2185 31.7145C89.513 31.8354 89.8499 31.6947 89.9709 31.4001Z" fill="#263238"/>
<path d="M69.784 29.0439V33.3391C69.7835 33.3707 69.7705 33.4009 69.7479 33.4231C69.7253 33.4453 69.6949 33.4578 69.6632 33.4578C69.6317 33.4578 69.6015 33.4453 69.5793 33.423C69.557 33.4007 69.5445 33.3705 69.5445 33.3391V29.0439C69.5442 29.0282 69.5471 29.0125 69.5529 28.9979C69.5587 28.9832 69.5674 28.9699 69.5785 28.9586C69.5895 28.9474 69.6027 28.9384 69.6173 28.9323C69.6318 28.9262 69.6474 28.9231 69.6632 28.9231C69.6953 28.9231 69.726 28.9358 69.7486 28.9585C69.7713 28.9812 69.784 29.0119 69.784 29.0439Z" fill="#263238"/>
<path d="M88.7241 16.854H77.662V31.9929H88.7241V16.854Z" fill="#E0E0E0"/>
<path d="M85.9194 18.7598H74.8572V33.8987H85.9194V18.7598Z" fill="#006D77"/>
<path d="M84.0241 21.0854H72.9619V36.2244H84.0241V21.0854Z" fill="white"/>
<path d="M84.0304 36.2202C84.0304 36.2202 84.0304 36.1948 84.0304 36.146C84.0304 36.0972 84.0304 36.023 84.0304 35.934V35.1051C84.0304 34.3822 84.0304 33.3285 84.0156 31.9972C84.0156 29.3323 83.9965 25.5545 83.9817 21.0834L84.0326 21.1343L72.9704 21.147L73.0255 21.0919V36.2308L72.981 36.1842L81.0137 36.2032H83.2503H83.8375C83.9732 36.2032 84.0495 36.2032 84.0495 36.2032H83.8545H83.2736L81.0476 36.216L72.9916 36.2456H72.928V36.2011C72.928 31.9611 72.9132 26.7162 72.9068 21.0622V21.0071H72.9619H84.0241H84.075V21.058C84.075 25.5418 84.0622 29.326 84.058 32.0035C84.058 33.3306 84.058 34.38 84.0453 35.1008C84.0453 35.457 84.0453 35.7368 84.0453 35.9192C84.0453 36.0082 84.0453 36.0782 84.0453 36.1312C84.0435 36.1613 84.0385 36.1911 84.0304 36.2202Z" fill="#263238"/>
<path d="M79.7247 24.1277C79.7247 24.1574 78.5205 24.1828 77.0365 24.1849C75.5525 24.1871 74.3484 24.1616 74.3484 24.1319C74.3484 24.1023 75.5525 24.0747 77.0365 24.0747C78.5205 24.0747 79.7247 24.0959 79.7247 24.1277Z" fill="#263238"/>
<path d="M82.6334 25.44C82.6334 25.4718 80.7784 25.4973 78.4909 25.4994C76.2034 25.5015 74.3505 25.4761 74.3505 25.4464C74.3505 25.4167 76.2034 25.3892 78.4909 25.3892C80.7784 25.3892 82.6334 25.4104 82.6334 25.44Z" fill="#263238"/>
<path d="M82.6334 26.8139C82.6334 26.8436 80.7805 26.869 78.493 26.8711C76.2055 26.8732 74.3505 26.8499 74.3505 26.8181C74.3505 26.7863 76.2055 26.763 78.493 26.7609C80.7805 26.7588 82.6334 26.7821 82.6334 26.8139Z" fill="#263238"/>
<path d="M82.6355 28.196C82.6355 28.2257 80.7805 28.2533 78.493 28.2533C76.2055 28.2533 74.3526 28.2321 74.3526 28.2024C74.3526 28.1727 76.2055 28.1451 78.493 28.143C80.7805 28.1409 82.6355 28.1557 82.6355 28.196Z" fill="#263238"/>
<path d="M82.6355 29.557C82.6355 29.5888 80.7826 29.6142 78.4951 29.6163C76.2076 29.6185 74.3526 29.593 74.3526 29.5633C74.3526 29.5337 76.2076 29.5061 78.4951 29.5061C80.7826 29.5061 82.6355 29.5273 82.6355 29.557Z" fill="#263238"/>
<path d="M82.6376 30.9308C82.6376 30.9605 80.7826 30.9859 78.4951 30.9881C76.2076 30.9902 74.3548 30.9669 74.3548 30.9351C74.3548 30.9033 76.2076 30.8799 78.4951 30.8778C80.7826 30.8757 82.6376 30.899 82.6376 30.9308Z" fill="#263238"/>
<path d="M82.6376 32.3024C82.6376 32.3321 80.7847 32.3596 78.4972 32.3596C76.2098 32.3596 74.3548 32.3384 74.3548 32.3088C74.3548 32.2791 76.2098 32.2515 78.4972 32.2494C80.7847 32.2473 82.6376 32.2727 82.6376 32.3024Z" fill="#263238"/>
<path d="M78.8089 33.6784C78.8089 33.7081 77.8125 33.7335 76.5829 33.7335C75.3533 33.7335 74.3548 33.7102 74.3548 33.6805C74.3548 33.6508 75.3533 33.6254 76.5829 33.6233C77.3253 33.6042 78.0683 33.6226 78.8089 33.6784Z" fill="#263238"/>
<path d="M70.897 75.2791H40.1592C39.3384 75.2791 38.673 75.9444 38.673 76.7652V96.0847C38.673 96.9055 39.3384 97.5709 40.1592 97.5709H70.897C71.7178 97.5709 72.3832 96.9055 72.3832 96.0847V76.7652C72.3832 75.9444 71.7178 75.2791 70.897 75.2791Z" fill="#263238"/>
<path d="M71.8362 97.8718H39.22C38.9638 97.8721 38.71 97.8218 38.4733 97.7239C38.2365 97.626 38.0214 97.4823 37.8402 97.3012C37.6591 97.12 37.5154 96.9049 37.4175 96.6681C37.3196 96.4313 37.2693 96.1776 37.2696 95.9214H73.7866C73.7866 96.4387 73.5811 96.9348 73.2153 97.3005C72.8496 97.6663 72.3535 97.8718 71.8362 97.8718Z" fill="#263238"/>
<path d="M71.3846 76.1631H39.5783V94.9887H71.3846V76.1631Z" fill="#455A64"/>
<path d="M52.205 95.9214L52.6587 96.6422H59.0377L59.4575 95.9214H52.205Z" fill="#455A64"/>
<path d="M69.9239 77.4182H40.6404V94.9824H69.9239V77.4182Z" fill="white"/>
<path d="M55.5228 79.6652L55.8026 84.7999C55.807 84.888 55.8451 84.9711 55.909 85.0318C55.973 85.0926 56.0578 85.1265 56.1461 85.1264L65.3681 85.1942C65.4146 85.1954 65.4609 85.1871 65.5041 85.1698C65.5473 85.1525 65.5866 85.1266 65.6195 85.0937C65.6524 85.0608 65.6783 85.0215 65.6956 84.9783C65.7128 84.9351 65.7212 84.8888 65.72 84.8423L65.7497 80.8524C65.75 80.8069 65.7412 80.7617 65.724 80.7196C65.7067 80.6774 65.6813 80.639 65.6492 80.6067C65.6171 80.5744 65.5789 80.5488 65.5368 80.5313C65.4948 80.5138 65.4497 80.5048 65.4041 80.5048H59.7331C59.6412 80.5032 59.5533 80.4669 59.4872 80.403L58.512 79.4193C58.4468 79.3556 58.3593 79.3199 58.2682 79.3197L55.8768 79.3006C55.8292 79.2997 55.7818 79.3086 55.7378 79.3267C55.6937 79.3448 55.6538 79.3718 55.6206 79.406C55.5874 79.4402 55.5616 79.4809 55.5448 79.5255C55.5279 79.5701 55.5205 79.6176 55.5228 79.6652Z" fill="#EBEBEB"/>
<path d="M65.754 79.9013L55.6758 79.8274L55.6316 85.8502L65.7098 85.924L65.754 79.9013Z" fill="#F5F5F5"/>
<path d="M54.8698 80.3628L55.5928 86.6486C55.597 86.7018 55.6212 86.7515 55.6605 86.7877C55.6998 86.8238 55.7514 86.8438 55.8048 86.8436L65.6246 86.9157C65.6535 86.9175 65.6824 86.9133 65.7096 86.9034C65.7368 86.8935 65.7617 86.8782 65.7828 86.8583C65.8039 86.8384 65.8206 86.8145 65.8321 86.7879C65.8435 86.7613 65.8494 86.7327 65.8493 86.7037L66.3899 80.4285C66.3922 80.3987 66.3885 80.3686 66.3791 80.3402C66.3696 80.3118 66.3545 80.2856 66.3348 80.263C66.315 80.2405 66.291 80.2222 66.264 80.2091C66.2371 80.196 66.2078 80.1884 66.1779 80.1868L55.0924 80.1063C55.0596 80.1039 55.0266 80.1092 54.9961 80.1218C54.9656 80.1343 54.9385 80.1539 54.9169 80.1788C54.8953 80.2037 54.8798 80.2333 54.8716 80.2652C54.8634 80.2972 54.8628 80.3306 54.8698 80.3628Z" fill="#EBEBEB"/>
<path d="M48.406 82.4192L48.7918 89.4936C48.7983 89.615 48.8508 89.7292 48.9387 89.8131C49.0265 89.8971 49.1431 89.9443 49.2646 89.9452L61.9952 90.0385C62.0578 90.039 62.1199 90.0273 62.178 90.0038C62.2361 89.9803 62.289 89.9457 62.3337 89.9018C62.3784 89.8579 62.414 89.8056 62.4385 89.7479C62.463 89.6903 62.4759 89.6284 62.4764 89.5657L62.5167 84.0537C62.5172 83.9907 62.5053 83.9282 62.4816 83.8699C62.4579 83.8115 62.4228 83.7584 62.3785 83.7137C62.3341 83.6689 62.2814 83.6334 62.2232 83.6092C62.1651 83.585 62.1027 83.5725 62.0397 83.5725H54.2105C54.0841 83.5724 53.9628 83.522 53.8734 83.4326L52.5209 82.0821C52.4775 82.0378 52.4257 82.0027 52.3686 81.9786C52.3114 81.9546 52.25 81.9422 52.188 81.9422L48.8872 81.9168C48.8221 81.9164 48.7576 81.9293 48.6976 81.9547C48.6377 81.9801 48.5835 82.0174 48.5385 82.0645C48.4935 82.1115 48.4585 82.1672 48.4357 82.2282C48.4129 82.2892 48.4028 82.3542 48.406 82.4192Z" fill="#006D77"/>
<path d="M62.5279 82.7436L48.6168 82.6416L48.5559 90.9539L62.4669 91.0559L62.5279 82.7436Z" fill="#F5F5F5"/>
<path d="M47.505 83.3797L48.5035 92.0568C48.5118 92.1314 48.5473 92.2003 48.6033 92.2504C48.6592 92.3004 48.7316 92.3281 48.8066 92.3282L62.3619 92.4278C62.4395 92.4281 62.5143 92.3993 62.5716 92.3471C62.6289 92.2949 62.6645 92.2231 62.6714 92.1459L63.4177 83.4835C63.4212 83.4413 63.4159 83.3987 63.4022 83.3586C63.3884 83.3184 63.3666 83.2816 63.3379 83.2503C63.3092 83.219 63.2744 83.1941 63.2356 83.1769C63.1968 83.1598 63.1548 83.1508 63.1124 83.1507L47.8124 83.0383C47.769 83.0381 47.726 83.047 47.6863 83.0645C47.6466 83.082 47.6111 83.1078 47.5821 83.14C47.553 83.1723 47.5311 83.2103 47.5179 83.2516C47.5046 83.2929 47.5002 83.3365 47.505 83.3797Z" fill="#006D77"/>
<path d="M57.9184 86.214C57.9184 86.214 57.9671 86.2373 58.0413 86.303C58.1517 86.3997 58.2493 86.5102 58.3318 86.6316C58.6411 87.0849 58.7794 87.6334 58.7219 88.1792C58.6744 88.5822 58.5439 88.971 58.3384 89.321C58.133 89.671 57.8571 89.9745 57.5283 90.2123C57.1403 90.5016 56.6836 90.685 56.2033 90.7444C55.6829 90.798 55.1585 90.6938 54.6981 90.4455C54.2359 90.2032 53.8554 89.8301 53.6042 89.3728C53.3783 88.9427 53.2777 88.458 53.3137 87.9736C53.3408 87.5383 53.4701 87.1156 53.6911 86.7397C53.883 86.4146 54.1382 86.1313 54.4416 85.9066C54.8768 85.5795 55.387 85.3667 55.9256 85.2875C56.0693 85.2651 56.2147 85.2544 56.3602 85.2557C56.4598 85.2557 56.5107 85.2557 56.5107 85.2727C56.5107 85.2896 56.2987 85.2939 55.9404 85.3723C55.4311 85.4814 54.9538 85.7063 54.5455 86.0295C54.2665 86.2493 54.0332 86.5216 53.8586 86.8309C53.6603 87.1847 53.5457 87.5792 53.5236 87.9842C53.508 88.3319 53.567 88.679 53.6966 89.0021C53.8262 89.3251 54.0234 89.6168 54.275 89.8573C54.5266 90.0979 54.8268 90.2818 55.1553 90.3968C55.4839 90.5118 55.8333 90.5551 56.18 90.5239C56.6239 90.4726 57.0469 90.3068 57.4075 90.0427C57.7188 89.8235 57.9822 89.5431 58.1816 89.2187C58.3809 88.8943 58.5121 88.5327 58.5671 88.1559C58.6339 87.6407 58.5256 87.1181 58.2597 86.6719C58.0668 86.3624 57.9035 86.2288 57.9184 86.214Z" fill="#263238"/>
<path d="M55.3914 84.465C55.4359 84.3844 55.9489 84.7427 56.5319 85.2366L56.6294 85.3172L56.534 85.402L56.462 85.4656C55.8493 85.9977 55.3214 86.392 55.2811 86.3475C55.2408 86.303 55.7051 85.8323 56.3157 85.2981L56.3878 85.2366V85.4041C56.0973 85.1539 55.8429 84.9229 55.6627 84.7533C55.5613 84.6681 55.4702 84.5713 55.3914 84.465Z" fill="#263238"/>
<path d="M22.807 54.2254L14.3545 53.2439C14.1126 53.217 13.8784 53.1427 13.6653 53.0251C13.4521 52.9076 13.2643 52.7492 13.1125 52.559C12.9606 52.3687 12.8478 52.1504 12.7805 51.9166C12.7131 51.6827 12.6926 51.4378 12.72 51.196L15.1686 30.0638C15.1965 29.8221 15.2718 29.5883 15.3902 29.3758C15.5086 29.1633 15.6678 28.9763 15.8586 28.8254C16.0495 28.6745 16.2682 28.5628 16.5023 28.4967C16.7364 28.4305 16.9813 28.4112 17.2229 28.4399L25.6753 29.4214C26.1629 29.4778 26.6082 29.7254 26.9134 30.1097C27.2187 30.494 27.359 30.9838 27.3035 31.4715L24.8549 52.6036C24.798 53.0901 24.5504 53.5341 24.1664 53.8382C23.7825 54.1423 23.2935 54.2816 22.807 54.2254Z" fill="#263238"/>
<path d="M25.5884 30.1507L23.9496 29.9599C23.8961 29.9547 23.8421 29.9601 23.7907 29.9758C23.7393 29.9915 23.6916 30.0173 23.6502 30.0516C23.6088 30.0859 23.5746 30.1281 23.5496 30.1756C23.5246 30.2232 23.5092 30.2753 23.5044 30.3288L23.4684 30.6256C23.4636 30.6792 23.4483 30.7312 23.4233 30.7788C23.3982 30.8264 23.3641 30.8685 23.3227 30.9028C23.2813 30.9371 23.2335 30.9629 23.1821 30.9786C23.1307 30.9944 23.0767 30.9998 23.0232 30.9945L19.8284 30.6235C19.7223 30.6053 19.6271 30.5473 19.5622 30.4615C19.4972 30.3757 19.4673 30.2684 19.4786 30.1613L19.5125 29.8645C19.5199 29.8113 19.5168 29.7572 19.5032 29.7052C19.4896 29.6532 19.4659 29.6044 19.4334 29.5617C19.4009 29.5189 19.3602 29.483 19.3137 29.456C19.2673 29.429 19.2159 29.4115 19.1627 29.4045L18.5882 29.3367L17.1529 29.1713C16.9832 29.1515 16.8112 29.1655 16.6468 29.2124C16.4825 29.2593 16.329 29.3382 16.1953 29.4446C16.0615 29.551 15.9501 29.6827 15.8674 29.8323C15.7847 29.9818 15.7324 30.1463 15.7134 30.3161L13.3242 50.9331C13.2866 51.2739 13.3855 51.6158 13.5992 51.8839C13.8129 52.1521 14.1241 52.3247 14.4648 52.3641L22.896 53.3478C23.2375 53.3878 23.581 53.2906 23.8509 53.0775C24.1208 52.8645 24.2951 52.553 24.3355 52.2115L26.729 31.5881C26.7484 31.4188 26.7344 31.2474 26.6876 31.0835C26.6409 30.9197 26.5623 30.7667 26.4564 30.6332C26.3505 30.4997 26.2193 30.3884 26.0704 30.3056C25.9214 30.2229 25.7577 30.1702 25.5884 30.1507Z" fill="white"/>
<path d="M20.2542 32.344L13.2667 32.6882L13.4986 37.3974L20.4862 37.0532L20.2542 32.344Z" fill="#F5F5F5"/>
<path d="M20.2545 32.3428C20.1802 32.4334 20.0995 32.5184 20.0128 32.5972L19.3238 33.2565C18.7387 33.8098 17.9267 34.5688 17.0194 35.4062L16.9876 35.438L16.96 35.4041L16.907 35.368C15.8958 34.6387 14.9842 33.9731 14.327 33.4876L13.5511 32.9067C13.4534 32.8392 13.3612 32.764 13.2755 32.682C13.3809 32.7364 13.4816 32.7995 13.5765 32.8707L14.3715 33.424C15.0414 33.8925 15.9594 34.5476 16.9727 35.279L17.0236 35.315H16.9537C17.8589 34.4776 18.6815 33.7271 19.2857 33.195L19.998 32.559C20.0778 32.4805 20.1636 32.4082 20.2545 32.3428Z" fill="#E0E0E0"/>
<path d="M13.5002 37.3968C13.8303 36.8708 14.1921 36.3653 14.5835 35.8831C14.9448 35.3786 15.3356 34.8958 15.7537 34.4373C15.4229 34.9629 15.0612 35.4683 14.6704 35.9509C14.3084 36.4549 13.9177 36.9377 13.5002 37.3968Z" fill="#E0E0E0"/>
<path d="M18.0751 34.2634C18.5173 34.689 18.9335 35.1407 19.3217 35.616C19.7384 36.0688 20.1271 36.5467 20.4856 37.047C20.0439 36.6187 19.6276 36.165 19.239 35.6881C18.8231 35.2368 18.4344 34.761 18.0751 34.2634Z" fill="#E0E0E0"/>
<path d="M17.6536 37.9938L16.0112 46.0234L27.9249 48.4603L29.5673 40.4306L17.6536 37.9938Z" fill="#006D77"/>
<path d="M29.5676 40.4307C29.5255 40.4619 29.4808 40.4895 29.4341 40.5134L29.044 40.7381L27.5939 41.5394L22.7794 44.1555L22.7412 44.1767L22.7115 44.1428L22.6416 44.058L19.097 39.7841L18.037 38.4803L17.7508 38.1241C17.7154 38.0835 17.6842 38.0394 17.6575 37.9927C17.6977 38.0281 17.7346 38.0671 17.7677 38.1093L18.0688 38.4527C18.3359 38.7644 18.7047 39.2011 19.1605 39.7353L22.7306 43.988L22.8006 44.0728L22.7328 44.058L27.56 41.4716L29.0228 40.7042L29.4235 40.4922C29.4694 40.467 29.5177 40.4464 29.5676 40.4307Z" fill="#263238"/>
<path d="M16.0124 46.0232C15.9933 45.9999 17.1126 45.0819 18.514 43.9753C19.9153 42.8687 21.058 41.9889 21.0876 42.0122C21.1173 42.0355 19.9852 42.9535 18.5839 44.0622C17.1826 45.171 16.0293 46.0487 16.0124 46.0232Z" fill="#263238"/>
<path d="M25.0669 42.7223C25.0944 42.7075 25.758 43.9816 26.5509 45.5652C27.3438 47.1489 27.9564 48.4463 27.9289 48.4611C27.9013 48.476 27.2399 47.1891 26.4449 45.6161C25.6499 44.0431 25.0414 42.735 25.0669 42.7223Z" fill="#263238"/>
<path d="M70.3056 66.2627C72.2136 66.2839 72.8008 63.6488 71.0476 62.8919L71.0052 62.875C70.2909 62.5825 69.5172 62.465 68.7483 62.5321C67.9794 62.5992 67.2377 62.849 66.585 63.2608C66.3836 62.4081 65.9838 61.6151 65.418 60.9461C64.8522 60.2771 64.1365 59.7512 63.3291 59.4111C62.5216 59.0711 61.6453 58.9264 60.7714 58.989C59.8975 59.0516 59.0507 59.3196 58.3 59.7713C57.9544 56.18 56.1334 52.7053 53.212 50.579C50.2906 48.4526 46.3093 47.7891 42.9448 49.095C39.5804 50.4009 37.0088 53.7039 36.8414 57.3057C35.8951 57.2086 34.9389 57.3028 34.0299 57.5829C33.1208 57.863 32.2774 58.3232 31.5498 58.936C31.5032 58.9742 31.4587 59.0145 31.412 59.059C28.8362 61.4843 30.6192 65.843 34.168 65.8727L70.3056 66.2627Z" fill="#EBEBEB"/>
<path d="M45.3532 56.8966C45.2606 56.9039 45.1675 56.8961 45.0776 56.8733C45.2602 56.845 45.4461 56.845 45.6288 56.8733C45.5388 56.8961 45.4457 56.9039 45.3532 56.8966Z" fill="#E0E0E0"/>
<path d="M73.0467 65.0121L73.0828 63.3309L69.9367 63.2397L69.8561 65.6989L70.0491 65.7159C70.9161 65.7901 74.4629 66.0276 75.0501 65.8686C75.7031 65.6905 73.0467 65.0121 73.0467 65.0121Z" fill="#006D77"/>
<g opacity="0.4">
<path d="M74.342 65.3894C74.342 65.3894 75.2727 65.6862 75.1498 65.8367C75.0268 65.9872 71.4355 65.8834 69.8498 65.6989V65.629L74.0389 65.7858C74.0389 65.7858 74.1597 65.3915 74.342 65.3894Z" fill="white"/>
</g>
<path d="M69.8137 65.6248H69.8667L70.0215 65.6375L70.5939 65.6799C71.0751 65.7096 71.7429 65.7456 72.4807 65.7668C73.2184 65.788 73.8862 65.7944 74.3717 65.7922H74.9441H75.0989H75.154H75.0989H74.9441H74.3717C73.8884 65.7922 73.2206 65.7795 72.4828 65.7562C71.745 65.7329 71.0772 65.7053 70.5939 65.6799L70.0236 65.6502H69.8667L69.8137 65.6248Z" fill="#263238"/>
<path d="M74.0495 65.8345C74.0788 65.7409 74.1179 65.6507 74.1661 65.5653C74.2276 65.486 74.2988 65.4148 74.3781 65.3533C74.2788 65.3847 74.1953 65.453 74.1449 65.5441C74.0781 65.6257 74.0441 65.7292 74.0495 65.8345Z" fill="#263238"/>
<path d="M73.14 65.3364C73.14 65.3364 73.1951 65.2897 73.2418 65.2198C73.2884 65.1498 73.3223 65.0862 73.3139 65.0799C73.3054 65.0735 73.2587 65.1265 73.21 65.1986C73.1612 65.2707 73.1273 65.3321 73.14 65.3364Z" fill="#263238"/>
<path d="M72.8856 65.1944C72.8856 65.1944 72.9428 65.1711 72.998 65.1244C73.0531 65.0778 73.0934 65.0333 73.087 65.0248C73.0807 65.0163 73.0298 65.0481 72.9725 65.0948C72.9153 65.1414 72.8771 65.188 72.8856 65.1944Z" fill="#263238"/>
<path d="M72.733 64.8931C72.7848 64.9138 72.8406 64.9225 72.8962 64.9186C72.9516 64.9274 73.0082 64.9231 73.0616 64.9059C73.0096 64.8858 72.9539 64.8772 72.8983 64.8804C72.843 64.8716 72.7863 64.876 72.733 64.8931Z" fill="#263238"/>
<path d="M72.6821 64.6812C72.7352 64.7194 72.7989 64.7401 72.8644 64.7405C72.9285 64.752 72.9946 64.7454 73.0552 64.7214C72.9938 64.7091 72.9313 64.7027 72.8686 64.7024C72.8073 64.6894 72.7448 64.6823 72.6821 64.6812Z" fill="#263238"/>
<path d="M73.2502 65.0649C73.3203 65.0782 73.3922 65.0782 73.4622 65.0649C73.534 65.0571 73.605 65.0429 73.6742 65.0225C73.7175 65.0116 73.7595 64.9959 73.7993 64.9759C73.8231 64.9622 73.8412 64.9403 73.8502 64.9144C73.8535 64.8994 73.8527 64.8838 73.8479 64.8693C73.843 64.8547 73.8343 64.8417 73.8226 64.8317C73.7465 64.7915 73.6588 64.7791 73.5744 64.7965C73.4901 64.8139 73.4145 64.8601 73.3605 64.9271C73.3274 64.9658 73.3035 65.0115 73.2905 65.0607C73.2863 65.0788 73.2863 65.0977 73.2905 65.1158C73.3112 65.0537 73.3436 64.9961 73.3859 64.9462C73.4336 64.8948 73.4945 64.8574 73.5619 64.8381C73.6424 64.8138 73.7292 64.8222 73.8036 64.8614C73.8354 64.8869 73.8205 64.9229 73.7845 64.9441C73.7482 64.9633 73.7098 64.9782 73.67 64.9886C73.6009 65.0112 73.53 65.0275 73.458 65.0374C73.3266 65.0607 73.2502 65.0586 73.2502 65.0649Z" fill="#263238"/>
<path d="M73.3032 65.0841C73.3283 65.042 73.338 64.9926 73.3308 64.9442C73.3252 64.8909 73.3078 64.8395 73.2799 64.7937C73.2632 64.7636 73.2394 64.738 73.2106 64.7192C73.1818 64.7003 73.1488 64.6888 73.1146 64.6855C73.0937 64.6897 73.0753 64.7017 73.063 64.719C73.0508 64.7364 73.0457 64.7578 73.0488 64.7788C73.0523 64.8113 73.0632 64.8424 73.0806 64.87C73.1057 64.9153 73.1363 64.9574 73.1718 64.9951C73.2021 65.0327 73.2415 65.0619 73.2863 65.0799C73.2863 65.0799 73.246 65.0417 73.193 64.976C73.1609 64.9383 73.1331 64.897 73.1103 64.853C73.0849 64.8085 73.0679 64.7322 73.1103 64.7237C73.1527 64.7152 73.2121 64.7725 73.2418 64.8149C73.2685 64.8544 73.2866 64.8992 73.2948 64.9463C73.3003 64.992 73.3031 65.038 73.3032 65.0841Z" fill="#263238"/>
<path d="M69.9028 64.766C69.9028 64.766 69.9918 64.766 70.1339 64.7809C70.3191 64.8057 70.4933 64.8829 70.6361 65.0035C70.7788 65.124 70.8841 65.2829 70.9394 65.4614C70.961 65.5361 70.9786 65.6118 70.9924 65.6882C70.996 65.6672 70.996 65.6457 70.9924 65.6246C70.9883 65.5666 70.9783 65.509 70.9628 65.4529C70.9113 65.2669 70.8049 65.1006 70.6575 64.9759C70.5095 64.8517 70.328 64.7742 70.136 64.7533C70.0781 64.7479 70.02 64.7479 69.9621 64.7533C69.9417 64.754 69.9216 64.7583 69.9028 64.766Z" fill="#263238"/>
<path d="M70.2674 63.4644C70.239 63.6788 70.2234 63.8947 70.2208 64.111C70.2086 64.3228 70.2086 64.5351 70.2208 64.747C70.249 64.5361 70.2646 64.3237 70.2674 64.111C70.2798 63.8956 70.2798 63.6797 70.2674 63.4644Z" fill="#263238"/>
<path d="M71.4016 65.4105C71.5508 65.4511 71.7049 65.4711 71.8595 65.4699C72.0139 65.4827 72.1694 65.4748 72.3217 65.4466C72.3217 65.4466 72.1097 65.4466 71.8617 65.4317C71.6136 65.4169 71.4037 65.3999 71.4016 65.4105Z" fill="#263238"/>
<path d="M70.7847 65.3915C70.7847 65.3915 70.8017 65.436 70.8207 65.4848C70.8398 65.5335 70.8504 65.5738 70.861 65.5738C70.8716 65.5738 70.878 65.525 70.861 65.4699C70.8441 65.4148 70.7932 65.3851 70.7847 65.3915Z" fill="#263238"/>
<path d="M70.5621 65.0968C70.5621 65.0968 70.5727 65.1371 70.6045 65.171C70.6363 65.2049 70.6681 65.2261 70.6766 65.2197C70.685 65.2134 70.6638 65.1794 70.632 65.1434C70.6002 65.1074 70.5684 65.084 70.5621 65.0968Z" fill="#263238"/>
<path d="M70.2335 64.9548C70.2335 64.9654 70.2759 64.9654 70.3225 64.9823C70.3691 64.9993 70.4009 65.0269 70.4094 65.0205C70.4179 65.0141 70.3925 64.9675 70.3352 64.9484C70.278 64.9293 70.2292 64.9442 70.2335 64.9548Z" fill="#263238"/>
<path d="M69.9982 64.8849C69.9982 64.8957 70.0111 64.9108 70.037 64.9238C70.0629 64.9367 70.0889 64.9346 70.0932 64.9238C70.0975 64.913 70.0781 64.8957 70.0521 64.8849C70.0262 64.8741 70.0025 64.8719 69.9982 64.8849Z" fill="#263238"/>
<path opacity="0.3" d="M69.9091 64.6812L73.0552 64.7215L73.0616 64.342L69.89 64.482L69.9091 64.6812Z" fill="black"/>
<path d="M69.7141 64.978L69.7523 63.2989L66.6041 63.2078L66.5235 65.6648L66.7185 65.6839C67.5856 65.756 71.1324 65.9934 71.7175 65.8344C72.3705 65.6564 69.7141 64.978 69.7141 64.978Z" fill="#006D77"/>
<g opacity="0.4">
<path d="M71.02 65.3577C71.02 65.3577 71.9485 65.6545 71.8277 65.805C71.7069 65.9555 68.1135 65.8516 66.5277 65.6651V65.5951L70.7189 65.7541C70.7189 65.7541 70.8271 65.3598 71.02 65.3577Z" fill="white"/>
</g>
<path d="M66.4811 65.5928H66.5362L66.691 65.6076L67.2612 65.6479C67.7446 65.6797 68.4124 65.7136 69.1502 65.7369C69.8879 65.7603 70.5557 65.7645 71.0391 65.7624H71.6115H71.7684C71.7859 65.7657 71.8038 65.7657 71.8214 65.7624H71.7684H71.6115H71.0391C70.5557 65.7624 69.8879 65.7475 69.1502 65.7263C68.4124 65.7051 67.7467 65.6733 67.2634 65.65L66.691 65.6203H66.5362L66.4811 65.5928Z" fill="#263238"/>
<path d="M70.719 65.8028C70.747 65.709 70.7854 65.6187 70.8334 65.5335C70.8928 65.4559 70.9603 65.3848 71.0348 65.3215C70.9365 65.3558 70.8538 65.4243 70.8016 65.5145C70.7399 65.5973 70.7105 65.6998 70.719 65.8028Z" fill="#263238"/>
<path d="M69.8031 65.2961C69.8137 65.2961 69.8582 65.2495 69.907 65.1774C69.9558 65.1053 69.9876 65.0459 69.9791 65.0396C69.9706 65.0332 69.924 65.0862 69.8752 65.1562C69.8264 65.2261 69.7946 65.2961 69.8031 65.2961Z" fill="#263238"/>
<path d="M69.553 65.1625C69.553 65.1625 69.6102 65.1392 69.6653 65.0926C69.7204 65.0459 69.7607 64.9993 69.7544 64.9908C69.748 64.9823 69.6971 65.0162 69.642 65.0629C69.5869 65.1095 69.5466 65.154 69.553 65.1625Z" fill="#263238"/>
<path d="M69.4003 64.8721C69.4523 64.8922 69.508 64.9009 69.5636 64.8976C69.619 64.9051 69.6753 64.9008 69.7289 64.8849C69.6775 64.863 69.6214 64.8542 69.5657 64.8594C69.5103 64.8506 69.4537 64.855 69.4003 64.8721Z" fill="#263238"/>
<path d="M69.3516 64.6602C69.405 64.6979 69.4685 64.7186 69.5339 64.7195C69.5974 64.7324 69.6634 64.725 69.7226 64.6983C69.6617 64.6873 69.6 64.6816 69.5381 64.6814C69.4768 64.6684 69.4143 64.6613 69.3516 64.6602Z" fill="#263238"/>
<path d="M69.9197 65.0332C69.9862 65.0458 70.0546 65.0458 70.1211 65.0332C70.193 65.0272 70.2641 65.0137 70.3331 64.9929C70.3767 64.9819 70.4187 64.9655 70.4582 64.9442C70.4825 64.9315 70.5014 64.9104 70.5112 64.8848C70.5148 64.8696 70.5139 64.8537 70.5086 64.8391C70.5033 64.8244 70.4939 64.8115 70.4815 64.8021C70.4053 64.7623 70.3176 64.7501 70.2334 64.7675C70.1492 64.7849 70.0736 64.8308 70.0193 64.8975C69.9875 64.937 69.9638 64.9824 69.9494 65.0311C69.9452 65.0485 69.9452 65.0667 69.9494 65.0841C69.9736 65.0231 70.0064 64.966 70.0469 64.9145C70.0938 64.8625 70.155 64.8256 70.2229 64.8085C70.2627 64.796 70.3046 64.7916 70.3461 64.7956C70.3876 64.7996 70.4279 64.8119 70.4645 64.8318C70.4942 64.8551 70.4815 64.8933 70.4455 64.9145C70.408 64.9328 70.369 64.9477 70.3289 64.959C70.2593 64.9796 70.1885 64.9958 70.1169 65.0078C69.996 65.029 69.9197 65.0268 69.9197 65.0332Z" fill="#263238"/>
<path d="M69.9706 65.0439C69.9706 65.0439 70.0045 64.9973 69.9982 64.9061C69.9932 64.8526 69.9758 64.8011 69.9473 64.7556C69.9306 64.7255 69.9068 64.6999 69.878 64.6811C69.8492 64.6622 69.8162 64.6507 69.7819 64.6475C69.7613 64.6511 69.7428 64.6627 69.7305 64.6797C69.7183 64.6967 69.7131 64.7179 69.7162 64.7386C69.7209 64.7707 69.7317 64.8017 69.748 64.8298C69.7732 64.8756 69.8045 64.9177 69.8413 64.9549C69.8714 64.9922 69.9099 65.022 69.9536 65.0418C69.9536 65.0418 69.9155 65.0036 69.8604 64.9379C69.8297 64.8996 69.8027 64.8584 69.7798 64.8149C69.7544 64.7704 69.7374 64.6941 69.7798 64.6856C69.8222 64.6771 69.8794 64.7344 69.9091 64.7747C69.9365 64.8149 69.9553 64.8604 69.9642 64.9082C69.9712 64.9531 69.9733 64.9986 69.9706 65.0439Z" fill="#263238"/>
<path d="M66.568 64.7322C66.568 64.7322 66.6592 64.7322 66.8012 64.747C66.9861 64.7734 67.1598 64.8515 67.3023 64.9723C67.4449 65.093 67.5504 65.2516 67.6068 65.4297C67.6492 65.5653 67.6513 65.6565 67.6598 65.6565C67.6632 65.6354 67.6632 65.614 67.6598 65.5929C67.6559 65.5348 67.646 65.4772 67.6301 65.4212C67.5773 65.2351 67.4712 65.0685 67.3248 64.9421C67.1758 64.8213 66.9943 64.7475 66.8033 64.7301C66.7455 64.7238 66.6873 64.7238 66.6295 64.7301L66.568 64.7322Z" fill="#263238"/>
<path d="M66.9348 63.4326C66.9077 63.6471 66.8928 63.863 66.8902 64.0792C66.8764 64.2945 66.8764 64.5105 66.8902 64.7258C66.9175 64.5113 66.933 64.2954 66.9369 64.0792C66.9494 63.8638 66.9487 63.6479 66.9348 63.4326Z" fill="#263238"/>
<path d="M68.0711 65.3788C68.2207 65.4172 68.3745 65.4371 68.529 65.4382C68.6834 65.4497 68.8387 65.4418 68.9912 65.4148C68.9912 65.4021 68.7792 65.4148 68.5311 65.4C68.2831 65.3852 68.0732 65.3682 68.0711 65.3788Z" fill="#263238"/>
<path d="M67.4542 65.3596C67.4542 65.3596 67.469 65.4041 67.4881 65.4508C67.5072 65.4974 67.5199 65.5419 67.5305 65.5398C67.5411 65.5377 67.5474 65.491 67.5305 65.4359C67.5135 65.3808 67.4605 65.3511 67.4542 65.3596Z" fill="#263238"/>
<path d="M67.2294 65.0629C67.2294 65.0629 67.2421 65.1032 67.2739 65.1371C67.3057 65.171 67.3376 65.1943 67.3439 65.1859C67.3503 65.1774 67.3333 65.1456 67.3015 65.1117C67.2697 65.0777 67.2379 65.0565 67.2294 65.0629Z" fill="#263238"/>
<path d="M66.9009 64.9208C66.9009 64.9208 66.9454 64.9335 66.9899 64.9505C67.0344 64.9674 67.0683 64.9929 67.0768 64.9865C67.0853 64.9802 67.0598 64.9356 67.0047 64.9144C66.9496 64.8932 66.8987 64.9123 66.9009 64.9208Z" fill="#263238"/>
<path d="M66.6655 64.8531C66.6655 64.8531 66.6806 64.879 66.7066 64.8898C66.7325 64.9006 66.7562 64.9027 66.7605 64.8898C66.7648 64.8768 66.7476 64.8639 66.7217 64.8531C66.6958 64.8423 66.6698 64.8423 66.6655 64.8531Z" fill="#263238"/>
<path opacity="0.3" d="M66.5786 64.6495L69.7226 64.6877L69.7289 64.3103L66.5574 64.4481L66.5786 64.6495Z" fill="black"/>
<path d="M53.848 58.7242L71.656 48.2662C72.0415 48.0399 72.4706 47.898 72.9149 47.8498C73.3593 47.8015 73.8089 47.8481 74.2339 47.9864C74.7964 48.1601 75.3094 48.4656 75.7301 48.8775C76.1508 49.2893 76.4672 49.7957 76.6528 50.3544C76.9114 51.1517 76.9202 52.009 76.6783 52.8115L73.653 64.5054L68.2555 64.6284L71.2235 54.7534L62.3916 60.77C61.7155 61.2586 60.9418 61.5955 60.1234 61.7574C59.3051 61.9194 58.4614 61.9027 57.6501 61.7084C56.8388 61.5142 56.0791 61.1469 55.4229 60.6319C54.7667 60.1168 54.2294 59.4661 53.848 58.7242Z" fill="#263238"/>
<path d="M50.9478 58.5906L68.7452 48.1411C69.1307 47.9147 69.5599 47.7728 70.0043 47.7249C70.4488 47.677 70.8983 47.7242 71.3232 47.8634C71.8856 48.0366 72.3986 48.3417 72.8193 48.7532C73.2401 49.1647 73.5564 49.6708 73.7421 50.2293C74.0006 51.0266 74.0095 51.8839 73.7675 52.6864L70.7168 64.4757L65.3469 64.5054L68.3149 54.6283L59.4936 60.6448C58.817 61.1336 58.0428 61.4702 57.224 61.6318C56.4052 61.7933 55.5612 61.776 54.7497 61.5809C53.9383 61.3857 53.1786 61.0175 52.5227 60.5014C51.8669 59.9852 51.3304 59.3334 50.95 58.5906H50.9478Z" fill="#455A64"/>
<path d="M60.1571 47.948C60.1571 47.948 60.6108 52.7964 60.1571 53.2607L59.0865 53.8119L56.6888 52.188L60.1571 47.948Z" fill="#006D77"/>
<path opacity="0.4" d="M60.1571 47.948C60.1571 47.948 60.6108 52.7964 60.1571 53.2607L59.0865 53.8119L56.6888 52.188L60.1571 47.948Z" fill="black"/>
<path d="M52.2537 41.7894C52.9321 41.6877 47.0894 41.1047 46.8923 45.9849C46.6951 50.8651 50.9478 58.724 50.9478 58.724L59.0865 53.8056C59.0865 53.8056 57.134 52.4339 56.816 51.516C56.5213 50.6298 57.0704 42.33 52.2537 41.7894Z" fill="#006D77"/>
<path d="M48.459 42.7519C48.2109 42.8134 46.339 44.4946 46.3241 47.8505C46.305 50.5175 46.5107 56.4386 48.3318 57.3184C49.1564 57.717 50.1528 57.5771 51.2404 56.8732C54.3038 54.8932 59.9875 48.6455 59.9875 48.6455L57.558 46.0591C57.558 46.0591 51.251 52.4742 50.986 52.2389C50.5811 51.8849 50.6426 48.5522 50.2991 45.5228C50.049 43.371 50.0002 42.3682 48.459 42.7519Z" fill="#006D77"/>
<path d="M57.469 51.3042C57.469 51.3042 57.469 51.3211 57.4393 51.3487L57.3439 51.4674C57.2591 51.5734 57.1319 51.7261 56.9623 51.919C56.6252 52.3069 56.127 52.8581 55.4783 53.5069C54.7183 54.2669 53.9126 54.9798 53.0657 55.6417C52.5646 56.0331 52.0416 56.3955 51.4991 56.7271C50.9208 57.0994 50.2887 57.3805 49.625 57.5603C49.4509 57.602 49.2716 57.6184 49.0929 57.6091C49.002 57.6054 48.9121 57.589 48.8257 57.5603C48.7422 57.5312 48.6614 57.495 48.5841 57.4522C48.2822 57.2882 48.0173 57.0638 47.806 56.7929C47.4213 56.2785 47.1411 55.6936 46.9813 55.0714C46.8305 54.515 46.7214 53.9481 46.6549 53.3754C46.5828 52.8412 46.5234 52.343 46.4768 51.8914C46.3814 50.9777 46.3411 50.2357 46.3284 49.7227C46.3284 49.4661 46.3284 49.2669 46.3284 49.1333C46.3284 49.0718 46.3284 49.0209 46.3284 48.9785C46.3224 48.977 46.3172 48.9733 46.3137 48.9682C46.3102 48.9631 46.3087 48.9568 46.3095 48.9507C46.3103 48.9446 46.3133 48.9389 46.3179 48.9348C46.3226 48.9307 46.3285 48.9285 46.3347 48.9285C46.3409 48.9285 46.3469 48.9307 46.3516 48.9348C46.3562 48.9389 46.3592 48.9446 46.36 48.9507C46.3608 48.9568 46.3593 48.9631 46.3558 48.9682C46.3523 48.9733 46.3471 48.977 46.3411 48.9785V49.1333C46.3411 49.2753 46.3559 49.4725 46.3687 49.7227C46.3941 50.2336 46.445 50.9735 46.5489 51.8829C46.6019 52.3366 46.6655 52.8348 46.7418 53.3669C46.8119 53.9339 46.9232 54.4951 47.0746 55.046C47.2332 55.6541 47.5082 56.2258 47.8845 56.7293C48.283 57.2211 48.9084 57.6748 49.5974 57.4564C50.2491 57.2786 50.8702 57.0034 51.4397 56.6402C51.9789 56.3116 52.4992 55.9528 52.9979 55.5654C53.8455 54.9064 54.6538 54.1985 55.4189 53.4454C56.074 52.8094 56.5807 52.2645 56.9263 51.8851L57.3227 51.4483L57.4266 51.336L57.469 51.3042Z" fill="#263238"/>
<path d="M57.558 46.0592C57.5234 46.1073 57.4851 46.1527 57.4435 46.1949C57.3651 46.2818 57.2527 46.4069 57.1001 46.5723C56.7969 46.8966 56.3496 47.3588 55.7836 47.9227C55.2175 48.4866 54.5328 49.1523 53.759 49.8837L52.5357 51.0285C52.1011 51.4207 51.6665 51.832 51.1747 52.2284L51.0941 52.2942V52.186C51.0793 51.9507 51.0644 51.7006 51.0496 51.4462C50.9754 50.1212 50.9012 48.8576 50.8376 47.7086C50.7994 47.1341 50.7931 46.5871 50.7358 46.0826C50.6935 45.6135 50.5686 45.1556 50.367 44.73C50.2002 44.3804 49.947 44.079 49.6313 43.8544C49.3892 43.6907 49.1102 43.5894 48.8194 43.5598C48.635 43.5399 48.4486 43.5557 48.2703 43.6064C48.1473 43.6403 48.088 43.6721 48.0858 43.6658C48.1411 43.6306 48.2011 43.6035 48.2639 43.5852C48.4433 43.5253 48.6328 43.5015 48.8215 43.5152C49.1239 43.5385 49.4155 43.6377 49.6695 43.8036C49.9992 44.0288 50.265 44.3356 50.4412 44.694C50.6525 45.1263 50.7846 45.593 50.8312 46.072C50.8927 46.5829 50.9033 47.132 50.9436 47.7044C51.0136 48.8534 51.0878 50.1148 51.1556 51.4419C51.1704 51.6942 51.1853 51.9465 51.2001 52.1818L51.1132 52.1394C51.5881 51.7557 52.0333 51.338 52.4658 50.9501L53.6932 49.8116C54.4713 49.0845 55.1603 48.4252 55.7327 47.8697C56.3051 47.3143 56.7609 46.8585 57.0725 46.5426L57.4308 46.1801C57.4693 46.1359 57.5119 46.0954 57.558 46.0592Z" fill="#263238"/>
<path d="M59.0505 49.6546C58.9082 49.5516 58.7781 49.4328 58.6625 49.3006C58.4336 49.0716 58.124 48.7515 57.7848 48.3932C57.4456 48.0349 57.1488 47.7042 56.9368 47.4625C56.8137 47.3404 56.7022 47.2069 56.604 47.064C56.7457 47.1677 56.8757 47.2864 56.992 47.418C57.2188 47.6448 57.5304 47.9671 57.8675 48.3254C58.2046 48.6836 58.5035 49.0122 58.7155 49.256C58.8406 49.377 58.9528 49.5106 59.0505 49.6546Z" fill="#263238"/>
<path d="M50.5641 53.6892C50.5886 53.4113 50.6603 53.1395 50.7761 52.8857C50.8556 52.6195 50.9819 52.3697 51.1492 52.1479C51.0822 52.4146 50.9922 52.6749 50.88 52.926C50.7983 53.1895 50.6925 53.445 50.5641 53.6892Z" fill="#263238"/>
<path d="M50.0193 53.2609C50.3742 52.8376 50.785 52.4646 51.2404 52.1521C51.0754 52.3733 50.8831 52.5727 50.668 52.7457C50.4755 52.9453 50.2573 53.1185 50.0193 53.2609Z" fill="#263238"/>
<path d="M57.4266 46.8034C57.4372 46.8161 57.3905 46.8627 57.4011 46.9454C57.4029 46.9665 57.4101 46.9867 57.422 47.0041C57.4339 47.0216 57.4501 47.0357 57.469 47.0451C57.4904 47.058 57.515 47.0648 57.54 47.0648C57.565 47.0648 57.5896 47.058 57.611 47.0451C57.6294 47.0282 57.643 47.0067 57.6504 46.9829C57.6579 46.9591 57.6589 46.9337 57.6534 46.9094C57.6487 46.8886 57.6386 46.8694 57.6241 46.8537C57.6096 46.8381 57.5911 46.8266 57.5707 46.8203C57.4944 46.7907 57.4372 46.8203 57.4287 46.8097C57.4202 46.7991 57.4669 46.7271 57.5898 46.744C57.6262 46.7506 57.6602 46.7666 57.6884 46.7904C57.7167 46.8142 57.7382 46.845 57.7509 46.8797C57.7656 46.9241 57.7666 46.972 57.7537 47.0169C57.7409 47.0619 57.7148 47.102 57.6789 47.132C57.6415 47.1598 57.5966 47.1757 57.5501 47.1776C57.5036 47.1795 57.4576 47.1673 57.4181 47.1426C57.3871 47.1222 57.3619 47.0941 57.3452 47.061C57.3285 47.0279 57.3207 46.991 57.3227 46.9539C57.3375 46.8203 57.4223 46.7907 57.4266 46.8034Z" fill="#263238"/>
<g opacity="0.4">
<path d="M50.4878 57.3716C51.9209 57.0682 53.256 56.4129 54.3726 55.4647C55.4892 54.5165 56.3523 53.3052 56.8839 51.9402C54.9525 53.9605 52.9682 56.0212 50.4751 57.2847" fill="black"/>
</g>
<g opacity="0.4">
<path d="M50.757 45.6055C51.1005 47.0457 51.4446 48.4844 51.7895 49.9218C51.9176 50.3328 51.9616 50.7654 51.9188 51.1938C51.8941 51.4074 51.8072 51.6091 51.6689 51.7738C51.5306 51.9385 51.3469 52.059 51.1408 52.1202L50.7168 45.6479" fill="black"/>
</g>
<path d="M48.124 37.8928C47.8412 37.744 47.5241 37.6728 47.2048 37.6865C46.8856 37.7001 46.5757 37.7981 46.3066 37.9704C46.0375 38.1427 45.8189 38.3833 45.6731 38.6676C45.5272 38.9519 45.4592 39.2697 45.4761 39.5888C45.5016 40.0658 45.7093 40.5725 45.4973 41.0029C45.2239 41.5583 44.3441 41.7533 44.3207 42.3724C44.3059 42.7964 44.7299 43.1186 44.7596 43.5363C44.785 43.8903 44.5285 44.1913 44.3653 44.5051C44.1633 44.9397 44.1146 45.4299 44.227 45.8958C44.3394 46.3616 44.6064 46.7756 44.9843 47.0703C45.377 47.3463 45.8452 47.4944 46.3252 47.4944C46.8052 47.4944 47.2734 47.3463 47.6661 47.0703C48.05 46.7793 48.3456 46.3873 48.5196 45.9381C48.6937 45.4888 48.7395 45.0001 48.6519 44.5263C48.5544 44.0005 48.3 43.4896 48.3699 42.9596C48.4415 42.6886 48.4946 42.4131 48.5289 42.1349C48.5289 41.3209 47.5219 40.8354 47.3714 40.034C47.3497 39.8671 47.3656 39.6975 47.4178 39.5376C47.4701 39.3776 47.5574 39.2313 47.6734 39.1094C47.7894 38.9875 47.9312 38.8931 48.0884 38.833C48.2456 38.7729 48.4142 38.7486 48.5819 38.762" fill="#263238"/>
<path d="M53.2841 42.1266C53.3095 41.4906 53.3435 40.9288 53.3435 40.9288C53.3435 40.9288 54.749 40.7507 54.8105 39.3155C54.872 37.8802 54.7278 34.5773 54.7278 34.5773L52.152 33.335L49.6971 35.6161L49.7925 42.1648C49.823 42.6212 50.0312 43.0476 50.3725 43.3523C50.7137 43.6571 51.1607 43.816 51.6178 43.795C52.0536 43.7749 52.4661 43.5925 52.7744 43.2839C53.0827 42.9752 53.2645 42.5624 53.2841 42.1266Z" fill="#CC8B75"/>
<path d="M52.364 36.8987C52.364 36.9343 52.3535 36.969 52.3338 36.9986C52.3141 37.0282 52.286 37.0513 52.2532 37.065C52.2204 37.0787 52.1843 37.0824 52.1494 37.0756C52.1145 37.0688 52.0824 37.0518 52.0571 37.0269C52.0318 37.0019 52.0145 36.97 52.0073 36.9351C52.0001 36.9003 52.0034 36.8642 52.0167 36.8312C52.03 36.7982 52.0528 36.77 52.0822 36.7499C52.1115 36.7298 52.1461 36.7189 52.1817 36.7185C52.2297 36.7185 52.2757 36.7374 52.3099 36.7712C52.344 36.8049 52.3634 36.8507 52.364 36.8987Z" fill="#263238"/>
<path d="M52.5251 36.8245C52.5039 36.8499 52.3682 36.7376 52.1774 36.7291C51.9866 36.7206 51.8404 36.8203 51.8213 36.7927C51.8022 36.7651 51.834 36.7376 51.8955 36.6931C51.9786 36.6336 52.0796 36.6044 52.1817 36.6104C52.2838 36.6141 52.3816 36.6522 52.4594 36.7185C52.5166 36.7694 52.5378 36.8139 52.5251 36.8245Z" fill="#263238"/>
<path d="M53.2502 38.4824C53.3519 38.4512 53.4575 38.4348 53.5639 38.4337C53.6127 38.4337 53.6593 38.4209 53.6678 38.387C53.6735 38.3323 53.6632 38.277 53.6381 38.228L53.4982 37.821C53.3675 37.4763 53.264 37.1219 53.1887 36.761C53.343 37.0959 53.4727 37.4417 53.5767 37.7955L53.7102 38.2047C53.7408 38.271 53.7482 38.3457 53.7314 38.4167C53.7254 38.4349 53.7149 38.4513 53.7008 38.4643C53.6867 38.4773 53.6695 38.4864 53.6509 38.4909C53.6232 38.4982 53.5947 38.5018 53.566 38.5015C53.4604 38.5083 53.3543 38.5019 53.2502 38.4824Z" fill="#263238"/>
<path d="M53.3434 40.9287C52.6767 40.9113 52.0296 40.699 51.4821 40.3181C51.4821 40.3181 51.9209 41.3654 53.3201 41.2806L53.3434 40.9287Z" fill="#B26752"/>
<path d="M47.8463 36.992C47.8463 38.2343 47.4859 39.8646 49.7543 40.3182L49.9663 37.3502C49.9663 37.3502 51.9909 36.7651 52.2559 34.255L52.2686 34.2678C52.4106 34.5921 52.6608 35.2896 52.5082 35.8578L54.5603 36.3644L54.7978 36.5764C54.9982 36.0569 55.0405 35.4896 54.9194 34.9461C54.7984 34.4025 54.5193 33.9069 54.1172 33.5215C52.7074 32.0672 51.5033 33.1208 50.7464 33.0297C50.2864 32.9746 48.8808 32.9343 48.1028 35.2408C47.9727 35.6345 47.8957 36.0437 47.8738 36.4577L47.8463 36.992Z" fill="#263238"/>
<path d="M49.9705 37.3588C49.7098 37.0726 49.3027 37.3185 49.1501 37.4839C49.0293 37.6154 48.9544 37.7825 48.9367 37.9601C48.9189 38.1378 48.9594 38.3164 49.0519 38.4692C49.1444 38.6219 49.2839 38.7405 49.4496 38.8071C49.6152 38.8737 49.798 38.8847 49.9705 38.8386" fill="#CC8B75"/>
<path d="M49.7098 38.4081C49.7098 38.4229 49.6462 38.4378 49.5423 38.4081C49.4723 38.3918 49.4075 38.3585 49.3535 38.3111C49.2995 38.2638 49.2581 38.2039 49.2328 38.1367C49.2042 38.0572 49.208 37.9696 49.2434 37.8929C49.2706 37.8334 49.3149 37.7832 49.3706 37.7488C49.4638 37.6894 49.5338 37.6979 49.5359 37.7106C49.538 37.7233 49.4829 37.7488 49.4193 37.8102C49.3785 37.8452 49.349 37.8914 49.3343 37.943C49.3195 37.9947 49.3204 38.0495 49.3366 38.1007C49.358 38.1531 49.3896 38.2008 49.4296 38.2409C49.4697 38.2809 49.5174 38.3126 49.5698 38.3339C49.6525 38.372 49.7119 38.3932 49.7098 38.4081Z" fill="#B26752"/>
<path d="M49.5232 38.6921C49.4839 38.6998 49.4488 38.7218 49.4248 38.7539C49.4009 38.786 49.3897 38.8259 49.3936 38.8657C49.3974 38.9056 49.416 38.9426 49.4456 38.9696C49.4753 38.9965 49.5139 39.0114 49.5539 39.0114C49.594 39.0114 49.6326 38.9965 49.6623 38.9696C49.6919 38.9426 49.7105 38.9056 49.7143 38.8657C49.7182 38.8259 49.707 38.786 49.683 38.7539C49.6591 38.7218 49.624 38.6998 49.5847 38.6921" fill="#006D77"/>
<path d="M48.0265 39.0484C47.9049 38.8568 47.8321 38.6385 47.8145 38.4124C47.7661 38.1906 47.7741 37.9603 47.8378 37.7424C47.8831 37.9583 47.9121 38.1773 47.9247 38.3975C47.9766 38.6113 48.0106 38.829 48.0265 39.0484Z" fill="#006D77"/>
<path d="M57.8463 46.4218L61.6814 41.7896L62.0058 42.0991L58.2152 46.7673L57.8463 46.4218Z" fill="#263238"/>
<path d="M58.1537 46.1842C58.1537 46.1842 58.7558 44.4691 58.8915 44.1045C59.0272 43.7398 59.2583 43.1017 59.3515 43.0869C59.4448 43.072 59.7755 43.1166 59.3706 44.2062C58.9657 45.2959 59.9091 44.6112 59.9091 44.6112L60.7422 43.6572C60.7422 43.6572 61.5775 45.8832 61.1662 46.5594C60.738 47.2105 60.2678 47.833 59.7586 48.4229L57.9248 46.4577L58.1537 46.1842Z" fill="#CC8B75"/>
<path d="M52.9809 38.6541C52.9225 38.6587 52.8662 38.6781 52.8173 38.7103C52.7684 38.7426 52.7284 38.7867 52.7011 38.8385C52.6757 38.8911 52.6642 38.9494 52.668 39.0077C52.6717 39.066 52.6904 39.1224 52.7223 39.1713C52.7548 39.22 52.7995 39.2594 52.8519 39.2854C52.9044 39.3114 52.9628 39.3233 53.0212 39.3197C53.0906 39.3169 53.1564 39.2881 53.2056 39.2392C53.2416 39.193 53.2661 39.1389 53.2771 39.0814C53.2882 39.024 53.2855 38.9647 53.2692 38.9085C53.2586 38.8382 53.2276 38.7727 53.1802 38.7198C53.1563 38.6944 53.1254 38.6768 53.0913 38.6692C53.0573 38.6617 53.0218 38.6645 52.9894 38.6774" fill="#B26752"/>
<path d="M53.3434 39.0334C53.3434 39.0631 53.1314 39.1055 52.894 38.9825C52.6565 38.8596 52.5633 38.6561 52.5908 38.6433C52.6184 38.6306 52.7371 38.7811 52.9449 38.885C53.1526 38.9889 53.3434 39.008 53.3434 39.0334Z" fill="#263238"/>
<path d="M54.4034 36.8882C54.4043 36.912 54.4004 36.9358 54.392 36.9581C54.3836 36.9804 54.3708 37.0009 54.3544 37.0182C54.3381 37.0356 54.3184 37.0495 54.2966 37.0592C54.2748 37.0689 54.2513 37.0742 54.2275 37.0747C54.1795 37.0747 54.1334 37.0558 54.0993 37.0221C54.0652 36.9884 54.0457 36.9425 54.0452 36.8945C54.0424 36.8694 54.045 36.8439 54.0528 36.8198C54.0605 36.7957 54.0733 36.7735 54.0902 36.7547C54.1071 36.7359 54.1277 36.7208 54.1509 36.7105C54.174 36.7002 54.199 36.6948 54.2243 36.6948C54.2496 36.6948 54.2746 36.7002 54.2977 36.7105C54.3209 36.7208 54.3415 36.7359 54.3584 36.7547C54.3753 36.7735 54.3881 36.7957 54.3958 36.8198C54.4036 36.8439 54.4062 36.8694 54.4034 36.8945V36.8882Z" fill="#263238"/>
<path d="M54.5773 36.8054C54.554 36.8308 54.4204 36.7185 54.2275 36.71C54.0346 36.7015 53.8925 36.8011 53.8713 36.7736C53.8501 36.746 53.8841 36.7185 53.9477 36.6739C54.0301 36.6148 54.1304 36.5856 54.2317 36.5913C54.3338 36.595 54.4317 36.6331 54.5094 36.6994C54.5688 36.7503 54.5879 36.7948 54.5773 36.8054Z" fill="#263238"/>
<path d="M52.3831 36.199C52.3831 36.2308 52.2008 36.2202 51.993 36.2605C51.7852 36.3007 51.6241 36.3749 51.6072 36.3495C51.5902 36.3241 51.7386 36.1969 51.9718 36.1523C52.205 36.1078 52.3894 36.1714 52.3831 36.199Z" fill="#263238"/>
<path d="M63.6445 61.5691C62.6184 60.9641 61.4172 60.7256 60.2377 60.8928C59.0583 61.0599 57.9707 61.6228 57.1531 62.4892C56.8598 62.023 56.4678 61.6268 56.0048 61.3285C55.5418 61.0302 55.019 60.837 54.4732 60.7626C53.9275 60.6883 53.3721 60.7345 52.8461 60.898C52.3202 61.0615 51.8365 61.3383 51.4291 61.709C51.2171 60.1444 50.4772 58.6074 49.2031 57.681C47.929 56.7546 46.1015 56.5277 44.7511 57.3439L42.8431 62.1351L49.6758 64.906L58.7198 65.5674L63.6445 61.5691Z" fill="#EBEBEB"/>
<path d="M44.7426 57.3375C44.7278 57.3163 44.9207 57.1255 45.3638 56.9453C46.0072 56.6935 46.7067 56.6203 47.3884 56.7333C47.8672 56.8042 48.3316 56.9509 48.7643 57.1679C49.2657 57.4252 49.7178 57.769 50.0999 58.1834C50.972 59.1611 51.5258 60.3812 51.6877 61.6814L51.2362 61.5181C51.797 61.0075 52.4895 60.6639 53.2353 60.526C54.0584 60.3705 54.9095 60.4819 55.6649 60.844C56.3634 61.1779 56.9518 61.7045 57.3609 62.3619L56.9602 62.3216C57.6567 61.6039 58.5366 61.0907 59.5042 60.8376C60.2562 60.6439 61.0417 60.6193 61.8044 60.7655C62.2943 60.8571 62.7666 61.026 63.2036 61.2658C63.5046 61.4333 63.6445 61.5584 63.6276 61.5796C63.6106 61.6008 63.4453 61.5308 63.1315 61.4142C62.6865 61.2461 62.2233 61.1308 61.7514 61.0708C61.0344 60.9829 60.307 61.0435 59.6144 61.2489C58.7378 61.5137 57.9465 62.0051 57.3206 62.6735L57.1086 62.911L56.9284 62.6332C56.5592 62.0681 56.0383 61.6184 55.4253 61.3358C54.7718 61.0286 54.038 60.9358 53.3286 61.0708C52.6842 61.1905 52.0846 61.4837 51.5945 61.9188L51.2086 62.2665L51.1429 61.7534C51.0032 60.5557 50.5144 59.4255 49.7373 58.5035C49.4029 58.117 49.0041 57.7914 48.5586 57.541C48.1708 57.3263 47.7526 57.1719 47.3184 57.0831C46.6874 56.9476 46.033 56.9658 45.4104 57.1361C44.9885 57.2506 44.7638 57.3735 44.7426 57.3375Z" fill="#E0E0E0"/>
<path d="M36.6145 79.9792C36.5054 79.964 36.3982 79.9377 36.2944 79.9008C36.1884 79.869 36.0591 79.8351 35.9086 79.7863L35.3913 79.604C34.2988 79.1944 33.2452 78.6878 32.2431 78.0903C31.6071 77.7151 30.9287 77.272 30.2249 76.7653C29.521 76.2586 28.7939 75.6756 28.0667 75.0227C27.3056 74.3406 26.5796 73.6203 25.8916 72.8645C25.1577 72.0495 24.4678 71.1961 23.8246 70.3078C23.187 69.4138 22.5982 68.486 22.0607 67.5285C21.5669 66.6338 21.1204 65.7139 20.723 64.7725C19.6001 62.0981 18.9185 59.2593 18.7048 56.3667C18.6878 55.9575 18.6751 55.6395 18.6666 55.4169C18.6582 55.3068 18.6582 55.1963 18.6666 55.0862C18.6922 55.194 18.7071 55.3041 18.7111 55.4148C18.7281 55.6374 18.7557 55.9533 18.7896 56.3582C18.9096 57.5123 19.0936 58.6589 19.3408 59.7926C19.7099 61.472 20.2358 63.113 20.9117 64.694C21.3143 65.6238 21.7643 66.5324 22.26 67.4161C23.328 69.3179 24.6035 71.0954 26.0633 72.7161C26.7714 73.5005 27.4964 74.2149 28.213 74.8679C28.9295 75.5209 29.6546 76.0933 30.3436 76.6127C31.0326 77.1321 31.7067 77.5709 32.3343 77.9504C33.3223 78.5567 34.3582 79.0814 35.4316 79.5192L35.9404 79.7206L36.3177 79.8541C36.4199 79.8877 36.5192 79.9295 36.6145 79.9792Z" fill="#263238"/>
<path d="M34.7829 80.4625C34.7829 80.4032 35.7178 80.2039 36.9029 80.0173L36.835 80.1954L36.7969 80.1488C36.0231 79.1948 35.4316 78.3892 35.4803 78.351C35.5291 78.3129 36.1927 79.0549 36.9643 80.011L37.0004 80.0555L37.1233 80.206L36.9325 80.2336C35.7517 80.4201 34.7913 80.5198 34.7829 80.4625Z" fill="#263238"/>
<path d="M86.0254 43.3413C86.0254 43.3413 86.0423 43.371 86.0635 43.4325C86.0847 43.4939 86.1123 43.5893 86.1505 43.7059C86.1886 43.8225 86.2331 43.9773 86.2819 44.1554C86.3307 44.3335 86.3773 44.5433 86.4324 44.7765C86.7251 46.1011 86.8996 47.4491 86.9539 48.8045C86.9942 49.6653 86.99 50.6087 86.9539 51.6199C86.9179 52.6311 86.8013 53.7081 86.6275 54.8338C86.4536 55.9595 86.2183 57.1298 85.9067 58.3297C85.5768 59.5649 85.1826 60.782 84.7258 61.9761C84.2598 63.1667 83.7305 64.3316 83.1401 65.4656C82.8411 66.0083 82.5571 66.5468 82.2412 67.0535C81.9253 67.5602 81.6158 68.052 81.302 68.5269C80.1741 70.2024 78.8861 71.7644 77.4563 73.1909C76.4931 74.1483 75.4699 75.0433 74.3929 75.8706L73.4941 76.5066L73.2566 76.6698C73.2015 76.7059 73.1739 76.7228 73.1718 76.7186C73.1925 76.6927 73.2168 76.6698 73.2439 76.6507L73.4665 76.4705L74.3399 75.7943C75.392 74.9438 76.3957 74.035 77.3461 73.0722C78.7508 71.6384 80.0191 70.077 81.1345 68.4082C81.4441 67.9333 81.7705 67.4521 82.061 66.9369C82.3514 66.4217 82.6525 65.8981 82.9471 65.3596C83.5296 64.2363 84.0518 63.0828 84.5117 61.904C84.9651 60.7178 85.3578 59.5093 85.6883 58.2831C86.0021 57.0916 86.2353 55.9277 86.4176 54.8105C86.5999 53.6933 86.6953 52.6227 86.7631 51.6178C86.831 50.6129 86.8289 49.6759 86.7971 48.8194C86.7578 47.4668 86.6082 46.1196 86.3497 44.7914C86.301 44.5561 86.2565 44.3483 86.2183 44.1681C86.1801 43.9879 86.1377 43.8395 86.1081 43.7144C86.0784 43.5893 86.0572 43.5024 86.0423 43.4346C86.0332 43.4042 86.0275 43.3729 86.0254 43.3413Z" fill="#263238"/>
<path d="M87.6641 44.8232C87.6196 44.8634 86.831 44.0621 85.8897 43.0212L86.0763 42.9809L86.0551 43.0445C85.6183 44.4098 85.2071 45.5016 85.1562 45.4825C85.1053 45.4634 85.4063 44.344 85.8452 42.9788L85.8664 42.913L85.9257 42.7307L86.0529 42.8728C86.9921 43.9158 87.7087 44.7829 87.6641 44.8232Z" fill="#263238"/>
<path d="M70.9988 21.0601C70.9607 21.0411 70.9245 21.0184 70.8907 20.9923L70.596 20.7761L70.1148 20.4157C69.924 20.2736 69.6908 20.1358 69.43 19.9641C67.9577 19.0354 66.395 18.2584 64.766 17.6448C63.7357 17.2547 62.5888 16.8668 61.338 16.5212C60.7126 16.3516 60.066 16.182 59.3876 16.0357C59.0505 15.9594 58.7071 15.8873 58.3594 15.8237C58.1855 15.7898 58.0096 15.758 57.8336 15.7305L57.293 15.6626C54.1605 15.2086 50.9788 15.2086 47.8463 15.6626C44.7079 16.1114 41.6431 16.9754 38.7324 18.2321C36.3553 19.2573 34.101 20.5466 32.012 22.0756L31.376 22.5611C31.164 22.718 30.952 22.8664 30.7718 23.0339L29.7118 23.9455L29.4659 24.1575L29.2433 24.3695L28.8193 24.7786L28.0837 25.4973L27.1318 26.5573L26.8795 26.8308C26.8521 26.8628 26.8216 26.8919 26.7883 26.9177C26.8092 26.8811 26.8341 26.847 26.8625 26.8159L27.0978 26.5297L28.02 25.4422L28.7451 24.7087L29.1691 24.2847L29.3811 24.0727L29.6249 23.8607L30.6849 22.9321C30.8693 22.7604 31.0771 22.6099 31.2849 22.4509C31.4926 22.2919 31.7089 22.1265 31.9209 21.9569C34.0061 20.4053 36.2624 19.0979 38.6455 18.0603C41.5649 16.7861 44.6425 15.9105 47.7954 15.457C50.948 14.9951 54.151 14.9951 57.3036 15.457L57.8463 15.5269C58.0244 15.5566 58.2025 15.5884 58.3785 15.6245C58.7283 15.6923 59.0738 15.7665 59.4109 15.8365C60.0893 15.9891 60.7401 16.1608 61.3677 16.3368C62.6227 16.6908 63.7717 17.0894 64.8042 17.4901C66.4403 18.1181 68.004 18.9206 69.4682 19.8835C69.7226 20.0616 69.9579 20.2058 70.1445 20.3542L70.6151 20.7315L70.9013 20.9669C70.9368 20.9946 70.9695 21.0259 70.9988 21.0601Z" fill="#263238"/>
<path d="M26.8562 24.7088C26.9155 24.7088 26.8159 25.8387 26.6293 27.2294L26.4788 27.1128L26.5403 27.0874C27.8653 26.5383 28.9592 26.1398 28.9825 26.1949C29.0059 26.25 27.9501 26.7418 26.6251 27.2909L26.5636 27.3164L26.3855 27.3906L26.411 27.1998C26.5996 25.809 26.7968 24.7024 26.8562 24.7088Z" fill="#263238"/>
</svg>
