<svg width="155" height="104" viewBox="0 0 155 104" fill="none" xmlns="http://www.w3.org/2000/svg">
<path d="M144.621 95.3395C144.621 95.3684 114.382 95.3932 77.0908 95.3932C39.7999 95.3932 9.55214 95.3684 9.55214 95.3395C9.55214 95.3105 39.7833 95.2857 77.0908 95.2857C114.398 95.2857 144.621 95.3085 144.621 95.3395Z" fill="#263238"/>
<path d="M110.226 81.6437L109.984 83.0221L133.453 87.9119L137.462 64.0894L132.591 86.3019L110.226 81.6437Z" fill="#E0E0E0"/>
<path d="M114.365 58.1521L109.241 81.4211L132.51 86.5456L137.634 63.2766L114.365 58.1521Z" fill="white"/>
<path d="M132.515 86.5541C132.515 86.5541 132.515 86.5148 132.535 86.4425L132.606 86.1201C132.666 85.8349 132.756 85.4153 132.874 84.8677C133.114 83.7744 133.461 82.181 133.908 80.1329C134.798 76.0616 136.071 70.2481 137.597 63.2751L137.632 63.3309L114.363 58.2118L114.427 58.1705C112.547 66.6913 110.786 74.6749 109.294 81.437L109.258 81.3812L126.108 85.1177L130.837 86.1717L132.077 86.4528L132.399 86.5251L132.508 86.5541L132.403 86.5334L132.085 86.4652L130.845 86.1965L126.12 85.1632L109.232 81.4659L109.186 81.4556V81.4101L114.305 58.1415L114.318 58.0878L114.369 58.1002L137.65 63.24L137.696 63.2503V63.2958C136.148 70.277 134.858 76.0947 133.953 80.1722C133.5 82.2037 133.145 83.8013 132.901 84.8925L132.622 86.1325C132.591 86.2709 132.568 86.3743 132.55 86.4487L132.515 86.5541Z" fill="#263238"/>
<path d="M120.997 82.5282H120.987C120.98 82.5267 120.974 82.524 120.968 82.5201C120.963 82.5161 120.958 82.5112 120.954 82.5054C120.951 82.4996 120.948 82.4932 120.947 82.4865C120.946 82.4797 120.946 82.4729 120.948 82.4662L123.754 69.7231C123.757 69.7097 123.765 69.698 123.777 69.6907C123.783 69.687 123.789 69.6845 123.796 69.6834C123.803 69.6822 123.809 69.6824 123.816 69.6839C123.823 69.6854 123.829 69.6881 123.835 69.6921C123.84 69.696 123.845 69.701 123.849 69.7067C123.852 69.7125 123.855 69.7189 123.856 69.7256C123.857 69.7323 123.857 69.7392 123.855 69.7459L121.047 82.4889C121.044 82.5001 121.038 82.5099 121.029 82.517C121.02 82.5242 121.009 82.5281 120.997 82.5282Z" fill="#263238"/>
<path d="M120.497 82.8217C120.447 82.8213 120.397 82.8157 120.348 82.8051C120.26 82.7861 120.177 82.7498 120.103 82.6984C120.029 82.6469 119.967 82.5814 119.918 82.5055C119.821 82.352 119.788 82.1663 119.827 81.9888L119.912 81.6065C119.915 81.5932 119.92 81.5806 119.928 81.5695C119.935 81.5583 119.945 81.5488 119.957 81.5415C119.968 81.5342 119.981 81.5292 119.994 81.5269C120.007 81.5245 120.021 81.5249 120.034 81.5279C120.047 81.5309 120.06 81.5364 120.071 81.5442C120.082 81.5521 120.092 81.562 120.099 81.5736C120.106 81.5851 120.111 81.598 120.114 81.6114C120.116 81.6249 120.116 81.6386 120.113 81.6519L120.028 82.0343C120.008 82.1267 120.016 82.2229 120.05 82.3109C120.085 82.3989 120.145 82.4747 120.222 82.5288C120.3 82.583 120.391 82.613 120.486 82.615C120.58 82.6171 120.673 82.5912 120.753 82.5406C120.806 82.5064 120.851 82.4622 120.887 82.4104C120.922 82.3586 120.947 82.3003 120.96 82.2389L121.247 80.9369C121.25 80.9233 121.256 80.9104 121.264 80.899C121.272 80.8877 121.282 80.8779 121.294 80.8705C121.305 80.863 121.318 80.8579 121.332 80.8554C121.346 80.853 121.36 80.8533 121.373 80.8563C121.387 80.8592 121.4 80.8649 121.411 80.8728C121.422 80.8808 121.432 80.8909 121.44 80.9026C121.447 80.9143 121.452 80.9274 121.455 80.9411C121.457 80.9547 121.457 80.9688 121.454 80.9823L121.167 82.2843C121.133 82.4365 121.049 82.5728 120.927 82.6705C120.806 82.7682 120.655 82.8215 120.499 82.8217H120.497Z" fill="#006D77"/>
<path d="M114.144 74.3256C114.144 74.3256 117.823 69.5433 123.917 70.8867C130.012 72.23 131.178 78.3432 131.178 78.3432C131.178 78.3432 129.181 77.562 126.55 78.6181C124.034 76.9662 121.023 76.236 118.029 76.5514C117.032 75.3803 115.659 74.5932 114.144 74.3256Z" fill="#455A64"/>
<path d="M126.55 78.6181C126.542 78.5612 126.538 78.5039 126.538 78.4465C126.538 78.3267 126.538 78.1634 126.519 77.9588C126.501 77.7542 126.482 77.4897 126.453 77.19C126.424 76.8903 126.356 76.5535 126.292 76.1815C126.106 75.3152 125.822 74.4728 125.447 73.6705C125.224 73.1965 124.968 72.7387 124.682 72.3003C124.376 71.8273 124.03 71.3813 123.649 70.9673L123.531 70.8453H123.593C121.875 71.7506 120.381 73.027 119.218 74.5819C118.866 75.0518 118.545 75.5432 118.255 76.0533C118.149 76.2311 118.079 76.3757 118.023 76.4667C117.998 76.5159 117.97 76.5635 117.938 76.6093C117.957 76.5597 117.979 76.5119 118.007 76.4667C118.056 76.3675 118.12 76.2207 118.213 76.0389C118.907 74.7487 119.815 73.5863 120.9 72.602C121.699 71.8821 122.584 71.2642 123.535 70.7627L123.57 70.7441L123.597 70.7709L123.721 70.8991C124.103 71.3182 124.449 71.769 124.754 72.2465C125.042 72.6892 125.298 73.1519 125.519 73.6312C125.897 74.4415 126.178 75.2932 126.358 76.1691C126.424 76.506 126.473 76.8461 126.505 77.1879C126.534 77.4445 126.55 77.7026 126.552 77.9609C126.552 78.1675 126.552 78.3308 126.552 78.4507C126.558 78.5064 126.557 78.5625 126.55 78.6181Z" fill="#263238"/>
<path d="M126.786 62.0103C127.567 62.0103 128.199 61.3774 128.199 60.5967C128.199 59.816 127.567 59.1831 126.786 59.1831C126.005 59.1831 125.372 59.816 125.372 60.5967C125.372 61.3774 126.005 62.0103 126.786 62.0103Z" fill="#006D77"/>
<path d="M127.703 60.5533C127.703 60.5533 127.703 60.4748 127.656 60.3467C127.601 60.1626 127.488 60.0015 127.334 59.8879C127.21 59.7975 127.065 59.743 126.912 59.7305C126.76 59.718 126.607 59.7479 126.471 59.8169C126.335 59.886 126.22 59.9914 126.14 60.1216C126.06 60.2518 126.018 60.4016 126.018 60.5544C126.018 60.7071 126.06 60.8569 126.14 60.9871C126.22 61.1173 126.335 61.2228 126.471 61.2918C126.607 61.3608 126.76 61.3908 126.912 61.3782C127.065 61.3657 127.21 61.3112 127.334 61.2209C127.488 61.1079 127.601 60.9475 127.656 60.7641C127.693 60.6339 127.693 60.5575 127.703 60.5575C127.72 60.6295 127.72 60.7045 127.703 60.7765C127.661 60.9769 127.55 61.1562 127.389 61.2829C127.268 61.3786 127.125 61.442 126.973 61.467C126.821 61.4919 126.664 61.4776 126.519 61.4255C126.34 61.3619 126.184 61.2442 126.074 61.0886C125.964 60.933 125.905 60.747 125.905 60.5564C125.905 60.3658 125.964 60.1799 126.074 60.0242C126.184 59.8686 126.34 59.7509 126.519 59.6874C126.664 59.6362 126.82 59.6224 126.972 59.6473C127.123 59.6723 127.266 59.7351 127.387 59.83C127.55 59.9565 127.662 60.1367 127.703 60.3384C127.72 60.4091 127.72 60.4826 127.703 60.5533Z" fill="#263238"/>
<path d="M119.927 50.9082L119.522 53.0059L142.85 57.6931L146.628 34.534L141.951 55.7607L119.927 50.9082Z" fill="#E0E0E0"/>
<path d="M124.161 27.9307L119.139 50.7335L141.942 55.7553L146.964 32.9526L124.161 27.9307Z" fill="white"/>
<path d="M141.951 55.7607C141.951 55.7607 141.951 55.7215 141.972 55.6512C141.992 55.5809 142.009 55.4735 142.04 55.335L142.304 54.1095L143.313 49.4677C144.187 45.477 145.433 39.7813 146.93 32.9468L146.965 33.0026L124.161 27.9868L124.225 27.9455C122.384 36.2948 120.658 44.1192 119.195 50.747L119.16 50.6912L135.67 54.3533L140.304 55.3867L141.527 55.6615L141.844 55.7339L141.951 55.7607L141.848 55.7401L141.536 55.6739L140.327 55.4115L135.697 54.4029L119.145 50.7821L119.1 50.7718V50.7263C120.559 44.0985 122.281 36.2721 124.118 27.9227V27.869L124.172 27.8814L146.969 32.9117L147.016 32.922L147.006 32.9675C145.487 39.8081 144.224 45.5121 143.338 49.5008C142.893 51.491 142.544 53.0555 142.304 54.126C142.185 54.6571 142.098 55.0643 142.03 55.3412C142.001 55.4755 141.976 55.5789 141.959 55.6512L141.951 55.7607Z" fill="#263238"/>
<path d="M130.584 32.4921C130.303 32.5257 130.018 32.5039 129.745 32.4281C130.545 34.255 130.547 36.4581 130.299 38.4379L130.682 38.3987C130.985 36.7701 130.93 34.3211 130.584 32.4921Z" fill="#AE7461"/>
<path d="M136.016 40.0747C138.25 43.0383 137.256 47.5602 134.288 49.7881C132.864 50.8454 131.08 51.297 129.325 51.0445C127.57 50.7919 125.986 49.8556 124.918 48.4398C123.85 47.024 123.385 45.2434 123.625 43.4864C123.864 41.7293 124.789 40.1382 126.197 39.06C129.167 36.8301 133.782 37.1132 136.016 40.0747Z" fill="#006D77"/>
<g opacity="0.3">
<path d="M124.141 41.6165C125.471 41.5831 126.754 41.1157 127.794 40.2855C129.437 38.9174 129.96 37.6588 129.96 37.6588C129.96 37.6588 128.23 37.4873 126.922 38.5702C125.97 39.387 125.097 40.2913 124.314 41.2713C124.238 41.3759 124.179 41.4926 124.141 41.6165Z" fill="black"/>
</g>
<path d="M130.016 35.1333C129.178 35.1428 128.343 35.2328 127.522 35.402C126.695 35.5752 125.936 35.9844 125.337 36.58C124.717 37.2227 124.405 38.0825 124.176 38.936C123.946 39.7895 123.789 40.672 123.444 41.4883C124.902 41.2891 126.297 40.7689 127.53 39.9652C128.067 39.6128 128.545 39.1783 128.948 38.6777C129.341 38.2015 129.632 37.6492 129.801 37.0553C129.957 36.4298 130.027 35.786 130.008 35.1416" fill="#455A64"/>
<path d="M130.477 34.8068C130.422 34.8772 130.359 34.9416 130.291 34.999L129.764 35.495C129.315 35.9083 128.702 36.4953 128.034 37.1483C127.367 37.8014 126.776 38.4049 126.348 38.843L125.841 39.3597C125.783 39.4274 125.717 39.4884 125.645 39.5415C125.693 39.4672 125.748 39.3979 125.81 39.3349C125.922 39.2047 126.085 39.0187 126.292 38.7934C126.705 38.3408 127.292 37.727 127.96 37.0739C128.627 36.4209 129.251 35.8463 129.712 35.4413C129.942 35.2346 130.126 35.0775 130.264 34.9701C130.328 34.9074 130.4 34.8526 130.477 34.8068Z" fill="#263238"/>
<g opacity="0.3">
<path d="M125.775 45.1711C125.807 45.1672 125.836 45.1518 125.857 45.1281C125.878 45.1043 125.889 45.0737 125.889 45.042C125.889 45.0103 125.878 44.9797 125.857 44.9559C125.836 44.9321 125.807 44.9168 125.775 44.9128C125.744 44.9168 125.715 44.9321 125.694 44.9559C125.673 44.9797 125.661 45.0103 125.661 45.042C125.661 45.0737 125.673 45.1043 125.694 45.1281C125.715 45.1518 125.744 45.1672 125.775 45.1711Z" fill="black"/>
</g>
<g opacity="0.3">
<path d="M125.447 44.0531C125.478 44.0491 125.507 44.0338 125.528 44.01C125.549 43.9862 125.56 43.9556 125.56 43.9239C125.56 43.8922 125.549 43.8616 125.528 43.8378C125.507 43.814 125.478 43.7987 125.447 43.7947C125.415 43.7987 125.386 43.814 125.365 43.8378C125.344 43.8616 125.333 43.8922 125.333 43.9239C125.333 43.9556 125.344 43.9862 125.365 44.01C125.386 44.0338 125.415 44.0491 125.447 44.0531Z" fill="black"/>
</g>
<g opacity="0.3">
<path d="M124.769 45.1773C124.8 45.1734 124.829 45.158 124.85 45.1343C124.871 45.1105 124.883 45.0799 124.883 45.0482C124.883 45.0165 124.871 44.9859 124.85 44.9621C124.829 44.9383 124.8 44.923 124.769 44.919C124.737 44.923 124.708 44.9383 124.687 44.9621C124.667 44.9859 124.655 45.0165 124.655 45.0482C124.655 45.0799 124.667 45.1105 124.687 45.1343C124.708 45.158 124.737 45.1734 124.769 45.1773Z" fill="black"/>
</g>
<g opacity="0.3">
<path d="M124.595 43.5447C124.627 43.5407 124.656 43.5254 124.677 43.5016C124.697 43.4778 124.709 43.4472 124.709 43.4155C124.709 43.3838 124.697 43.3532 124.677 43.3294C124.656 43.3056 124.627 43.2903 124.595 43.2863C124.564 43.2903 124.535 43.3056 124.514 43.3294C124.493 43.3532 124.481 43.3838 124.481 43.4155C124.481 43.4472 124.493 43.4778 124.514 43.5016C124.535 43.5254 124.564 43.5407 124.595 43.5447Z" fill="black"/>
</g>
<g opacity="0.3">
<path d="M125.742 42.4452C125.774 42.4412 125.803 42.4259 125.824 42.4021C125.844 42.3783 125.856 42.3477 125.856 42.316C125.856 42.2843 125.844 42.2537 125.824 42.2299C125.803 42.2062 125.774 42.1909 125.742 42.1869C125.711 42.1909 125.682 42.2062 125.661 42.2299C125.64 42.2537 125.628 42.2843 125.628 42.316C125.628 42.3477 125.64 42.3783 125.661 42.4021C125.682 42.4259 125.711 42.4412 125.742 42.4452Z" fill="black"/>
</g>
<g opacity="0.3">
<path d="M126.48 43.3256C126.511 43.3216 126.54 43.3063 126.561 43.2825C126.582 43.2587 126.594 43.2281 126.594 43.1964C126.594 43.1647 126.582 43.1341 126.561 43.1104C126.54 43.0866 126.511 43.0713 126.48 43.0673C126.449 43.0713 126.42 43.0866 126.399 43.1104C126.378 43.1341 126.366 43.1647 126.366 43.1964C126.366 43.2281 126.378 43.2587 126.399 43.2825C126.42 43.3063 126.449 43.3216 126.48 43.3256Z" fill="black"/>
</g>
<g opacity="0.3">
<path d="M125.033 46.7687C125.065 46.7647 125.094 46.7494 125.115 46.7256C125.136 46.7018 125.147 46.6712 125.147 46.6395C125.147 46.6078 125.136 46.5772 125.115 46.5534C125.094 46.5296 125.065 46.5143 125.033 46.5103C125.002 46.5143 124.973 46.5296 124.952 46.5534C124.931 46.5772 124.92 46.6078 124.92 46.6395C124.92 46.6712 124.931 46.7018 124.952 46.7256C124.973 46.7494 125.002 46.7647 125.033 46.7687Z" fill="black"/>
</g>
<g opacity="0.3">
<path d="M124.88 42.1786C124.912 42.1746 124.941 42.1593 124.962 42.1355C124.983 42.1117 124.994 42.0811 124.994 42.0494C124.994 42.0177 124.983 41.9871 124.962 41.9634C124.941 41.9396 124.912 41.9243 124.88 41.9203C124.849 41.9243 124.82 41.9396 124.799 41.9634C124.778 41.9871 124.767 42.0177 124.767 42.0494C124.767 42.0811 124.778 42.1117 124.799 42.1355C124.82 42.1593 124.849 42.1746 124.88 42.1786Z" fill="black"/>
</g>
<g opacity="0.3">
<path d="M136.377 43.3173C136.348 42.9838 136.302 42.652 136.239 42.3233C136.069 41.5332 135.711 40.7958 135.195 40.174C134.679 39.5521 134.02 39.0643 133.275 38.7521C132.705 38.5103 132.318 38.4524 132.325 38.4317C132.415 38.4328 132.506 38.4453 132.593 38.4689C132.836 38.5171 133.074 38.5862 133.304 38.6756C134.072 38.975 134.751 39.4648 135.277 40.099C135.804 40.7331 136.16 41.4907 136.313 42.3005C136.36 42.5438 136.386 42.7906 136.392 43.0383C136.399 43.1316 136.394 43.2253 136.377 43.3173Z" fill="white"/>
</g>
<g opacity="0.3">
<path d="M136.193 45.2269C136.166 45.2083 136.28 45.0203 136.34 44.7702C136.4 44.5201 136.388 44.3031 136.421 44.299C136.494 44.4552 136.503 44.6343 136.445 44.7971C136.379 45.074 136.214 45.2455 136.193 45.2269Z" fill="white"/>
</g>
<path d="M135.555 31.5601C136.335 31.5601 136.968 30.9272 136.968 30.1465C136.968 29.3658 136.335 28.7329 135.555 28.7329C134.774 28.7329 134.141 29.3658 134.141 30.1465C134.141 30.9272 134.774 31.5601 135.555 31.5601Z" fill="#006D77"/>
<path d="M136.472 30.1113C136.462 30.1113 136.462 30.0349 136.425 29.9047C136.37 29.7213 136.257 29.5609 136.102 29.4479C135.979 29.3576 135.833 29.3031 135.681 29.2905C135.529 29.278 135.376 29.3079 135.24 29.377C135.104 29.446 134.989 29.5515 134.909 29.6817C134.829 29.8119 134.787 29.9616 134.787 30.1144C134.787 30.2672 134.829 30.417 134.909 30.5472C134.989 30.6774 135.104 30.7828 135.24 30.8519C135.376 30.9209 135.529 30.9508 135.681 30.9383C135.833 30.9258 135.979 30.8713 136.102 30.7809C136.257 30.6677 136.371 30.5064 136.425 30.3221C136.462 30.1919 136.462 30.1155 136.472 30.1155C136.49 30.1874 136.49 30.2626 136.472 30.3345C136.43 30.5359 136.318 30.7158 136.156 30.8429C136.035 30.9382 135.892 31.0012 135.741 31.0262C135.589 31.0511 135.433 31.0371 135.288 30.9855C135.108 30.922 134.953 30.8043 134.843 30.6487C134.733 30.493 134.674 30.3071 134.674 30.1165C134.674 29.9259 134.733 29.74 134.843 29.5843C134.953 29.4287 135.108 29.311 135.288 29.2475C135.433 29.1959 135.589 29.1819 135.741 29.2068C135.892 29.2318 136.035 29.2948 136.156 29.3901C136.318 29.5172 136.43 29.6971 136.472 29.8985C136.489 29.9684 136.489 30.0414 136.472 30.1113Z" fill="#263238"/>
<path d="M91.4831 43.8237L91.7683 45.7622L115.324 44.6772L112.582 20.2368L113.803 42.6064L91.4831 43.8237Z" fill="#E0E0E0"/>
<path d="M112.524 19.1747L89.0919 20.452L90.3691 43.8842L113.801 42.6069L112.524 19.1747Z" fill="white"/>
<path d="M113.803 42.6064C113.803 42.6064 113.803 42.5671 113.803 42.4948C113.803 42.4225 113.793 42.3109 113.784 42.1703C113.766 41.8831 113.741 41.4615 113.71 40.9117C113.646 39.8102 113.555 38.1982 113.437 36.146C113.208 32.0478 112.881 26.195 112.489 19.1766L112.538 19.22L89.0981 20.5055L89.1498 20.4476C89.6148 29.0284 90.0509 37.0698 90.4208 43.8815L90.3712 43.8361L107.345 42.935L112.113 42.687L113.371 42.625L113.696 42.6085H113.807H113.7L113.381 42.6271L112.131 42.7015L107.378 42.9722L90.3774 43.9229H90.3299V43.8753C89.9558 37.0657 89.5156 29.0243 89.0444 20.4435V20.3897H89.1002L112.53 19.1187H112.578V19.1642C112.952 26.1909 113.262 32.0602 113.481 36.1667C113.588 38.2147 113.671 39.8247 113.729 40.92C113.756 41.4656 113.776 41.8851 113.791 42.16C113.791 42.2985 113.791 42.4059 113.805 42.4783C113.82 42.5506 113.803 42.6064 113.803 42.6064Z" fill="#263238"/>
<path d="M94.7732 33.7383C96.6332 35.0899 102.153 38.9835 104.778 40.8311C104.877 40.9005 104.995 40.937 105.115 40.9355C105.236 40.934 105.353 40.8945 105.45 40.8227C105.547 40.7509 105.619 40.6504 105.656 40.5354C105.692 40.4205 105.692 40.2969 105.654 40.1822L101.845 28.5799C101.817 28.4935 101.769 28.415 101.705 28.3508C101.641 28.2866 101.563 28.2386 101.476 28.2107C101.39 28.1828 101.298 28.1759 101.208 28.1905C101.119 28.2052 101.034 28.2409 100.961 28.2947L94.7732 32.8104C94.7002 32.8637 94.6408 32.9335 94.5998 33.0142C94.5589 33.0948 94.5375 33.1839 94.5375 33.2744C94.5375 33.3648 94.5589 33.4539 94.5998 33.5346C94.6408 33.6152 94.7002 33.685 94.7732 33.7383Z" fill="#AE7461"/>
<path d="M104.129 40.4447C104.102 40.4447 103.337 37.8634 102.42 34.658C101.502 31.4526 100.781 28.8589 100.808 28.8507C100.835 28.8424 101.599 31.4299 102.515 34.6373C103.43 37.8448 104.16 40.4364 104.129 40.4447Z" fill="#6F4439"/>
<path d="M102.257 38.9505C102.23 38.9505 101.48 36.4147 100.578 33.2733C99.6774 30.132 98.9706 27.5776 98.9954 27.5693C99.0202 27.5611 99.7725 30.1031 100.674 33.2465C101.575 36.3899 102.283 38.9422 102.257 38.9505Z" fill="#6F4439"/>
<path d="M100.44 37.82C100.415 37.82 99.6629 35.2863 98.7639 32.1449C97.8649 29.0036 97.154 26.4533 97.1809 26.4533C97.2077 26.4533 97.9579 28.9871 98.8569 32.1305C99.7559 35.2739 100.467 37.82 100.44 37.82Z" fill="#6F4439"/>
<path d="M98.6606 36.58C98.6337 36.58 98.0902 34.7696 97.4454 32.5211C96.8006 30.2725 96.3067 28.4373 96.3273 28.4291C96.348 28.4208 96.8957 30.2395 97.5405 32.488C98.1853 34.7365 98.6854 36.5655 98.6606 36.58Z" fill="#6F4439"/>
<path d="M96.844 35.2987C96.8192 35.2987 96.3397 33.7177 95.7776 31.7523C95.2155 29.7869 94.7773 28.1852 94.8042 28.1769C94.8311 28.1687 95.3085 29.7579 95.8727 31.7254C96.4369 33.6929 96.8709 35.2904 96.844 35.2987Z" fill="#6F4439"/>
<path d="M105.332 39.3721C105.317 39.3948 103.044 37.9027 100.256 36.0406C97.4681 34.1785 95.2175 32.6513 95.2341 32.6285C95.2506 32.6058 97.5219 34.1 100.31 35.96C103.098 37.82 105.348 39.3493 105.332 39.3721Z" fill="#6F4439"/>
<path d="M104.658 37.2C104.644 37.2227 102.405 35.7533 99.6588 33.9202C96.9122 32.0871 94.6988 30.5825 94.7133 30.5598C94.7277 30.5371 96.9659 32.0065 99.7146 33.8396C102.463 35.6727 104.675 37.1731 104.658 37.2Z" fill="#6F4439"/>
<path d="M103.91 35.0507C103.895 35.0734 102.306 34.0401 100.361 32.7401C98.4167 31.4402 96.8481 30.3697 96.8667 30.3469C96.8853 30.3242 98.4705 31.3596 100.415 32.6595C102.36 33.9595 103.926 35.0279 103.91 35.0507Z" fill="#6F4439"/>
<path d="M103.251 32.9344C103.234 32.9571 101.843 32.054 100.151 30.9173C98.4581 29.7807 97.0817 28.8507 97.0982 28.8197C97.1147 28.7887 98.5035 29.7001 100.198 30.8367C101.893 31.9734 103.265 32.9117 103.251 32.9344Z" fill="#6F4439"/>
<path d="M102.507 30.5123C102.492 30.535 101.149 29.6629 99.5059 28.5655C97.8629 27.4681 96.5423 26.5608 96.5588 26.5381C96.5753 26.5153 97.9166 27.3875 99.5596 28.4849C101.203 29.5823 102.517 30.4895 102.507 30.5123Z" fill="#6F4439"/>
<path d="M92.9442 30.6363C92.7162 29.7994 92.7456 28.9132 93.0288 28.0933C93.3119 27.2734 93.8355 26.5578 94.5314 26.04C96.4844 24.583 99.3095 25.0749 100.746 27.0423L101.12 27.5569L101.219 27.4846C101.893 27.4846 102.376 28.2038 102.403 28.8775C102.413 28.966 102.398 29.0555 102.36 29.1359C102.313 29.2042 102.251 29.2602 102.178 29.2991L100.82 30.1899C100.938 30.3027 101.011 30.4535 101.028 30.6155C101.044 30.7774 101.003 30.94 100.911 31.0744C100.705 31.3245 100.206 31.2583 100.138 30.9401C100.345 31.3017 100.671 31.5828 100.717 32.023C100.731 32.1188 100.719 32.2164 100.682 32.3061C100.646 32.3958 100.587 32.4742 100.51 32.5335C100.24 32.7257 99.9151 32.5562 99.6547 32.3909L99.0161 31.9775C98.9585 31.9354 98.8921 31.9071 98.8218 31.8949C98.7175 31.8994 98.618 31.9403 98.5407 32.0106L95.4986 34.1992C95.5349 34.2801 95.5414 34.3712 95.5168 34.4564C95.4922 34.5415 95.4381 34.6152 95.3643 34.6642C95.2124 34.7577 95.0302 34.7888 94.8559 34.751C94.6324 34.7144 94.4235 34.6162 94.2527 34.4676C94.0818 34.3189 93.9558 34.1256 93.8886 33.9093C93.8215 33.693 93.8159 33.4623 93.8724 33.243C93.929 33.0238 94.0456 32.8246 94.209 32.6678L93.9383 32.3702C93.4743 31.8791 93.1336 31.2848 92.9442 30.6363Z" fill="#006D77"/>
<path d="M94.9943 26.4161C94.7406 26.6133 94.5029 26.8303 94.2834 27.0651C93.7632 27.6441 93.4424 28.3746 93.368 29.1494C93.2936 29.9243 93.4696 30.7025 93.8701 31.3699C94.0397 31.6425 94.2319 31.9004 94.4446 32.1408C94.3724 32.0911 94.3065 32.0328 94.2483 31.9672C94.0822 31.7963 93.9353 31.6078 93.8101 31.4051C93.3831 30.7317 93.1919 29.9355 93.2667 29.1416C93.3416 28.3478 93.6781 27.6013 94.2235 27.0196C94.3847 26.8438 94.5649 26.6865 94.7608 26.5505C94.8331 26.4967 94.9115 26.4516 94.9943 26.4161Z" fill="white"/>
<path d="M94.922 34.3769C94.922 34.3769 94.8331 34.3501 94.7153 34.2715C94.5504 34.1726 94.4092 34.0385 94.302 33.8789C94.2479 33.7962 94.2115 33.7032 94.1951 33.6057C94.1788 33.5082 94.1828 33.4084 94.2069 33.3126C94.2503 33.1659 94.333 33.1059 94.3392 33.1059C94.3454 33.1059 94.2958 33.1865 94.2751 33.3126C94.2524 33.4863 94.2911 33.6625 94.3847 33.8107C94.4876 33.9582 94.6123 34.0892 94.7546 34.1992C94.86 34.3067 94.9303 34.3645 94.922 34.3769Z" fill="white"/>
<path d="M100.488 32.2131C100.488 32.2131 100.488 32.2421 100.471 32.2813C100.433 32.3337 100.377 32.3698 100.314 32.3826C100.223 32.3973 100.129 32.3866 100.043 32.3516C99.9429 32.3164 99.8455 32.2736 99.7518 32.2235C99.5036 32.1122 99.2896 31.9367 99.1318 31.7151C99.1504 31.6944 99.417 31.9383 99.8055 32.1284C99.9577 32.2256 100.13 32.2865 100.31 32.3061C100.378 32.2951 100.44 32.2625 100.488 32.2131Z" fill="white"/>
<path d="M100.574 21.1461C101.355 21.1461 101.988 20.5132 101.988 19.7325C101.988 18.9518 101.355 18.3189 100.574 18.3189C99.7936 18.3189 99.1607 18.9518 99.1607 19.7325C99.1607 20.5132 99.7936 21.1461 100.574 21.1461Z" fill="#006D77"/>
<path d="M101.492 19.6974C101.492 19.6974 101.492 19.6189 101.444 19.4907C101.39 19.3074 101.276 19.147 101.122 19.034C100.999 18.9433 100.853 18.8885 100.701 18.8757C100.548 18.8629 100.395 18.8927 100.259 18.9616C100.122 19.0306 100.008 19.1361 99.9274 19.2663C99.8473 19.3966 99.8049 19.5465 99.8049 19.6995C99.8049 19.8524 99.8473 20.0023 99.9274 20.1326C100.008 20.2629 100.122 20.3683 100.259 20.4373C100.395 20.5063 100.548 20.536 100.701 20.5232C100.853 20.5105 100.999 20.4557 101.122 20.3649C101.277 20.2524 101.39 20.0918 101.444 19.9082C101.482 19.778 101.482 19.7015 101.492 19.7015C101.509 19.7736 101.509 19.8485 101.492 19.9206C101.451 20.1222 101.34 20.3025 101.178 20.429C101.056 20.5239 100.913 20.5867 100.761 20.6116C100.609 20.6366 100.453 20.6228 100.308 20.5716C100.128 20.5075 99.973 20.3896 99.8631 20.2338C99.7533 20.078 99.6944 19.8921 99.6944 19.7015C99.6944 19.511 99.7533 19.325 99.8631 19.1693C99.973 19.0135 100.128 18.8955 100.308 18.8315C100.453 18.7802 100.609 18.7665 100.761 18.7918C100.914 18.8171 101.057 18.8805 101.178 18.9761C101.339 19.1022 101.451 19.2817 101.492 19.4825C101.508 19.5532 101.508 19.6267 101.492 19.6974Z" fill="#263238"/>
<path d="M101.694 31.4939C101.591 31.536 101.506 31.6143 101.456 31.7143C101.405 31.8143 101.393 31.9292 101.422 32.0375C101.456 32.1507 101.531 32.2469 101.633 32.307C101.735 32.3671 101.856 32.3867 101.971 32.3619C102.084 32.3223 102.177 32.2406 102.231 32.1339C102.285 32.0272 102.296 31.9038 102.261 31.7895C102.218 31.6798 102.138 31.5893 102.033 31.5349C101.929 31.4805 101.809 31.4659 101.694 31.4939Z" fill="#006D77"/>
<path d="M75.9231 86.1469C75.9603 86.1469 76.4915 88.8336 76.4915 88.8336L100.601 83.8881L95.3271 59.5014L99.1814 82.2079L75.9231 86.1469Z" fill="#E0E0E0"/>
<path d="M95.0951 58.1417L71.0338 62.2243L75.1164 86.2857L99.1778 82.203L95.0951 58.1417Z" fill="white"/>
<path d="M99.1814 82.1996C99.1814 82.1996 99.1814 82.1603 99.1587 82.0859C99.1359 82.0115 99.1256 81.8979 99.1008 81.7532C99.0491 81.4597 98.9747 81.0257 98.8755 80.4615C98.6813 79.3311 98.3961 77.6757 98.0323 75.5697C97.3131 71.362 96.286 65.3542 95.0522 58.1457L95.1059 58.1829L71.0479 62.2749L71.0913 62.2129L75.1647 86.2751L75.1109 86.2379L92.5453 83.3032L97.4413 82.4765L98.7329 82.2699L99.0677 82.2161L99.1814 82.1996L99.0719 82.2203L98.7453 82.2781L97.4619 82.5013L92.5867 83.3425L75.1316 86.3288H75.0861V86.2833C73.8978 79.2897 72.4945 71.0334 70.9962 62.2211L70.9859 62.1695L71.0396 62.1591L95.0997 58.0837H95.1473V58.1312C96.3645 65.3521 97.3772 71.3744 98.0881 75.5925C98.4395 77.6943 98.7081 79.3476 98.9045 80.4781C98.9975 81.0381 99.0677 81.4701 99.1111 81.7615C99.1339 81.9061 99.1504 82.0136 99.1628 82.0901C99.1752 82.1665 99.1814 82.1996 99.1814 82.1996Z" fill="#263238"/>
<path d="M90.7081 78.0063C90.7081 78.0063 91.2578 80.7178 91.3694 80.9699C91.3694 80.9699 90.8548 81.6685 90.9085 81.8627C90.9623 82.057 91.3797 82.3794 91.3797 82.3794L92.4337 82.1996L93.5373 81.4845L93.5683 79.7155L92.9318 78.0621L92.1051 77.4153L90.7081 78.0063Z" fill="#E0E0E0"/>
<g opacity="0.3">
<path d="M90.7081 78.0063C90.7081 78.0063 91.2578 80.7178 91.3694 80.9699C91.3694 80.9699 90.8548 81.6685 90.9085 81.8627C90.9623 82.057 91.3797 82.3794 91.3797 82.3794L92.4337 82.1996L93.5373 81.4845L93.5683 79.7155L92.9318 78.0621L92.1051 77.4153L90.7081 78.0063Z" fill="black"/>
</g>
<path d="M74.1933 74.6707C74.1933 74.7596 74.0528 75.8653 74.4785 76.3571C74.9043 76.849 75.8425 77.6178 76.2083 77.7583C76.5741 77.8989 77.7728 77.8162 78.5023 77.1259C78.5023 77.1259 78.709 75.9893 78.43 75.7516C78.151 75.5139 77.4587 74.9043 77.4442 75.1688C77.4438 75.3687 77.4773 75.5671 77.5434 75.7557C77.5434 75.7557 77.1032 75.7785 77.1569 75.9624C77.261 76.1555 77.4014 76.3267 77.5703 76.4667C77.3508 76.5205 77.1277 76.5585 76.9027 76.5803C76.7415 76.5803 76.0761 76.2641 76.0595 75.764C76.043 75.2639 76.8325 74.0197 77.2995 73.5361C77.7666 73.0525 79.3269 71.8208 79.3269 71.8208L81.4101 70.7875L80.0379 67.6875C80.0379 67.6875 77.6302 68.479 76.2166 70.1303C74.803 71.7815 74.2119 73.8007 74.1933 74.6707Z" fill="#E0E0E0"/>
<path d="M84.8656 77.717C84.8656 77.717 85.9878 78.1841 86.4797 78.3659C86.9715 78.5478 88.8667 78.8971 89.4412 78.7152C90.0157 78.5333 91.8923 77.9133 91.8923 77.9133L92.5743 72.3333L93.5642 71.0933C93.5642 71.0933 92.1899 69.8161 91.3549 69.6839C90.52 69.5516 88.0958 70.1757 88.0958 70.1757C88.0958 70.1757 85.0743 71.3207 85.0123 71.4405C84.9503 71.5604 84.4151 76.3303 84.4151 76.3303L84.8656 77.717Z" fill="#E0E0E0"/>
<path d="M81.6809 74.7823C81.6809 74.7823 81.7821 76.4357 81.6023 76.725C81.4225 77.0143 80.8149 78.9983 80.9369 79.4613C81.0588 79.9242 81.4556 80.3913 82.1397 81.2241C82.4576 81.6373 82.8178 82.0162 83.2143 82.3546L84.4399 80.5173L83.8199 78.4507L84.1505 75.9975L81.6809 74.7823Z" fill="#E0E0E0"/>
<path d="M80.0358 67.6916C80.0358 67.6916 80.8955 67.0179 81.251 67.0199C82.0012 67.0199 83.6401 67.9541 83.6401 67.9541L88.4699 70.1365L84.8119 75.082L82.2637 76.322L80.9121 73.78L78.5747 72.0047L80.0358 67.6916Z" fill="#E0E0E0"/>
<path d="M82.1252 75.6689C82.088 75.7165 82.3133 80.2466 82.3133 80.2466L82.4063 82.9209C82.4063 82.9209 81.9599 83.4933 81.9929 83.669C82.022 83.7868 82.0963 83.8885 82.1996 83.9521C82.1996 83.9521 83.2102 83.7455 83.6463 83.6897C84.0823 83.6339 84.8429 83.5016 84.8284 83.421C84.8262 83.3316 84.8547 83.2441 84.909 83.173L84.568 82.8733C84.6231 82.2191 84.7564 81.5739 84.9648 80.9513C85.2789 80.1247 85.2996 78.5209 85.2996 78.5209L85.7832 76.3055C85.7832 76.3055 85.6716 74.5901 85.6571 74.6377C85.6427 74.6852 84.475 74.7224 84.475 74.7224L82.1252 75.6689Z" fill="#E0E0E0"/>
<path d="M83.1999 83.7909C83.1916 83.6829 83.2057 83.5742 83.2413 83.4718C83.2768 83.3694 83.3331 83.2754 83.4065 83.1957C83.4338 83.1621 83.4681 83.1348 83.507 83.1159C83.5459 83.097 83.5885 83.0868 83.6318 83.0862C83.6737 83.0946 83.7135 83.1111 83.7489 83.1348C83.7844 83.1586 83.8148 83.1891 83.8385 83.2247C83.9398 83.3447 84.0226 83.4791 84.0844 83.6235" fill="#EBEBEB"/>
<path d="M82.2265 83.9315C82.2265 83.9315 82.3608 83.3528 82.5034 83.297C82.646 83.2412 83.1027 83.7765 83.1027 83.7765L82.2265 83.9315Z" fill="#EBEBEB"/>
<g opacity="0.3">
<path d="M83.8447 74.7451C83.9108 74.8154 84.0513 75.1853 84.3551 74.9518C84.6589 74.7183 84.8594 73.6808 84.9545 73.5444C85.0495 73.408 85.5745 73.2902 85.7191 73.1001C85.9155 72.8995 86.1582 72.7504 86.4259 72.6661C86.6636 72.5793 87.1596 72.5751 87.4159 72.0461C87.6721 71.517 87.544 69.7231 87.544 69.7231L86.8785 69.5165L86.6884 71.6472C86.6884 71.6472 85.1715 72.2672 85.1239 72.3478C84.8508 72.6581 84.561 72.9534 84.2559 73.2323C84.2249 73.2323 83.8591 74.8423 83.8591 74.8423" fill="black"/>
</g>
<path d="M82.8878 68.0801C82.8878 68.0801 84.4688 67.7536 85.0268 67.8073C85.5848 67.8611 86.9571 68.4893 87.079 68.7663C87.2009 69.0432 87.2485 71.6968 87.0397 71.8663C86.8062 72.017 86.5648 72.1549 86.3164 72.2796C85.9444 72.5111 85.8617 72.5834 85.6799 72.4966C85.498 72.4098 85.6055 72.6123 85.2851 72.8314C84.9648 73.0505 84.6527 73.0381 84.5618 73.2075C84.4709 73.377 84.0059 74.5819 83.8447 74.7431C83.7799 74.8002 83.7023 74.8409 83.6185 74.8616C83.5346 74.8824 83.447 74.8827 83.3631 74.8624C83.2791 74.8421 83.2013 74.8019 83.1362 74.7451C83.0711 74.6884 83.0206 74.6168 82.9891 74.5364C82.7473 74.0714 82.0363 70.8474 82.0281 70.8929" fill="#E0E0E0"/>
<path d="M82.0281 70.9032C82.05 70.9564 82.066 71.0118 82.0756 71.0685C82.1025 71.1801 82.1417 71.3413 82.1934 71.5501C82.2947 71.9634 82.4373 72.5834 82.6295 73.3191C82.6791 73.5051 82.7307 73.6994 82.7886 73.9019C82.844 74.1129 82.913 74.32 82.9953 74.5219C83.0423 74.6234 83.1132 74.7121 83.2019 74.7803C83.2973 74.8463 83.413 74.8763 83.5285 74.865C83.5881 74.8574 83.6461 74.8399 83.7 74.8133C83.7556 74.7915 83.8052 74.7568 83.8447 74.7121C83.914 74.6094 83.9741 74.5008 84.0245 74.3876C84.1319 74.1582 84.2311 73.9164 84.3365 73.6725C84.3882 73.5485 84.4399 73.4245 84.4936 73.3005L84.537 73.2055C84.5541 73.1725 84.5789 73.1442 84.6093 73.1228C84.6679 73.0828 84.732 73.0515 84.7995 73.0298C84.9313 72.988 85.0592 72.9348 85.1818 72.8707C85.3059 72.807 85.4107 72.7114 85.4856 72.5937C85.5021 72.5627 85.5166 72.5317 85.5373 72.4987C85.549 72.4791 85.5673 72.4645 85.5889 72.4573C85.6006 72.4563 85.6124 72.4563 85.6241 72.4573H85.653C85.6853 72.4724 85.7184 72.4855 85.7522 72.4966C85.7848 72.5047 85.8188 72.5047 85.8514 72.4966C85.9193 72.4779 85.984 72.4494 86.0436 72.4119L86.2296 72.2961C86.3557 72.2176 86.4817 72.1432 86.6119 72.0771C86.742 72.0196 86.8665 71.9505 86.9839 71.8704L87.0253 71.8394C87.0289 71.833 87.0339 71.8274 87.0397 71.8229C87.0436 71.8155 87.047 71.8079 87.0501 71.8001C87.0638 71.7689 87.0742 71.7364 87.0811 71.703C87.0955 71.6348 87.1059 71.5645 87.1141 71.4963C87.1307 71.3558 87.1389 71.2173 87.1472 71.083C87.172 70.5312 87.1658 69.9959 87.1472 69.4896C87.1472 69.3615 87.1348 69.2375 87.1224 69.1135C87.1187 69.0525 87.1118 68.9918 87.1017 68.9316C87.0974 68.8723 87.0849 68.8139 87.0645 68.758C87.0331 68.7093 86.9932 68.6666 86.9467 68.6319C86.9021 68.5952 86.8552 68.5614 86.8062 68.5307C86.7091 68.4666 86.6099 68.4087 86.5107 68.355C86.1406 68.1587 85.7523 67.9988 85.3513 67.8776C85.2616 67.8522 85.1705 67.8321 85.0785 67.8177C84.99 67.8074 84.9009 67.8033 84.8119 67.8053C84.6403 67.8053 84.4771 67.8259 84.3262 67.8445C84.0224 67.8797 83.762 67.921 83.5512 67.9561C83.3404 67.9913 83.173 68.0223 83.0614 68.0429L82.9353 68.0657H82.8919L82.9353 68.0553L83.0614 68.0285C83.1709 68.0057 83.3363 67.9727 83.5471 67.9355C83.7579 67.8983 84.0203 67.8549 84.3241 67.8177C84.475 67.7991 84.6383 67.7825 84.8119 67.7763C84.9016 67.7726 84.9914 67.7761 85.0805 67.7867C85.1742 67.7997 85.2668 67.8197 85.3575 67.8466C85.7616 67.9657 86.1528 68.1249 86.5251 68.3219C86.6273 68.3754 86.7266 68.434 86.8227 68.4976C86.8731 68.529 86.9214 68.5635 86.9674 68.6009C87.0176 68.6381 87.0604 68.6844 87.0935 68.7373C87.1148 68.796 87.1287 68.8571 87.1348 68.9192C87.1348 68.9812 87.1513 69.0432 87.1555 69.1031C87.1679 69.2271 87.1761 69.3532 87.1823 69.4813C87.2071 69.9897 87.2133 70.525 87.1823 71.0789C87.1823 71.2173 87.1679 71.3579 87.1513 71.4922C87.1435 71.5617 87.1318 71.6307 87.1162 71.6989C87.109 71.7351 87.0979 71.7704 87.0831 71.8043L87.0707 71.8291L87.0501 71.8539L87.0067 71.92C86.8865 71.9992 86.76 72.0683 86.6285 72.1267C86.4983 72.1928 86.3743 72.2651 86.2503 72.3437C86.1883 72.3829 86.1263 72.4222 86.0622 72.4594C85.9993 72.5014 85.9293 72.5315 85.8555 72.5483C85.7802 72.5572 85.704 72.5413 85.6385 72.5028C85.6325 72.4992 85.6258 72.4969 85.6188 72.496C85.6118 72.495 85.6047 72.4956 85.5979 72.4975C85.5911 72.4994 85.5848 72.5027 85.5794 72.5072C85.5739 72.5117 85.5694 72.5172 85.5662 72.5235C85.5497 72.5503 85.5331 72.5855 85.5145 72.6165C85.4365 72.7399 85.3265 72.8399 85.1963 72.9058C85.0729 72.9722 84.9435 73.0269 84.8098 73.0691C84.7455 73.0896 84.6843 73.1188 84.6279 73.1559C84.5792 73.1998 84.5434 73.2563 84.5246 73.3191C84.4709 73.4431 84.4192 73.5671 84.3675 73.6891C84.2621 73.935 84.1609 74.1747 84.0513 74.4062C84.0011 74.5229 83.9395 74.6343 83.8674 74.7389C83.8241 74.786 83.7713 74.8234 83.7124 74.8485C83.6548 74.8737 83.5933 74.8891 83.5305 74.8939C83.4079 74.9069 83.2847 74.8753 83.1833 74.8051C83.0888 74.734 83.013 74.6411 82.9622 74.5343C82.8811 74.3319 82.8121 74.1249 82.7555 73.9143C82.6997 73.7077 82.6481 73.5155 82.6005 73.3295C82.4104 72.5834 82.2719 71.9758 82.1748 71.5563C82.1273 71.3496 82.0901 71.1863 82.0653 71.0747L82.0363 70.9487C82.0322 70.9156 82.0301 70.9011 82.0281 70.9032Z" fill="#263238"/>
<path d="M86.4259 70.7296C86.4236 70.7118 86.4236 70.6937 86.4259 70.6759C86.4259 70.6366 86.4259 70.5849 86.4259 70.5209C86.4265 70.3323 86.4155 70.1439 86.3929 69.9567C86.3622 69.6796 86.2643 69.4143 86.1077 69.1837C86.0144 69.0501 85.8922 68.9392 85.7501 68.8593C85.5931 68.7802 85.4214 68.7345 85.2459 68.7249C85.07 68.7155 84.8936 68.7217 84.7189 68.7435C84.5544 68.76 84.391 68.7848 84.2291 68.8179C83.9558 68.8737 83.6876 68.9518 83.4272 69.0515C83.2502 69.1159 83.0782 69.1933 82.9126 69.2829C82.8682 69.3074 82.826 69.3358 82.7865 69.3677C82.7576 69.3883 82.7452 69.4028 82.7431 69.4007V69.3904L82.7721 69.3615C82.8112 69.3283 82.8526 69.2979 82.8961 69.2705C82.9661 69.2283 83.0385 69.1904 83.1131 69.1569C83.1978 69.1155 83.297 69.0701 83.4086 69.0267C83.6697 68.9228 83.9394 68.8419 84.2146 68.7849C84.3771 68.7504 84.5413 68.7242 84.7065 68.7063C84.884 68.6841 85.0632 68.6786 85.2417 68.6898C85.4219 68.6983 85.5981 68.7456 85.7584 68.8283C85.9055 68.9112 86.032 69.0264 86.1283 69.1651C86.2866 69.4006 86.3833 69.6721 86.4094 69.9546C86.4306 70.1426 86.4382 70.3318 86.4321 70.5209V70.6759C86.4318 70.6939 86.4298 70.7119 86.4259 70.7296Z" fill="#263238"/>
<path d="M81.5961 71.889L81.5796 71.9055L81.53 71.9469L81.3357 72.106L80.6393 72.6702L80.1867 72.8769L79.3993 72.3209L79.0665 72.0853C79.0486 72.0065 79.0375 71.9263 79.0335 71.8456C79.0275 71.7667 79.0331 71.6873 79.05 71.61C79.0588 71.5708 79.075 71.5337 79.0975 71.5005C79.1091 71.4841 79.1231 71.4695 79.1389 71.4571L79.1781 71.424L79.3331 71.2793C79.5398 71.0892 79.7051 70.9156 79.8519 70.7709L80.1949 70.432L80.2879 70.3411L80.321 70.3101L80.2921 70.3452L80.2032 70.4403C80.1267 70.5229 80.011 70.6469 79.8684 70.7895C79.7258 70.9321 79.5543 71.1099 79.3559 71.3021C79.3063 71.3517 79.2546 71.3992 79.2009 71.4488L79.1595 71.4839C79.1463 71.4948 79.1345 71.5073 79.1244 71.5211C79.1049 71.5507 79.0909 71.5837 79.0831 71.6183C79.0674 71.6923 79.0632 71.7683 79.0707 71.8435C79.075 71.9221 79.0854 72.0001 79.1017 72.0771V72.0647L79.4323 72.3003L80.2177 72.8583H80.2011L80.6558 72.664L81.3605 72.1101L81.5672 71.9593L81.6189 71.92L81.5961 71.889Z" fill="#263238"/>
<path d="M79.2381 71.9593C79.2381 71.9593 77.5517 72.9389 77.0763 72.9719C76.601 73.005 75.051 72.6702 75.051 72.6702C75.051 72.6702 75.9376 73.4969 76.5948 73.6787C77.252 73.8606 77.7997 73.9805 78.4672 73.7945C79.1347 73.6085 80.2156 72.8479 80.2156 72.8479C80.2156 72.8479 80.2094 71.8704 79.2381 71.9593Z" fill="white"/>
<path d="M79.2381 71.9593H79.2649H79.3414C79.3833 71.9542 79.4256 71.9542 79.4675 71.9593H79.5481C79.5749 71.9593 79.6039 71.9737 79.6369 71.982C79.7926 72.0239 79.9295 72.1171 80.0255 72.2465C80.0858 72.3266 80.1325 72.4159 80.1639 72.5111C80.2019 72.6181 80.2235 72.7303 80.228 72.8438C80.011 72.9947 79.763 73.1559 79.4861 73.3212C79.1902 73.5035 78.8765 73.6551 78.5499 73.7738C78.3678 73.8309 78.18 73.8676 77.9898 73.8833C77.7897 73.8977 77.5887 73.8893 77.3905 73.8585C77.185 73.8275 76.9814 73.7847 76.7808 73.7304C76.6795 73.7056 76.5741 73.6767 76.4729 73.6415L76.3241 73.5795C76.2765 73.5547 76.2249 73.532 76.1773 73.5051C75.7687 73.2708 75.3887 72.99 75.0448 72.6681L74.9952 72.6227L75.0613 72.6371C75.3734 72.7033 75.6813 72.7632 75.9686 72.8149C76.2559 72.8665 76.5411 72.9099 76.8077 72.9327C76.935 72.9535 77.0648 72.9535 77.1921 72.9327C77.252 72.9141 77.3099 72.8996 77.3677 72.8769C77.4248 72.8589 77.4807 72.8375 77.5351 72.8128C77.7521 72.7239 77.9485 72.6309 78.1262 72.5441C78.4817 72.3664 78.7586 72.2155 78.9529 72.1122L79.1699 71.9923L79.2277 71.9613H79.2463L79.2277 71.9737L79.174 72.0068L78.9673 72.1308C78.7772 72.2383 78.5003 72.3933 78.1407 72.571C77.965 72.6619 77.7687 72.757 77.5496 72.8479C77.4959 72.8707 77.4401 72.8934 77.3822 72.912C77.3233 72.9337 77.2633 72.9523 77.2024 72.9678C77.0724 72.9934 76.9392 72.9983 76.8077 72.9823C76.539 72.9595 76.26 72.9141 75.9665 72.8645C75.6731 72.8149 75.3713 72.7549 75.0572 72.6888L75.0737 72.6578C75.4157 72.9763 75.7937 73.2538 76.2001 73.4845L76.3427 73.5589L76.4915 73.6188C76.5907 73.6539 76.6981 73.6808 76.7953 73.7077C76.9938 73.7618 77.1953 73.8046 77.3987 73.8358C77.5951 73.8645 77.7938 73.8729 77.9919 73.8606C78.1794 73.8466 78.3646 73.8105 78.5437 73.7531C78.8686 73.6361 79.1809 73.4865 79.4757 73.3067C79.7527 73.1455 80.0007 72.9843 80.2177 72.8355V72.8459C80.2118 72.6354 80.1442 72.4313 80.0234 72.2589C79.9304 72.1324 79.7981 72.0401 79.6473 71.9965C79.6181 71.9872 79.5884 71.9796 79.5584 71.9737H79.4799C79.4386 71.9699 79.3971 71.9699 79.3559 71.9737H79.2525L79.2381 71.9593Z" fill="#263238"/>
<path d="M75.8467 72.1515C75.8055 72.1554 75.7639 72.1505 75.7247 72.137C75.6307 72.1105 75.5383 72.0787 75.4478 72.0419C75.3589 72.0046 75.2678 71.9729 75.175 71.9469C75.1027 71.9262 75.0572 71.9241 75.0572 71.9179C75.0973 71.9083 75.1391 71.9083 75.1791 71.9179C75.2754 71.9376 75.3696 71.9667 75.4602 72.0047C75.5677 72.0461 75.6669 72.0853 75.733 72.1101C75.772 72.1207 75.81 72.1345 75.8467 72.1515Z" fill="#263238"/>
<path d="M75.3486 75.02C75.2984 75.0508 75.2431 75.0725 75.1853 75.0841C75.0504 75.1214 74.9118 75.1436 74.772 75.1502C74.6331 75.1566 74.4939 75.1434 74.3587 75.1109C74.3011 75.0985 74.2464 75.0754 74.1975 75.0427C74.1975 75.0427 74.2595 75.0634 74.3649 75.0841C74.501 75.1101 74.6398 75.1198 74.7782 75.113C74.9172 75.1059 75.0554 75.0879 75.1915 75.0593C75.2845 75.0324 75.3465 75.02 75.3486 75.02Z" fill="#263238"/>
<path d="M75.2928 74.0983C75.2928 74.0983 75.0861 74.028 74.8195 73.9825C74.5529 73.9371 74.3359 73.9412 74.3359 73.9288C74.3825 73.917 74.4306 73.9128 74.4785 73.9164C74.5949 73.9144 74.7113 73.9241 74.8257 73.9453C74.9405 73.9654 75.0533 73.9958 75.1626 74.0363C75.209 74.0498 75.253 74.0708 75.2928 74.0983Z" fill="#263238"/>
<path d="M75.4829 75.7371C75.4451 75.7847 75.398 75.8241 75.3445 75.8529C75.2207 75.928 75.0872 75.9857 74.9477 76.0244C74.8093 76.0655 74.6662 76.0884 74.5219 76.0926C74.4618 76.0968 74.4014 76.0891 74.3442 76.0699C74.3442 76.0699 74.4124 76.0699 74.5219 76.0699C74.662 76.0588 74.8005 76.0332 74.9353 75.9934C75.0722 75.9548 75.2046 75.9014 75.33 75.8343C75.4333 75.7785 75.4788 75.733 75.4829 75.7371Z" fill="#263238"/>
<path d="M75.9211 76.6733C75.9211 76.6733 75.8901 76.7085 75.826 76.7457C75.7432 76.7919 75.6568 76.8313 75.5677 76.8635C75.4785 76.8977 75.3866 76.924 75.2928 76.942C75.2534 76.9518 75.2123 76.9518 75.1729 76.942C75.2101 76.9287 75.2481 76.9177 75.2866 76.9089C75.3548 76.8903 75.4499 76.8593 75.5532 76.8201C75.6565 76.7808 75.7495 76.7436 75.8136 76.7126C75.8485 76.6971 75.8844 76.684 75.9211 76.6733Z" fill="#263238"/>
<path d="M90.8693 73.6353C90.8341 73.6891 90.5055 75.3507 90.7205 75.9479C90.9354 76.5452 92.6073 79.8746 92.6073 79.8746L92.7871 80.9286C92.7871 80.9286 92.2787 81.8751 92.3552 82.0198C92.3732 82.0596 92.4004 82.0946 92.4345 82.1219C92.4686 82.1492 92.5087 82.168 92.5515 82.1769L95.3973 81.6933L95.4159 81.4432L95.0853 81.0133L94.953 80.7653C94.953 80.7653 94.7112 79.3373 94.7174 79.2443C94.7236 79.1513 94.6575 75.2969 94.6575 75.2969L94.5831 72.5875C94.5831 72.5875 94.0726 71.5749 93.6903 71.1884C93.3079 70.8019 91.3549 70.3617 91.3549 70.3617L90.8693 73.6353Z" fill="#E0E0E0"/>
<path d="M95.7218 77.1425C95.6634 77.3772 95.683 77.6246 95.7776 77.8472C95.9574 78.2357 96.7675 78.7338 96.8109 78.7379C96.8543 78.7421 96.7035 78.4775 96.7035 78.4775C96.7035 78.4775 97.2325 78.6842 97.4785 78.6263C97.7244 78.5685 97.5405 78.616 97.5405 78.616L97.6893 78.5912C97.6893 78.5912 97.1168 78.368 96.9659 78.0766C96.8151 77.7852 96.3914 77.2499 96.1971 77.1755C96.1042 77.1312 96.0025 77.1086 95.8995 77.1094L95.7218 77.1425Z" fill="#263238"/>
<path d="M94.5831 72.5917C94.9477 73.0254 95.1864 73.5508 95.2733 74.1107C95.3797 74.8541 95.5364 75.5895 95.7425 76.3117C95.9078 76.8459 96.1016 77.3709 96.3232 77.8844C96.3232 77.8844 95.7032 77.2251 95.542 76.8283C95.3808 76.4315 95.1287 75.9231 95.0667 75.4499C95.016 74.9314 94.8157 74.4388 94.4901 74.0321C94.0829 73.4741 94.5831 72.5917 94.5831 72.5917Z" fill="#E0E0E0"/>
<g opacity="0.3">
<path d="M80.2239 73.2613L80.507 73.0484L81.0071 72.9037L81.4825 71.9799L80.6289 72.6578L80.2156 72.8479L79.9304 73.0381L80.2239 73.2613Z" fill="black"/>
</g>
<path d="M75.4147 73.2695C75.4147 73.2695 75.237 73.1848 75.0014 73.1228C74.7658 73.0608 74.5777 73.0463 74.5777 73.036C74.7244 73.023 74.8722 73.0406 75.0117 73.0877C75.1571 73.1199 75.2943 73.1818 75.4147 73.2695Z" fill="#263238"/>
<path d="M97.6872 78.5912L97.5384 78.6181H97.5715H97.5901H97.6025L97.5157 78.6367C97.4441 78.6545 97.3699 78.6594 97.2966 78.6511C97.0929 78.6238 96.8931 78.5725 96.7014 78.4982C96.7409 78.5648 96.7761 78.6338 96.8068 78.7049C96.8159 78.7242 96.8195 78.7456 96.8171 78.7669C96.8144 78.7687 96.8111 78.7697 96.8078 78.7697C96.8045 78.7697 96.8013 78.7687 96.7985 78.7669C96.7985 78.7669 96.7985 78.7669 96.7841 78.7669L96.7551 78.7545L96.6456 78.6904C96.4866 78.5913 96.334 78.4823 96.1889 78.3639C96.1085 78.2994 96.0319 78.2304 95.9595 78.1572C95.8771 78.0789 95.8074 77.9882 95.7528 77.8885C95.7021 77.7813 95.6713 77.6658 95.6619 77.5475C95.6557 77.4864 95.6557 77.4248 95.6619 77.3636C95.6619 77.3326 95.6619 77.3016 95.6763 77.2706L95.6867 77.2231C95.6885 77.2093 95.6885 77.1954 95.6867 77.1817V77.1921C95.6225 77.0996 95.5658 77.0022 95.5172 76.9007L95.3787 76.5762C95.2751 76.3469 95.1853 76.1116 95.1101 75.8715C95.0253 75.6193 95.0295 75.3403 94.953 75.0696C94.8777 74.7886 94.7555 74.5224 94.5913 74.2822H94.6079C94.6203 74.7348 94.6389 75.2143 94.6451 75.7165C94.6513 76.2187 94.6637 76.7498 94.6719 77.2933C94.6802 77.8369 94.6905 78.4114 94.6988 79.0025C94.6988 79.0769 94.6988 79.1513 94.6988 79.2257C94.6967 79.2628 94.6967 79.3001 94.6988 79.3373L94.7112 79.4489C94.7319 79.5977 94.7567 79.7485 94.7794 79.8994C94.8311 80.2011 94.8807 80.5091 94.9323 80.8211L95.0667 81.0691L95.3973 81.499C95.3973 81.5734 95.3849 81.6623 95.3787 81.7491V81.7594H95.3684L92.5226 82.243C92.4638 82.2322 92.4101 82.2024 92.3697 82.1583C92.3506 82.1355 92.3333 82.1113 92.318 82.0859C92.3079 82.055 92.3079 82.0218 92.318 81.9909C92.343 81.8736 92.3804 81.7592 92.4296 81.6499C92.5267 81.4246 92.6363 81.1993 92.7561 80.9761L92.5784 79.9221C92.2891 79.3352 91.9584 78.6821 91.636 78.0208H91.6546L90.1811 78.5106L89.4309 78.74C89.363 78.7571 89.2939 78.7689 89.2242 78.7751C89.1556 78.7835 89.0866 78.7877 89.0175 78.7875C88.8832 78.7875 88.7468 78.7875 88.6042 78.7772C88.0667 78.7329 87.5329 78.6514 87.0067 78.5333C86.8703 78.5023 86.7339 78.4693 86.5933 78.43C86.4528 78.3907 86.3309 78.3329 86.2007 78.2812L85.4112 77.9671L85.4339 77.9567C85.3967 78.1303 85.3533 78.3287 85.3099 78.5271C85.3099 78.8764 85.281 79.2319 85.2459 79.5915C85.213 79.9564 85.1529 80.3184 85.0661 80.6744C85.0227 80.8563 84.9462 81.0299 84.8925 81.2076C84.8387 81.3853 84.7891 81.5672 84.7499 81.7532C84.6704 82.1255 84.6138 82.5024 84.5804 82.8816V82.8671L84.9255 83.1709L84.9379 83.1813L84.9276 83.1937C84.8817 83.2534 84.8544 83.3252 84.8491 83.4003C84.848 83.4086 84.848 83.4169 84.8491 83.4251C84.8502 83.4306 84.8502 83.4362 84.8491 83.4417C84.8459 83.4484 84.8409 83.4542 84.8346 83.4582C84.8179 83.4721 84.799 83.4832 84.7788 83.4913C84.7417 83.5058 84.7037 83.5182 84.6651 83.5285C84.5101 83.5719 84.351 83.6029 84.1898 83.6339L83.9459 83.6731L83.7 83.7207L83.204 83.8137H83.1833V83.762L83.204 83.7785L82.2017 83.9707C82.1146 83.9167 82.0462 83.8374 82.0053 83.7434C81.996 83.7188 81.9897 83.6931 81.9867 83.6669C81.986 83.639 81.9894 83.6111 81.9971 83.5843C82.0135 83.535 82.0342 83.4873 82.0591 83.4417C82.16 83.2567 82.2761 83.0804 82.4063 82.9147V82.925C82.3918 82.4765 82.3732 81.9826 82.3567 81.4783V81.4907C82.181 81.2841 82.0074 81.0774 81.8338 80.8583C81.6602 80.6393 81.4866 80.4305 81.3233 80.2032C81.1515 79.9794 81.0194 79.7277 80.9327 79.4592C80.9194 79.3912 80.9146 79.3218 80.9183 79.2525C80.9183 79.1802 80.9286 79.1099 80.9369 79.0459C80.9555 78.9053 80.9823 78.7648 81.0113 78.6325C81.0691 78.3535 81.1415 78.0766 81.2179 77.8059C81.2944 77.5351 81.3853 77.2561 81.4887 76.9792C81.5131 76.9085 81.5421 76.8395 81.5755 76.7725C81.5828 76.7552 81.5918 76.7386 81.6023 76.7229C81.6023 76.7064 81.6168 76.694 81.623 76.6775C81.6348 76.6445 81.6438 76.6107 81.6499 76.5762C81.6744 76.4341 81.6896 76.2905 81.6953 76.1463C81.7077 75.857 81.6953 75.5656 81.6953 75.2742C81.4473 74.8071 81.1766 74.3008 80.9059 73.7945L79.9242 73.0484H79.9449C79.7527 73.1724 79.5501 73.2964 79.3393 73.4163C79.1254 73.5394 78.903 73.6471 78.6739 73.7387C78.4196 73.8366 78.1505 73.8904 77.8782 73.8978C77.6077 73.9011 77.3378 73.8719 77.0743 73.811H77.0929C76.8775 74.0858 76.6814 74.3751 76.5059 74.6769C76.4176 74.8271 76.3369 74.9816 76.2641 75.1399C76.1876 75.2946 76.1313 75.4585 76.0967 75.6276C76.0812 75.7106 76.083 75.7959 76.1022 75.8781C76.1215 75.9603 76.1576 76.0375 76.2083 76.105C76.2585 76.1744 76.3168 76.2375 76.3819 76.2931C76.4461 76.3483 76.5153 76.3975 76.5886 76.4398C76.6613 76.4841 76.739 76.5195 76.8201 76.5452C76.8583 76.5596 76.8991 76.5659 76.9399 76.5638C76.9813 76.5638 77.0247 76.5638 77.066 76.5514C77.2355 76.5266 77.4029 76.4894 77.5703 76.4522V76.4832C77.4977 76.4181 77.4287 76.3491 77.3636 76.2765C77.2958 76.206 77.2369 76.1276 77.1879 76.043C77.1751 76.0215 77.1647 75.9986 77.1569 75.9748C77.1558 75.961 77.1558 75.9472 77.1569 75.9335C77.1561 75.9197 77.1561 75.9059 77.1569 75.8921C77.182 75.8451 77.2242 75.8096 77.2747 75.7929C77.366 75.7578 77.4623 75.7376 77.5599 75.733L77.5434 75.7578C77.4981 75.6236 77.467 75.4851 77.4504 75.3445C77.4424 75.2758 77.4424 75.2065 77.4504 75.1378C77.4512 75.1266 77.4549 75.1158 77.461 75.1064C77.4672 75.097 77.4756 75.0893 77.4855 75.0841C77.5051 75.0781 77.5259 75.0781 77.5455 75.0841C77.5813 75.0901 77.6161 75.1012 77.6488 75.1171C77.769 75.1837 77.8837 75.2597 77.9919 75.3445C78.0993 75.4292 78.1985 75.516 78.3081 75.6028L78.4631 75.7351C78.515 75.7843 78.5515 75.8474 78.5685 75.9169C78.6044 76.0516 78.6204 76.1909 78.616 76.3303C78.6142 76.6006 78.5893 76.8702 78.5416 77.1363C78.4064 77.259 78.2581 77.3664 78.0993 77.4566C77.9396 77.5441 77.7722 77.6167 77.5992 77.6736C77.2557 77.7874 76.8944 77.8385 76.5328 77.8245C76.4425 77.8213 76.3529 77.8067 76.2662 77.7811C76.1804 77.7519 76.0985 77.7124 76.0223 77.6633C75.871 77.5692 75.7247 77.4671 75.5842 77.3574C75.3038 77.143 75.0361 76.9125 74.7823 76.6671L74.5963 76.4791C74.5348 76.4145 74.4781 76.3454 74.4269 76.2724C74.3345 76.1216 74.2714 75.9547 74.2409 75.7805C74.184 75.4392 74.1701 75.092 74.1995 74.7472C74.2079 74.4045 74.2565 74.0639 74.3442 73.7325C74.426 73.4035 74.5295 73.0804 74.6542 72.7653C74.7742 72.4524 74.9122 72.1467 75.0675 71.8497C75.1399 71.6989 75.2267 71.5583 75.3052 71.4137L75.4354 71.207C75.4767 71.1367 75.5201 71.0665 75.5677 71.0003C75.9186 70.4532 76.3412 69.9556 76.8242 69.5206C77.3027 69.1069 77.8228 68.744 78.3763 68.4377C78.9131 68.1384 79.4737 67.8841 80.0523 67.6771C80.3223 67.4657 80.6107 67.279 80.9141 67.1191L81.0299 67.0654C81.0691 67.0502 81.1091 67.037 81.1497 67.0261C81.1706 67.0194 81.192 67.0145 81.2138 67.0117H81.2779H81.406C81.5708 67.0358 81.7333 67.0739 81.8917 67.1253C82.2027 67.2291 82.5071 67.352 82.8031 67.4932C83.0965 67.6296 83.3797 67.7763 83.6587 67.9293H83.6483C84.0357 67.8584 84.427 67.8114 84.8201 67.7887C84.9174 67.7829 85.0149 67.7863 85.1115 67.7991C85.2066 67.8141 85.3005 67.8355 85.3926 67.8631C85.5744 67.9159 85.7531 67.9787 85.9279 68.0512C86.1015 68.1215 86.2709 68.1979 86.4363 68.2806C86.6015 68.3607 86.7604 68.4533 86.9116 68.5575C86.9927 68.6062 87.063 68.6709 87.1183 68.7477C87.1382 68.7893 87.1508 68.834 87.1555 68.8799C87.1555 68.9254 87.1699 68.9709 87.1741 69.0143C87.1947 69.192 87.203 69.3697 87.2133 69.5454V69.533L88.4533 70.091C88.9741 69.967 89.4812 69.8623 89.9744 69.7769C90.2224 69.7355 90.4663 69.7004 90.7081 69.6777C90.9463 69.6498 91.187 69.6498 91.4252 69.6777C91.6528 69.7258 91.8712 69.8102 92.0721 69.9277C92.2674 70.0369 92.4564 70.157 92.6383 70.2873C92.9846 70.5332 93.3152 70.8003 93.6283 71.0871V71.0933C93.6647 71.1177 93.6999 71.1439 93.7337 71.1719C93.7642 71.2013 93.7932 71.2324 93.8205 71.2649C93.8763 71.3289 93.9259 71.393 93.9734 71.4591C94.0685 71.5893 94.1532 71.7195 94.2317 71.8477C94.3888 72.106 94.5231 72.3519 94.6451 72.5958C94.8119 72.7907 94.951 73.0077 95.0584 73.2406C95.1616 73.4567 95.2413 73.6833 95.2961 73.9164C95.3457 74.1437 95.3767 74.3628 95.4139 74.5757C95.4511 74.7885 95.4883 74.989 95.5255 75.1853C95.6553 75.847 95.8399 76.4968 96.0773 77.128C96.1249 77.1379 96.1719 77.1511 96.2178 77.1673C96.2621 77.1823 96.3039 77.2039 96.3418 77.2313C96.4161 77.2848 96.4852 77.345 96.5485 77.4111C96.6548 77.5263 96.7542 77.6478 96.8461 77.7749C96.9216 77.8822 96.9906 77.994 97.0527 78.1097C97.1099 78.1993 97.1844 78.2766 97.2718 78.337C97.3857 78.417 97.5068 78.4861 97.6335 78.5437L97.7595 78.5995C97.7166 78.5838 97.6745 78.5659 97.6335 78.5457C97.5059 78.4886 97.3841 78.4194 97.2697 78.3391C97.181 78.2788 97.1051 78.2016 97.0465 78.1117C96.9848 77.9965 96.9158 77.8854 96.8399 77.779C96.7479 77.6514 96.6478 77.5299 96.5402 77.4153C96.4814 77.3498 96.4164 77.2903 96.3459 77.2375C96.3092 77.21 96.2679 77.189 96.224 77.1755C96.1791 77.1584 96.1328 77.1452 96.0855 77.1363C95.846 76.5055 95.6601 75.8556 95.5296 75.1936C95.4903 74.9993 95.4552 74.7947 95.418 74.5839C95.3808 74.3731 95.3477 74.152 95.2981 73.9267C95.244 73.6941 95.1643 73.4681 95.0605 73.253C94.9532 73.0219 94.814 72.8069 94.6471 72.6144C94.5211 72.3726 94.3867 72.1246 94.2338 71.8683C94.1553 71.7423 94.0705 71.6121 93.9755 71.4819C93.9279 71.4157 93.8783 71.3517 93.8246 71.2876C93.7957 71.2587 93.7688 71.2256 93.7378 71.1967C93.7055 71.1691 93.6709 71.1442 93.6345 71.1223V71.1367C93.3204 70.8517 92.9899 70.5853 92.6445 70.339C92.4633 70.21 92.2749 70.0913 92.0803 69.9835C91.8813 69.8674 91.665 69.7837 91.4397 69.7355C91.2035 69.7076 90.9649 69.7076 90.7287 69.7355C90.489 69.7583 90.2451 69.7934 89.9971 69.8347C89.5032 69.9174 88.9969 70.0249 88.4781 70.1489L87.2381 69.5909C87.2381 69.4173 87.2175 69.2395 87.1989 69.0639C87.1989 69.0184 87.1989 68.975 87.1803 68.9316C87.1749 68.8883 87.1638 68.8459 87.1472 68.8055C87.0951 68.7339 87.0299 68.6729 86.955 68.6257C86.8047 68.5229 86.6473 68.4311 86.4838 68.3509C86.3205 68.2682 86.1511 68.1917 85.9775 68.1215C85.803 68.0505 85.625 67.9884 85.4443 67.9355C85.3532 67.9097 85.2607 67.889 85.1673 67.8735C85.0725 67.8642 84.977 67.8642 84.8821 67.8735C84.4898 67.8973 84.0992 67.9443 83.7124 68.014C83.4368 67.8611 83.1516 67.7164 82.8568 67.58C82.5276 67.4194 82.1879 67.2813 81.84 67.1667C81.6831 67.1151 81.522 67.0778 81.3585 67.0551C81.1932 67.0348 81.0258 67.0705 80.8831 67.1563C80.5824 67.3163 80.2967 67.503 80.0296 67.7143C79.4534 67.9201 78.8956 68.1738 78.3618 68.4728C77.8098 68.7778 77.291 69.1393 76.8139 69.5516C76.3371 69.9857 75.9201 70.4812 75.5739 71.0251C75.5263 71.0933 75.4829 71.1636 75.4416 71.2318L75.3135 71.4385C75.2329 71.5831 75.1481 71.7237 75.0758 71.8725C74.9217 72.1693 74.7838 72.4743 74.6625 72.7859C74.5404 73.1002 74.4382 73.4219 74.3566 73.749C74.2691 74.0777 74.2206 74.4155 74.2119 74.7555C74.1818 75.1003 74.1957 75.4475 74.2533 75.7888C74.2824 75.9588 74.3442 76.1217 74.4351 76.2683C74.4839 76.342 74.5393 76.4111 74.6005 76.4749L74.7844 76.6609C75.0377 76.9045 75.304 77.1342 75.5821 77.3491C75.7223 77.457 75.8679 77.5577 76.0182 77.6509C76.0916 77.6986 76.1708 77.7368 76.2538 77.7645C76.3381 77.7883 76.4247 77.8029 76.5121 77.8079C76.8697 77.8219 77.2268 77.7708 77.5661 77.6571C77.7358 77.6027 77.9004 77.5335 78.058 77.4504C78.2146 77.3614 78.3608 77.2553 78.4941 77.1342V77.1445C78.5405 76.8811 78.5654 76.6143 78.5685 76.3468C78.5704 76.213 78.5544 76.0796 78.5209 75.95C78.5051 75.8876 78.473 75.8306 78.4279 75.7847L78.2729 75.6545C78.1696 75.5656 78.0663 75.4809 77.9567 75.3982C77.8519 75.3126 77.7391 75.2371 77.6199 75.1729C77.591 75.1593 77.5604 75.1495 77.5289 75.144C77.4979 75.144 77.4773 75.144 77.4731 75.1771C77.4665 75.2458 77.4665 75.315 77.4731 75.3837C77.4906 75.5181 77.5218 75.6504 77.5661 75.7785V75.8012H77.5434C77.4502 75.806 77.3582 75.8248 77.2706 75.857C77.2299 75.8707 77.1954 75.8986 77.1735 75.9355C77.1696 75.9566 77.17 75.9783 77.1746 75.9992C77.1792 76.0201 77.188 76.0399 77.2003 76.0575C77.249 76.1387 77.3065 76.2143 77.3719 76.2827C77.4359 76.353 77.5041 76.4191 77.5785 76.4894L77.6054 76.5142H77.5703C77.4029 76.5535 77.2355 76.5886 77.0639 76.6134C77.0205 76.6134 76.9771 76.6258 76.9337 76.6279C76.8881 76.6294 76.8425 76.6224 76.7994 76.6072C76.7166 76.5798 76.637 76.5438 76.5617 76.4997C76.4889 76.455 76.4198 76.4046 76.3551 76.3489C76.2884 76.2913 76.2288 76.2261 76.1773 76.1546C76.1234 76.0831 76.0849 76.0012 76.0642 75.914C76.0436 75.8269 76.0413 75.7364 76.0575 75.6483C76.093 75.4758 76.1499 75.3085 76.2269 75.1502C76.3013 74.9911 76.384 74.8381 76.4708 74.6852C76.6484 74.3818 76.8458 74.0904 77.0619 73.8131H77.0722C77.3329 73.874 77.6001 73.9031 77.8679 73.8999C78.1358 73.8929 78.4007 73.8405 78.6511 73.7449C79.0931 73.5551 79.5165 73.3247 79.9159 73.0567H79.9263L80.9079 73.8007L81.6974 75.2804C81.6974 75.5739 81.7098 75.8653 81.6974 76.1567C81.6915 76.3021 81.6763 76.4471 81.6519 76.5907C81.6448 76.6273 81.6344 76.6633 81.6209 76.6981C81.6155 76.7162 81.6079 76.7336 81.5982 76.7498L81.5713 76.7973C81.5403 76.8593 81.5135 76.9275 81.4866 77.004C81.3853 77.2727 81.2985 77.5475 81.22 77.8307C81.1415 78.1138 81.0691 78.3804 81.0133 78.6573C80.9844 78.7958 80.9596 78.9363 80.941 79.0707C80.941 79.1409 80.9245 79.2112 80.9224 79.2773C80.9169 79.3465 80.921 79.416 80.9348 79.484C81.0197 79.7493 81.1505 79.9976 81.3213 80.2177C81.4825 80.4429 81.6561 80.6579 81.8297 80.8707C82.0033 81.0836 82.1769 81.2965 82.3505 81.4907C82.367 81.9867 82.3835 82.4827 82.4001 82.9374C82.2704 83.1016 82.1549 83.2765 82.0549 83.4603C82.0115 83.5512 81.9599 83.6442 82.0033 83.7331C82.0426 83.8181 82.1058 83.8899 82.1851 83.9397H82.1727L83.1771 83.7475H83.1957V83.7992L83.1751 83.7827L83.6711 83.6897L83.917 83.6421L84.1609 83.6029C84.3196 83.5764 84.4769 83.5419 84.6321 83.4995C84.6701 83.4896 84.7073 83.4772 84.7437 83.4623C84.7597 83.4558 84.7749 83.4474 84.7891 83.4375C84.7881 83.4265 84.7881 83.4155 84.7891 83.4045C84.7941 83.3235 84.8245 83.2461 84.8759 83.1833V83.2081L84.5308 82.9043C84.5638 82.5229 84.6211 82.1439 84.7023 81.7697C84.7416 81.5837 84.7891 81.4019 84.8449 81.2221C84.9007 81.0423 84.9751 80.8707 85.0185 80.6909C85.1055 80.3364 85.1656 79.9757 85.1983 79.6121C85.2335 79.2546 85.2541 78.8991 85.2624 78.5519C85.3058 78.3453 85.3492 78.1551 85.3864 77.9795V77.9609H85.405L86.1924 78.2729C86.3247 78.3246 86.4528 78.3825 86.5851 78.4217C86.7173 78.461 86.8537 78.4941 86.9984 78.523C87.5334 78.6424 88.0763 78.7239 88.6228 78.7669C88.7571 78.7669 88.8915 78.7793 89.0237 78.7772C89.0919 78.7772 89.1581 78.7772 89.2304 78.7648C89.296 78.7583 89.3609 78.7465 89.4247 78.7297L90.179 78.4796L91.6546 77.9919H91.667V78.0043L92.6073 79.9035C92.6714 80.2735 92.7334 80.6393 92.7871 80.9596C92.6693 81.1828 92.5577 81.4081 92.4627 81.6313C92.4144 81.7389 92.377 81.851 92.3511 81.9661C92.3437 81.991 92.3437 82.0176 92.3511 82.0425C92.364 82.0665 92.38 82.0887 92.3986 82.1087C92.4337 82.1487 92.4808 82.1762 92.5329 82.1872L95.3787 81.7036L95.3684 81.716C95.3684 81.6292 95.3808 81.5424 95.387 81.4659L95.0563 81.0361C95.0088 80.9493 94.9633 80.8604 94.9241 80.786C94.8724 80.4739 94.8228 80.166 94.7732 79.8643C94.7484 79.7113 94.7257 79.5625 94.705 79.4117C94.705 79.3745 94.705 79.3373 94.6905 79.3001C94.6761 79.2629 94.6905 79.2257 94.6905 79.1864V78.9467C94.6823 78.3542 94.674 77.7838 94.6657 77.2355C94.6657 76.6857 94.6471 76.1608 94.6409 75.6586C94.6347 75.1564 94.6161 74.679 94.6058 74.2243V74.1933L94.6244 74.2202C94.7886 74.4626 94.9109 74.7309 94.9861 75.0138C95.0625 75.2887 95.0584 75.5656 95.1411 75.8136C95.2157 76.0537 95.3047 76.289 95.4077 76.5183L95.5482 76.8428C95.5945 76.9451 95.6506 77.0427 95.7156 77.1342H95.7053V77.1239C95.7096 77.1408 95.7096 77.1586 95.7053 77.1755V77.221C95.7053 77.252 95.6929 77.283 95.6887 77.314C95.6836 77.3745 95.6836 77.4354 95.6887 77.4959C95.6984 77.6127 95.7292 77.7269 95.7797 77.8327C95.8305 77.9308 95.8968 78.0202 95.976 78.0973C96.0478 78.1704 96.1237 78.2394 96.2033 78.3039C96.3477 78.4225 96.4995 78.5316 96.658 78.6305L96.7675 78.6945C96.7841 78.6945 96.8089 78.7173 96.8171 78.7131C96.8184 78.6946 96.8148 78.6761 96.8068 78.6594C96.7766 78.5881 96.7413 78.5191 96.7014 78.4527H96.7117C96.9026 78.5272 97.1017 78.5786 97.3049 78.6057C97.3739 78.6143 97.444 78.6101 97.5115 78.5933L97.5983 78.5767H97.5818H97.5653H97.5301L97.6872 78.5912Z" fill="#263238"/>
<path d="M82.4063 82.9209C82.4063 82.9209 82.4063 82.9209 82.4063 82.8961V82.8258C82.4063 82.7597 82.4063 82.6667 82.4063 82.5489C82.4063 82.3071 82.3918 81.9599 82.3794 81.5341C82.3587 80.6744 82.3319 79.4902 82.3029 78.1841C82.2885 77.5227 82.2761 76.8903 82.2637 76.3241C81.8689 75.578 81.5341 74.9435 81.2944 74.493L81.0133 73.9722C80.9823 73.9123 80.9575 73.8668 80.941 73.8317L80.9224 73.7965V73.7841V73.7945L80.941 73.8296C80.9596 73.8627 80.9865 73.9081 81.0175 73.9681C81.0857 74.09 81.1807 74.2657 81.3006 74.4868L82.2802 76.3117C82.2947 76.8841 82.3071 77.5145 82.3215 78.1717C82.3484 79.4778 82.3711 80.662 82.3897 81.5217C82.3897 81.9475 82.3897 82.2947 82.4042 82.5365C82.4042 82.6543 82.4042 82.7431 82.4042 82.8113V82.9085L82.4063 82.9209Z" fill="#263238"/>
<path d="M85.9919 76.1732C86.0034 76.1995 86.011 76.2274 86.0147 76.2559C86.0285 76.3337 86.0361 76.4124 86.0374 76.4915C86.0436 76.753 85.9876 77.0122 85.8741 77.2479C85.8139 77.3758 85.7448 77.4994 85.6675 77.6178C85.5972 77.7273 85.5331 77.8245 85.4856 77.9133C85.3864 78.0849 85.3513 78.2027 85.3451 78.2006C85.3453 78.1735 85.3481 78.1466 85.3533 78.12C85.3788 78.0484 85.4106 77.9793 85.4484 77.9133C85.4939 77.8245 85.5559 77.7232 85.6241 77.6116C85.6993 77.4934 85.7683 77.3713 85.8307 77.2458C85.9414 77.014 86 76.7607 86.0023 76.5039C86.0126 76.2951 85.9857 76.1732 85.9919 76.1732Z" fill="#263238"/>
<path d="M90.861 72.6661C90.8614 72.6716 90.8614 72.6771 90.861 72.6826V72.7301C90.861 72.7756 90.8486 72.8376 90.8403 72.9161C90.8197 73.0773 90.7928 73.3129 90.7639 73.6023C90.7349 73.8916 90.6998 74.2347 90.6771 74.6191C90.6647 74.8113 90.6564 75.0117 90.6543 75.2205C90.6543 75.3259 90.6543 75.4271 90.6647 75.5387C90.668 75.647 90.684 75.7545 90.7122 75.8591C91.1007 76.6506 91.4417 77.3843 91.6815 77.9133C91.8013 78.1758 91.8881 78.3887 91.9646 78.5333L92.0411 78.7049C92.0462 78.7204 92.0524 78.7356 92.0597 78.7503C92.0597 78.7607 92.0597 78.7648 92.0597 78.7648V78.7503L92.0369 78.7069C92.0176 78.6656 91.9908 78.6098 91.9563 78.5395L91.6629 77.9195C91.4149 77.3925 91.0739 76.6671 90.6812 75.8653C90.6526 75.7579 90.636 75.6477 90.6316 75.5367C90.6316 75.4292 90.6316 75.33 90.6316 75.2163C90.6316 75.0097 90.6419 74.803 90.6543 74.6129C90.6812 74.2285 90.7163 73.8833 90.7494 73.594C90.7825 73.3047 90.8135 73.0711 90.8383 72.9099C90.8486 72.8314 90.8589 72.7715 90.8651 72.726V72.6764C90.8589 72.6702 90.8589 72.664 90.861 72.6661Z" fill="#263238"/>
<path d="M94.4467 72.7343C94.4575 72.7536 94.4652 72.7745 94.4694 72.7963C94.4888 72.8531 94.5047 72.9111 94.5169 72.9699C94.5645 73.163 94.5991 73.3591 94.6203 73.5568C94.6415 73.7545 94.6512 73.9532 94.6492 74.152C94.6492 74.2264 94.6492 74.2884 94.6492 74.3318C94.6485 74.3542 94.645 74.3764 94.6389 74.3979C94.6343 74.316 94.6343 74.2339 94.6389 74.152C94.6389 73.9991 94.6265 73.7903 94.5996 73.5609C94.5727 73.3315 94.5376 73.1249 94.5087 72.9761C94.4835 72.8967 94.4628 72.816 94.4467 72.7343Z" fill="#263238"/>
<path d="M81.0753 70.0125C81.202 70.0125 81.3047 69.9098 81.3047 69.7831C81.3047 69.6564 81.202 69.5537 81.0753 69.5537C80.9486 69.5537 80.8459 69.6564 80.8459 69.7831C80.8459 69.9098 80.9486 70.0125 81.0753 70.0125Z" fill="#263238"/>
<path d="M81.4742 69.3759C81.3783 69.3245 81.2772 69.2836 81.1725 69.254C81.0633 69.2487 80.9538 69.2549 80.8459 69.2726C80.8459 69.2726 80.8707 69.2354 80.9307 69.2085C81.0114 69.1768 81.0993 69.1676 81.1849 69.1817C81.2698 69.1957 81.3492 69.2329 81.4143 69.2891C81.4639 69.3325 81.4825 69.3697 81.4742 69.3759Z" fill="#263238"/>
<g opacity="0.3">
<path d="M83.0015 69.2437C83.0821 69.409 83.3115 69.4235 83.4933 69.3987C83.8529 69.3511 84.2063 69.2457 84.568 69.2168C84.7496 69.1909 84.9345 69.2015 85.112 69.248C85.2894 69.2945 85.4558 69.3759 85.6013 69.4875C85.715 69.5888 85.8225 69.7252 85.9733 69.7252C86.0172 69.7195 86.0593 69.7046 86.097 69.6815C86.1347 69.6584 86.1671 69.6276 86.192 69.5911C86.217 69.5547 86.234 69.5133 86.2419 69.4698C86.2498 69.4263 86.2484 69.3817 86.2379 69.3387C86.2111 69.2531 86.167 69.1739 86.1083 69.106C86.0497 69.0381 85.9777 68.9829 85.8969 68.944C85.4746 68.7171 84.9866 68.644 84.5163 68.7373C84.0191 68.8342 83.534 68.9853 83.0697 69.1879" fill="black"/>
</g>
<g opacity="0.3">
<path d="M85.4546 77.9609C85.6676 77.8812 85.8575 77.75 86.0076 77.5791C86.1576 77.4082 86.263 77.2028 86.3143 76.9813C86.3531 76.7515 86.3357 76.5157 86.2637 76.2941C86.1918 76.0724 86.0673 75.8714 85.901 75.7082C85.9961 76.1215 86.0829 76.5679 85.9547 76.9647C85.9068 77.141 85.8322 77.309 85.7336 77.4628C85.6282 77.6157 85.5269 77.7976 85.4463 77.9443C85.4587 77.9195 85.4691 77.8947 85.4794 77.8699" fill="black"/>
</g>
<path d="M76.8201 71.6265C76.8201 71.6265 76.7663 71.5687 76.6775 71.4819C76.5627 71.3664 76.4351 71.2645 76.2972 71.1781C76.1588 71.0941 76.0119 71.0248 75.8591 70.9714C75.7931 70.9537 75.7283 70.9324 75.6648 70.9073C75.6833 70.9045 75.7021 70.9045 75.7206 70.9073C75.7695 70.9151 75.8178 70.9261 75.8653 70.9404C76.0248 70.9884 76.1771 71.0579 76.3179 71.1471C76.458 71.2344 76.5853 71.3408 76.6961 71.4633C76.7305 71.4995 76.7623 71.5382 76.7911 71.579C76.8118 71.6079 76.8221 71.6245 76.8201 71.6265Z" fill="#263238"/>
<path d="M84.1919 61.2808C84.9726 61.2808 85.6055 60.6479 85.6055 59.8672C85.6055 59.0865 84.9726 58.4536 84.1919 58.4536C83.4112 58.4536 82.7783 59.0865 82.7783 59.8672C82.7783 60.6479 83.4112 61.2808 84.1919 61.2808Z" fill="#006D77"/>
<path d="M85.1095 59.8341C85.0991 59.8341 85.0991 59.7556 85.0619 59.6275C85.0072 59.4435 84.894 59.2825 84.7395 59.1687C84.6163 59.0783 84.4705 59.0238 84.3183 59.0113C84.166 58.9988 84.0132 59.0287 83.8769 59.0977C83.7406 59.1668 83.6261 59.2722 83.5462 59.4024C83.4662 59.5326 83.4238 59.6824 83.4238 59.8352C83.4238 59.9879 83.4662 60.1377 83.5462 60.2679C83.6261 60.3981 83.7406 60.5036 83.8769 60.5726C84.0132 60.6416 84.166 60.6716 84.3183 60.659C84.4705 60.6465 84.6163 60.592 84.7395 60.5017C84.8934 60.3882 85.0065 60.228 85.0619 60.0449C85.0991 59.9127 85.0991 59.8383 85.1095 59.8383C85.1264 59.9103 85.1264 59.9853 85.1095 60.0573C85.0672 60.2582 84.9552 60.4376 84.7933 60.5637C84.6725 60.6591 84.5295 60.7222 84.3777 60.7472C84.2259 60.7721 84.0702 60.7581 83.9253 60.7063C83.7455 60.6427 83.5899 60.5251 83.4799 60.3694C83.3698 60.2138 83.3107 60.0278 83.3107 59.8372C83.3107 59.6466 83.3698 59.4607 83.4799 59.3051C83.5899 59.1494 83.7455 59.0317 83.9253 58.9682C84.0702 58.9164 84.2259 58.9023 84.3777 58.9273C84.5295 58.9522 84.6725 59.0154 84.7933 59.1108C84.9558 59.2373 85.0679 59.4175 85.1095 59.6192C85.1255 59.6899 85.1255 59.7634 85.1095 59.8341Z" fill="#263238"/>
<path d="M58.7719 50.1043V51.9539L80.8067 52.6773L81.6953 28.4394L80.3747 51.3484L58.7719 50.1043Z" fill="#E0E0E0"/>
<path d="M58.4102 26.6966L57.0661 50.0071L80.3766 51.3512L81.7207 28.0407L58.4102 26.6966Z" fill="white"/>
<path d="M80.3747 51.3484C80.3747 51.3484 80.3747 51.3091 80.3747 51.2368C80.3747 51.1645 80.3747 51.0549 80.3913 50.9144C80.4057 50.6292 80.4285 50.2097 80.4574 49.662C80.5173 48.5646 80.6062 46.9609 80.7178 44.9087C80.9472 40.8311 81.2758 35.0093 81.6685 28.024L81.7119 28.0736L58.4019 26.7385L58.4598 26.6869C57.9638 35.2222 57.5009 43.2202 57.1082 49.9968L57.0648 49.9493L73.9474 50.9454L78.6883 51.2306L79.9407 51.3071L80.2631 51.3277L80.3727 51.3381H80.2673L79.949 51.3236L78.709 51.2554L73.9867 51.0012L57.0731 50.0505H57.0255V50.0133C57.4141 43.2367 57.8729 35.2387 58.3627 26.7013V26.6476H58.4164L81.7243 27.9971H81.7718V28.0447C81.3585 35.0403 81.0133 40.8704 80.7736 44.9562C80.6496 46.9919 80.5545 48.5915 80.4884 49.6868C80.4553 50.2283 80.4285 50.6457 80.4119 50.9268C80.4016 51.0653 80.3954 51.1707 80.3892 51.2451C80.383 51.3195 80.3747 51.3484 80.3747 51.3484Z" fill="#263238"/>
<path d="M66.34 34.2323C65.7606 33.404 64.8842 32.8311 63.8931 32.6327C63.8018 32.6047 63.7034 32.6105 63.6161 32.6492C63.5666 32.6909 63.5292 32.7451 63.5077 32.8061C63.4863 32.8672 63.4816 32.9329 63.4942 32.9964C63.5377 33.9429 63.8864 34.8499 64.4883 35.5818C65.1077 36.3276 65.9419 36.8645 66.8773 37.1194L66.8877 37.014C66.9895 36.5374 66.9935 36.0451 66.8994 35.5669C66.8052 35.0887 66.6149 34.6347 66.34 34.2323Z" fill="#455A64"/>
<path d="M69.5165 33.2733C69.5289 33.2919 69.2375 33.4614 68.8221 33.8065C68.5792 34.0081 68.3512 34.2271 68.1401 34.4617C67.8822 34.7489 67.6479 35.0565 67.4395 35.3813C67.236 35.7116 67.0584 36.057 66.9083 36.4147C66.7889 36.7066 66.6895 37.0062 66.6107 37.3116C66.4785 37.8345 66.4495 38.1713 66.4289 38.1693C66.4189 38.0904 66.4189 38.0105 66.4289 37.9316C66.4335 37.8393 66.4446 37.7475 66.4619 37.6567C66.4785 37.5493 66.495 37.4273 66.5281 37.2951C66.5971 36.9822 66.6911 36.6753 66.8091 36.3775C66.9554 36.0135 67.1331 35.6629 67.3403 35.3297C67.5525 34.9999 67.7924 34.6888 68.0574 34.3997C68.2761 34.1655 68.5131 33.9492 68.7663 33.7528C68.8696 33.666 68.9729 33.5999 69.0639 33.5461C69.1392 33.4916 69.2179 33.4419 69.2995 33.3973C69.3662 33.3469 69.4391 33.3053 69.5165 33.2733Z" fill="#263238"/>
<path d="M60.2557 44.3238C61.2643 46.6302 62.8101 48.2339 64.8313 48.4241C65.2343 48.4613 65.5547 48.2174 65.9432 48.2174C66.1651 48.2791 66.3778 48.3701 66.5756 48.4881C66.6806 48.5394 66.794 48.5709 66.9104 48.5811C69.0081 48.5935 70.8701 47.2895 72.2052 45.0058C74.0652 41.8066 73.7552 38.2375 71.5108 37.0285C71.2153 36.8644 70.9062 36.7261 70.587 36.6151C70.2179 36.4964 69.8338 36.431 69.4462 36.4209C68.7353 36.394 67.9107 36.5304 66.7926 36.8342L66.6769 36.8652C64.8479 35.9662 63.3495 35.8753 61.8595 36.4519C59.489 37.4211 58.7739 40.9324 60.2557 44.3238Z" fill="#006D77"/>
<path d="M60.4893 40.9882C60.3906 40.7772 60.3384 40.5474 60.3363 40.3145C60.2999 39.753 60.4036 39.1912 60.6381 38.6797C60.8716 38.1613 61.2259 37.7063 61.6714 37.3529C61.8531 37.197 62.0638 37.0783 62.2914 37.0037C62.3059 37.0285 62.0661 37.1566 61.7458 37.4356C61.3353 37.798 61.0052 38.2422 60.7765 38.7397C60.5531 39.2331 60.4382 39.7687 60.4397 40.3103C60.4541 40.7278 60.5182 40.982 60.4893 40.9882Z" fill="#FAFAFA"/>
<path d="M60.822 42.5733C60.7786 42.5733 60.7145 42.4204 60.6773 42.2158C60.6401 42.0112 60.6463 41.8417 60.6897 41.8335C60.7331 41.8252 60.7972 41.9864 60.8344 42.191C60.8716 42.3956 60.8654 42.5733 60.822 42.5733Z" fill="#FAFAFA"/>
<path d="M64.9677 34.0049C65.3085 34.4483 65.6218 34.9121 65.906 35.3937C66.2189 35.8575 66.5019 36.3407 66.7533 36.8404C66.4114 36.3979 66.098 35.934 65.8151 35.4516C65.5017 34.9882 65.2186 34.505 64.9677 34.0049Z" fill="#263238"/>
<g opacity="0.3">
<path d="M72.54 39.1964C72.2837 38.2623 71.2359 37.0181 70.4196 37.0574C70.2585 37.0441 70.0973 37.0813 69.9584 37.1639C69.8195 37.2465 69.7098 37.3704 69.6446 37.5183C69.5873 37.682 69.5632 37.8554 69.5734 38.0285C69.5837 38.2017 69.6283 38.371 69.7045 38.5268C69.8586 38.8368 70.034 39.1358 70.2295 39.4217C70.6075 40.0531 70.8477 40.7574 70.9342 41.4883C70.9453 41.6938 70.9842 41.8968 71.0499 42.0918C71.0834 42.1889 71.1416 42.2756 71.2188 42.3434C71.296 42.4112 71.3895 42.4576 71.4901 42.4783C71.7836 42.5134 72.0213 42.2509 72.1701 41.9967C72.6598 41.1493 72.7929 40.142 72.54 39.1964Z" fill="white"/>
</g>
<path d="M70.0373 29.2351C70.818 29.2351 71.4509 28.6022 71.4509 27.8215C71.4509 27.0408 70.818 26.4079 70.0373 26.4079C69.2566 26.4079 68.6237 27.0408 68.6237 27.8215C68.6237 28.6022 69.2566 29.2351 70.0373 29.2351Z" fill="#006D77"/>
<path d="M70.9528 27.7863C70.9528 27.7863 70.9528 27.7078 70.9053 27.5797C70.8515 27.3964 70.7389 27.2359 70.5849 27.1229C70.4727 27.0408 70.3418 26.9878 70.204 26.9687C70.0662 26.9496 69.9258 26.965 69.7955 27.0134C69.6366 27.0717 69.4994 27.1774 69.4025 27.3162C69.3056 27.455 69.2537 27.6202 69.2537 27.7894C69.2537 27.9587 69.3056 28.1239 69.4025 28.2627C69.4994 28.4014 69.6366 28.5071 69.7955 28.5655C69.9258 28.6139 70.0662 28.6293 70.204 28.6101C70.3418 28.591 70.4727 28.538 70.5849 28.4559C70.7391 28.3422 70.8516 28.181 70.9053 27.9971C70.9445 27.8669 70.9445 27.7905 70.9528 27.7905C70.9717 27.8623 70.9717 27.9377 70.9528 28.0095C70.9112 28.2112 70.7991 28.3915 70.6366 28.5179C70.5156 28.6128 70.3726 28.6757 70.2209 28.7006C70.0692 28.7255 69.9136 28.7117 69.7686 28.6605C69.5889 28.597 69.4333 28.4793 69.3232 28.3237C69.2132 28.168 69.1541 27.9821 69.1541 27.7915C69.1541 27.6009 69.2132 27.415 69.3232 27.2593C69.4333 27.1037 69.5889 26.986 69.7686 26.9225C69.9134 26.8703 70.0692 26.856 70.2211 26.8809C70.373 26.9059 70.5161 26.9693 70.6366 27.0651C70.7985 27.1912 70.9106 27.3705 70.9528 27.5714C70.971 27.6419 70.971 27.7158 70.9528 27.7863Z" fill="#263238"/>
<path d="M58.6272 58.5404C58.6272 58.5404 56.3993 58.3131 55.7442 58.8235C55.0891 59.334 54.6261 61.9359 54.6199 62.3596C54.5993 63.8579 55.6946 66.2305 55.6946 66.2305C55.6946 66.2305 58.2945 65.0649 57.8315 63.0251C57.3686 60.9853 56.7879 60.9584 56.7879 60.9584L56.8602 60.2537C56.8602 60.2537 57.939 60.4314 58.4247 59.7019C58.9103 58.9723 58.6272 58.5404 58.6272 58.5404Z" fill="#FFBF9D"/>
<path d="M61.4503 53.8697C61.4503 53.8697 60.6484 53.2394 59.5076 55.1573C58.3668 57.0751 56.7879 59.4973 56.7879 59.4973L56.3229 61.6342C56.3229 61.6342 56.7879 64.4035 56.7631 64.3209C56.7383 64.2382 55.6946 66.216 55.6946 66.216L60.4252 68.0119C60.4252 68.0119 62.1798 66.1912 62.6882 64.9781C63.1966 63.7649 64.2671 61.0927 64.2671 61.0927C64.2671 61.0927 64.4862 60.1689 64.0005 59.7556C63.5149 59.3423 62.4216 59.5489 62.4216 59.5489C62.4216 59.5489 62.5187 58.6541 61.9359 58.4825C61.6227 58.374 61.282 58.374 60.9687 58.4825C60.9687 58.4825 61.1961 57.8005 60.4252 57.3376C60.4252 57.3376 61.597 55.0064 61.6652 54.9093C61.7709 54.7419 61.8076 54.54 61.7675 54.3461C61.7274 54.1523 61.6137 53.9815 61.4503 53.8697Z" fill="#FFBF9D"/>
<path d="M60.8675 58.4867C60.8297 58.5537 60.7861 58.6173 60.7373 58.6768L60.3446 59.1873L58.9661 60.9315L58.9517 60.9481H58.9331C58.7174 60.9809 58.4976 60.9746 58.2841 60.9295C58.1675 60.9031 58.058 60.8512 57.9637 60.7776C57.8694 60.704 57.7925 60.6105 57.7385 60.5037C57.6697 60.3624 57.6377 60.206 57.6455 60.0491V60.0387L57.6641 60.0119C57.6869 59.9788 57.7344 59.9065 57.7654 59.8527L57.8729 59.6771C57.9452 59.5634 58.0134 59.4497 58.0795 59.3402C58.2201 59.1191 58.3585 58.9083 58.4929 58.7202C58.6223 58.5341 58.7639 58.3567 58.9165 58.1891C59.0511 58.0443 59.2023 57.916 59.3671 57.8067C59.6027 57.6513 59.8559 57.5243 60.1214 57.4285C60.216 57.3885 60.3153 57.3607 60.4169 57.3459C60.4169 57.3459 60.3157 57.3872 60.1359 57.4657C59.8829 57.5742 59.6419 57.7086 59.4167 57.8667C59.0836 58.1151 58.7997 58.4235 58.5797 58.776C58.4433 58.9703 58.3089 59.179 58.1663 59.396L57.9597 59.7349L57.8522 59.9106C57.8163 59.9756 57.7755 60.0378 57.7303 60.0966L57.7489 60.0594C57.7441 60.1971 57.7724 60.3339 57.8315 60.4583C57.8783 60.5514 57.9452 60.6329 58.0274 60.6969C58.1097 60.7609 58.2051 60.8058 58.3069 60.8282C58.5067 60.87 58.7123 60.877 58.9145 60.8489L58.8814 60.8675L60.2909 59.1459L60.7042 58.6541C60.753 58.593 60.8077 58.537 60.8675 58.4867Z" fill="#FF9A6C"/>
<path d="M62.4133 59.5531C62.356 59.604 62.2937 59.649 62.2273 59.6874C62.1075 59.7701 61.9318 59.8941 61.7251 60.0532C61.4834 60.2404 61.258 60.4478 61.0514 60.6732C60.822 60.9274 60.6381 61.2622 60.3715 61.5763C60.2472 61.7326 60.1088 61.8772 59.9581 62.0083C59.8169 62.1409 59.639 62.228 59.4477 62.2583C59.3587 62.2637 59.2697 62.2499 59.1866 62.2178C59.1035 62.1857 59.0283 62.1361 58.9661 62.0723C58.8502 61.9749 58.7618 61.8488 58.7099 61.7065C58.6757 61.6047 58.6636 61.4968 58.6743 61.3899C58.6849 61.283 58.7182 61.1796 58.7719 61.0865C58.8038 61.0151 58.8528 60.9527 58.9145 60.9047C58.9145 60.9047 58.869 60.9729 58.8091 61.1113C58.7654 61.2012 58.7403 61.299 58.7353 61.3987C58.7304 61.4985 58.7456 61.5983 58.7801 61.6921C58.8333 61.8193 58.917 61.9315 59.024 62.0186C59.0779 62.0722 59.1427 62.1136 59.2141 62.14C59.2854 62.1663 59.3615 62.1771 59.4373 62.1715C59.6081 62.14 59.766 62.0596 59.892 61.9401C60.0351 61.8138 60.1672 61.6755 60.2867 61.5267C60.5389 61.2209 60.7331 60.8881 60.977 60.6257C61.1888 60.3956 61.4235 60.1879 61.6776 60.0057C61.8461 59.8814 62.0221 59.7675 62.2046 59.6647C62.2675 59.6161 62.338 59.5784 62.4133 59.5531Z" fill="#FF9A6C"/>
<path d="M62.3286 59.6068C62.1737 59.7435 62.0116 59.8718 61.8429 59.9912C61.69 60.1069 61.5081 60.2495 61.3118 60.4149C61.2106 60.4946 61.1281 60.5955 61.07 60.7104C61.0393 60.7666 61.0243 60.83 61.0265 60.894C61.0286 60.9579 61.048 61.0202 61.0824 61.0741L61.0948 61.0927V61.1134C61.1014 61.1616 61.1219 61.2068 61.1539 61.2435C61.1858 61.2803 61.2278 61.3068 61.2746 61.3201C61.5835 61.394 61.9084 61.3612 62.1963 61.2271C62.4433 61.1323 62.6818 61.0168 62.9093 60.8819L62.9961 60.8303L62.9651 60.9274C62.952 60.9706 62.9491 61.0162 62.9567 61.0606C62.9642 61.1051 62.982 61.1472 63.0085 61.1837C63.0521 61.2416 63.1069 61.2901 63.1697 61.3263C63.2289 61.3534 63.2862 61.3845 63.3413 61.4193C63.2745 61.4152 63.2095 61.3961 63.1511 61.3635C63.0782 61.3293 63.0134 61.28 62.961 61.2188C62.9253 61.1749 62.9004 61.1232 62.8886 61.0679C62.8767 61.0126 62.8782 60.9552 62.8928 60.9005L62.9486 60.946C62.7227 61.0944 62.4825 61.2198 62.2315 61.3201C61.9214 61.4691 61.5687 61.5042 61.2353 61.4193C61.1659 61.3985 61.1048 61.3563 61.0606 61.2988C61.0165 61.2413 60.9916 61.1714 60.9894 61.0989L61.0018 61.1382C60.9537 61.0688 60.926 60.9873 60.9216 60.903C60.9172 60.8187 60.9364 60.7348 60.977 60.6608C61.0435 60.5336 61.1374 60.4228 61.2519 60.3363C61.4585 60.1731 61.6425 60.0387 61.8016 59.923C61.9656 59.7994 62.1423 59.6934 62.3286 59.6068Z" fill="#FF9A6C"/>
<path d="M58.7491 58.4867C58.3726 58.5459 57.9914 58.5708 57.6104 58.5611C57.23 58.586 56.8481 58.5756 56.4696 58.5301C56.846 58.4692 57.2272 58.4436 57.6083 58.4536C57.9888 58.4276 58.3708 58.4387 58.7491 58.4867Z" fill="#FF9A6C"/>
<path d="M57.4347 64.79C57.4524 64.7137 57.4766 64.639 57.5071 64.5668C57.5726 64.3631 57.6278 64.1561 57.6724 63.9468C57.7409 63.642 57.7796 63.3312 57.7881 63.0189C57.7942 62.8378 57.7705 62.657 57.7179 62.4836C57.6551 62.2973 57.5763 62.1168 57.4823 61.9442C57.2671 61.5286 56.9803 61.1543 56.6349 60.8385L56.6081 60.8158L56.6205 60.7869C56.7403 60.4955 56.8788 60.2661 56.9615 60.0635L56.9739 60.0325H57.0028C57.1773 60.0803 57.3615 60.0803 57.536 60.0325C57.66 59.9974 57.722 59.9623 57.7261 59.9685C57.6751 60.0145 57.6144 60.0484 57.5484 60.0677C57.3688 60.1355 57.1729 60.1477 56.9863 60.1028L57.0276 60.0801C56.9511 60.2971 56.8209 60.5347 56.7093 60.8117L56.6949 60.76C57.0569 61.0778 57.3562 61.4605 57.5773 61.8884C57.6744 62.0665 57.7547 62.2534 57.8171 62.4464C57.8734 62.6303 57.8972 62.8226 57.8873 63.0147C57.8743 63.333 57.8272 63.6489 57.7468 63.9571C57.693 64.1652 57.6239 64.3689 57.5401 64.5668C57.5172 64.6464 57.4816 64.7217 57.4347 64.79Z" fill="#FF9A6C"/>
<path d="M34.2653 38.3325C33.4187 35.0805 31.366 32.2726 28.5241 30.4792L28.7804 30.3015C26.1599 29.3963 22.9503 30.9421 22.0224 33.5565C21.6421 34.6291 21.6091 35.7905 21.4396 36.9148C21.2701 38.0391 20.8878 39.2088 20.0074 39.9321C19.5383 40.3165 18.9596 40.5521 18.4698 40.9014C17.98 41.2507 17.5584 41.8252 17.6431 42.4245C17.7733 43.1933 18.6289 43.6067 19.3998 43.71C20.1707 43.8133 20.9953 43.7245 21.6731 44.0841C21.4218 44.2877 21.2136 44.5396 21.0608 44.8247C20.9081 45.1099 20.8138 45.4227 20.7835 45.7449C20.7532 46.067 20.7875 46.3919 20.8844 46.7005C20.9814 47.0092 21.1389 47.2954 21.3479 47.5424C21.5569 47.7894 21.8131 47.9921 22.1015 48.1388C22.3899 48.2854 22.7046 48.373 23.0273 48.3964C23.35 48.4198 23.6741 48.3786 23.9806 48.2751C24.2872 48.1716 24.57 48.0079 24.8124 47.7937C24.3619 49.0813 25.1307 50.5982 26.35 51.212C27.5693 51.8258 29.0863 51.6253 30.2767 50.9537C31.4671 50.282 32.3433 49.1619 33.0088 47.9715C34.6359 45.0344 35.0851 41.5885 34.2653 38.3325Z" fill="#263238"/>
<path d="M50.6602 34.0442C50.4969 33.1204 49.6269 32.457 48.7113 32.2462C47.7958 32.0354 46.8513 32.1863 45.9193 32.3371C46.2334 31.1281 46.5496 29.8799 46.3677 28.644C46.1859 27.4081 45.3716 26.1764 44.1543 25.9015C43.1045 25.6639 42.0277 26.1681 41.1556 26.7985C40.2835 27.4288 39.5023 28.1997 38.5041 28.6233C35.9331 29.7269 32.9592 28.1501 30.1981 28.6089C27.3647 29.0821 24.8868 32.2338 25.203 35.0899C29.7497 36.9871 34.3521 38.9071 38.3759 41.7611C40.5501 43.3049 42.8792 45.2125 45.5245 44.8756C46.3519 44.7696 47.1353 44.442 47.7919 43.9274C48.4484 43.4128 48.9537 42.7304 49.2544 41.9523C49.5551 41.1742 49.6399 40.3293 49.4999 39.507C49.3599 38.6847 49.0004 37.9154 48.4592 37.2806C49.6 36.5056 50.902 35.4082 50.6602 34.0442Z" fill="#263238"/>
<path d="M45.88 40.3124C45.7126 36.5924 41.7715 32.8001 38.0577 33.1245L27.6933 35.1333L27.3069 36.9417V62.3079C27.3069 62.3079 27.1643 70.0063 33.9202 69.6715C39.9879 69.3718 39.7709 62.9631 39.7709 62.961L39.7089 57.6972C39.7089 57.6972 44.6214 57.8625 45.7188 51.6791C46.2665 48.6039 46.0577 44.4499 45.88 40.3124Z" fill="#FFBF9D"/>
<path d="M44.3589 45.6465C44.3573 45.8539 44.2748 46.0526 44.1289 46.2001C43.9829 46.3475 43.7852 46.4322 43.5777 46.4359C43.4764 46.4424 43.3749 46.4284 43.2791 46.3948C43.1833 46.3613 43.0952 46.3088 43.02 46.2406C42.9448 46.1724 42.8841 46.0898 42.8415 45.9976C42.7988 45.9055 42.7751 45.8058 42.7717 45.7043C42.7728 45.4971 42.8549 45.2984 43.0005 45.1509C43.1461 45.0034 43.3436 44.9186 43.5509 44.9149C43.6523 44.9085 43.7539 44.9224 43.8499 44.956C43.9458 44.9895 44.034 45.0419 44.1093 45.1101C44.1847 45.1783 44.2456 45.2609 44.2884 45.353C44.3313 45.4451 44.3553 45.5449 44.3589 45.6465Z" fill="#263238"/>
<path d="M44.7185 43.5901C44.6193 43.6935 44.0241 43.2367 43.1685 43.2223C42.3129 43.2078 41.6785 43.6356 41.5855 43.5199C41.5421 43.4723 41.6454 43.2863 41.9223 43.0921C42.298 42.8434 42.7409 42.7157 43.1913 42.7263C43.6382 42.7276 44.0729 42.8725 44.4313 43.1396C44.6834 43.3566 44.7681 43.5447 44.7185 43.5901Z" fill="#263238"/>
<path d="M36.8652 45.6485C36.8631 45.8556 36.7803 46.0538 36.6344 46.2008C36.4885 46.3478 36.2911 46.4322 36.084 46.4359C35.9828 46.4421 35.8813 46.4279 35.7856 46.3942C35.69 46.3606 35.602 46.3081 35.5269 46.2399C35.4518 46.1718 35.3911 46.0893 35.3483 45.9973C35.3056 45.9053 35.2817 45.8057 35.278 45.7043C35.279 45.4971 35.3611 45.2984 35.5067 45.1509C35.6523 45.0034 35.8499 44.9187 36.0571 44.9149C36.1587 44.9085 36.2605 44.9225 36.3566 44.9562C36.4526 44.9898 36.541 45.0424 36.6163 45.1108C36.6917 45.1792 36.7525 45.2621 36.7953 45.3544C36.838 45.4468 36.8618 45.5468 36.8652 45.6485Z" fill="#263238"/>
<path d="M36.8425 43.5819C36.7412 43.6831 36.146 43.2264 35.2904 43.214C34.4348 43.2016 33.8003 43.6273 33.7094 43.5095C33.6639 43.462 33.7673 43.2781 34.0463 43.0838C34.4203 42.8332 34.8631 42.7053 35.3131 42.718C35.7599 42.7203 36.1943 42.8651 36.5531 43.1313C36.8053 43.3463 36.89 43.5364 36.8425 43.5819Z" fill="#263238"/>
<path d="M39.7689 49.4057C39.7689 49.3685 39.8226 49.3375 40.6885 49.259C40.9076 49.2425 41.1143 49.2115 41.1556 49.0957C41.1969 48.98 41.1246 48.7899 41.0254 48.5915L40.4199 47.2957C40.1905 46.8245 39.5767 45.3303 39.5705 45.0761C39.6676 45.0492 39.9301 45.3551 40.7691 47.2006L41.3478 48.5047C41.4243 48.6969 41.5545 48.918 41.4408 49.1701C41.3999 49.2343 41.3461 49.2891 41.2827 49.3311C41.2194 49.3731 41.1479 49.4013 41.0729 49.414C40.9505 49.4391 40.8259 49.4516 40.7009 49.4512C39.8329 49.4801 39.7689 49.4057 39.7689 49.4057Z" fill="#263238"/>
<path d="M39.711 57.66C36.7896 57.6512 33.9279 56.832 31.4443 55.2937C31.4443 55.2937 33.4883 59.6605 39.711 59.1935V57.66Z" fill="#FF9A6C"/>
<path d="M36.611 40.7133C36.5056 40.9758 35.774 40.765 34.8812 40.8105C33.9884 40.8559 33.2423 41.0957 33.1535 40.8394C33.1142 40.7175 33.2651 40.4777 33.5792 40.2463C33.9688 39.9717 34.4297 39.8159 34.906 39.7978C35.368 39.7756 35.8254 39.8985 36.2142 40.1491C36.5159 40.3661 36.6565 40.5955 36.611 40.7133Z" fill="#263238"/>
<path d="M44.8012 40.6513C44.6565 40.889 44.0241 40.6844 43.2801 40.7154C42.5361 40.7464 41.9161 40.9448 41.757 40.7154C41.6867 40.6038 41.7735 40.3682 42.0381 40.1347C42.3794 39.8516 42.8078 39.6947 43.2512 39.6903C43.6975 39.6763 44.1351 39.8156 44.4912 40.0851C44.7661 40.3 44.8653 40.5335 44.8012 40.6513Z" fill="#263238"/>
<path d="M45.4026 36.7867C44.3238 34.6456 42.222 33.1245 39.9301 32.4239C37.6381 31.7233 35.1643 31.7853 32.8104 32.2359C30.4565 32.6864 28.1914 33.511 25.9408 34.3335C25.3952 34.5402 24.8 34.7737 24.5334 35.2904C24.3833 35.6572 24.3278 36.0559 24.3722 36.4498C24.4673 39.773 24.563 43.0962 24.6595 46.4194L25.5047 48.4861C26.5815 48.5233 27.5094 47.7607 28.2327 46.9629C30.7708 44.1348 32.1267 40.4405 32.0209 36.642C32.3309 37.0553 32.4157 37.6009 32.5748 38.099C32.7339 38.5971 33.0295 39.1137 33.5296 39.2625C34.3563 39.5105 35.0961 38.5743 35.2491 37.7167C35.402 36.859 35.2801 35.9166 35.7223 35.1643C36.5465 36.4279 37.6468 37.4878 38.9401 38.2643C39.5477 38.626 40.3579 38.9133 40.9241 38.4875C41.323 38.1858 41.4367 37.6133 41.3271 37.1235C41.1873 36.6413 40.9565 36.1902 40.6472 35.7947C41.6509 36.94 42.9666 37.768 44.4333 38.1775C44.7537 38.2664 45.1277 38.3263 45.3902 38.1217C45.7601 37.82 45.6196 37.2186 45.4026 36.7867Z" fill="#263238"/>
<path d="M27.5921 45.1029C27.4991 45.0616 23.7997 43.9353 23.8721 47.7235C23.9444 51.5117 27.7367 50.6499 27.7429 50.5424C27.7491 50.4349 27.5921 45.1029 27.5921 45.1029Z" fill="#FFBF9D"/>
<path d="M25.1286 48.0252C25.1286 47.9529 25.11 47.8785 25.1059 47.802C25.0903 47.4775 25.1467 47.1535 25.2712 46.8534C25.3046 46.7345 25.3662 46.6255 25.4507 46.5355C25.5353 46.4456 25.6403 46.3774 25.7569 46.3367C25.8326 46.3154 25.9134 46.321 25.9854 46.3527C26.0574 46.3843 26.1162 46.4401 26.1516 46.5103C26.2033 46.6157 26.1805 46.6901 26.2012 46.6963C26.2219 46.7025 26.2818 46.6323 26.2487 46.4752C26.2249 46.3821 26.1703 46.2998 26.0937 46.2417C25.9876 46.1648 25.8554 46.1329 25.7259 46.1528C25.4345 46.1797 25.1782 46.4545 25.0501 46.7542C24.8957 47.0855 24.8248 47.4494 24.8434 47.8144C24.8827 48.5791 25.2877 49.2838 25.8395 49.4305C25.9417 49.458 26.0488 49.4622 26.1529 49.4429C26.257 49.4236 26.3554 49.3813 26.4409 49.3189C26.5567 49.2218 26.5753 49.1371 26.5608 49.1309C26.5463 49.1247 26.4967 49.1784 26.3851 49.2321C26.23 49.3025 26.0537 49.3099 25.8933 49.2528C25.5337 49.1288 25.2175 48.6163 25.1286 48.0252Z" fill="#FF9A6C"/>
<path d="M39.5415 51.2781L37.0388 49.8067C37.0067 49.7816 36.9696 49.7637 36.9301 49.7541C36.8905 49.7445 36.8494 49.7434 36.8094 49.7509C36.7579 49.7744 36.7157 49.8144 36.6895 49.8645C36.5201 50.1358 36.4271 50.4479 36.4206 50.7677C36.414 51.0875 36.4941 51.4031 36.6523 51.6811C36.8051 51.9401 37.0297 52.1493 37.299 52.2832C37.5682 52.4171 37.8705 52.47 38.1693 52.4355C38.8058 52.3941 39.2935 51.8671 39.5415 51.2802V51.2781Z" fill="#FF9A6C"/>
<path d="M38.9691 52.0903C38.8899 52.1592 38.7998 52.2144 38.7025 52.2536C38.4441 52.3745 38.1609 52.4326 37.8758 52.4231C37.6759 52.4121 37.4798 52.3645 37.2971 52.2825C37.0916 52.1815 36.9049 52.0459 36.7453 51.8816C36.5575 51.7049 36.4156 51.4849 36.332 51.2409C36.2485 50.9773 36.2435 50.6951 36.3175 50.4287C36.3545 50.2958 36.405 50.1669 36.4684 50.0443C36.4966 49.9784 36.5365 49.9182 36.5862 49.8666C36.638 49.8139 36.7029 49.7761 36.7743 49.7571C36.842 49.7396 36.9132 49.7396 36.9809 49.7571C37.0456 49.7756 37.107 49.8042 37.1628 49.8418L37.4749 50.0257L38.5516 50.6664L39.2729 51.1066C39.3637 51.1561 39.4495 51.2142 39.5291 51.2802C39.4334 51.242 39.3408 51.1964 39.2522 51.1438L38.5144 50.7305L37.4253 50.1105L37.1111 49.9286C37.0634 49.8969 37.0111 49.8725 36.9561 49.8563C36.9034 49.8419 36.8477 49.8419 36.7949 49.8563C36.741 49.8709 36.6918 49.8994 36.6523 49.9389C36.6118 49.9835 36.579 50.0345 36.5552 50.0898C36.4956 50.2064 36.4485 50.3291 36.4147 50.4556C36.3445 50.702 36.3481 50.9635 36.425 51.2079C36.4989 51.4353 36.6265 51.6416 36.797 51.8093C36.9465 51.9683 37.1228 52.0999 37.3178 52.1978C37.4884 52.2797 37.6727 52.3294 37.8613 52.3445C38.1386 52.3616 38.4161 52.3164 38.6735 52.2123C38.8699 52.142 38.9649 52.08 38.9691 52.0903Z" fill="#263238"/>
<path d="M31.1343 33.9367C31.1343 33.9367 31.1343 33.9512 31.1467 33.9822C31.1591 34.0132 31.1612 34.0649 31.1736 34.1186C31.1963 34.2385 31.2232 34.4183 31.2542 34.6497C31.3373 35.3035 31.3595 35.9635 31.3203 36.6213C31.2674 37.604 31.0179 38.5661 30.5867 39.4506C30.3473 39.9865 29.9709 40.4498 29.4955 40.7939C29.2331 40.968 28.9324 41.0758 28.6192 41.1081C28.2943 41.1431 27.9668 41.0705 27.6871 40.9014C27.374 40.6888 27.1235 40.3962 26.9617 40.0541C26.8057 39.7361 26.6785 39.4048 26.5815 39.0641L26.6641 39.091C26.2756 39.4031 25.9635 39.7833 25.6308 40.1099C25.3146 40.4406 24.9222 40.6889 24.4879 40.8332C24.2913 40.8977 24.0827 40.9174 23.8775 40.891C23.6722 40.8645 23.4755 40.7925 23.3017 40.6803C23.0076 40.4818 22.7829 40.1964 22.6589 39.8639C22.5613 39.5949 22.5232 39.308 22.5473 39.0228C22.564 38.8118 22.6064 38.6036 22.6734 38.4028C22.7159 38.2774 22.7656 38.1546 22.8222 38.0349C22.8416 37.9932 22.8644 37.9531 22.8904 37.9151C22.8761 37.9586 22.8595 38.0014 22.8408 38.0432C22.7893 38.1637 22.7451 38.2873 22.7085 38.4131C22.6486 38.6149 22.6126 38.823 22.6011 39.0331C22.5827 39.3102 22.6243 39.5879 22.723 39.8474C22.8445 40.1631 23.0612 40.4332 23.343 40.6203C23.5079 40.7238 23.6938 40.7894 23.8872 40.8122C24.0805 40.8351 24.2765 40.8147 24.4611 40.7526C24.8788 40.6084 25.2559 40.366 25.5605 40.0458C25.8953 39.7213 26.2074 39.339 26.6083 39.0125C26.613 39.0075 26.6186 39.0036 26.6248 39.0009C26.631 38.9982 26.6377 38.9968 26.6445 38.9968C26.6513 38.9968 26.658 38.9982 26.6642 39.0009C26.6704 39.0036 26.676 39.0075 26.6807 39.0125C26.6849 39.0182 26.6884 39.0245 26.691 39.0311C26.7855 39.365 26.9107 39.6895 27.0651 40.0003C27.2183 40.3245 27.4552 40.602 27.7512 40.8043C28.0087 40.9678 28.3135 41.0405 28.6171 41.0109C28.9126 40.9811 29.1964 40.8796 29.4438 40.7154C29.9047 40.3816 30.2707 39.9336 30.5061 39.4155C30.9345 38.5441 31.1866 37.5966 31.248 36.6275C31.2933 35.9734 31.2829 35.3166 31.217 34.6642C31.1922 34.4327 31.1715 34.2509 31.155 34.1331C31.155 34.0773 31.155 34.0318 31.1405 33.9946C31.1337 33.9761 31.1316 33.9562 31.1343 33.9367Z" fill="#455A64"/>
<path d="M41.5111 31.7709C41.5111 31.7709 41.4904 31.8225 41.4821 31.9176C41.4775 32.0611 41.5187 32.2022 41.5999 32.3206C41.6909 32.4839 41.8459 32.6554 41.9843 32.891C42.0617 33.0161 42.1085 33.1577 42.1207 33.3043C42.1236 33.3895 42.1093 33.4743 42.0788 33.5538C42.0483 33.6333 42.0021 33.7059 41.943 33.7673C41.8164 33.9032 41.6525 33.9989 41.4718 34.0421C41.2801 34.0857 41.0826 34.0983 40.8869 34.0793C40.462 34.043 40.0406 33.9739 39.6263 33.8727C38.6755 33.6461 37.7708 33.2574 36.952 32.7236C36.6081 32.5011 36.2813 32.2531 35.9745 31.9817L36.0613 31.9548C35.9648 32.3808 35.8263 32.7961 35.6479 33.1948C35.4809 33.5655 35.2158 33.8835 34.8812 34.1145C34.5818 34.3277 34.2112 34.4159 33.8479 34.3604C33.5371 34.2972 33.2505 34.1475 33.0212 33.9285C32.838 33.7517 32.6826 33.5483 32.5603 33.325C32.4688 33.1592 32.3874 32.988 32.3165 32.8125C32.2586 32.6699 32.2193 32.5562 32.1925 32.4797C32.1769 32.4416 32.1644 32.4022 32.1553 32.3619C32.1778 32.3967 32.1959 32.4342 32.209 32.4735C32.2462 32.5562 32.2937 32.6637 32.3516 32.798C32.5166 33.2017 32.7604 33.5684 33.0687 33.8768C33.2891 34.0818 33.5627 34.2207 33.8582 34.2777C34.2022 34.3274 34.5519 34.2414 34.8337 34.038C35.1513 33.8136 35.402 33.5072 35.5591 33.1514C35.7294 32.7607 35.8616 32.3544 35.9538 31.9383C35.9572 31.9246 35.9659 31.9129 35.9778 31.9056C35.9898 31.8982 36.0042 31.8959 36.0179 31.899C36.0264 31.901 36.0343 31.9053 36.0406 31.9114C37.0752 32.8146 38.3111 33.4566 39.6449 33.7838C40.0525 33.8834 40.467 33.9525 40.8849 33.9905C41.0712 34.0113 41.2597 34.0015 41.4429 33.9615C41.6096 33.9252 41.7616 33.8395 41.8789 33.7156C41.9332 33.6616 41.9758 33.5971 42.0043 33.526C42.0327 33.4549 42.0463 33.3788 42.0443 33.3023C42.037 33.1639 41.9951 33.0296 41.9223 32.9117C41.7942 32.6802 41.6433 32.4983 41.5545 32.3309C41.4741 32.2043 41.4385 32.0544 41.4532 31.9052C41.4579 31.8673 41.4683 31.8304 41.4842 31.7957C41.5028 31.7812 41.509 31.7709 41.5111 31.7709Z" fill="#455A64"/>
<path d="M45.9999 62.8825L51.5261 72.7239C51.5261 72.7239 52.5595 69.9649 53.8718 68.758L55.2255 65.2137L60.9625 67.6937L59.9333 70.7234C59.9333 70.7234 61.1423 72.726 60.0408 77.1301C59.5386 79.143 58.5507 87.854 51.5861 87.5626C48.3269 87.4262 44.4788 82.1893 43.6521 79.3517C42.8255 76.5142 45.9999 62.8825 45.9999 62.8825Z" fill="#006D77"/>
<g opacity="0.3">
<path d="M50.3564 79.5419C50.1022 75.2763 49.7881 70.8081 47.523 67.1873C47.5359 73.4789 48.089 79.7578 49.1763 85.9547L50.2448 87.4985C50.6685 84.8739 50.5135 82.1955 50.3564 79.5419Z" fill="black"/>
</g>
<path d="M19.9351 63.2173C19.9351 63.2173 24.4135 60.7827 27.2366 59.8155L27.2986 58.5011C28.2989 59.2472 31.7936 61.5536 35.2305 61.3035C38.7128 61.0493 39.8288 58.9207 39.8288 58.9207L40.1905 59.3671C41.5896 59.7039 46.7852 61.0493 47.6863 66.2305C48.7196 72.1639 49.4925 77.7831 50.0361 84.7499C50.5569 91.4355 50.7036 95.3126 50.7036 95.3126L23.8369 95.3539L25.7879 82.2864L25.0294 70.0104L19.9351 63.2173Z" fill="#006D77"/>
<path d="M40.4653 60.1049C40.445 60.1472 40.4193 60.1868 40.3889 60.2227C40.3124 60.3348 40.2296 60.4424 40.1409 60.5451C39.8174 60.9279 39.4441 61.2657 39.0311 61.5495C38.4198 61.9726 37.7443 62.2944 37.0305 62.5022C36.1591 62.7581 35.2512 62.8678 34.3439 62.8267C33.436 62.7745 32.5386 62.6057 31.6737 62.3245C30.9693 62.096 30.2844 61.8112 29.6257 61.473C29.0635 61.1878 28.6233 60.9274 28.3237 60.7414C28.1728 60.6484 28.0612 60.5719 27.9827 60.5203C27.9425 60.496 27.9045 60.4683 27.869 60.4376C27.9134 60.4538 27.9558 60.4753 27.9951 60.5017L28.3464 60.7083C28.6502 60.884 29.0945 61.1217 29.6608 61.4089C30.3204 61.7354 31.0037 62.0117 31.7047 62.2356C32.5615 62.5101 33.4497 62.6746 34.348 62.7254C35.2408 62.7643 36.1341 62.659 36.9933 62.4133C37.7 62.2115 38.3708 61.9005 38.9815 61.4916C39.3931 61.2164 39.7693 60.8915 40.1016 60.5244C40.3413 60.2557 40.4571 60.0987 40.4653 60.1049Z" fill="#263238"/>
<path d="M50.3977 90.427C50.3914 90.4062 50.3879 90.3847 50.3874 90.3629C50.3874 90.3154 50.3874 90.2534 50.3729 90.1749C50.3626 90.0013 50.3481 89.7615 50.3275 89.4515C50.2903 88.8315 50.2324 87.916 50.1497 86.7938C49.9885 84.5515 49.7116 81.4556 49.3231 78.0477C48.9345 74.6397 48.4964 71.5604 48.1575 69.3367C47.9859 68.231 47.8475 67.332 47.7441 66.7037C47.6966 66.3979 47.6594 66.1581 47.6346 65.9887L47.6077 65.8006C47.605 65.7793 47.605 65.7578 47.6077 65.7365C47.6161 65.7563 47.6217 65.7772 47.6243 65.7985C47.6353 65.8468 47.6477 65.9088 47.6615 65.9845L47.7917 66.6975C47.9033 67.3175 48.0562 68.2124 48.2339 69.3243C48.5894 71.5459 49.0337 74.6232 49.4305 78.0353C49.8273 81.4473 50.0836 84.5432 50.22 86.8C50.2923 87.9222 50.3399 88.8315 50.3626 89.4598C50.375 89.7698 50.3833 90.0116 50.3895 90.1831C50.3895 90.2617 50.3895 90.3237 50.3895 90.3733C50.3938 90.3909 50.3966 90.4089 50.3977 90.427Z" fill="#263238"/>
<path d="M51.4889 78.5333C51.4631 78.4614 51.4471 78.3863 51.4414 78.3101C51.4166 78.1655 51.3877 77.9547 51.3587 77.6901C51.2794 77.0096 51.2394 76.3251 51.2389 75.64C51.2366 74.9542 51.2891 74.2693 51.3959 73.5919C51.4393 73.3315 51.4827 73.1228 51.5199 72.9719C51.5328 72.8969 51.5557 72.8239 51.5881 72.7549C51.6047 72.7549 51.5385 73.0753 51.4724 73.594C51.3874 74.2699 51.3453 74.9505 51.3463 75.6317C51.3463 76.4295 51.3939 77.1507 51.4331 77.6736C51.4538 77.9154 51.4683 78.1221 51.4827 78.2936C51.4952 78.3729 51.4973 78.4535 51.4889 78.5333Z" fill="#263238"/>
<g opacity="0.3">
<path d="M29.3942 95.3932L34.1992 89.6933C34.1992 89.6933 35.9993 90.5345 37.6299 88.877C39.2605 87.2195 40.2153 83.6091 40.2153 83.6091H33.356L27.1994 95.3353L29.3942 95.3932Z" fill="black"/>
</g>
<path d="M27.6417 70.3535L15.2417 85.7481C14.9535 86.1052 14.7953 86.5497 14.7931 87.0086C14.7908 87.4675 14.9446 87.9136 15.2293 88.2735L22.8346 97.8835C22.972 98.0568 23.148 98.1954 23.3487 98.2884C23.5493 98.3813 23.7689 98.426 23.9899 98.4188C24.1798 98.4125 24.3665 98.3679 24.5388 98.2877C24.711 98.2074 24.8652 98.0931 24.9922 97.9517L38.2333 83.235C38.5124 82.9104 38.6658 82.4965 38.6658 82.0684C38.6658 81.6403 38.5124 81.2264 38.2333 80.9017L29.14 70.2956C29.0457 70.1869 28.9282 70.1007 28.7961 70.0435C28.664 69.9863 28.5208 69.9594 28.377 69.965C28.2331 69.9705 28.0924 70.0083 27.9651 70.0756C27.8378 70.1428 27.7273 70.2378 27.6417 70.3535Z" fill="#455A64"/>
<path d="M38.905 80.4429L37.9543 79.2443C37.9543 79.2443 35.2842 78.1262 34.4141 78.3763C33.5441 78.6263 32.116 80.1143 31.1219 80.4884C30.1279 80.8625 28.3402 81.2923 28.3402 81.2923L28.5737 88.1289L31.4319 87.3208C31.4319 87.3208 33.8541 88.9349 35.4082 88.8729C36.9623 88.8109 37.2083 88.0049 37.2083 88.0049C37.2083 88.0049 38.9484 88.0049 38.8864 86.1449C38.8864 86.1449 40.3145 85.8328 39.8805 84.1567C39.8805 84.1567 41.2465 84.2187 41.3705 83.0387C41.4945 81.8586 38.8533 81.6023 38.8533 81.6023C39.0003 81.4478 39.0864 81.2453 39.0959 81.0323C39.1054 80.8193 39.0376 80.61 38.905 80.4429Z" fill="#FFBF9D"/>
<path d="M39.1613 81.8255C38.155 81.413 37.1084 81.1069 36.0385 80.9121L36.0757 80.7054C37.1602 80.9021 38.2208 81.2132 39.2398 81.6333L39.1613 81.8255Z" fill="#FF9A6C"/>
<path d="M23.1694 63.1346C23.1694 63.1346 19.2717 60.6546 16.1675 68.3798C13.0634 76.105 10.4181 83.0015 10.1742 86.2627C9.92 89.7801 11.4493 92.6094 16.6553 92.7933C20.5143 92.9006 24.2861 91.6343 27.2986 89.2201L31.2067 88.5319L30.6197 80.2652L27.0568 81.282C27.0568 81.282 24.1366 80.2941 22.3179 81.1249L27.2221 70.8453C27.2221 70.8453 28.4125 64.3064 23.1694 63.1346Z" fill="#006D77"/>
<path d="M17.3083 86.18C17.3244 86.0824 17.3507 85.9868 17.3869 85.8948C17.4212 85.784 17.4612 85.675 17.5067 85.5683C17.5584 85.4443 17.6121 85.2975 17.6886 85.1549C17.8607 84.7956 18.0604 84.4501 18.2859 84.1216C18.8431 83.3125 19.5435 82.6121 20.3525 82.0549C20.6807 81.8271 21.0262 81.6254 21.3859 81.4515C21.5367 81.3729 21.6814 81.3171 21.7992 81.2655C21.9056 81.2184 22.0146 81.1777 22.1257 81.1435C22.2174 81.1075 22.3122 81.0798 22.4089 81.0609C22.4089 81.0815 22.0141 81.2097 21.4127 81.5197C21.0612 81.7025 20.7228 81.9097 20.4001 82.1397C20.0065 82.4217 19.6367 82.7355 19.2944 83.0779C18.9554 83.4241 18.6444 83.7965 18.3644 84.1919C18.138 84.516 17.935 84.8558 17.7568 85.2087C17.453 85.7832 17.329 86.18 17.3083 86.18Z" fill="#263238"/>
<path d="M27.2986 71.2711C27.2773 71.1238 27.2642 70.9755 27.2593 70.8267C27.1456 69.287 26.5908 67.8126 25.6614 66.5797C24.732 65.3468 23.4672 64.4077 22.0183 63.8745C21.6405 63.7306 21.2522 63.6159 20.8568 63.5314C20.5778 63.4694 20.4207 63.4425 20.4207 63.4343C20.4592 63.4297 20.498 63.4297 20.5365 63.4343C20.6109 63.4343 20.7245 63.4529 20.8651 63.4818C21.2666 63.5521 21.6614 63.6565 22.0451 63.7939C23.3235 64.2414 24.4646 65.0116 25.3578 66.0298C26.2511 67.048 26.8662 68.2796 27.1436 69.6053C27.2294 70.004 27.282 70.4091 27.3007 70.8164C27.311 70.959 27.3007 71.0727 27.3007 71.1471C27.3031 71.1884 27.3024 71.2298 27.2986 71.2711Z" fill="#263238"/>
<path d="M34.6249 76.7973C34.594 76.8267 34.5592 76.8517 34.5216 76.8717C34.4534 76.9172 34.3501 76.9875 34.2157 77.0784C33.8332 77.3064 33.4386 77.5133 33.0336 77.6984C31.691 78.3177 30.254 78.7075 28.7825 78.8516L28.3175 78.8888L27.8628 78.9074V78.802L28.3691 78.7813V78.8847C27.2201 78.976 26.064 78.917 24.9302 78.709C24.5169 78.6305 24.1738 78.5499 23.9465 78.4858C23.8328 78.4548 23.7398 78.4259 23.6861 78.4093C23.6562 78.4008 23.6272 78.3897 23.5993 78.3763C23.6308 78.3764 23.6622 78.3813 23.6923 78.3907L23.9547 78.4507C24.1841 78.5023 24.5189 78.5747 24.9405 78.6429C26.0707 78.8282 27.2194 78.8747 28.3609 78.7813V78.8847L27.8545 78.9074V78.802L28.3051 78.7813L28.7659 78.7441C30.2262 78.5991 31.6541 78.2231 32.9964 77.6302C33.511 77.4008 33.9119 77.1859 34.1889 77.035L34.5051 76.8552C34.543 76.832 34.5832 76.8126 34.6249 76.7973Z" fill="#263238"/>
<path d="M35.8525 78.5333C35.8298 78.5519 34.2571 76.6733 32.3392 74.3545C30.4213 72.0357 28.8899 70.1261 28.9127 70.1075C28.9354 70.0889 30.5061 71.9675 32.426 74.2863C34.3459 76.6051 35.8753 78.5065 35.8525 78.5333Z" fill="#263238"/>
</svg>
