<svg width="108" height="108" viewBox="0 0 108 108" fill="none" xmlns="http://www.w3.org/2000/svg">
<path d="M53.8639 104.334C82.5385 104.334 105.784 90.7675 105.784 74.0318C105.784 57.2961 82.5385 43.7292 53.8639 43.7292C25.1893 43.7292 1.944 57.2961 1.944 74.0318C1.944 90.7675 25.1893 104.334 53.8639 104.334Z" fill="#F0F0F0"/>
<path d="M40.392 70.2691C32.3136 74.939 32.3136 82.512 40.392 87.1776C48.4704 91.8432 61.5902 91.8454 69.6773 87.1776C77.7643 82.5098 77.7643 74.939 69.6773 70.2691C61.5902 65.5992 48.4877 65.6014 40.392 70.2691Z" fill="#E0E0E0"/>
<path d="M84.4128 75.4553C80.2591 77.8529 80.2591 81.7409 84.4128 84.1385C88.5665 86.5361 95.3014 86.5361 99.455 84.1385C103.609 81.7409 103.609 77.8529 99.455 75.4553C95.3014 73.0577 88.56 73.0555 84.4128 75.4553Z" fill="#E0E0E0"/>
<path d="M8.208 76.3668C4.41936 78.5527 4.41936 82.0994 8.208 84.2875C11.9966 86.4756 18.144 86.4756 21.9305 84.2875C25.717 82.0994 25.7191 78.5527 21.9305 76.3668C18.1418 74.1809 11.9902 74.1787 8.208 76.3668Z" fill="#E0E0E0"/>
<path d="M98.7811 77.0969L98.1331 76.2955C97.5174 74.4103 97.3019 72.4174 97.5002 70.4441C97.9171 66.8455 99.5738 65.5474 100.74 65.9427C101.604 66.2364 101.863 67.2235 100.468 69.2863C99.6408 70.5024 98.5521 73.939 98.7811 77.0969Z" fill="#006D77"/>
<path opacity="0.15" d="M98.7811 77.0969L98.1331 76.2955C97.5174 74.4103 97.3019 72.4174 97.5002 70.4441C97.9171 66.8455 99.5738 65.5474 100.74 65.9427C101.604 66.2364 101.863 67.2235 100.468 69.2863C99.6408 70.5024 98.5521 73.939 98.7811 77.0969Z" fill="black"/>
<path d="M98.3988 74.8591H98.4096C98.4193 74.8573 98.4286 74.8536 98.4369 74.8481C98.4451 74.8426 98.4522 74.8356 98.4576 74.8273C98.4631 74.819 98.4668 74.8097 98.4686 74.8C98.4703 74.7902 98.4701 74.7802 98.4679 74.7706C97.8199 71.6105 98.8869 68.0378 100.239 66.541C100.246 66.5334 100.251 66.5247 100.254 66.5152C100.257 66.5057 100.259 66.4956 100.258 66.4856C100.258 66.4756 100.255 66.4658 100.251 66.4567C100.246 66.4477 100.24 66.4396 100.233 66.433C100.225 66.4263 100.216 66.4212 100.207 66.4179C100.197 66.4146 100.187 66.4132 100.177 66.4138C100.167 66.4144 100.157 66.417 100.148 66.4214C100.139 66.4258 100.131 66.4319 100.125 66.4394C98.7487 67.9644 97.6687 71.5954 98.3189 74.8008C98.3233 74.8183 98.3338 74.8337 98.3484 74.8443C98.3629 74.855 98.3808 74.8602 98.3988 74.8591Z" fill="white"/>
<path d="M98.5737 77.4209C98.6558 77.503 98.7357 77.6369 98.8351 77.6952C98.9345 77.7535 99.0144 77.6088 99.09 77.7384C99.131 77.8075 99.1375 77.9026 99.2066 77.9544C99.2424 77.9711 99.2825 77.9761 99.3213 77.9688C99.36 77.9614 99.3955 77.942 99.4226 77.9134C99.4763 77.8504 99.5226 77.7816 99.5609 77.7082C99.6646 77.5741 99.7948 77.4629 99.9435 77.3815C100.092 77.3001 100.256 77.2503 100.425 77.2351C100.796 77.1904 101.164 77.1182 101.524 77.0191C101.686 76.9695 101.831 76.875 101.941 76.7466C102.052 76.6181 102.124 76.461 102.149 76.2934C102.166 76.0428 102.017 75.8743 101.889 75.6151C101.742 75.3171 101.911 75.0535 102.129 74.8613C102.347 74.6691 102.788 74.5157 103.06 74.3623C103.332 74.209 103.766 73.8936 103.825 73.5869C103.969 72.8331 103.177 72.792 103.146 72.2585C103.131 71.9021 103.397 71.5975 103.475 71.2498C103.553 70.902 103.57 70.5478 103.326 70.3188C103.082 70.0899 102.652 70.1179 102.33 70.2108C101.933 70.3452 101.566 70.5558 101.25 70.8307C100.872 71.1353 100.619 71.3448 100.159 71.1591C99.5112 70.8977 98.887 71.4139 98.9172 72.3276C98.928 72.6862 99.0533 73.0491 98.8761 73.3601C98.7141 73.6387 98.2497 73.6344 98.0121 73.8526C97.8516 74.0107 97.7292 74.2035 97.6543 74.4161C97.5795 74.6287 97.5541 74.8556 97.5801 75.0795C97.632 75.8506 98.0208 76.8658 98.5737 77.4209Z" fill="#006D77"/>
<path d="M98.928 77.8983C98.9176 77.8995 98.9071 77.8985 98.897 77.8956C98.887 77.8926 98.8777 77.8877 98.8696 77.881C98.8615 77.8743 98.8549 77.8661 98.8501 77.8568C98.8453 77.8476 98.8424 77.8374 98.8416 77.827C98.5759 75.1378 100.803 71.8567 102.514 70.699C102.531 70.6872 102.552 70.6826 102.573 70.6862C102.593 70.6898 102.612 70.7014 102.624 70.7184C102.63 70.727 102.634 70.7367 102.636 70.747C102.638 70.7572 102.638 70.7678 102.636 70.7781C102.634 70.7884 102.63 70.7982 102.624 70.8069C102.619 70.8155 102.611 70.8229 102.602 70.8286C100.924 71.9755 98.7401 75.1896 98.9971 77.8205C98.9972 77.8397 98.9902 77.8583 98.9774 77.8726C98.9647 77.887 98.9471 77.8961 98.928 77.8983Z" fill="#FAFAFA"/>
<path d="M99.9151 73.9822C99.9009 73.9833 99.8867 73.9807 99.8738 73.9746C99.8609 73.9685 99.8499 73.9592 99.8417 73.9476C99.8361 73.939 99.8323 73.9293 99.8304 73.9192C99.8286 73.9091 99.8288 73.8987 99.831 73.8887C99.8332 73.8786 99.8374 73.8691 99.8433 73.8607C99.8492 73.8523 99.8567 73.8451 99.8654 73.8396C100.84 73.2111 101.965 72.9886 102.732 73.2715C102.742 73.2741 102.752 73.279 102.761 73.2857C102.77 73.2925 102.777 73.301 102.782 73.3107C102.787 73.3204 102.79 73.3311 102.791 73.342C102.792 73.353 102.79 73.364 102.786 73.3742C102.782 73.3845 102.776 73.3939 102.769 73.4017C102.761 73.4095 102.752 73.4156 102.741 73.4196C102.731 73.4235 102.72 73.4253 102.709 73.4247C102.698 73.4241 102.688 73.4213 102.678 73.4163C101.956 73.1506 100.885 73.3666 99.9497 73.9692C99.9389 73.9754 99.9273 73.9798 99.9151 73.9822Z" fill="#FAFAFA"/>
<path d="M9.57958 77.9458L10.0829 77.0494C10.3719 75.0871 10.2483 73.086 9.71998 71.1742C8.70478 67.6966 6.85366 66.6943 5.77582 67.2862C4.97662 67.7182 4.88374 68.7377 6.60526 70.5262C7.62478 71.5911 9.27502 74.7965 9.57958 77.9458Z" fill="#006D77"/>
<path opacity="0.15" d="M9.57958 77.9458L10.0829 77.0494C10.3719 75.0871 10.2483 73.086 9.71998 71.1742C8.70478 67.6966 6.85366 66.6943 5.77582 67.2862C4.97662 67.7182 4.88374 68.7377 6.60526 70.5262C7.62478 71.5911 9.27502 74.7965 9.57958 77.9458Z" fill="black"/>
<path d="M9.58175 75.6778C9.57146 75.6781 9.56121 75.6763 9.55164 75.6725C9.54207 75.6687 9.53338 75.6629 9.5261 75.6557C9.51882 75.6484 9.5131 75.6397 9.5093 75.6301C9.5055 75.6205 9.50369 75.6103 9.50399 75.6C9.60551 72.3773 7.95959 69.0336 6.37631 67.783C6.36919 67.7761 6.36352 67.7679 6.35965 67.7588C6.35579 67.7497 6.35379 67.7399 6.35379 67.7301C6.35379 67.7202 6.35579 67.7104 6.35965 67.7013C6.36352 67.6922 6.36919 67.684 6.37631 67.6771C6.38866 67.6614 6.40672 67.6512 6.42656 67.6488C6.44639 67.6464 6.46638 67.6519 6.48215 67.6642C8.09351 68.9364 9.76967 72.3341 9.66599 75.6043C9.66576 75.6148 9.66333 75.6252 9.65887 75.6347C9.65441 75.6442 9.64802 75.6527 9.64009 75.6597C9.63216 75.6666 9.62288 75.6717 9.61283 75.6749C9.60278 75.678 9.5922 75.679 9.58175 75.6778Z" fill="white"/>
<path d="M9.38303 78.624C9.32687 78.7752 9.25343 78.7579 9.10223 78.7104C8.98991 78.6758 8.88623 78.6197 8.77175 78.5873C8.55138 78.52 8.32702 78.4667 8.09999 78.4274C7.68743 78.3562 7.26839 78.3886 6.86015 78.3173C6.69194 78.2962 6.53319 78.2278 6.4024 78.1199C6.27161 78.0121 6.17416 77.8693 6.12143 77.7082C6.06311 77.4641 6.18191 77.2762 6.26399 76.9975C6.35903 76.6778 6.14951 76.4446 5.90111 76.2934C5.65271 76.1422 5.19263 76.0644 4.89887 75.9586C4.60511 75.8527 4.12559 75.6151 4.01543 75.3214C3.74543 74.6021 4.52519 74.4293 4.46039 73.8979C4.41719 73.5437 4.10183 73.2888 3.96791 72.9605C3.83399 72.6322 3.75191 72.2822 3.96791 72.0144C4.18391 71.7466 4.59647 71.7055 4.93127 71.7423C5.34778 71.8067 5.74726 71.9535 6.10631 72.1743C6.53831 72.4097 6.81695 72.5738 7.23815 72.3125C7.82783 71.9474 8.53415 72.3514 8.65943 73.2564C8.70695 73.6128 8.64431 73.9908 8.87543 74.2673C9.10655 74.5438 9.53855 74.4336 9.81071 74.6086C9.99342 74.7391 10.1441 74.9093 10.2515 75.1065C10.3589 75.3036 10.4201 75.5226 10.4306 75.7469C10.5062 76.5223 10.301 77.5872 9.84959 78.2287C9.79035 78.3414 9.71783 78.4465 9.63359 78.5419C9.55583 78.6024 9.43487 78.4901 9.38303 78.624Z" fill="#006D77"/>
<path d="M9.57959 78.7601C9.60041 78.7584 9.61976 78.7487 9.63349 78.733C9.64721 78.7172 9.65423 78.6967 9.65303 78.6759C9.46079 75.9802 6.71543 73.1203 4.83191 72.2563C4.82256 72.252 4.81245 72.2496 4.80215 72.2492C4.79186 72.2488 4.78159 72.2505 4.77194 72.2541C4.7623 72.2577 4.75346 72.2632 4.74596 72.2703C4.73846 72.2773 4.73243 72.2858 4.72823 72.2952C4.72356 72.3047 4.72086 72.315 4.7203 72.3255C4.71973 72.3361 4.72132 72.3466 4.72495 72.3565C4.72859 72.3664 4.7342 72.3754 4.74145 72.3831C4.7487 72.3908 4.75743 72.3969 4.76711 72.4011C6.61391 73.2478 9.30311 76.0493 9.49319 78.6867C9.49401 78.6972 9.4969 78.7074 9.50169 78.7168C9.50648 78.7262 9.51308 78.7345 9.52111 78.7414C9.52914 78.7482 9.53844 78.7534 9.54848 78.7566C9.55852 78.7598 9.56909 78.761 9.57959 78.7601Z" fill="#FAFAFA"/>
<path d="M7.94014 75.0665C7.95408 75.0656 7.96751 75.061 7.97895 75.053C7.99038 75.045 7.99938 75.0339 8.00494 75.0211C8.00917 75.0118 8.01146 75.0017 8.01167 74.9915C8.01188 74.9812 8.01002 74.9711 8.00618 74.9616C8.00234 74.9521 7.99661 74.9435 7.98935 74.9363C7.98208 74.929 7.97342 74.9234 7.9639 74.9196C6.89686 74.4617 5.75206 74.4315 5.04358 74.8397C5.03377 74.8442 5.02501 74.8508 5.01787 74.8589C5.01073 74.867 5.00536 74.8765 5.0021 74.8869C4.99885 74.8972 4.99779 74.9081 4.99898 74.9188C5.00017 74.9296 5.00359 74.9399 5.00902 74.9493C5.01445 74.9586 5.02177 74.9668 5.03052 74.9731C5.03926 74.9795 5.04924 74.984 5.05981 74.9862C5.07038 74.9885 5.08131 74.9886 5.09191 74.9864C5.1025 74.9842 5.11253 74.9799 5.12134 74.9736C5.78662 74.5891 6.87958 74.6237 7.90342 75.06C7.91456 75.0663 7.92752 75.0686 7.94014 75.0665Z" fill="#FAFAFA"/>
<path d="M62.4715 78.3929C61.4282 76.4489 62.0395 74.2587 62.9381 72.7207C63.8863 71.0878 62.6724 70.0164 61.4433 71.2476C60.2143 72.4788 60.2618 75.6195 61.7047 78.0754L62.4715 78.3929Z" fill="#37474F"/>
<path d="M61.7457 77.7082C61.7349 77.708 61.7245 77.7047 61.7156 77.6985C61.7067 77.6923 61.6999 77.6837 61.6961 77.6736C60.4692 74.6237 61.3548 72.252 62.0719 71.3319C62.0767 71.3267 62.0826 71.3226 62.0891 71.3198C62.0956 71.3169 62.1026 71.3155 62.1097 71.3155C62.1168 71.3155 62.1238 71.3169 62.1303 71.3198C62.1368 71.3226 62.1426 71.3267 62.1475 71.3319C62.1574 71.3419 62.1629 71.3555 62.1629 71.3697C62.1629 71.3838 62.1574 71.3974 62.1475 71.4075C62.0697 71.5068 60.2705 73.8785 61.7846 77.6412C61.7875 77.6477 61.789 77.6548 61.7892 77.6619C61.7893 77.669 61.788 77.6761 61.7854 77.6827C61.7828 77.6893 61.7789 77.6954 61.7739 77.7005C61.769 77.7056 61.7631 77.7097 61.7565 77.7125L61.7457 77.7082Z" fill="#FAFAFA"/>
<path d="M61.9401 77.7449C61.6356 76.5418 62.4823 74.5481 63.7697 73.71C64.9274 72.9583 65.61 73.0102 65.9448 73.4314C66.2796 73.8526 65.7569 74.4876 64.8648 75.0276C63.9727 75.5676 62.5212 76.7556 62.4715 78.1207L61.9401 77.7449Z" fill="#455A64"/>
<path d="M62.1432 77.7039C62.1292 77.7017 62.1166 77.6942 62.1082 77.6829C62.0997 77.6716 62.096 77.6574 62.0978 77.6434C62.357 75.7447 63.9511 73.9714 65.1996 73.6344C65.2065 73.6325 65.2138 73.6319 65.221 73.6328C65.2281 73.6338 65.235 73.6361 65.2413 73.6397C65.2475 73.6433 65.253 73.6482 65.2573 73.654C65.2616 73.6597 65.2648 73.6663 65.2665 73.6733C65.2698 73.687 65.2676 73.7015 65.2603 73.7136C65.2531 73.7257 65.2413 73.7345 65.2277 73.7381C64.0094 74.0578 62.4585 75.8009 62.2037 77.6585C62.2029 77.6655 62.2007 77.6723 62.1972 77.6785C62.1936 77.6847 62.1889 77.69 62.1832 77.6943C62.1776 77.6985 62.1711 77.7016 62.1642 77.7032C62.1573 77.7049 62.1502 77.7051 62.1432 77.7039Z" fill="#FAFAFA"/>
<path d="M47.4941 78.449C48.5373 76.505 47.9261 74.3126 47.0297 72.7747C46.0793 71.1439 47.2953 70.0726 48.5222 71.3038C49.7491 72.535 49.7059 75.6756 48.2609 78.1315L47.4941 78.449Z" fill="#37474F"/>
<path d="M48.2198 77.76H48.2004C48.1937 77.7574 48.1875 77.7535 48.1823 77.7484C48.1772 77.7434 48.173 77.7374 48.1702 77.7308C48.1674 77.7241 48.1659 77.717 48.1659 77.7097C48.1659 77.7025 48.1674 77.6954 48.1702 77.6887C49.6822 73.926 47.885 71.5543 47.8073 71.455C47.7974 71.4449 47.7918 71.4313 47.7918 71.4172C47.7918 71.403 47.7974 71.3895 47.8073 71.3794C47.8121 71.3742 47.818 71.3701 47.8245 71.3673C47.831 71.3645 47.838 71.363 47.8451 71.363C47.8522 71.363 47.8592 71.3645 47.8657 71.3673C47.8722 71.3701 47.878 71.3742 47.8829 71.3794C48.6 72.2995 49.4878 74.6712 48.2587 77.7211C48.2563 77.7305 48.2514 77.7391 48.2446 77.7459C48.2378 77.7527 48.2292 77.7576 48.2198 77.76Z" fill="#FAFAFA"/>
<path d="M48.0254 77.801C48.3322 76.5979 47.4854 74.6021 46.1981 73.7662C45.0382 73.0123 44.3578 73.0663 44.0208 73.4875C43.6838 73.9087 44.2087 74.5438 45.1008 75.0838C45.9929 75.6238 47.4422 76.8118 47.4919 78.1769L48.0254 77.801Z" fill="#455A64"/>
<path d="M47.8246 77.76C47.8113 77.7601 47.7985 77.7553 47.7885 77.7466C47.7785 77.7378 47.7722 77.7257 47.7706 77.7125C47.5157 75.8571 45.9648 74.1139 44.7466 73.7943C44.7389 73.7935 44.7314 73.791 44.7247 73.7871C44.718 73.7832 44.7123 73.7779 44.7078 73.7716C44.7033 73.7652 44.7003 73.758 44.6989 73.7504C44.6975 73.7428 44.6977 73.7349 44.6996 73.7274C44.7015 73.7199 44.7049 73.7129 44.7098 73.7068C44.7146 73.7008 44.7207 73.6958 44.7276 73.6923C44.7345 73.6888 44.7421 73.6869 44.7499 73.6866C44.7576 73.6863 44.7653 73.6876 44.7725 73.6906C46.0231 74.0167 47.615 75.8009 47.8764 77.6995C47.8777 77.7138 47.8735 77.7279 47.8646 77.7392C47.8558 77.7504 47.843 77.7579 47.8289 77.76H47.8246Z" fill="#FAFAFA"/>
<path d="M62.0719 80.0842C62.1475 79.9757 62.2161 79.8624 62.2771 79.7451C62.2944 79.7148 62.3095 79.6846 62.3247 79.6522C62.3727 79.5556 62.4145 79.456 62.4499 79.3541L62.4845 79.2612C62.5245 79.1375 62.5563 79.0112 62.5795 78.8832C62.6001 78.7553 62.6109 78.6261 62.6119 78.4966C62.6119 78.4599 62.6119 78.421 62.6119 78.3821C62.6101 78.2925 62.6029 78.203 62.5903 78.1143C62.5903 78.0667 62.5774 78.0214 62.5687 77.9739C62.5515 77.8896 62.5299 77.8032 62.5039 77.7168C62.491 77.6758 62.4802 77.6326 62.4651 77.5894C62.4234 77.4664 62.3728 77.3465 62.3139 77.2308C62.2944 77.1919 62.2707 77.1574 62.2491 77.1185C62.2031 77.0324 62.1527 76.9487 62.0979 76.8679L61.9899 76.7189C61.9618 76.6822 61.9402 76.6455 61.9099 76.6087L61.776 76.464L61.7047 76.3841C60.8694 75.4241 59.8379 74.6545 58.6798 74.1271C57.5217 73.5997 56.264 73.3268 54.9915 73.3268C53.7189 73.3268 52.4612 73.5997 51.3031 74.1271C50.145 74.6545 49.1135 75.4241 48.2782 76.3841L48.2199 76.4489C48.1745 76.5029 48.1291 76.5569 48.0859 76.6044C48.0427 76.6519 48.0298 76.6822 48.0017 76.7211C47.9736 76.7599 47.9326 76.8118 47.9023 76.8593C47.8419 76.9479 47.7879 77.0386 47.736 77.1293C47.7209 77.1617 47.6993 77.1919 47.6842 77.2222C47.6238 77.3408 47.5718 77.4635 47.5287 77.5894C47.5157 77.6261 47.5071 77.665 47.4963 77.7017C47.4684 77.7919 47.4453 77.8834 47.4271 77.976C47.4271 78.0192 47.412 78.0603 47.4055 78.1035C47.3926 78.1985 47.3861 78.2935 47.3818 78.3886C47.3818 78.4231 47.3818 78.4555 47.3818 78.4879C47.3872 78.7549 47.4338 79.0193 47.52 79.272C47.52 79.2979 47.5395 79.326 47.5481 79.3541C47.5868 79.4602 47.6316 79.5641 47.682 79.6651L47.7209 79.7472C47.7856 79.8703 47.8577 79.9893 47.9369 80.1036C47.9358 80.1086 47.9358 80.1138 47.9369 80.1187C48.0314 80.2522 48.1339 80.3798 48.2436 80.5011L48.2674 80.5248C48.3696 80.6343 48.4798 80.7423 48.5979 80.8488L48.6821 80.9201C48.7901 81.013 48.8981 81.1037 49.0277 81.1923C49.0579 81.2139 49.086 81.2376 49.1184 81.2592C49.2718 81.3672 49.4338 81.4752 49.6109 81.5746C52.5809 83.2918 57.4085 83.2918 60.3785 81.5746C60.5535 81.4731 60.7133 81.3694 60.8667 81.2614C60.9034 81.2376 60.9336 81.2117 60.9682 81.1879C61.087 81.1015 61.1971 81.0151 61.303 80.9244L61.3959 80.8445C61.5069 80.7463 61.6129 80.6425 61.7134 80.5335L61.7479 80.4989C61.8563 80.3799 61.9572 80.2543 62.0503 80.1231L62.0719 80.0842Z" fill="#006D77"/>
<g style="mix-blend-mode:multiply" opacity="0.2">
<path d="M62.0719 80.0842C62.1475 79.9757 62.2161 79.8624 62.2771 79.7451C62.2944 79.7148 62.3095 79.6846 62.3247 79.6522C62.3727 79.5556 62.4145 79.456 62.4499 79.3541L62.4845 79.2612C62.5245 79.1375 62.5563 79.0112 62.5795 78.8832C62.6001 78.7553 62.6109 78.6261 62.6119 78.4966C62.6119 78.4599 62.6119 78.421 62.6119 78.3821C62.6101 78.2925 62.6029 78.203 62.5903 78.1143C62.5903 78.0667 62.5774 78.0214 62.5687 77.9739C62.5515 77.8896 62.5299 77.8032 62.5039 77.7168C62.491 77.6758 62.4802 77.6326 62.4651 77.5894C62.4234 77.4664 62.3728 77.3465 62.3139 77.2308C62.2944 77.1919 62.2707 77.1574 62.2491 77.1185C62.2031 77.0324 62.1527 76.9487 62.0979 76.8679L61.9899 76.7189C61.9618 76.6822 61.9402 76.6455 61.9099 76.6087L61.776 76.464L61.7047 76.3841C60.8694 75.4241 59.8379 74.6545 58.6798 74.1271C57.5217 73.5997 56.264 73.3268 54.9915 73.3268C53.7189 73.3268 52.4612 73.5997 51.3031 74.1271C50.145 74.6545 49.1135 75.4241 48.2782 76.3841L48.2199 76.4489C48.1745 76.5029 48.1291 76.5569 48.0859 76.6044C48.0427 76.6519 48.0298 76.6822 48.0017 76.7211C47.9736 76.7599 47.9326 76.8118 47.9023 76.8593C47.8419 76.9479 47.7879 77.0386 47.736 77.1293C47.7209 77.1617 47.6993 77.1919 47.6842 77.2222C47.6238 77.3408 47.5718 77.4635 47.5287 77.5894C47.5157 77.6261 47.5071 77.665 47.4963 77.7017C47.4684 77.7919 47.4453 77.8834 47.4271 77.976C47.4271 78.0192 47.412 78.0603 47.4055 78.1035C47.3926 78.1985 47.3861 78.2935 47.3818 78.3886C47.3818 78.4231 47.3818 78.4555 47.3818 78.4879C47.3872 78.7549 47.4338 79.0193 47.52 79.272C47.52 79.2979 47.5395 79.326 47.5481 79.3541C47.5868 79.4602 47.6316 79.5641 47.682 79.6651L47.7209 79.7472C47.7856 79.8703 47.8577 79.9893 47.9369 80.1036C47.9358 80.1086 47.9358 80.1138 47.9369 80.1187C48.0314 80.2522 48.1339 80.3798 48.2436 80.5011L48.2674 80.5248C48.3696 80.6343 48.4798 80.7423 48.5979 80.8488L48.6821 80.9201C48.7901 81.013 48.8981 81.1037 49.0277 81.1923C49.0579 81.2139 49.086 81.2376 49.1184 81.2592C49.2718 81.3672 49.4338 81.4752 49.6109 81.5746C52.5809 83.2918 57.4085 83.2918 60.3785 81.5746C60.5535 81.4731 60.7133 81.3694 60.8667 81.2614C60.9034 81.2376 60.9336 81.2117 60.9682 81.1879C61.087 81.1015 61.1971 81.0151 61.303 80.9244L61.3959 80.8445C61.5069 80.7463 61.6129 80.6425 61.7134 80.5335L61.7479 80.4989C61.8563 80.3799 61.9572 80.2543 62.0503 80.1231L62.0719 80.0842Z" fill="black"/>
</g>
<g opacity="0.5">
<path d="M56.16 75.7663C55.836 75.8484 56.4754 77.0407 57.1644 79.1575C57.5273 80.2764 57.7217 81.8813 59.5404 80.9892C61.2187 80.1662 59.8126 78.2287 58.5122 76.991C57.3588 75.8894 56.5078 75.6778 56.16 75.7663Z" fill="#006D77"/>
<path d="M56.4602 75.0362C56.6309 75.1248 57.6828 75.263 59.3762 76.8442C60.2856 77.6952 60.9962 78.7709 61.3354 78.9091C61.6745 79.0474 61.9099 77.5591 61.3354 76.8161C60.6228 75.9002 59.6569 75.2137 58.5576 74.8418C57.3847 74.4898 56.1773 74.8894 56.4602 75.0362Z" fill="#006D77"/>
<path d="M54.9958 82.0519C53.2483 82.0519 52.9524 81.7365 53.6263 78.9177C53.9806 77.4295 54.7063 75.9348 54.9958 75.9348C55.2852 75.9348 56.011 77.4295 56.3674 78.9177C57.0413 81.7365 56.7454 82.0519 54.9958 82.0519Z" fill="#006D77"/>
<path d="M53.8337 75.7663C54.1577 75.8484 53.5183 77.0407 52.8293 79.1575C52.4664 80.2764 52.272 81.8813 50.4533 80.9892C48.775 80.1662 50.1811 78.2287 51.4814 76.991C52.6349 75.8894 53.4859 75.6778 53.8337 75.7663Z" fill="#006D77"/>
<path d="M53.5313 75.0362C53.3628 75.1248 52.3109 75.263 50.6174 76.8442C49.7081 77.6952 48.9974 78.7709 48.6583 78.9091C48.3192 79.0474 48.0838 77.5591 48.6583 76.8161C49.3705 75.8997 50.3365 75.2131 51.4361 74.8418C52.609 74.4898 53.8164 74.8894 53.5313 75.0362Z" fill="#006D77"/>
</g>
<path d="M54.9958 66.8628C54.7926 66.8595 54.592 66.9078 54.4126 67.0032C54.3532 67.0317 54.3011 67.0733 54.2603 67.125C54.2195 67.1767 54.1911 67.237 54.1771 67.3013C54.0302 70.7897 53.7581 72.4853 52.6435 74.3321C52.6435 74.6799 52.8725 75.0276 53.3347 75.2933C53.8463 75.5672 54.4199 75.7049 55.0001 75.6929C55.581 75.7051 56.1553 75.5675 56.6676 75.2933C57.1298 75.0276 57.3588 74.6799 57.3588 74.3321C56.2442 72.4788 55.9721 70.7897 55.8252 67.3013C55.8113 67.237 55.7828 67.1767 55.742 67.125C55.7012 67.0733 55.6491 67.0317 55.5898 67.0032C55.4071 66.9061 55.2025 66.8578 54.9958 66.8628Z" fill="#006D77"/>
<g style="mix-blend-mode:multiply" opacity="0.3">
<path d="M54.9958 66.8628C54.7926 66.8595 54.592 66.9078 54.4126 67.0032C54.3532 67.0317 54.3011 67.0733 54.2603 67.125C54.2195 67.1767 54.1911 67.237 54.1771 67.3013C54.0302 70.7897 53.7581 72.4853 52.6435 74.3321C52.6435 74.6799 52.8725 75.0276 53.3347 75.2933C53.8463 75.5672 54.4199 75.7049 55.0001 75.6929C55.581 75.7051 56.1553 75.5675 56.6676 75.2933C57.1298 75.0276 57.3588 74.6799 57.3588 74.3321C56.2442 72.4788 55.9721 70.7897 55.8252 67.3013C55.8113 67.237 55.7828 67.1767 55.742 67.125C55.7012 67.0733 55.6491 67.0317 55.5898 67.0032C55.4071 66.9061 55.2025 66.8578 54.9958 66.8628Z" fill="black"/>
</g>
<g style="mix-blend-mode:multiply" opacity="0.15">
<path d="M55.836 67.6555C55.2766 67.6771 54.7171 67.6771 54.1577 67.6555C54.108 68.7485 54.0432 69.8155 53.9417 70.8221C54.6415 70.8091 55.3406 70.7674 56.039 70.6968C55.944 69.7313 55.8835 68.7053 55.836 67.6555Z" fill="black"/>
</g>
<g style="mix-blend-mode:multiply" opacity="0.15">
<path d="M50.7384 80.5226C48.263 78.9739 48.438 76.2026 50.0796 74.7986C49.4114 75.2423 48.8062 75.7741 48.2803 76.3798L48.222 76.4446C48.1766 76.4986 48.1313 76.5526 48.0881 76.6001C48.0449 76.6476 48.0319 76.6778 48.0038 76.7167C47.9758 76.7556 47.9347 76.8074 47.9045 76.855C47.844 76.9435 47.79 77.0342 47.7382 77.125C47.723 77.1574 47.7014 77.1876 47.6863 77.2178C47.6259 77.3364 47.5739 77.4591 47.5308 77.585C47.5178 77.6218 47.5092 77.6606 47.4962 77.6974C47.4703 77.7902 47.4466 77.881 47.4293 77.9717C47.4293 78.0149 47.4142 78.0559 47.4077 78.0991C47.3947 78.1942 47.3882 78.2892 47.3839 78.3842C47.3839 78.4188 47.3839 78.4512 47.3839 78.4836C47.3882 78.7519 47.4341 79.0178 47.52 79.272C47.52 79.2979 47.5394 79.326 47.5481 79.3541C47.5868 79.4602 47.6315 79.5641 47.682 79.6651L47.7209 79.7472C47.7856 79.8703 47.8577 79.9893 47.9369 80.1036C47.9358 80.1086 47.9358 80.1137 47.9369 80.1187C48.0314 80.2522 48.1338 80.3798 48.2436 80.501L48.2674 80.5248C48.3696 80.6342 48.4798 80.7422 48.5978 80.8488L48.6821 80.9201C48.7901 81.013 48.8981 81.1037 49.0277 81.1922C49.0579 81.2138 49.086 81.2376 49.1184 81.2592C49.2718 81.3672 49.4338 81.4752 49.6109 81.5746C52.5809 83.2918 57.4085 83.2918 60.3785 81.5746C60.5534 81.473 60.7133 81.3694 60.8666 81.2614C60.9034 81.2376 60.9336 81.2117 60.9682 81.1879C61.087 81.1015 61.1971 81.0151 61.303 80.9244L61.3958 80.8445C61.5069 80.7463 61.6129 80.6425 61.7133 80.5334L61.7479 80.4989C58.657 82.687 53.2159 82.08 50.7384 80.5226Z" fill="black"/>
</g>
<path d="M72.0446 58.104C69.7999 60.3479 67.1352 62.1276 64.2027 63.3417C61.2702 64.5557 58.1273 65.1802 54.9534 65.1796C48.5434 65.1784 42.3965 62.6309 37.8648 58.0975C33.3331 53.5641 30.7879 47.4162 30.7892 41.0063C30.7904 34.5963 33.3379 28.4494 37.8713 23.9177L36.3118 22.3603C25.4448 33.2273 24.408 49.8161 35.2814 60.683C46.1549 71.55 62.7134 70.5067 73.5912 59.6398L72.0446 58.104Z" fill="#37474F"/>
<path d="M34.6507 24.1596L36.2275 25.7364C36.7447 25.103 37.2933 24.496 37.8713 23.9177L36.3118 22.3603C35.7286 22.9435 35.1749 23.5433 34.6507 24.1596Z" fill="#263238"/>
<path d="M72.0446 58.104C71.4713 58.6776 70.8693 59.2219 70.241 59.7348L71.807 61.3008C72.4161 60.7781 73.0109 60.228 73.5912 59.6506L72.0446 58.104Z" fill="#263238"/>
<path d="M28.6438 43.375C29.3414 49.0882 31.3978 55.7215 36.9338 60.5859C41.6513 64.7287 48.8657 69.1265 59.9746 67.4979C51.3907 69.6708 42.1848 67.5821 35.2814 60.6787C24.7363 50.1336 25.3951 34.2079 35.37 23.3431C34.9596 23.8378 27.3845 33.0739 28.6438 43.375Z" fill="#455A64"/>
<path d="M74.4531 61.8581C74.7243 61.8587 74.9897 61.7787 75.2154 61.6282C75.4412 61.4778 75.6172 61.2637 75.7211 61.0131C75.825 60.7625 75.8521 60.4867 75.799 60.2207C75.7459 59.9546 75.615 59.7103 75.4229 59.5188L36.4306 20.5546C36.1728 20.2968 35.8231 20.1519 35.4586 20.1519C35.094 20.1519 34.7444 20.2968 34.4866 20.5546C34.2288 20.8124 34.084 21.162 34.084 21.5266C34.084 21.8911 34.2288 22.2408 34.4866 22.4986L73.4832 61.4585C73.741 61.7145 74.0897 61.8582 74.4531 61.8581Z" fill="#37474F"/>
<path d="M36.4306 20.5546L75.4229 59.5188C75.6079 59.7049 75.7357 59.9401 75.7912 60.1966C75.8467 60.4531 75.8275 60.72 75.7361 60.966C75.4973 61.0473 75.2404 61.0595 74.995 61.001C74.7496 60.9425 74.5258 60.8158 74.3494 60.6355L35.357 21.6713C35.1716 21.4854 35.0435 21.2502 34.988 20.9937C34.9325 20.7371 34.9518 20.4699 35.0438 20.2241C35.283 20.146 35.5391 20.1356 35.7838 20.1939C36.0285 20.2522 36.2523 20.377 36.4306 20.5546Z" fill="#455A64"/>
<path d="M32.5598 41.0076C32.5604 46.0188 34.2413 50.885 37.3338 54.8281C40.4263 58.7712 44.7517 61.5635 49.6184 62.7583C54.485 63.9531 59.6117 63.4815 64.1787 61.4189C68.7457 59.3562 72.4891 55.8217 74.8103 51.3806C77.1315 46.9395 77.8965 41.8482 76.9828 36.9211C76.0691 31.9939 73.5296 27.5155 69.7704 24.2019C66.0112 20.8883 61.2494 18.9309 56.2465 18.6429C51.2436 18.3549 46.2887 19.7528 42.174 22.613C39.2062 24.6759 36.7817 27.4263 35.1075 30.6294C33.4334 33.8326 32.5593 37.3933 32.5598 41.0076Z" fill="#006D77"/>
<path opacity="0.5" d="M32.5598 41.0076C32.5604 46.0188 34.2413 50.885 37.3338 54.8281C40.4263 58.7712 44.7517 61.5635 49.6184 62.7583C54.485 63.9531 59.6117 63.4815 64.1787 61.4189C68.7457 59.3562 72.4891 55.8217 74.8103 51.3806C77.1315 46.9395 77.8965 41.8482 76.9828 36.9211C76.0691 31.9939 73.5296 27.5155 69.7704 24.2019C66.0112 20.8883 61.2494 18.9309 56.2465 18.6429C51.2436 18.3549 46.2887 19.7528 42.174 22.613C39.2062 24.6759 36.7817 27.4263 35.1075 30.6294C33.4334 33.8326 32.5593 37.3933 32.5598 41.0076Z" fill="white"/>
<path d="M59.575 22.2653C58.6159 21.9002 57.2616 21.749 57.929 22.6433C58.5965 23.5375 59.1408 23.814 58.8665 24.5182C58.5922 25.2223 57.8405 25.7753 57.8664 26.3628C57.8923 26.9503 58.0327 27.6782 58.4604 27.6588C58.8881 27.6394 60.3223 26.9266 60.8666 27.203C61.411 27.4795 63.301 28.337 63.8323 27.8186C64.3637 27.3002 64.6315 27.4601 65.3724 26.9438C66.1133 26.4276 66.4524 25.4858 65.9016 25.2569C65.3508 25.0279 65.1715 25.2374 64.2578 24.7925C63.3442 24.3475 63.1584 23.5526 62.1756 23.3496C61.1928 23.1466 60.277 22.5331 59.575 22.2653Z" fill="#455A64"/>
<path d="M55.944 21.0989C54.635 21.2436 52.0149 21.2026 51.0797 20.4898C50.6174 20.1334 50.0796 19.6755 49.464 19.2867C44.2295 20.6146 39.6485 23.7839 36.5602 28.2139C36.6012 28.8371 36.721 29.4525 36.9166 30.0456C37.3486 31.3416 38.1542 31.806 39.1176 32.4216C40.081 33.0372 39.5194 33.5016 39.785 34.3159C40.0507 35.1303 40.1263 35.5817 40.5821 36.1455C41.0378 36.7092 39.9946 37.0095 39.5021 37.5948C39.0096 38.1802 38.785 38.5258 38.7201 40.0853C38.6553 41.6448 39.6014 43.3123 39.8001 44.0079C39.9989 44.7034 39.0571 45.0382 38.7893 46.2175C38.5214 47.3969 37.2902 50.3215 37.692 52.3994C38.0938 54.4774 38.8066 54.5422 39.1673 53.3909C39.528 52.2396 39.5993 51.0408 40.5713 50.4619C41.5433 49.883 42.7745 50.6283 43.8329 49.2739C44.8913 47.9196 45.1461 48.1075 46.0641 47.8721C46.9822 47.6367 46.8439 47.0621 47.9758 46.1441C49.1076 45.2261 49.7513 44.1871 48.9715 43.3102C48.1918 42.4332 47.5243 42.2302 47.1485 40.7376C46.7266 39.1797 45.9835 37.7273 44.9669 36.4738C44.0208 35.3333 41.7809 35.3657 41.1026 34.8365C40.4244 34.3073 40.5259 32.6549 40.8002 32.1106C41.0746 31.5663 40.5648 31.1926 39.9578 31.1083C39.3509 31.0241 39.1867 30.5511 39.3293 29.7519C39.4718 28.9527 40.9925 28.4818 41.9515 28.7842C42.9106 29.0866 43.2475 29.7173 42.943 30.9917C42.8063 31.5001 42.8324 32.0386 43.0176 32.5314C43.2028 33.0242 43.5378 33.4466 43.9754 33.7392C44.7487 34.2965 44.5694 33.1884 44.2044 32.3352C43.8393 31.482 44.0208 30.9096 45.0187 29.7432C46.0166 28.5768 47.1053 29.1341 48.4423 28.2312C49.7794 27.3283 49.5698 28.3263 50.3712 28.7885C51.1726 29.2507 51.2352 28.7431 51.853 28.0951C52.4707 27.4471 53.2915 28.5466 54.432 28.2723C55.5725 27.9979 54.1101 26.2764 54.5724 25.4643C55.0346 24.6521 55.8684 25.0323 55.9073 23.5699C55.9461 22.1076 56.6157 22.3171 57.1428 21.9759C57.6698 21.6346 57.24 20.952 55.944 21.0989ZM53.4406 23.706C52.9092 24.2223 52.7148 24.0041 51.9782 24.5095C51.2417 25.015 50.369 25.11 49.8809 24.9804C49.3927 24.8508 48.9607 23.719 49.1249 23.1919C49.289 22.6649 50.0904 22.8096 50.9674 23.0343C51.8443 23.2589 52.6954 23.1811 53.6976 22.8917C54.4774 22.6606 53.9654 23.1898 53.4341 23.706H53.4406Z" fill="#455A64"/>
<path d="M76.3214 47.736L76.3042 47.7965C76.0888 47.7949 75.8753 47.8374 75.677 47.9213C75.4786 48.0053 75.2995 48.1289 75.1507 48.2846C74.2154 49.2545 74.3321 48.7166 72.9065 49.0536C71.4809 49.3906 71.6558 50.1876 71.3945 50.9976C71.1331 51.8076 69.4937 52.1921 68.7463 52.218C67.9989 52.2439 66.9967 53.933 66.8542 54.8899C66.7116 55.8468 65.5214 55.7863 64.5602 56.3285C63.599 56.8706 62.6983 58.0565 62.0222 58.5317C61.6915 58.7711 61.2987 58.9099 60.891 58.9314C60.4832 58.9528 60.078 58.856 59.724 58.6526C59.0155 58.2206 58.8146 56.6806 58.8406 55.4256C58.8548 54.145 59.2291 52.8942 59.9206 51.8162C60.6312 50.7254 60.4886 50.8378 60.9487 48.8743C61.4088 46.9109 60.3223 45.8352 59.6786 45.3708C59.035 44.9064 57.6849 44.8481 57.1968 44.2217C56.7086 43.5953 56.6503 42.9451 56.9354 41.0335C57.2205 39.1219 58.2314 39.0722 59.2898 38.4026C60.3482 37.733 62.0654 37.2751 63.3938 37.4242C64.7222 37.5732 65.4069 38.2147 65.9858 38.8735C66.5647 39.5323 66.5863 40.4827 67.0831 40.7462C67.5799 41.0098 68.135 40.919 68.6167 41.2279C69.0984 41.5368 69.3446 41.9299 69.8846 42.0466C70.4246 42.1632 70.3382 41.4526 70.3944 41.1005C70.4505 40.7484 69.9624 40.649 69.3511 40.4006C68.7398 40.1522 68.6578 39.9233 68.6016 39.433C68.5454 38.9426 68.0573 39.1565 67.8305 38.8735C67.6037 38.5906 67.3617 39.3595 67.2213 39.636C67.0809 39.9125 67.0593 39.3163 67.0593 39.3163C67.0593 39.3163 66.6511 39.6101 66.6144 39.3854C66.5777 39.1608 67.001 38.826 67.1457 38.3659C67.2905 37.9058 66.6036 37.7525 66.3379 37.247C66.0722 36.7416 65.5322 36.4673 64.9102 36.4306C64.2881 36.3938 64.2406 36.2146 63.8042 36.6077C63.3679 37.0008 62.0417 36.8431 61.6896 36.6293C61.3375 36.4154 61.9056 35.7502 62.5082 35.2015C63.1109 34.6529 63.6811 35.1475 64.3723 34.6291C65.0635 34.1107 64.5321 33.7846 64.193 33.5189C63.8539 33.2532 63.882 32.8406 64.625 32.1278C65.3681 31.415 65.813 31.8686 65.8692 32.3611C65.9254 32.8536 66.3271 33.2446 66.8433 33.4562C67.3596 33.6679 67.379 33.2575 67.6663 32.5058C67.9536 31.7542 68.459 31.4906 69.2517 31.4777C70.0445 31.4647 71.3664 31.4561 71.9669 31.225C72.5673 30.9938 73.2283 31.5662 73.4594 32.1667C73.6905 32.7672 74.5265 33.2921 75.4034 33.8321C75.5175 33.8993 75.6458 33.9387 75.7779 33.947C75.91 33.9552 76.0422 33.9321 76.1637 33.8796C77.6869 38.3644 77.7421 43.2177 76.3214 47.736Z" fill="#455A64"/>
<path d="M68.3337 56.3998C67.8607 56.1103 67.8391 56.2961 67.3833 56.5747C66.9276 56.8534 66.3034 57.1342 66.2234 57.5791C66.1435 58.0241 65.9707 58.5533 66.4394 58.387C66.9082 58.2206 66.9362 57.8059 67.5194 57.78C68.1026 57.7541 69.0401 56.8318 68.3337 56.3998Z" fill="#455A64"/>
<path opacity="0.1" d="M67.7506 24.745C56.039 15.6211 49.9522 23.665 54.6934 32.1581C59.4346 40.6512 70.7141 47.3451 73.8374 44.2541C76.9608 41.1631 76.464 31.536 67.7506 24.745Z" fill="white"/>
<path opacity="0.15" d="M45.144 49.1659C38.232 36.6012 45.1159 20.3364 56.2594 18.6495C55.8274 18.6235 55.3954 18.6063 54.9634 18.6063C51.2723 18.6057 47.6383 19.5174 44.3846 21.2603C41.1309 23.0032 38.3584 25.5232 36.3137 28.5961C34.269 31.6691 33.0154 35.1998 32.6645 38.8741C32.3136 42.5485 32.8763 46.2526 34.3024 49.657C35.7286 53.0615 37.974 56.0606 40.839 58.3878C43.704 60.715 47.0998 62.298 50.7242 62.9961C54.3487 63.6942 58.0895 63.4857 61.6139 62.3891C65.1383 61.2926 68.3371 59.342 70.9258 56.7108C66.4006 59.5815 52.056 61.722 45.144 49.1659Z" fill="black"/>
<path d="M89.91 79.2957C89.9495 79.2203 89.9778 79.1395 89.9942 79.056C90.0421 78.7856 90.002 78.507 89.8798 78.2611C89.7392 77.964 89.6739 77.6368 89.6897 77.3085C89.7048 76.9673 89.7458 76.6605 89.7977 76.2977C90.0137 74.7662 90.4457 72.2412 90.463 71.6385C90.4889 70.6104 90.4889 70.1028 90.2966 69.2949C90.2966 69.2949 91.0116 66.9621 91.314 65.6229C91.7957 63.4997 92.1197 61.8537 91.949 60.0069C91.7957 58.3416 91.9771 57.6309 91.0051 56.5185L90.8237 56.2874C90.8237 56.2874 87.4498 59.9162 87.2575 60.5448C87.1409 62.6076 87.0674 65.0808 87.0026 67.0248C86.9508 68.6383 87.0156 68.8565 87.2014 70.7508C87.3569 72.3125 87.5146 74.0383 87.7003 75.8721C87.7608 76.4532 87.8062 77.1487 87.6226 77.7125C87.2424 78.8745 86.1775 79.5636 85.279 80.3045C85.192 80.358 85.1173 80.4294 85.06 80.5139C85.0026 80.5984 84.9639 80.6942 84.9463 80.7948C84.9509 80.8826 84.9792 80.9676 85.0283 81.0407C85.0773 81.1137 85.1453 81.1721 85.225 81.2095C85.4185 81.2906 85.6245 81.3381 85.8341 81.3499C86.057 81.3966 86.2848 81.4155 86.5123 81.4061C86.9095 81.395 87.3022 81.3183 87.6744 81.1793C87.9898 81.0281 88.223 80.6652 88.4714 80.4146C88.6814 80.1624 88.9207 79.9362 89.1842 79.7407C89.4089 79.6025 89.7696 79.5463 89.91 79.2957Z" fill="#FFA8A7"/>
<path d="M84.8729 80.9481C84.8491 81.0963 84.8749 81.2482 84.9463 81.3801C85.0587 81.5205 85.4734 81.8921 86.5426 81.8489C87.5707 81.8057 88.1712 81.3132 88.3829 81.0389C88.5946 80.7645 88.7868 80.4924 88.9963 80.2699C89.1981 80.0884 89.4391 79.9561 89.7005 79.8833C89.9035 79.8185 89.9597 79.745 89.9403 79.4513C89.8776 79.1813 84.8729 80.9481 84.8729 80.9481Z" fill="#37474F"/>
<path d="M89.6875 77.3863C89.6843 77.4475 89.6843 77.5087 89.6875 77.5699C89.6875 77.5699 89.7048 77.9868 89.4305 78.0818C89.1086 78.1985 89.1302 77.9609 88.8862 77.7665C88.3526 77.3453 87.7046 77.3798 87.5491 77.7384C87.2278 78.3246 86.8265 78.8632 86.3568 79.3389C86.1462 79.5419 85.9202 79.7282 85.6807 79.8962C85.4237 80.0798 84.7951 80.4103 84.8578 80.8164C84.9204 81.2225 85.3006 81.4449 85.8168 81.5292C86.5167 81.6341 87.2312 81.4928 87.8386 81.1296C88.3138 80.8207 88.7263 80.2224 88.9034 80.0496C89.2253 79.7321 89.7437 79.6651 89.9078 79.5053C90.0566 79.2219 90.0973 78.8941 90.0223 78.5829C89.9575 78.2201 89.8625 77.8961 89.8495 77.7189C89.8366 77.5418 89.815 77.4014 89.6875 77.3863Z" fill="#455A64"/>
<path d="M86.4799 79.866C86.2569 79.7934 86.0193 79.7778 85.7887 79.8206C85.7212 79.8272 85.6568 79.8527 85.603 79.8941C85.3459 80.0777 84.7735 80.3995 84.8362 80.8056C84.8988 81.2117 85.2682 81.4536 85.7823 81.5421C86.2575 81.6221 87.0912 81.6156 87.6787 81.2225C87.6342 80.9036 87.4967 80.605 87.2835 80.3638C87.0704 80.1225 86.7909 79.9494 86.4799 79.866Z" fill="#F0F0F0"/>
<path d="M99.5609 77.7967C99.4896 77.5992 99.3683 77.4236 99.2088 77.287C99.0382 77.1271 98.8481 76.991 98.6947 76.8161C98.568 76.636 98.469 76.438 98.401 76.2286C98.3491 76.1033 98.2217 75.6821 98.0597 75.1226C97.6277 73.6366 96.9387 71.1698 96.6989 70.6147C96.2907 69.673 95.8911 69.0638 95.377 68.6383C95.377 68.6383 95.256 66.0658 95.2085 64.7028C95.1394 62.6875 94.9039 60.5146 93.9341 59.1062C92.9837 57.7303 92.1759 57.2854 90.8237 56.6827L90.5623 56.5488C90.5623 56.5488 90.1087 62.9078 90.3895 62.6314C90.7481 64.2751 91.2233 66.204 91.6186 67.891C91.975 69.4138 92.07 69.6946 93.1306 71.3016C93.9946 72.6127 95.0163 74.1744 95.958 75.7598C96.3663 76.4489 96.822 77.3734 96.9171 78.1877C97.039 79.2891 96.7464 80.3964 96.0963 81.2938C95.9976 81.3962 95.9353 81.5283 95.9191 81.6696C95.9191 81.8662 96.1351 81.9936 96.3187 82.0584C96.7817 82.2121 97.284 82.1983 97.7379 82.0195C98.1192 81.8649 98.4443 81.5976 98.6697 81.2533C98.8951 80.909 99.0101 80.5042 98.9993 80.0928C98.955 79.6259 99.0473 79.1561 99.265 78.7406C99.3967 78.5095 99.5803 78.287 99.5933 78.0192C99.5955 77.9437 99.5846 77.8684 99.5609 77.7967Z" fill="#FFA8A7"/>
<path d="M95.9234 82.0951C95.9538 82.2138 96.0172 82.3214 96.1063 82.4055C96.1954 82.4896 96.3065 82.5468 96.4267 82.5703C96.7513 82.6376 97.0863 82.6362 97.4103 82.5663C97.7344 82.4964 98.0402 82.3594 98.3081 82.1642C99.1181 81.5832 99.2239 81.1015 99.2606 80.6652C99.2974 80.2289 99.1721 79.6046 99.3233 79.2763C99.4745 78.948 99.6689 78.732 99.7229 78.4836C99.7459 78.282 99.7245 78.0777 99.6602 77.8853L95.9234 82.0951Z" fill="#37474F"/>
<path d="M98.6947 76.8161C98.6947 76.8161 98.7811 76.963 98.7984 77.0083C98.8684 77.1382 98.8893 77.289 98.8571 77.433C98.825 77.577 98.742 77.7046 98.6234 77.7924C98.4982 77.9004 98.226 77.7924 97.9949 77.7665C97.7831 77.7464 97.5697 77.7778 97.3726 77.8579C97.1756 77.938 97.0008 78.0645 96.863 78.2266C96.8868 78.9653 96.9041 79.4038 96.6989 79.9999C96.5569 80.3098 96.3908 80.6081 96.2021 80.892C96.0034 81.1469 95.6513 81.5616 95.8349 81.9288C95.937 82.1003 96.1008 82.2263 96.2928 82.2809C96.6054 82.3649 96.9323 82.381 97.2516 82.3281C97.5709 82.2752 97.8752 82.1545 98.1439 81.9742C98.4124 81.8147 98.6378 81.592 98.8005 81.3254C98.9631 81.0589 99.0581 80.7566 99.077 80.4449C99.1397 79.9546 99.0317 79.434 99.2153 79.0733C99.3989 78.7126 99.6473 78.5873 99.7121 78.0926C99.715 77.977 99.6911 77.8623 99.6424 77.7574C99.5937 77.6525 99.5215 77.5602 99.4313 77.4878C99.0338 77.112 98.8071 76.667 98.6947 76.8161Z" fill="#455A64"/>
<path d="M98.2087 80.8855C97.9433 80.6631 97.6135 80.5318 97.2678 80.5108C96.9222 80.4898 96.5789 80.5802 96.2885 80.7689C96.2427 80.8104 96.2008 80.8559 96.1632 80.9049C95.9645 81.1598 95.6124 81.5529 95.796 81.918C95.8412 82.0118 95.907 82.0942 95.9885 82.1589C96.0701 82.2236 96.1653 82.269 96.2669 82.2917C96.5846 82.3723 96.9157 82.3858 97.2389 82.3311C97.5622 82.2764 97.8704 82.1548 98.1439 81.9741C98.3016 81.8713 98.4466 81.7502 98.5759 81.6134L98.591 81.5961V81.5832C98.5366 81.3175 98.4034 81.0744 98.2087 80.8855Z" fill="#F0F0F0"/>
<path d="M87.2078 60.7305C87.0415 63.2448 86.9184 66.4805 86.9184 66.4805C86.9184 66.4805 87.4951 67.1285 89.1022 67.2429C90.7092 67.3574 90.9986 67.2429 90.9986 67.2429L91.1844 66.5841L91.368 67.392C91.368 67.392 92.0678 67.6685 93.5928 67.392C95.3035 67.0809 95.5368 66.4308 95.5368 66.4308C95.5368 66.4308 95.5044 63.9144 95.3813 62.5428C95.2582 61.1712 94.325 58.9075 94.325 58.9075L87.2078 60.7305Z" fill="#455A64"/>
<path d="M91.1844 66.5842L90.6336 64.2967C90.0654 64.2927 89.5066 64.1512 89.005 63.8842C89.005 63.8842 89.3506 64.571 90.4284 64.7093L90.9555 66.5842L90.9987 67.243L91.1844 66.5842Z" fill="#37474F"/>
<path d="M83.214 46.2499L84.456 49.6303C84.456 49.6303 87.858 51.3345 89.424 51.9415C88.938 52.2741 88.601 52.7407 88.2165 53.6587L87.912 54.5767C87.912 54.5767 84.8621 52.8487 83.1233 51.611C82.3327 51.0451 82.2117 50.4921 82.0778 49.896C81.9158 49.1681 81.8359 48.7425 81.5961 47.4012C81.5378 47.0642 81.4773 46.7532 81.419 46.4659C81.3121 45.9847 81.1794 45.5095 81.0216 45.0425C80.8768 44.5835 80.829 44.0995 80.8812 43.6212C80.8777 43.2466 81.0024 42.8822 81.2346 42.5883C81.4669 42.2944 81.7926 42.0888 82.1577 42.0055C82.2506 41.9646 82.3548 41.9569 82.4527 41.9837C82.5506 42.0104 82.6364 42.07 82.6956 42.1524C82.7385 42.2607 82.7505 42.3789 82.7301 42.4937C82.6934 42.9797 82.6113 43.4765 82.7301 43.9495C82.7332 43.9804 82.7429 44.0103 82.7585 44.0372C82.7742 44.064 82.7954 44.0871 82.8209 44.105C82.9245 44.159 83.0779 43.7832 83.1513 43.7054C83.217 43.6171 83.314 43.5572 83.4224 43.5379C83.5308 43.5186 83.6424 43.5415 83.7345 43.6017C83.8101 43.6601 83.6481 43.8329 83.5531 44.2044C83.4343 44.6796 83.5099 45.0684 83.2593 45.5349C83.2041 45.6449 83.1717 45.765 83.1639 45.8878C83.1561 46.0106 83.1731 46.1338 83.214 46.2499Z" fill="#FFA8A7"/>
<path d="M89.3074 51.7881L86.7154 50.7384C86.7154 50.7384 86.2553 50.7384 85.7131 51.6607C85.5546 51.9328 85.4518 52.2338 85.4106 52.546C85.3695 52.8582 85.3908 53.1755 85.4734 53.4794L87.7306 54.7754L89.3074 51.7881Z" fill="#455A64"/>
<path d="M93.8585 52.272C94.5389 52.3929 94.8607 52.9308 95.0098 53.6047C95.0832 53.9417 95.0422 54.3413 94.945 55.0497C94.8478 55.7582 94.392 58.8708 94.392 58.8708L95.1998 61.2813C94.1047 62.4715 89.5061 63.4413 87.115 61.6831C87.115 61.6831 87.3137 55.6481 87.493 54.4449C87.7349 52.8141 88.3397 51.9739 89.0741 51.8076C89.2826 51.782 89.493 51.7762 89.7026 51.7903L92.3681 51.9372L93.8585 52.272Z" fill="#006D77"/>
<path d="M95.3122 62.0913L95.7182 58.5122C95.7182 58.5122 94.7851 57.2162 93.811 55.8705C92.6813 54.0583 94.0572 52.3238 94.0572 52.3238C95.4418 52.5636 95.3964 53.4038 97.7918 57.3372C98.2973 58.1666 98.2238 58.2012 97.9582 59.3373C97.794 60.0653 97.6622 60.4757 97.2756 61.7846C97.1784 62.1108 97.092 62.4175 97.0164 62.6983C96.8978 63.1768 96.8048 63.6614 96.7378 64.1498C96.6613 64.6251 96.4878 65.0795 96.228 65.4847C96.0574 65.7906 95.8084 66.0456 95.5066 66.2234C95.1475 66.3805 94.7501 66.4285 94.3639 66.3617C94.2644 66.3537 94.1705 66.3125 94.0973 66.2447C94.024 66.177 93.9757 66.0865 93.96 65.988C93.9686 65.8713 94.0106 65.7596 94.081 65.6661C94.3294 65.2493 94.6253 64.841 94.729 64.3701C94.7398 64.3411 94.7442 64.31 94.742 64.2791C94.7398 64.2482 94.7309 64.2181 94.716 64.1909C94.649 64.098 94.3423 64.3658 94.243 64.4069C94.1447 64.4573 94.0308 64.4682 93.9247 64.4373C93.8187 64.4063 93.7285 64.3359 93.6727 64.2405C93.6338 64.1541 93.8563 64.0721 94.1047 63.7805C94.4244 63.4089 94.5367 63.0288 94.9687 62.7242C95.0651 62.6468 95.1451 62.551 95.2041 62.4423C95.2631 62.3337 95.2998 62.2143 95.3122 62.0913Z" fill="#FFA8A7"/>
<path d="M93.8585 52.272C94.3682 52.3411 94.6642 52.4016 95.04 52.7537C95.3907 53.096 95.6826 53.4937 95.904 53.9309L96.8717 55.6438C96.8717 55.6438 96.6557 56.8015 94.8046 57.3264C94.8046 57.3264 93.5086 55.6351 93.3725 55.3586C93.2364 55.0822 92.5819 53.2915 93.8585 52.272Z" fill="#455A64"/>
<path d="M92.5063 51.1077C93.1025 50.2049 94.0032 50.1725 94.7916 48.7641C95.6405 47.2521 94.5173 45.6105 94.1285 45.3319C94.1285 45.3319 94.0982 44.5241 92.9815 43.8588C91.5861 43.025 88.7306 43.2108 87.4908 45.2001L92.5063 51.1077Z" fill="#37474F"/>
<path d="M94.0378 45.2606C94.783 44.5133 95.7658 44.3966 96.6298 45.0835C97.6536 45.8957 97.5067 48.2501 98.9151 48.6475C99.481 48.8073 99.2369 49.397 98.4831 49.5763C97.4743 49.8117 96.498 49.3236 95.9623 48.1075C95.4267 46.8914 95.3489 45.5155 94.3747 45.6818C93.7138 45.792 94.0378 45.2606 94.0378 45.2606Z" fill="#37474F"/>
<path d="M92.8476 48.5006C92.9772 48.5957 93.0053 48.6389 93.1198 48.425C93.3682 47.9628 94.0054 47.898 94.2149 48.343C94.4914 48.9326 94.1177 49.4856 93.5928 49.6973C92.8908 49.9802 92.7007 49.5526 92.7007 49.5526L92.3681 52.2245C92.1675 52.5674 91.8848 52.8551 91.5455 53.0617C91.2062 53.2683 90.8208 53.3874 90.4241 53.4082C89.0892 53.4514 89.2599 52.3865 89.748 51.8962L89.7804 51.1056C89.4513 51.0902 89.1264 51.0246 88.8171 50.9112C88.4088 50.7535 88.1151 50.4684 87.9055 49.8031C87.6226 48.9089 87.6701 47.965 88.1215 46.2348C88.6464 44.2303 91.1585 44.4269 92.3616 45.3708C93.5647 46.3147 92.8476 48.5006 92.8476 48.5006Z" fill="#FFA8A7"/>
<path d="M93.1349 47.304L93.3055 45.4637L90.6984 43.7184C90.2664 43.6633 89.8277 43.6938 89.4075 43.8082C88.9873 43.9227 88.5937 44.1188 88.2493 44.3854C87.9049 44.652 87.6164 44.9838 87.4003 45.3619C87.1841 45.74 87.0446 46.157 86.9897 46.589L86.9357 47.021L88.5449 47.2262C88.9074 47.2721 89.2743 47.1852 89.5777 46.9815C89.881 46.7778 90.1004 46.4711 90.1951 46.1181L90.0893 47.4141C90.3875 47.4518 90.689 47.3765 90.9344 47.203C91.1799 47.0295 91.3515 46.7704 91.4155 46.4767L91.4587 46.2607C91.4435 46.5973 91.5479 46.9283 91.7535 47.1952C91.9591 47.4621 92.2526 47.6476 92.5819 47.7187L92.5301 48.4077C92.5186 48.5577 92.5661 48.7062 92.6626 48.8216C92.759 48.937 92.8967 49.0102 93.0463 49.0255L93.1197 48.425L93.4351 47.3796L93.1349 47.304Z" fill="#37474F"/>
<path d="M90.504 48.0773C90.5005 48.1314 90.5129 48.1853 90.5399 48.2324C90.5668 48.2795 90.6069 48.3176 90.6553 48.3421C90.7037 48.3665 90.7583 48.3761 90.8121 48.3698C90.866 48.3635 90.9168 48.3415 90.9582 48.3065C90.9997 48.2715 91.0299 48.2252 91.0452 48.1731C91.0605 48.1211 91.0601 48.0657 91.0441 48.0139C91.0282 47.9621 90.9974 47.9161 90.9555 47.8817C90.9136 47.8472 90.8625 47.8259 90.8086 47.8202C90.7717 47.817 90.7345 47.8211 90.6992 47.8322C90.6638 47.8434 90.6311 47.8615 90.6028 47.8854C90.5745 47.9093 90.5512 47.9385 90.5342 47.9715C90.5173 48.0044 90.507 48.0404 90.504 48.0773Z" fill="#263238"/>
<path d="M90.936 47.2845L91.4868 47.6669C91.5368 47.591 91.5555 47.4987 91.539 47.4093C91.5225 47.3199 91.472 47.2404 91.3982 47.1873C91.3619 47.1623 91.3208 47.1449 91.2774 47.1363C91.2341 47.1276 91.1895 47.1278 91.1463 47.1369C91.1031 47.146 91.0622 47.1638 91.026 47.1891C90.9899 47.2145 90.9592 47.247 90.936 47.2845Z" fill="#263238"/>
<path d="M90.6315 49.4899L89.5515 49.7729C89.5669 49.8448 89.5967 49.9128 89.6391 49.9729C89.6814 50.033 89.7355 50.084 89.798 50.1227C89.8605 50.1614 89.9302 50.1871 90.0029 50.1983C90.0756 50.2094 90.1498 50.2058 90.2211 50.1876C90.3665 50.147 90.4905 50.0516 90.567 49.9215C90.6435 49.7914 90.6666 49.6367 90.6315 49.4899Z" fill="#B16668"/>
<path d="M90.612 49.8247C90.5454 49.7822 90.4689 49.7577 90.39 49.7537C90.3111 49.7497 90.2325 49.7662 90.162 49.8017C90.0914 49.8372 90.0313 49.8905 89.9875 49.9562C89.9437 50.022 89.9177 50.098 89.9122 50.1768C90.0136 50.2072 90.1218 50.2072 90.2232 50.1768C90.3116 50.1538 90.3932 50.1098 90.4609 50.0485C90.5286 49.9872 90.5804 49.9104 90.612 49.8247Z" fill="#F28F8F"/>
<path d="M88.128 46.9627L88.776 46.7986C88.7677 46.7551 88.7505 46.7138 88.7256 46.6772C88.7006 46.6407 88.6683 46.6097 88.6308 46.5862C88.5933 46.5626 88.5514 46.5471 88.5076 46.5405C88.4638 46.534 88.4192 46.5365 88.3764 46.548C88.2896 46.5719 88.2153 46.6283 88.1691 46.7056C88.1228 46.7828 88.1081 46.8749 88.128 46.9627Z" fill="#263238"/>
<path d="M88.2036 47.8181C88.2001 47.8722 88.2125 47.9261 88.2394 47.9732C88.2663 48.0203 88.3065 48.0584 88.3549 48.0828C88.4033 48.1073 88.4578 48.1169 88.5117 48.1106C88.5656 48.1043 88.6164 48.0823 88.6578 48.0473C88.6992 48.0123 88.7295 47.9659 88.7448 47.9139C88.76 47.8619 88.7597 47.8065 88.7437 47.7547C88.7278 47.7029 88.6969 47.6569 88.6551 47.6224C88.6132 47.588 88.5621 47.5667 88.5081 47.561C88.4337 47.555 88.36 47.5787 88.3029 47.6268C88.2459 47.675 88.2102 47.7437 88.2036 47.8181Z" fill="#263238"/>
<path d="M89.7027 47.6928L89.4715 49.1529L88.7307 48.8138L89.7027 47.6928Z" fill="#F28F8F"/>
<path d="M89.7826 51.1099C89.7826 51.1099 91.1066 51.1099 91.7395 50.7881C91.9958 50.6718 92.2187 50.4928 92.3875 50.2675C92.3049 50.5119 92.1666 50.7337 91.9836 50.9155C91.3248 51.5484 89.7696 51.4188 89.7696 51.4188L89.7826 51.1099Z" fill="#F28F8F"/>
<path d="M85.145 40.5454C85.0281 40.3009 84.8641 40.082 84.6625 39.901C84.4609 39.72 84.2256 39.5804 83.97 39.4904C83.7145 39.4003 83.4437 39.3615 83.1731 39.3761C82.9026 39.3907 82.6376 39.4585 82.3932 39.5755C80.6263 40.4201 79.8487 43.079 79.8487 43.079C79.8487 43.079 82.4083 44.1417 84.1687 43.295C84.4134 43.1786 84.6328 43.0152 84.8143 42.814C84.9958 42.6128 85.1359 42.3778 85.2265 42.1225C85.3172 41.8671 85.3567 41.5964 85.3427 41.3258C85.3287 41.0552 85.2615 40.79 85.145 40.5454ZM82.4969 41.8133C82.4111 41.6349 82.3802 41.4352 82.408 41.2392C82.4358 41.0433 82.5211 40.86 82.6531 40.7126C82.7851 40.5652 82.9579 40.4602 83.1496 40.4111C83.3413 40.3619 83.5433 40.3707 83.7299 40.4363C83.9166 40.502 84.0796 40.6216 84.1983 40.7799C84.317 40.9382 84.3861 41.1282 84.3968 41.3258C84.4074 41.5235 84.3592 41.7198 84.2583 41.89C84.1573 42.0602 84.0081 42.1966 83.8296 42.282C83.7113 42.3389 83.583 42.3718 83.452 42.3791C83.321 42.3863 83.1898 42.3676 83.066 42.3241C82.9422 42.2805 82.8282 42.213 82.7306 42.1253C82.6329 42.0377 82.5535 41.9316 82.4969 41.8133Z" fill="#006D77"/>
<path d="M11.9016 78.0192C12.0938 77.3842 13.487 73.0318 14.0184 71.5565C14.6189 69.8911 14.7009 69.3036 15.0725 67.7851C15.2474 67.0637 15.4397 66.2991 15.6297 65.5323C15.8846 66.7159 16.2648 68.8111 16.3469 69.2734C16.3469 69.3447 16.3339 69.4311 16.3253 69.5304C16.1654 70.2454 16.1611 70.753 16.1762 71.7077C16.1762 72.3125 16.5758 74.844 16.794 76.3755C16.8437 76.7146 16.8955 77.0537 16.9301 77.395C16.9353 77.7241 16.8541 78.0488 16.6946 78.3367C16.5687 78.5806 16.5255 78.8589 16.5715 79.1295C16.5859 79.2139 16.6136 79.2956 16.6536 79.3714C16.7918 79.6219 17.0705 79.7019 17.3016 79.8444C17.5829 80.0746 17.8392 80.3338 18.0662 80.6177C18.2962 80.883 18.5702 81.1066 18.8762 81.2787C19.2468 81.4224 19.6389 81.5028 20.0361 81.5163C20.2634 81.5289 20.4914 81.5122 20.7144 81.4666C20.9243 81.4586 21.1311 81.414 21.3257 81.3348C21.4055 81.2978 21.4739 81.2399 21.5237 81.1673C21.5735 81.0947 21.6028 81.0101 21.6086 80.9223C21.5912 80.8215 21.553 80.7255 21.4965 80.6404C21.44 80.5552 21.3664 80.4828 21.2803 80.4276C20.3882 79.6781 19.0879 78.7407 18.8525 77.5397C18.8525 77.5397 18.9842 76.5699 19.0339 75.9867C19.2089 74.0103 19.2823 72.4162 19.4508 70.8567C19.6668 68.9645 19.7251 68.7463 19.6884 67.1328C19.6754 66.5863 19.6495 66.0031 19.6149 65.4048C19.5847 63.5148 19.4637 61.6831 19.4681 60.2748C19.4681 60.2748 16.8545 60.3245 14.783 60.4563C12.5496 60.7284 11.7871 61.2339 11.8541 61.519C11.6637 62.5225 11.5518 63.5393 11.5193 64.5603C11.448 65.9232 11.232 69.4721 11.232 69.4721C10.7012 70.3814 10.3726 71.3944 10.2686 72.4421C10.206 73.0426 9.96406 77.0926 9.91222 77.3863C9.82631 77.6576 9.70192 77.9151 9.54286 78.151C9.42179 78.3227 9.34736 78.5229 9.32686 78.732C9.32397 78.8051 9.33346 78.8781 9.35494 78.948C9.43486 79.2051 9.66814 79.38 9.8539 79.5658C10.1687 79.9137 10.3744 80.3462 10.4457 80.8099C10.5381 81.2112 10.7507 81.5748 11.0553 81.8519C11.3599 82.1291 11.7418 82.3066 12.15 82.3608C12.6335 82.4207 13.1227 82.3091 13.5324 82.0455C13.6965 81.9375 13.8629 81.7625 13.8218 81.5681C13.7738 81.4347 13.6805 81.3224 13.5583 81.2506C12.6837 80.5692 12.0939 79.5867 11.9037 78.4944C11.8704 78.3356 11.8704 78.1716 11.9037 78.0127" fill="#B16668"/>
<path d="M16.5931 79.4556C16.5931 79.4556 16.5218 79.4556 16.5305 79.6327C16.5265 79.711 16.5447 79.7887 16.5829 79.8571C16.6211 79.9255 16.6778 79.9817 16.7465 80.0194C16.8955 80.1274 17.4269 80.3434 17.7595 80.7819C17.9928 81.0907 18.0943 81.4299 18.8741 81.8381C19.6538 82.2463 20.7749 82.0843 21.1637 81.8878C21.5525 81.6912 21.6367 81.6113 21.6583 81.2635L16.5931 79.4556Z" fill="#263238"/>
<path d="M18.846 77.544C18.7488 77.693 18.2218 77.76 17.982 77.855C17.7422 77.9501 17.7833 78.4685 17.7833 78.4685C17.5673 78.4685 17.5673 78.3108 17.4852 78.0365C17.3664 77.585 17.0316 77.5872 16.9236 77.5289V77.3906C16.9236 77.3906 16.8091 77.3582 16.7832 77.5742C16.7448 77.864 16.6797 78.1496 16.5888 78.4274C16.524 78.6197 16.4182 79.3238 16.5672 79.5377C16.7121 79.6666 16.8682 79.7823 17.0338 79.8833C17.3958 80.0919 17.7135 80.3692 17.969 80.6998C18.1591 80.987 18.7445 81.6523 20.0297 81.6653C21.3149 81.6782 21.6713 81.216 21.6713 81.216C21.7576 81.0628 21.7833 80.8829 21.7433 80.7117C21.7033 80.5405 21.6005 80.3906 21.4553 80.2915C20.9239 79.9006 20.6993 79.7299 20.0448 79.2115C18.9713 78.3562 19.2521 77.4446 18.846 77.544Z" fill="#455A64"/>
<path d="M18.7034 81.3521C18.9583 80.7214 19.2974 80.2721 19.9778 80.0237C20.6582 79.7753 20.9693 79.8552 21.2501 80.0237C21.5309 80.1922 22.0212 80.6134 21.6821 81.2203C21.6821 81.2203 21.4898 81.715 20.2543 81.7409C19.0188 81.7668 18.7034 81.3521 18.7034 81.3521Z" fill="#FAFAFA"/>
<path d="M9.13679 79.1122C9.08063 79.3282 9.01799 79.501 9.21887 79.7407C9.41975 79.9805 9.67463 80.1231 9.84959 80.311C10.0245 80.4989 10.0937 80.9136 10.2017 81.2657C10.3607 81.7831 10.7013 82.2257 11.1607 82.512C11.6964 82.8079 12.1262 82.944 12.7461 82.8317C13.3661 82.7194 13.7009 82.5271 13.8542 81.9958L9.13679 79.1122Z" fill="#263238"/>
<path d="M12.0204 77.9393C12.1154 77.6823 11.4761 78.0711 10.7633 77.8983C10.6358 77.868 10.5754 77.9242 10.5473 78.0559C10.5192 78.1877 10.4868 78.3281 10.3313 78.2719C10.3004 78.2583 10.2728 78.2384 10.2501 78.2135C10.2274 78.1886 10.2102 78.1592 10.1995 78.1272C10.1794 78.0625 10.1657 77.9959 10.1585 77.9285C10.1304 77.7449 10.085 77.4749 9.91007 77.3842L9.94247 77.1682C9.94247 77.1682 9.77615 77.0148 9.67031 77.5354C9.56447 78.0559 9.02231 78.3994 9.14543 79.11C9.27466 79.3427 9.44436 79.5504 9.64655 79.7235C10.0007 79.9932 10.2448 80.3823 10.3334 80.8186C10.4479 81.3478 10.9404 82.1513 11.6597 82.3608C12.0396 82.4818 12.4434 82.5074 12.8355 82.4355C13.2276 82.3635 13.596 82.1962 13.9082 81.9483C13.96 81.8727 13.9959 81.7875 14.0138 81.6977C14.0318 81.6079 14.0313 81.5155 14.0126 81.4258C13.9938 81.3362 13.9571 81.2513 13.9046 81.1763C13.8522 81.1013 13.7851 81.0376 13.7074 80.9892C13.282 80.6686 12.9045 80.2889 12.5863 79.8617C12.2537 79.4664 11.9232 78.5268 12.0204 77.9393Z" fill="#455A64"/>
<path d="M10.908 81.8834C11.2363 81.3802 11.6467 80.8034 12.42 80.6393C13.1933 80.4751 13.5237 80.8142 13.7851 81.0367C13.8555 81.0872 13.9145 81.1519 13.9584 81.2266C14.0023 81.3014 14.03 81.3845 14.0397 81.4705C14.0495 81.5566 14.0411 81.6438 14.0151 81.7265C13.9891 81.8091 13.9461 81.8854 13.8888 81.9504C13.6788 82.1642 13.4234 82.3279 13.1414 82.4292C12.8594 82.5306 12.5582 82.567 12.2601 82.5358C12.0028 82.5221 11.7507 82.4574 11.5186 82.3454C11.2864 82.2334 11.0789 82.0764 10.908 81.8834Z" fill="#FAFAFA"/>
<path d="M11.7504 60.1992C11.7504 60.1992 11.5776 62.2275 11.515 63.4176C11.4523 64.6078 11.083 69.3922 11.083 69.3922C10.5822 70.2663 10.2757 71.238 10.1844 72.2412C10.031 73.8072 9.97919 75.4337 9.94247 75.9283C9.94247 75.9283 11.1629 76.7319 12.4524 76.4467C12.5474 76.086 14.2538 71.2627 14.634 70.0229C15.0012 68.8241 15.6146 65.9772 15.6146 65.9772C15.6146 65.9772 16.1611 68.6578 16.0769 69.1632C15.7399 71.1979 16.5089 74.6237 16.6579 76.032C16.6579 76.032 16.8113 76.4338 17.8222 76.4467C18.8676 76.4597 19.0642 76.1033 19.0642 76.1033C19.0642 76.1033 19.7122 69.336 19.7834 68.0595C19.8547 66.7829 19.6106 61.9402 19.453 60.2835L11.7504 60.1992Z" fill="#455A64"/>
<path d="M15.6233 65.9772L15.8393 64.7071C15.8393 64.7071 17.537 64.584 18.2887 63.7438C18.2887 63.7438 18.0295 64.854 16.2518 65.0117L16.0142 66.2386L16.0747 68.7139C15.9537 67.7895 15.7874 66.9816 15.6233 65.9772Z" fill="#37474F"/>
<path d="M22.7923 45.3362L21.7123 48.7706C21.7123 48.7706 18.3816 50.6218 16.848 51.2957C17.347 51.6067 17.712 52.056 18.1267 52.9567L18.4637 53.8618C18.4637 53.8618 21.4358 52.0042 23.1185 50.6887C23.8853 50.0904 23.9825 49.531 24.0862 48.9305C24.2179 48.1961 24.2784 47.7684 24.4598 46.4162C24.503 46.0793 24.5506 45.7682 24.5938 45.4766C24.681 44.9909 24.7935 44.51 24.9307 44.0359C25.0547 43.5712 25.0812 43.0858 25.0085 42.6103C24.9951 42.2361 24.8544 41.8776 24.6097 41.594C24.3651 41.3105 24.0311 41.1189 23.6628 41.0508C23.5684 41.0145 23.4644 41.0117 23.3681 41.0427C23.2718 41.0737 23.189 41.1368 23.1336 41.2214C23.0939 41.3315 23.0864 41.4507 23.112 41.5649C23.1703 42.0487 23.274 42.5412 23.179 43.0186C23.177 43.0493 23.1684 43.0793 23.1539 43.1065C23.1394 43.1337 23.1192 43.1575 23.0947 43.1762C22.9932 43.2346 22.8226 42.8652 22.747 42.7918C22.6774 42.7063 22.5778 42.6507 22.4686 42.6362C22.3594 42.6218 22.2488 42.6496 22.1594 42.714C22.086 42.7766 22.2566 42.9408 22.3754 43.3102C22.5137 43.7789 22.4554 44.1742 22.7275 44.6256C22.7854 44.7336 22.821 44.8522 22.8322 44.9743C22.8433 45.0964 22.8297 45.2195 22.7923 45.3362Z" fill="#B16668"/>
<path d="M16.7573 51.2244L19.4853 49.9738C19.4853 49.9738 19.9476 49.9608 20.5286 50.8529C20.6989 51.1177 20.8148 51.4137 20.8697 51.7237C20.9246 52.0337 20.9173 52.3515 20.8483 52.6586L18.779 54.2419L16.7573 51.2244Z" fill="#455A64"/>
<path d="M12.0225 51.6348C11.1974 51.8033 10.9425 52.1986 10.8518 52.9308C10.7893 53.6056 10.853 54.2861 11.0397 54.9375L11.5171 57.9226L11.4977 61.776C13.2689 62.7761 17.2735 63.1563 19.7057 61.4175C19.7057 61.4175 19.3946 55.2096 19.2261 53.9914C18.9324 51.8789 18.0662 51.1272 17.051 51.1963L14.1156 51.408C13.4131 51.429 12.7132 51.5048 12.0225 51.6348Z" fill="#006D77"/>
<path d="M18.8978 59.2078L15.2669 57.3264C15.2669 57.3264 14.5281 55.9742 13.6879 54.2419C12.2515 52.056 11.5106 51.9286 11.5106 51.9286C9.8539 52.8509 10.5127 54.2592 12.744 58.536C13.176 59.3698 13.7527 59.5771 14.9213 59.9962C15.6643 60.264 16.0574 60.4109 17.4917 60.8602C17.8351 60.9682 18.2714 61.0913 18.5717 61.182C19.0706 61.3397 19.4076 61.4952 19.926 61.6442C20.4042 61.8137 20.9036 61.9162 21.4099 61.9488C21.7828 61.975 22.1558 61.9004 22.4899 61.7328C22.8353 61.5016 23.1044 61.1731 23.2632 60.7889C23.3164 60.6953 23.3358 60.5862 23.3181 60.48C23.3004 60.3738 23.2467 60.2769 23.166 60.2057C23.0566 60.1477 22.933 60.1222 22.8096 60.1322C22.2933 60.1171 21.762 60.1495 21.276 59.9746C21.2436 59.9678 21.2131 59.9543 21.1863 59.935C21.1595 59.9156 21.137 59.8908 21.1205 59.8622C21.0773 59.7478 21.4898 59.6246 21.5784 59.5577C21.6782 59.4973 21.7516 59.4015 21.784 59.2895C21.8164 59.1774 21.8055 59.0572 21.7533 58.9529C21.6993 58.8665 21.5006 59.0198 21.1053 59.0782C20.5891 59.1516 20.1917 59.0285 19.6711 59.2423C19.5467 59.2897 19.4139 59.3111 19.2809 59.3051C19.1479 59.2992 19.0175 59.266 18.8978 59.2078Z" fill="#B16668"/>
<path d="M11.6878 51.7255C10.2449 52.205 10.3248 53.3239 10.4242 53.8618C10.5163 54.3183 10.6704 54.7602 10.8821 55.175C11.4113 56.3846 12.42 58.2941 12.42 58.2941C12.42 58.2941 13.608 58.1666 15.12 56.808C15.12 56.808 13.351 53.3282 13.176 52.987C13.0226 52.704 12.4459 51.7687 11.6878 51.7255Z" fill="#455A64"/>
<path d="M18.8957 45.7488C18.8917 46.1723 18.7633 46.5852 18.5264 46.9363C18.2896 47.2874 17.9548 47.5611 17.5637 47.7234C17.1725 47.8857 16.7423 47.9294 16.3265 47.8492C15.9107 47.769 15.5276 47.5683 15.225 47.2721C14.9223 46.9759 14.7134 46.5972 14.6242 46.1833C14.535 45.7693 14.5695 45.3382 14.7233 44.9437C14.8772 44.5491 15.1436 44.2085 15.4895 43.9641C15.8354 43.7198 16.2454 43.5825 16.6687 43.5694C16.9581 43.5662 17.2452 43.6201 17.5137 43.728C17.7822 43.8358 18.0268 43.9955 18.2336 44.1978C18.4404 44.4002 18.6053 44.6414 18.7189 44.9075C18.8325 45.1736 18.8926 45.4595 18.8957 45.7488Z" fill="#263238"/>
<path d="M12.3379 47.6021C12.3379 47.6021 12.7699 49.3474 12.9211 49.6325C13.0259 49.8083 13.1946 49.9368 13.392 49.991L13.3315 48.7555L12.3379 47.6021Z" fill="#263238"/>
<path d="M12.744 45.0727C12.613 45.0612 12.481 45.0797 12.3583 45.1269C12.2355 45.174 12.1251 45.2486 12.0355 45.3449C11.7353 45.6689 11.9362 46.6409 12.3466 47.6021L13.0529 47.6626L12.744 45.0727Z" fill="#263238"/>
<path d="M13.2559 47.6583C13.1177 47.7468 12.9082 47.4811 12.7289 47.304C12.5496 47.1269 11.9729 46.8936 11.7072 47.4984C11.4415 48.1032 11.9966 48.9046 12.4481 49.0342C13.2278 49.2502 13.3294 48.7555 13.3294 48.7555L13.4676 51.5355C13.6483 51.9037 13.9175 52.2213 14.2511 52.46C14.5847 52.6986 14.9723 52.8507 15.3792 52.9027C16.753 53.0496 16.7076 51.9048 16.2432 51.3648L16.2194 50.5829C16.5603 50.5919 16.9006 50.5482 17.2282 50.4533C17.6602 50.3237 17.9842 50.0515 18.252 49.3733C18.6106 48.4704 18.6343 47.4963 18.2995 45.6775C17.9107 43.5694 15.3036 43.5823 13.9925 44.4615C12.6814 45.3406 13.2559 47.6583 13.2559 47.6583Z" fill="#B16668"/>
<path d="M13.6814 46.237C13.5756 46.8483 13.5022 47.8829 13.2624 47.8959C13.1911 47.8959 12.9082 47.4639 12.7289 47.304C12.649 47.2349 12.6425 47.088 12.6338 46.9822C12.5989 46.6161 12.591 46.2479 12.6101 45.8806C12.6295 45.4875 12.5539 45.0511 12.6684 44.671C12.7646 44.3804 12.9604 44.1333 13.2214 43.9733C13.7981 43.6061 14.5714 43.6212 15.2215 43.4722C15.9872 43.3152 16.7187 43.0226 17.3815 42.6082L17.5824 42.4807C17.6384 42.437 17.7079 42.4141 17.779 42.4159C17.809 42.4207 17.8374 42.4323 17.8622 42.45C17.8869 42.4676 17.9072 42.4907 17.9215 42.5175C17.9511 42.5709 17.9702 42.6296 17.9777 42.6903C18.0097 42.8721 18.0148 43.0577 17.9928 43.2411C17.9972 43.4051 17.9585 43.5675 17.8805 43.7119L18.36 43.4031C18.3899 43.3772 18.4284 43.3633 18.468 43.3642C18.5328 43.3642 18.5587 43.4527 18.5674 43.5175C18.585 43.7941 18.5327 44.0707 18.4153 44.3217C18.2979 44.5727 18.1192 44.7902 17.8956 44.9539C17.4433 45.2766 16.9099 45.4666 16.3555 45.5026C15.8047 45.5587 15.2518 45.5263 14.6988 45.5307C14.4611 45.5072 14.2212 45.5436 14.0011 45.6365C13.91 45.7097 13.8346 45.8007 13.7797 45.9039C13.7247 46.0072 13.6913 46.1205 13.6814 46.237Z" fill="#263238"/>
<path d="M12.744 45.2283L11.88 44.7963C11.9051 44.7366 11.9424 44.6829 11.9894 44.6385C12.0364 44.594 12.0922 44.5599 12.1531 44.5381C12.2141 44.5164 12.2789 44.5076 12.3434 44.5122C12.4079 44.5169 12.4708 44.5349 12.528 44.5651C12.6419 44.6272 12.7277 44.7304 12.7679 44.8537C12.8081 44.977 12.7995 45.1111 12.744 45.2283Z" fill="#263238"/>
<path d="M16.2194 50.5829C16.2194 50.5829 14.8543 50.4814 14.2258 50.1034C13.9737 49.9616 13.7613 49.7589 13.608 49.5137C13.6727 49.7743 13.7986 50.0157 13.9752 50.2179C14.6059 50.922 16.2432 51.0149 16.2432 51.0149L16.2194 50.5829Z" fill="#9A4A4D"/>
<path d="M15.6449 47.2781C15.6444 47.3344 15.6274 47.3894 15.5959 47.4362C15.5645 47.4829 15.52 47.5194 15.4679 47.541C15.4159 47.5627 15.3587 47.5686 15.3033 47.5579C15.248 47.5473 15.197 47.5206 15.1567 47.4812C15.1164 47.4418 15.0886 47.3914 15.0768 47.3363C15.0649 47.2812 15.0695 47.2238 15.09 47.1714C15.1105 47.1189 15.1459 47.0735 15.192 47.0411C15.238 47.0086 15.2926 46.9903 15.3489 46.9886C15.3874 46.9881 15.4256 46.9951 15.4614 47.0094C15.4971 47.0237 15.5297 47.0448 15.5572 47.0718C15.5847 47.0987 15.6066 47.1307 15.6216 47.1662C15.6367 47.2016 15.6446 47.2396 15.6449 47.2781Z" fill="#263238"/>
<path d="M15.2474 46.4249L14.6491 46.7791C14.6034 46.697 14.5912 46.6004 14.6149 46.5095C14.6387 46.4186 14.6966 46.3403 14.7766 46.291C14.8161 46.2682 14.8598 46.2536 14.9051 46.248C14.9504 46.2424 14.9964 46.2459 15.0403 46.2584C15.0842 46.2709 15.1252 46.2921 15.1607 46.3207C15.1963 46.3493 15.2258 46.3847 15.2474 46.4249Z" fill="#263238"/>
<path d="M15.5261 48.816L16.6622 49.207C16.6399 49.2832 16.6024 49.3541 16.552 49.4154C16.5017 49.4768 16.4394 49.5273 16.369 49.564C16.2986 49.6007 16.2215 49.6228 16.1424 49.629C16.0632 49.6352 15.9836 49.6254 15.9084 49.6001C15.7556 49.5443 15.6304 49.4314 15.5591 49.2852C15.4878 49.1389 15.4759 48.9708 15.5261 48.816Z" fill="#9A4A4D"/>
<path opacity="0.6" d="M15.809 49.1486C15.7153 49.1549 15.6256 49.1895 15.552 49.248C15.5834 49.3309 15.6326 49.4059 15.696 49.4679C15.7594 49.5298 15.8356 49.5771 15.9192 49.6066C16.0441 49.652 16.181 49.652 16.3058 49.6066C16.3039 49.5437 16.2895 49.4818 16.2633 49.4246C16.2372 49.3673 16.1999 49.3159 16.1536 49.2733C16.1074 49.2306 16.0531 49.1976 15.9939 49.1762C15.9347 49.1548 15.8719 49.1455 15.809 49.1486Z" fill="#F28F8F"/>
<path d="M18.0684 46.5027L17.496 46.0923C17.5209 46.054 17.5534 46.0213 17.5914 45.9961C17.6294 45.9709 17.6722 45.9537 17.7171 45.9456C17.762 45.9375 17.8081 45.9387 17.8525 45.949C17.897 45.9594 17.9388 45.9787 17.9755 46.0059C18.0526 46.0603 18.1053 46.1427 18.1227 46.2354C18.14 46.3282 18.1205 46.424 18.0684 46.5027Z" fill="#263238"/>
<path d="M17.9388 47.088C17.9379 47.1438 17.9207 47.1982 17.8892 47.2443C17.8577 47.2904 17.8134 47.3263 17.7617 47.3474C17.7101 47.3686 17.6533 47.3741 17.5985 47.3633C17.5438 47.3525 17.4934 47.3258 17.4536 47.2866C17.4138 47.2475 17.3864 47.1975 17.3748 47.1428C17.3632 47.0882 17.3679 47.0314 17.3883 46.9794C17.4087 46.9275 17.4439 46.8826 17.4895 46.8505C17.5352 46.8183 17.5892 46.8003 17.645 46.7986C17.6833 46.7983 17.7213 46.8055 17.7568 46.8199C17.7923 46.8343 17.8246 46.8556 17.8519 46.8824C17.8791 46.9093 17.9009 46.9413 17.9158 46.9766C17.9307 47.0118 17.9385 47.0497 17.9388 47.088Z" fill="#263238"/>
<path d="M16.4182 46.939L16.5456 48.4618L17.334 48.168L16.4182 46.939Z" fill="#9A4A4D"/>
<path d="M23.436 38.664C23.1925 38.5453 22.928 38.4757 22.6576 38.4592C22.3871 38.4428 22.1161 38.4797 21.86 38.5679C21.6039 38.6562 21.3676 38.794 21.1648 38.9736C20.9619 39.1531 20.7964 39.3709 20.6777 39.6144C20.559 39.8579 20.4894 40.1224 20.4729 40.3929C20.4564 40.6633 20.4934 40.9343 20.5816 41.1904C20.6699 41.4465 20.8077 41.6828 20.9873 41.8856C21.1668 42.0885 21.3846 42.254 21.6281 42.3727C23.3863 43.2367 25.9481 42.187 25.9481 42.187C25.9481 42.187 25.1942 39.528 23.436 38.664ZM23.315 40.8996C23.2286 41.0777 23.0913 41.2261 22.9205 41.3261C22.7496 41.4261 22.553 41.4731 22.3554 41.4613C22.1578 41.4494 21.9682 41.3792 21.8105 41.2595C21.6529 41.1398 21.5343 40.976 21.4698 40.7889C21.4053 40.6017 21.3978 40.3997 21.4482 40.2082C21.4986 40.0168 21.6047 39.8447 21.753 39.7136C21.9014 39.5825 22.0852 39.4984 22.2814 39.4719C22.4776 39.4454 22.6772 39.4777 22.855 39.5647C23.0916 39.6811 23.2726 39.8862 23.3588 40.1353C23.445 40.3845 23.4292 40.6576 23.315 40.8953V40.8996Z" fill="#006D77"/>
<path d="M48.3667 12.3271C47.829 12.4283 47.3534 12.7387 47.0444 13.1903C46.7353 13.6419 46.6182 14.1976 46.7186 14.7355C47.0793 16.6601 49.4467 18.0986 49.4467 18.0986C49.4467 18.0986 51.1358 15.8997 50.7751 13.9773C50.6744 13.4392 50.3642 12.9631 49.9126 12.6536C49.4609 12.3442 48.9049 12.2267 48.3667 12.3271ZM48.9067 15.2129C48.7123 15.2492 48.5114 15.2271 48.3295 15.1494C48.1476 15.0716 47.9929 14.9416 47.8849 14.7758C47.7769 14.6101 47.7205 14.4161 47.7228 14.2182C47.7251 14.0204 47.786 13.8278 47.8978 13.6646C48.0096 13.5014 48.1673 13.375 48.3509 13.3015C48.5346 13.2279 48.7359 13.2105 48.9295 13.2514C49.123 13.2922 49.3001 13.3896 49.4383 13.5311C49.5765 13.6727 49.6696 13.852 49.7059 14.0465C49.7545 14.3071 49.6976 14.5764 49.5478 14.7951C49.3979 15.0138 49.1673 15.1641 48.9067 15.2129Z" fill="#006D77"/>
<path d="M72.7034 17.537C72.254 17.2251 71.6991 17.1045 71.1608 17.2018C70.6224 17.299 70.1447 17.606 69.8328 18.0554C68.7161 19.6625 69.3554 22.3603 69.3554 22.3603C69.3554 22.3603 72.1073 22.0169 73.2218 20.4163C73.3779 20.1936 73.4883 19.9422 73.5468 19.6766C73.6052 19.4109 73.6105 19.1364 73.5623 18.8687C73.5141 18.6011 73.4134 18.3456 73.266 18.117C73.1186 17.8885 72.9274 17.6914 72.7034 17.537ZM71.0294 19.9476C70.8669 19.8348 70.7414 19.6764 70.669 19.4923C70.5965 19.3082 70.5802 19.1067 70.6223 18.9134C70.6643 18.72 70.7628 18.5435 70.9052 18.4062C71.0476 18.2688 71.2275 18.1767 71.4222 18.1417C71.617 18.1066 71.8177 18.1301 71.9991 18.2091C72.1804 18.2882 72.3343 18.4192 72.4412 18.5857C72.548 18.7522 72.6031 18.9467 72.5994 19.1445C72.5957 19.3423 72.5335 19.5346 72.4205 19.697C72.3457 19.805 72.2504 19.8971 72.14 19.9682C72.0296 20.0392 71.9062 20.0878 71.777 20.111C71.6477 20.1343 71.5152 20.1319 71.3869 20.1038C71.2586 20.0758 71.1372 20.0227 71.0294 19.9476Z" fill="#455A64"/>
</svg>
