<svg width="107" height="107" viewBox="0 0 107 107" fill="none" xmlns="http://www.w3.org/2000/svg">
<g clip-path="url(#clip0_41_1785)">
<path d="M102.052 7.97763H4.94793C2.21526 7.97763 0 10.1929 0 12.9256V74.1212C0 76.8538 2.21526 79.0691 4.94793 79.0691H102.052C104.785 79.0691 107 76.8538 107 74.1212V12.9256C107 10.1929 104.785 7.97763 102.052 7.97763Z" fill="#006D77" stroke="#263238" stroke-miterlimit="10" stroke-linecap="round"/>
<path opacity="0.7" d="M102.052 7.97763H4.94793C2.21526 7.97763 0 10.1929 0 12.9256V74.1212C0 76.8538 2.21526 79.0691 4.94793 79.0691H102.052C104.785 79.0691 107 76.8538 107 74.1212V12.9256C107 10.1929 104.785 7.97763 102.052 7.97763Z" fill="#006D77" stroke="#263238" stroke-miterlimit="10" stroke-linecap="round"/>
<path d="M45.1297 47.7223H32.6113V54.7453H45.1297V47.7223Z" fill="white"/>
<path d="M45.1297 56.0141H32.6113V63.0371H45.1297V56.0141Z" fill="white"/>
<path d="M58.9211 47.7223H46.4027V54.7453H58.9211V47.7223Z" fill="white"/>
<path d="M72.7167 39.4262H60.1984V46.4492H72.7167V39.4262Z" fill="white"/>
<path d="M72.7167 31.1302H60.1984V38.1532H72.7167V31.1302Z" fill="white"/>
<path d="M72.7167 15.7984H60.1984V21.5611H72.7167V15.7984Z" fill="#263238"/>
<path d="M58.9211 15.7984H46.4027V21.5611H58.9211V15.7984Z" fill="#263238"/>
<path d="M58.9211 56.0141H46.4027V63.0371H58.9211V56.0141Z" fill="white"/>
<path d="M58.9211 22.8341H46.4027V29.8571H58.9211V22.8341Z" fill="white"/>
<path d="M58.9211 31.1302H46.4027V38.1532H58.9211V31.1302Z" fill="white"/>
<path d="M58.9211 39.4262H46.4027V46.4492H58.9211V39.4262Z" fill="white"/>
<path d="M72.7167 56.0141H60.1984V63.0371H72.7167V56.0141Z" fill="white"/>
<path d="M17.5426 22.8341H4.19681V29.8571H17.5426V22.8341Z" fill="white"/>
<path d="M17.5426 39.4262H4.19681V46.4492H17.5426V39.4262Z" fill="white"/>
<path d="M17.5426 47.7223H4.19681V54.7453H17.5426V47.7223Z" fill="white"/>
<path d="M17.5426 31.1302H4.19681V38.1532H17.5426V31.1302Z" fill="white"/>
<path d="M101.131 15.7984H87.7854V21.5611H101.131V15.7984Z" fill="#263238"/>
<path d="M17.5426 56.0141H4.19681V63.0371H17.5426V56.0141Z" fill="white"/>
<path d="M86.5082 22.8341H73.9898V29.8571H86.5082V22.8341Z" fill="white"/>
<path d="M72.7167 47.7223H60.1984V54.7453H72.7167V47.7223Z" fill="white"/>
<path d="M86.5082 47.7223H73.9898V54.7453H86.5082V47.7223Z" fill="white"/>
<path d="M86.5082 31.1302H73.9898V38.1532H86.5082V31.1302Z" fill="white"/>
<path d="M86.5082 39.4262H73.9898V46.4492H86.5082V39.4262Z" fill="white"/>
<path d="M86.5082 56.0141H73.9898V63.0371H86.5082V56.0141Z" fill="white"/>
<path d="M72.7167 22.8341H60.1984V29.8571H72.7167V22.8341Z" fill="white"/>
<path d="M101.131 56.0141H87.7854V63.0371H101.131V56.0141Z" fill="white"/>
<path d="M86.5082 15.7984H73.9898V21.5611H86.5082V15.7984Z" fill="#263238"/>
<path d="M101.131 47.7223H87.7854V54.7453H101.131V47.7223Z" fill="white"/>
<path d="M86.5082 64.3102H73.9898V71.732H86.5082V64.3102Z" fill="white"/>
<path d="M101.131 39.4262H87.7854V46.4492H101.131V39.4262Z" fill="white"/>
<path d="M58.9211 64.3102H46.4027V71.732H58.9211V64.3102Z" fill="white"/>
<path d="M72.7167 64.3102H60.1984V71.732H72.7167V64.3102Z" fill="white"/>
<path d="M101.131 31.1302H87.7854V38.1532H101.131V31.1302Z" fill="white"/>
<path d="M101.131 64.3102H87.7854V71.732H101.131V64.3102Z" fill="white"/>
<path d="M17.5426 64.3102H4.19681V71.732H17.5426V64.3102Z" fill="white"/>
<path d="M101.131 22.8341H87.7854V29.8571H101.131V22.8341Z" fill="white"/>
<path d="M17.5426 15.7984H4.19681V21.5611H17.5426V15.7984Z" fill="#263238"/>
<path d="M31.334 15.7984H18.8157V21.5611H31.334V15.7984Z" fill="#263238"/>
<path d="M31.334 47.7223H18.8157V54.7453H31.334V47.7223Z" fill="white"/>
<path d="M45.1297 15.7984H32.6113V21.5611H45.1297V15.7984Z" fill="#263238"/>
<path d="M45.1297 31.1302H32.6113V38.1532H45.1297V31.1302Z" fill="white"/>
<path d="M31.334 56.0141H18.8157V63.0371H31.334V56.0141Z" fill="white"/>
<path d="M45.1297 22.8341H32.6113V29.8571H45.1297V22.8341Z" fill="white"/>
<path d="M31.334 22.8341H18.8157V29.8571H31.334V22.8341Z" fill="white"/>
<path d="M45.1297 39.4262H32.6113V46.4492H45.1297V39.4262Z" fill="white"/>
<path d="M31.334 39.4262H18.8157V46.4492H31.334V39.4262Z" fill="white"/>
<path d="M31.334 64.3102H18.8157V71.732H31.334V64.3102Z" fill="white"/>
<path d="M31.334 31.1302H18.8157V38.1532H31.334V31.1302Z" fill="white"/>
<path d="M45.1297 64.3102H32.6113V71.732H45.1297V64.3102Z" fill="white"/>
<path d="M10.0868 11.9241C11.0829 11.9241 11.8903 11.1166 11.8903 10.1206C11.8903 9.12456 11.0829 8.31711 10.0868 8.31711C9.09079 8.31711 8.28334 9.12456 8.28334 10.1206C8.28334 11.1166 9.09079 11.9241 10.0868 11.9241Z" fill="white" stroke="#263238" stroke-miterlimit="10" stroke-linecap="round"/>
<path d="M17.9967 10.1206C17.9975 9.7627 17.8921 9.41261 17.6938 9.11468C17.4955 8.81675 17.2132 8.58439 16.8827 8.44704C16.5522 8.30969 16.1884 8.27354 15.8373 8.34315C15.4863 8.41277 15.1638 8.58503 14.9107 8.8381C14.6576 9.09117 14.4854 9.41366 14.4158 9.76472C14.3461 10.1158 14.3823 10.4796 14.5196 10.8101C14.657 11.1406 14.8894 11.4229 15.1873 11.6212C15.4852 11.8195 15.8353 11.9249 16.1932 11.9241C16.6715 11.9241 17.1302 11.7341 17.4685 11.3959C17.8067 11.0576 17.9967 10.5989 17.9967 10.1206Z" fill="white" stroke="#263238" stroke-miterlimit="10" stroke-linecap="round"/>
<path d="M10.1208 11.2961C9.8698 11.2961 9.62911 11.1964 9.45164 11.0189C9.27418 10.8414 9.17448 10.6007 9.17448 10.3498V3.95054C9.17392 3.82592 9.19798 3.70241 9.24529 3.58711C9.2926 3.47181 9.36221 3.36699 9.45014 3.27866C9.53807 3.19034 9.64257 3.12026 9.75766 3.07244C9.87275 3.02462 9.99615 3 10.1208 3C10.3729 3 10.6147 3.10015 10.7929 3.27841C10.9712 3.45667 11.0713 3.69844 11.0713 3.95054V10.3498C11.0713 10.4744 11.0467 10.5978 10.9989 10.7129C10.9511 10.828 10.881 10.9325 10.7927 11.0204C10.7043 11.1083 10.5995 11.1779 10.4842 11.2252C10.3689 11.2726 10.2454 11.2966 10.1208 11.2961Z" fill="white" stroke="#263238" stroke-miterlimit="10" stroke-linecap="round"/>
<path d="M16.2823 11.2961C16.0314 11.2961 15.7907 11.1964 15.6132 11.0189C15.4357 10.8414 15.336 10.6007 15.336 10.3498V3.95054C15.3355 3.82592 15.3595 3.70241 15.4069 3.58711C15.4542 3.47181 15.5238 3.36699 15.6117 3.27866C15.6996 3.19034 15.8041 3.12026 15.9192 3.07244C16.0343 3.02462 16.1577 3 16.2823 3C16.5344 3 16.7762 3.10015 16.9545 3.27841C17.1327 3.45667 17.2329 3.69844 17.2329 3.95054V10.3498C17.2329 10.4744 17.2083 10.5978 17.1604 10.7129C17.1126 10.828 17.0425 10.9325 16.9542 11.0204C16.8659 11.1083 16.7611 11.1779 16.6458 11.2252C16.5305 11.2726 16.407 11.2966 16.2823 11.2961Z" fill="white" stroke="#263238" stroke-miterlimit="10" stroke-linecap="round"/>
<path d="M93.3274 10.1206C93.3283 9.7627 93.2229 9.41261 93.0245 9.11468C92.8262 8.81675 92.5439 8.58439 92.2134 8.44704C91.883 8.30969 91.5191 8.27354 91.1681 8.34315C90.817 8.41277 90.4945 8.58503 90.2414 8.8381C89.9884 9.09117 89.8161 9.41366 89.7465 9.76472C89.6769 10.1158 89.713 10.4796 89.8504 10.8101C89.9877 11.1406 90.2201 11.4229 90.518 11.6212C90.816 11.8195 91.166 11.9249 91.5239 11.9241C92.0023 11.9241 92.461 11.7341 92.7992 11.3959C93.1374 11.0576 93.3274 10.5989 93.3274 10.1206Z" fill="white" stroke="#263238" stroke-miterlimit="10" stroke-linecap="round"/>
<path d="M97.6261 11.9241C98.6221 11.9241 99.4296 11.1166 99.4296 10.1206C99.4296 9.12456 98.6221 8.31711 97.6261 8.31711C96.6301 8.31711 95.8226 9.12456 95.8226 10.1206C95.8226 11.1166 96.6301 11.9241 97.6261 11.9241Z" fill="white" stroke="#263238" stroke-miterlimit="10" stroke-linecap="round"/>
<path d="M91.5536 11.2961C91.3026 11.2961 91.0619 11.1964 90.8845 11.0189C90.707 10.8414 90.6073 10.6007 90.6073 10.3498V3.95054C90.6067 3.82592 90.6308 3.70241 90.6781 3.58711C90.7254 3.47181 90.795 3.36699 90.883 3.27866C90.9709 3.19034 91.0754 3.12026 91.1905 3.07244C91.3056 3.02462 91.429 3 91.5536 3C91.8057 3 92.0475 3.10015 92.2257 3.27841C92.404 3.45667 92.5041 3.69844 92.5041 3.95054V10.3498C92.5041 10.4744 92.4795 10.5978 92.4317 10.7129C92.3839 10.828 92.3138 10.9325 92.2255 11.0204C92.1371 11.1083 92.0323 11.1779 91.917 11.2252C91.8017 11.2726 91.6782 11.2966 91.5536 11.2961Z" fill="white" stroke="#263238" stroke-miterlimit="10" stroke-linecap="round"/>
<path d="M97.7195 11.2961C97.5938 11.2983 97.4689 11.2755 97.3521 11.229C97.2353 11.1824 97.129 11.1131 97.0393 11.025C96.9496 10.9369 96.8784 10.8318 96.8298 10.7158C96.7812 10.5999 96.7562 10.4755 96.7562 10.3498V3.95054C96.7562 3.69844 96.8563 3.45667 97.0346 3.27841C97.2128 3.10015 97.4546 3 97.7067 3C97.8313 3 97.9548 3.02462 98.0698 3.07244C98.1849 3.12026 98.2894 3.19034 98.3774 3.27866C98.4653 3.36699 98.5349 3.47181 98.5822 3.58711C98.6295 3.70241 98.6536 3.82592 98.653 3.95054V10.3498C98.653 10.5985 98.5551 10.8373 98.3804 11.0144C98.2057 11.1915 97.9682 11.2927 97.7195 11.2961Z" fill="white" stroke="#263238" stroke-miterlimit="10" stroke-linecap="round"/>
<path d="M50.8075 11.9241C51.8036 11.9241 52.611 11.1166 52.611 10.1206C52.611 9.12456 51.8036 8.31711 50.8075 8.31711C49.8115 8.31711 49.004 9.12456 49.004 10.1206C49.004 11.1166 49.8115 11.9241 50.8075 11.9241Z" fill="white" stroke="#263238" stroke-miterlimit="10" stroke-linecap="round"/>
<path d="M56.9096 11.9241C57.9057 11.9241 58.7131 11.1166 58.7131 10.1206C58.7131 9.12456 57.9057 8.31711 56.9096 8.31711C55.9136 8.31711 55.1062 9.12456 55.1062 10.1206C55.1062 11.1166 55.9136 11.9241 56.9096 11.9241Z" fill="white" stroke="#263238" stroke-miterlimit="10" stroke-linecap="round"/>
<path d="M50.8372 11.2961C50.5862 11.2961 50.3456 11.1964 50.1681 11.0189C49.9906 10.8414 49.8909 10.6007 49.8909 10.3498V3.95054C49.8904 3.82592 49.9144 3.70241 49.9617 3.58711C50.009 3.47181 50.0787 3.36699 50.1666 3.27866C50.2545 3.19034 50.359 3.12026 50.4741 3.07244C50.5892 3.02462 50.7126 3 50.8372 3C51.0893 3 51.3311 3.10015 51.5094 3.27841C51.6876 3.45667 51.7878 3.69844 51.7878 3.95054V10.3498C51.7878 10.4744 51.7632 10.5978 51.7153 10.7129C51.6675 10.828 51.5974 10.9325 51.5091 11.0204C51.4208 11.1083 51.316 11.1779 51.2007 11.2252C51.0854 11.2726 50.9619 11.2966 50.8372 11.2961Z" fill="white" stroke="#263238" stroke-miterlimit="10" stroke-linecap="round"/>
<path d="M56.9987 11.2961C56.7478 11.2961 56.5071 11.1964 56.3296 11.0189C56.1521 10.8414 56.0524 10.6007 56.0524 10.3498V3.95054C56.0519 3.82592 56.0759 3.70241 56.1233 3.58711C56.1706 3.47181 56.2402 3.36699 56.3281 3.27866C56.416 3.19034 56.5205 3.12026 56.6356 3.07244C56.7507 3.02462 56.8741 3 56.9987 3C57.1236 3 57.2472 3.02459 57.3625 3.07236C57.4778 3.12013 57.5826 3.19014 57.6709 3.27841C57.7591 3.36668 57.8292 3.47146 57.8769 3.58679C57.9247 3.70211 57.9493 3.82572 57.9493 3.95054V10.3498C57.9493 10.4744 57.9247 10.5978 57.8768 10.7129C57.829 10.828 57.7589 10.9325 57.6706 11.0204C57.5823 11.1083 57.4775 11.1779 57.3622 11.2252C57.2469 11.2726 57.1234 11.2966 56.9987 11.2961Z" fill="white" stroke="#263238" stroke-miterlimit="10" stroke-linecap="round"/>
<path d="M12.8621 31.7413L6.54773 37.3088" stroke="#263238" stroke-width="2" stroke-linecap="round" stroke-linejoin="round"/>
<path d="M8.49124 31.7413L12.8621 36.9353" stroke="#263238" stroke-width="2" stroke-linecap="round" stroke-linejoin="round"/>
<path d="M82.7484 23.8229L76.4341 29.3861" stroke="#263238" stroke-width="2" stroke-linecap="round" stroke-linejoin="round"/>
<path d="M78.3776 23.8229L82.7484 29.0169" stroke="#263238" stroke-width="2" stroke-linecap="round" stroke-linejoin="round"/>
<path d="M41.3699 23.8229L35.0513 29.3861" stroke="#263238" stroke-width="2" stroke-linecap="round" stroke-linejoin="round"/>
<path d="M36.9949 23.8229L41.3699 29.0169" stroke="#263238" stroke-width="2" stroke-linecap="round" stroke-linejoin="round"/>
<path d="M97.1932 23.6659L90.8746 29.2333" stroke="#263238" stroke-width="2" stroke-linecap="round" stroke-linejoin="round"/>
<path d="M92.8182 23.6659L97.1932 28.8599" stroke="#263238" stroke-width="2" stroke-linecap="round" stroke-linejoin="round"/>
</g>
<defs>
<clipPath id="clip0_41_1785">
<rect width="107" height="107" fill="white"/>
</clipPath>
</defs>
</svg>
