<svg width="118" height="118" viewBox="0 0 118 118" fill="none" xmlns="http://www.w3.org/2000/svg">
<path d="M109.969 102.188L97.2273 102.247L84.4856 102.266L59 102.306L33.5144 102.268L20.7727 102.247L8.02872 102.188L20.7727 102.131L33.5144 102.11L59 102.07L84.4856 102.11L97.2273 102.131L109.969 102.188Z" fill="#263238"/>
<path d="M98.5206 33.3303C98.5032 32.6079 98.5308 31.8851 98.6032 31.1662C98.6659 30.4468 98.7723 29.732 98.9218 29.0256C98.9391 29.748 98.9116 30.4708 98.8392 31.1898C98.7765 31.9091 98.6701 32.6239 98.5206 33.3303Z" fill="#263238"/>
<path d="M97.2462 33.5781C96.8714 32.9605 96.5349 32.3205 96.2385 31.6618C95.9314 31.0081 95.6658 30.3357 95.4431 29.6487C96.1864 30.8884 96.791 32.2061 97.2462 33.5781Z" fill="#263238"/>
<path d="M96.2691 34.43C95.6359 34.0828 95.0243 33.6974 94.4378 33.276C93.8444 32.8629 93.2777 32.4128 92.7409 31.9284C94.0044 32.6317 95.1874 33.4705 96.2691 34.43Z" fill="#263238"/>
<path d="M95.8467 35.6549C94.4015 35.679 92.9579 35.5444 91.5421 35.2537C92.2637 35.2363 92.9856 35.2639 93.7038 35.3363C94.4239 35.399 95.1395 35.5054 95.8467 35.6549Z" fill="#263238"/>
<path d="M100.423 37.229C101.69 37.9321 102.877 38.7709 103.963 39.7306C103.328 39.385 102.717 38.9996 102.131 38.5766C101.535 38.1627 100.964 37.7127 100.423 37.229Z" fill="#263238"/>
<path d="M100.845 36.0042C102.291 35.9802 103.735 36.1147 105.152 36.4054C104.43 36.4228 103.707 36.3952 102.988 36.3228C102.268 36.2601 101.552 36.1537 100.845 36.0042Z" fill="#263238"/>
<path d="M100.597 34.7298C101.215 34.355 101.855 34.0184 102.514 33.722C103.167 33.415 103.84 33.1494 104.527 32.9267C103.91 33.3018 103.271 33.6391 102.613 33.9368C101.958 34.2427 101.285 34.5075 100.597 34.7298Z" fill="#263238"/>
<path d="M99.7454 33.748C100.093 33.1142 100.479 32.5026 100.902 31.9166C101.313 31.3228 101.763 30.756 102.247 30.2198C101.545 31.4874 100.706 32.6744 99.7454 33.7598V33.748Z" fill="#263238"/>
<path d="M46.02 87.0344C45.758 87.3672 23.7227 88.356 22.6749 88.054C22.6239 88.0391 22.5749 88.0185 22.5285 87.9926C21.2305 87.3837 15.6609 83.1782 14.7736 81.4058C14.0656 79.9898 18.264 72.2396 19.7296 70.9109C20.7043 70.0306 22.512 69.6837 22.512 69.6837C22.512 69.6837 27.6143 54.9573 30.7602 51.8752C31.5508 51.1011 45.2152 50.799 47.6555 51.9129C48.7009 52.3849 51.2427 54.9809 51.3135 55.4529C51.3725 56.135 46.2772 86.697 46.02 87.0344Z" fill="#37474F"/>
<path d="M46.171 87.0344C45.9091 87.3672 23.8761 88.356 22.8259 88.054C22.7753 88.0383 22.7263 88.0177 22.6796 87.9926C24.8036 82.2838 34.7156 55.4978 34.9988 55.3255C35.282 55.1532 48.3375 55.2311 51.4645 55.4576C51.5306 56.135 46.4354 86.697 46.171 87.0344Z" fill="#263238"/>
<path d="M38.0786 52.9608C37.8591 52.7531 37.7128 49.7606 38.1187 49.1635C38.5718 48.4956 43.811 48.826 44.1202 49.3995C44.4294 49.973 44.578 52.9608 44.4199 53.0693C44.2618 53.1779 43.3886 53.2794 43.2706 53.0882C43.1526 52.897 43.1597 50.4238 43.0676 50.2916C42.9756 50.1594 39.3058 49.9234 39.1784 50.1122C39.0509 50.301 39.3601 52.8026 39.2138 52.9112C39.0674 53.0198 38.2934 53.1637 38.0786 52.9608Z" fill="#37474F"/>
<path d="M27.2585 66.5577L25.6408 65.7996L24.7685 67.6609L26.3862 68.419L27.2585 66.5577Z" fill="#DBDBDB"/>
<path d="M27.1803 68.0552L24.5432 66.8193L23.5478 68.9435L26.1848 70.1793L27.1803 68.0552Z" fill="#C7C7C7"/>
<path d="M26.7647 73.6603L22.2076 83.3835L15.9394 80.443L20.4942 70.7221C21.3981 68.7987 23.3026 67.8901 25.2142 68.7822C27.1258 69.6743 27.6663 71.744 26.7647 73.6603Z" fill="#006D77"/>
<path opacity="0.1" d="M26.7647 73.6603L22.2076 83.3835L15.9394 80.443L20.4942 70.7221C21.3981 68.7987 23.3026 67.8901 25.2142 68.7822C27.1258 69.6743 27.6663 71.744 26.7647 73.6603Z" fill="black"/>
<path d="M24.544 69.3509C24.5285 69.383 24.5068 69.4117 24.4803 69.4354C24.4537 69.4591 24.4227 69.4774 24.389 69.4891C24.3554 69.5008 24.3198 69.5058 24.2842 69.5038C24.2486 69.5017 24.2138 69.4927 24.1817 69.4772C24.1497 69.4617 24.121 69.4401 24.0972 69.4135C24.0735 69.3869 24.0553 69.3559 24.0436 69.3222C24.0319 69.2886 24.0269 69.253 24.0289 69.2174C24.031 69.1818 24.04 69.147 24.0555 69.1149C24.0868 69.0502 24.1425 69.0005 24.2105 68.9768C24.2784 68.9531 24.353 68.9574 24.4177 68.9887C24.4825 69.02 24.5322 69.0757 24.5559 69.1437C24.5796 69.2116 24.5753 69.2862 24.544 69.3509Z" fill="white"/>
<path d="M26.6326 73.0066C26.6099 73.0547 26.5735 73.0949 26.528 73.1223C26.4824 73.1497 26.4298 73.163 26.3767 73.1605C26.3236 73.1581 26.2724 73.1399 26.2296 73.1084C26.1869 73.0768 26.1544 73.0333 26.1363 72.9833C26.1182 72.9334 26.1153 72.8791 26.128 72.8275C26.1407 72.7759 26.1684 72.7292 26.2076 72.6933C26.2468 72.6574 26.2958 72.634 26.3483 72.6259C26.4009 72.6178 26.4546 72.6254 26.5028 72.6479C26.5349 72.6628 26.5638 72.684 26.5877 72.7101C26.6117 72.7363 26.6302 72.7669 26.6423 72.8003C26.6543 72.8336 26.6597 72.869 26.658 72.9044C26.6564 72.9398 26.6477 72.9745 26.6326 73.0066Z" fill="white"/>
<path d="M23.744 71.9517C23.7288 71.9836 23.7075 72.0122 23.6812 72.0359C23.655 72.0596 23.6243 72.0779 23.591 72.0897C23.5577 72.1016 23.5224 72.1067 23.4871 72.1049C23.4518 72.1031 23.4172 72.0943 23.3852 72.0791C23.3533 72.0636 23.3248 72.042 23.3012 72.0155C23.2776 71.9889 23.2595 71.958 23.2479 71.9245C23.2363 71.8909 23.2314 71.8555 23.2335 71.82C23.2356 71.7846 23.2447 71.75 23.2602 71.718C23.2757 71.6861 23.2973 71.6576 23.3238 71.634C23.3504 71.6104 23.3813 71.5923 23.4148 71.5807C23.4483 71.5691 23.4838 71.5642 23.5192 71.5663C23.5547 71.5684 23.5893 71.5775 23.6212 71.5929C23.6845 71.6249 23.7327 71.6803 23.7556 71.7473C23.7786 71.8144 23.7744 71.8877 23.744 71.9517Z" fill="white"/>
<path d="M22.892 74.399C22.8773 74.4313 22.8563 74.4604 22.8301 74.4845C22.804 74.5087 22.7734 74.5273 22.7399 74.5394C22.7065 74.5515 22.671 74.5568 22.6355 74.555C22.6 74.5531 22.5653 74.5442 22.5333 74.5288C22.4852 74.5061 22.4449 74.4697 22.4175 74.4242C22.3901 74.3786 22.3768 74.326 22.3793 74.2729C22.3818 74.2198 22.4 74.1686 22.4315 74.1258C22.463 74.0831 22.5065 74.0506 22.5565 74.0325C22.6065 74.0144 22.6607 74.0115 22.7123 74.0242C22.7639 74.0369 22.8106 74.0646 22.8465 74.1038C22.8824 74.143 22.9059 74.192 22.914 74.2445C22.9221 74.2971 22.9144 74.3508 22.892 74.399Z" fill="white"/>
<path d="M19.2245 75.6545C19.2098 75.6869 19.1888 75.716 19.1627 75.7401C19.1366 75.7642 19.1059 75.7828 19.0725 75.7949C19.0391 75.807 19.0036 75.8123 18.9681 75.8105C18.9326 75.8087 18.8978 75.7998 18.8658 75.7843C18.8339 75.7688 18.8053 75.7472 18.7818 75.7207C18.7582 75.6941 18.7401 75.6632 18.7285 75.6297C18.7169 75.5961 18.712 75.5607 18.7141 75.5252C18.7162 75.4898 18.7253 75.4552 18.7407 75.4232C18.7562 75.3913 18.7779 75.3628 18.8044 75.3392C18.8309 75.3156 18.8619 75.2975 18.8954 75.2859C18.9289 75.2743 18.9644 75.2694 18.9998 75.2715C19.0352 75.2736 19.0699 75.2827 19.1018 75.2982C19.1335 75.3133 19.1618 75.3345 19.1852 75.3607C19.2085 75.3869 19.2264 75.4174 19.2379 75.4506C19.2493 75.4838 19.254 75.5189 19.2517 75.5539C19.2494 75.5889 19.2402 75.6231 19.2245 75.6545Z" fill="white"/>
<path d="M19.9986 73.37C19.9831 73.4021 19.9615 73.4308 19.9349 73.4545C19.9083 73.4782 19.8773 73.4965 19.8436 73.5082C19.81 73.5199 19.7744 73.5249 19.7388 73.5229C19.7033 73.5208 19.6684 73.5118 19.6364 73.4963C19.6043 73.4808 19.5756 73.4591 19.5519 73.4326C19.5282 73.406 19.5099 73.375 19.4982 73.3413C19.4865 73.3077 19.4815 73.2721 19.4835 73.2365C19.4856 73.2009 19.4946 73.1661 19.5101 73.134C19.5414 73.0693 19.5971 73.0196 19.6651 72.9959C19.733 72.9722 19.8076 72.9765 19.8724 73.0078C19.9371 73.0391 19.9868 73.0948 20.0105 73.1628C20.0342 73.2307 20.0299 73.3053 19.9986 73.37Z" fill="white"/>
<path d="M21.1385 71.0974C21.123 71.1294 21.1014 71.1581 21.0748 71.1818C21.0482 71.2055 21.0172 71.2238 20.9835 71.2355C20.9499 71.2472 20.9143 71.2522 20.8787 71.2502C20.8431 71.2481 20.8083 71.2391 20.7763 71.2236C20.7442 71.2081 20.7155 71.1865 20.6918 71.1599C20.6681 71.1333 20.6498 71.1023 20.6381 71.0686C20.6264 71.035 20.6214 70.9994 20.6234 70.9638C20.6255 70.9282 20.6345 70.8934 20.65 70.8614C20.6813 70.7966 20.737 70.7469 20.805 70.7232C20.8729 70.6995 20.9475 70.7038 21.0123 70.7351C21.077 70.7664 21.1267 70.8221 21.1504 70.8901C21.1741 70.958 21.1698 71.0326 21.1385 71.0974Z" fill="white"/>
<path d="M22.8566 70.1864C22.8342 70.2348 22.798 70.2754 22.7525 70.3032C22.7071 70.3309 22.6544 70.3446 22.6011 70.3423C22.5479 70.3401 22.4965 70.3221 22.4535 70.2907C22.4105 70.2592 22.3778 70.2157 22.3596 70.1656C22.3413 70.1155 22.3384 70.0612 22.3511 70.0094C22.3638 69.9577 22.3915 69.9109 22.4309 69.8749C22.4702 69.839 22.5193 69.8155 22.572 69.8075C22.6247 69.7995 22.6786 69.8074 22.7268 69.83C22.7911 69.8603 22.8408 69.9147 22.8652 69.9815C22.8895 70.0482 22.8864 70.1219 22.8566 70.1864Z" fill="white"/>
<path d="M21.9669 72.7234C21.9442 72.7715 21.9078 72.8117 21.8623 72.8391C21.8167 72.8665 21.7641 72.8798 21.711 72.8773C21.6579 72.8749 21.6067 72.8567 21.5639 72.8252C21.5211 72.7936 21.4887 72.7501 21.4706 72.7001C21.4525 72.6502 21.4496 72.5959 21.4623 72.5443C21.475 72.4927 21.5027 72.446 21.5419 72.4101C21.5811 72.3743 21.6301 72.3508 21.6826 72.3427C21.7351 72.3346 21.7889 72.3423 21.8371 72.3647C21.8692 72.3796 21.8981 72.4008 21.922 72.4269C21.946 72.4531 21.9645 72.4837 21.9766 72.5171C21.9886 72.5504 21.994 72.5858 21.9923 72.6212C21.9907 72.6566 21.982 72.6913 21.9669 72.7234Z" fill="white"/>
<path d="M25.5918 71.2083C25.5691 71.2564 25.5327 71.2966 25.4872 71.324C25.4416 71.3514 25.389 71.3647 25.3359 71.3622C25.2828 71.3597 25.2317 71.3416 25.1889 71.31C25.1461 71.2785 25.1136 71.235 25.0955 71.185C25.0774 71.135 25.0746 71.0808 25.0873 71.0292C25.1 70.9776 25.1277 70.9309 25.1669 70.895C25.2061 70.8591 25.255 70.8357 25.3076 70.8276C25.3601 70.8195 25.4138 70.8271 25.462 70.8496C25.4942 70.8645 25.523 70.8857 25.547 70.9118C25.5709 70.938 25.5894 70.9686 25.6015 71.0019C25.6136 71.0353 25.6189 71.0707 25.6173 71.1061C25.6156 71.1415 25.607 71.1762 25.5918 71.2083Z" fill="white"/>
<path d="M24.78 73.7193C24.7573 73.7674 24.7209 73.8077 24.6754 73.8351C24.6298 73.8625 24.5772 73.8758 24.5241 73.8733C24.471 73.8708 24.4198 73.8526 24.377 73.8211C24.3343 73.7895 24.3018 73.746 24.2837 73.6961C24.2656 73.6461 24.2627 73.5919 24.2754 73.5403C24.2881 73.4886 24.3158 73.4419 24.355 73.4061C24.3942 73.3702 24.4432 73.3467 24.4957 73.3386C24.5483 73.3305 24.602 73.3382 24.6502 73.3606C24.6823 73.3756 24.7112 73.3967 24.7351 73.4229C24.7591 73.449 24.7776 73.4796 24.7897 73.513C24.8017 73.5463 24.8071 73.5817 24.8054 73.6171C24.8038 73.6525 24.7951 73.6873 24.78 73.7193Z" fill="white"/>
<path d="M21.0323 75.048C21.0096 75.0961 20.9732 75.1363 20.9277 75.1637C20.8821 75.1911 20.8295 75.2044 20.7764 75.2019C20.7233 75.1995 20.6721 75.1813 20.6294 75.1498C20.5866 75.1182 20.5541 75.0747 20.536 75.0247C20.5179 74.9748 20.5151 74.9205 20.5277 74.8689C20.5404 74.8173 20.5681 74.7706 20.6074 74.7347C20.6466 74.6989 20.6955 74.6754 20.748 74.6673C20.8006 74.6592 20.8543 74.6669 20.9025 74.6893C20.9347 74.7042 20.9635 74.7254 20.9875 74.7515C21.0114 74.7777 21.0299 74.8083 21.042 74.8417C21.054 74.875 21.0594 74.9104 21.0577 74.9458C21.0561 74.9812 21.0474 75.0159 21.0323 75.048Z" fill="white"/>
<path d="M22.7598 78.2198C22.7371 78.2679 22.7007 78.3082 22.6552 78.3356C22.6096 78.363 22.557 78.3763 22.5039 78.3738C22.4508 78.3713 22.3997 78.3531 22.3569 78.3216C22.3141 78.2901 22.2816 78.2466 22.2635 78.1966C22.2454 78.1466 22.2426 78.0924 22.2553 78.0408C22.268 77.9892 22.2957 77.9425 22.3349 77.9066C22.3741 77.8707 22.423 77.8472 22.4756 77.8391C22.5281 77.831 22.5818 77.8387 22.63 77.8611C22.6622 77.8761 22.691 77.8972 22.715 77.9234C22.7389 77.9495 22.7574 77.9802 22.7695 78.0135C22.7816 78.0468 22.7869 78.0822 22.7853 78.1176C22.7836 78.153 22.775 78.1878 22.7598 78.2198Z" fill="white"/>
<path d="M21.8607 80.0394C21.838 80.0875 21.8016 80.1277 21.756 80.1551C21.7105 80.1825 21.6579 80.1958 21.6048 80.1933C21.5517 80.1908 21.5005 80.1727 21.4577 80.1411C21.4149 80.1096 21.3825 80.0661 21.3644 80.0161C21.3463 79.9662 21.3434 79.9119 21.3561 79.8603C21.3688 79.8087 21.3965 79.762 21.4357 79.7261C21.4749 79.6902 21.5239 79.6668 21.5764 79.6587C21.6289 79.6506 21.6827 79.6582 21.7309 79.6807C21.763 79.6956 21.7919 79.7168 21.8158 79.7429C21.8398 79.7691 21.8583 79.7997 21.8704 79.833C21.8824 79.8664 21.8878 79.9018 21.8861 79.9372C21.8845 79.9726 21.8758 80.0073 21.8607 80.0394Z" fill="white"/>
<path d="M20.2535 77.0988C20.2385 77.131 20.2174 77.1598 20.1912 77.1838C20.1651 77.2077 20.1345 77.2262 20.1011 77.2383C20.0678 77.2504 20.0324 77.2557 19.997 77.2541C19.9616 77.2524 19.9268 77.2438 19.8948 77.2286C19.8467 77.206 19.8064 77.1695 19.779 77.124C19.7516 77.0785 19.7383 77.0258 19.7408 76.9727C19.7433 76.9196 19.7615 76.8685 19.793 76.8257C19.8246 76.7829 19.8681 76.7504 19.918 76.7323C19.968 76.7142 20.0222 76.7114 20.0738 76.7241C20.1255 76.7368 20.1722 76.7645 20.208 76.8037C20.2439 76.8429 20.2674 76.8918 20.2755 76.9444C20.2836 76.9969 20.2759 77.0506 20.2535 77.0988Z" fill="white"/>
<path d="M17.7212 79.4046C17.7057 79.4366 17.6841 79.4653 17.6575 79.4891C17.6309 79.5128 17.5999 79.531 17.5662 79.5427C17.5326 79.5544 17.497 79.5594 17.4614 79.5574C17.4258 79.5553 17.391 79.5463 17.359 79.5308C17.3269 79.5153 17.2982 79.4937 17.2745 79.4671C17.2508 79.4405 17.2325 79.4095 17.2208 79.3758C17.2091 79.3422 17.2041 79.3066 17.2061 79.271C17.2082 79.2354 17.2172 79.2006 17.2327 79.1686C17.264 79.1038 17.3197 79.0541 17.3877 79.0304C17.4556 79.0067 17.5302 79.011 17.595 79.0423C17.6597 79.0736 17.7094 79.1293 17.7331 79.1973C17.7568 79.2652 17.7525 79.3398 17.7212 79.4046Z" fill="white"/>
<path d="M22.033 76.5914C22.0103 76.6395 21.9739 76.6798 21.9283 76.7072C21.8828 76.7346 21.8301 76.7479 21.777 76.7454C21.724 76.7429 21.6728 76.7247 21.63 76.6932C21.5872 76.6617 21.5547 76.6182 21.5367 76.5682C21.5186 76.5182 21.5157 76.464 21.5284 76.4124C21.5411 76.3608 21.5688 76.3141 21.608 76.2782C21.6472 76.2423 21.6962 76.2188 21.7487 76.2107C21.8012 76.2026 21.855 76.2103 21.9032 76.2327C21.9353 76.2477 21.9642 76.2688 21.9881 76.295C22.012 76.3211 22.0306 76.3518 22.0426 76.3851C22.0547 76.4184 22.06 76.4538 22.0584 76.4892C22.0567 76.5246 22.0481 76.5594 22.033 76.5914Z" fill="white"/>
<path d="M21.1338 78.588C21.1111 78.6361 21.0747 78.6763 21.0292 78.7037C20.9836 78.7311 20.931 78.7444 20.8779 78.7419C20.8248 78.7395 20.7736 78.7213 20.7308 78.6898C20.688 78.6582 20.6556 78.6147 20.6375 78.5647C20.6194 78.5148 20.6165 78.4605 20.6292 78.4089C20.6419 78.3573 20.6696 78.3106 20.7088 78.2747C20.748 78.2389 20.797 78.2154 20.8495 78.2073C20.902 78.1992 20.9558 78.2069 21.004 78.2293C21.0361 78.2442 21.065 78.2654 21.0889 78.2916C21.1129 78.3177 21.1314 78.3483 21.1435 78.3817C21.1555 78.415 21.1609 78.4504 21.1592 78.4858C21.1576 78.5212 21.1489 78.5559 21.1338 78.588Z" fill="white"/>
<path d="M20.2063 80.568C20.1836 80.6161 20.1472 80.6564 20.1017 80.6838C20.0561 80.7112 20.0035 80.7245 19.9504 80.722C19.8973 80.7195 19.8462 80.7013 19.8034 80.6698C19.7606 80.6383 19.7281 80.5948 19.71 80.5448C19.6919 80.4948 19.6891 80.4406 19.7018 80.389C19.7145 80.3374 19.7422 80.2907 19.7814 80.2548C19.8206 80.2189 19.8695 80.1954 19.9221 80.1873C19.9746 80.1792 20.0283 80.1869 20.0765 80.2093C20.1087 80.2243 20.1375 80.2454 20.1615 80.2716C20.1854 80.2977 20.2039 80.3284 20.216 80.3617C20.2281 80.395 20.2334 80.4304 20.2318 80.4658C20.2301 80.5012 20.2215 80.536 20.2063 80.568Z" fill="white"/>
<path d="M21.0205 82.0666C20.9898 82.1311 20.9349 82.1809 20.8678 82.2052C20.8006 82.2295 20.7266 82.2263 20.6618 82.1964C20.6297 82.1809 20.601 82.1593 20.5773 82.1327C20.5536 82.1061 20.5354 82.0751 20.5236 82.0415C20.5119 82.0078 20.5069 81.9722 20.509 81.9366C20.511 81.9011 20.52 81.8663 20.5355 81.8342C20.551 81.8021 20.5727 81.7734 20.5993 81.7497C20.6259 81.726 20.6569 81.7077 20.6905 81.696C20.7241 81.6843 20.7598 81.6793 20.7953 81.6814C20.8309 81.6834 20.8657 81.6924 20.8978 81.7079C20.961 81.7399 21.0092 81.7953 21.0322 81.8623C21.0551 81.9293 21.0509 82.0027 21.0205 82.0666Z" fill="white"/>
<path d="M18.5637 77.5284C18.5325 77.5931 18.4767 77.6428 18.4088 77.6665C18.3408 77.6902 18.2663 77.6859 18.2015 77.6546C18.1367 77.6233 18.087 77.5676 18.0633 77.4996C18.0397 77.4317 18.0439 77.3571 18.0752 77.2924C18.0907 77.2603 18.1124 77.2316 18.139 77.2079C18.1656 77.1842 18.1966 77.1659 18.2302 77.1542C18.2638 77.1425 18.2995 77.1375 18.335 77.1395C18.3706 77.1416 18.4054 77.1506 18.4375 77.1661C18.4696 77.1816 18.4983 77.2032 18.522 77.2298C18.5457 77.2564 18.5639 77.2874 18.5756 77.3211C18.5874 77.3547 18.5924 77.3903 18.5903 77.4259C18.5883 77.4615 18.5792 77.4963 18.5637 77.5284Z" fill="white"/>
<path d="M19.3732 78.9798C19.3505 79.0278 19.3141 79.0681 19.2686 79.0955C19.223 79.1229 19.1704 79.1362 19.1173 79.1337C19.0642 79.1312 19.0131 79.1131 18.9703 79.0815C18.9275 79.05 18.895 79.0065 18.8769 78.9565C18.8588 78.9065 18.856 78.8523 18.8687 78.8007C18.8814 78.7491 18.9091 78.7024 18.9483 78.6665C18.9875 78.6306 19.0364 78.6071 19.089 78.5991C19.1415 78.591 19.1952 78.5986 19.2434 78.621C19.2756 78.636 19.3044 78.6572 19.3284 78.6833C19.3523 78.7095 19.3708 78.7401 19.3829 78.7734C19.395 78.8068 19.4003 78.8421 19.3987 78.8776C19.397 78.913 19.3884 78.9477 19.3732 78.9798Z" fill="white"/>
<path d="M22.6111 81.6961C22.5885 81.7442 22.5521 81.7845 22.5065 81.8119C22.461 81.8393 22.4083 81.8525 22.3552 81.8501C22.3021 81.8476 22.251 81.8294 22.2082 81.7979C22.1654 81.7663 22.1329 81.7228 22.1148 81.6729C22.0968 81.6229 22.0939 81.5687 22.1066 81.5171C22.1193 81.4654 22.147 81.4187 22.1862 81.3829C22.2254 81.347 22.2743 81.3235 22.3269 81.3154C22.3794 81.3073 22.4332 81.315 22.4813 81.3374C22.5458 81.3681 22.5956 81.423 22.6199 81.4901C22.6442 81.5572 22.641 81.6313 22.6111 81.6961Z" fill="white"/>
<path d="M18.5283 80.922C18.5057 80.9701 18.4693 81.0104 18.4237 81.0378C18.3782 81.0652 18.3255 81.0785 18.2724 81.076C18.2193 81.0735 18.1682 81.0553 18.1254 81.0238C18.0826 80.9923 18.0501 80.9488 18.032 80.8988C18.014 80.8488 18.0111 80.7946 18.0238 80.743C18.0365 80.6914 18.0642 80.6447 18.1034 80.6088C18.1426 80.5729 18.1915 80.5494 18.2441 80.5413C18.2966 80.5332 18.3504 80.5409 18.3985 80.5633C18.4307 80.5783 18.4596 80.5994 18.4835 80.6256C18.5074 80.6517 18.526 80.6824 18.538 80.7157C18.5501 80.749 18.5554 80.7844 18.5538 80.8198C18.5521 80.8552 18.5435 80.89 18.5283 80.922Z" fill="white"/>
<path d="M24.4732 77.8186C24.4505 77.8667 24.4141 77.907 24.3686 77.9344C24.323 77.9618 24.2704 77.9751 24.2173 77.9726C24.1642 77.9701 24.113 77.9519 24.0702 77.9204C24.0275 77.8888 23.995 77.8453 23.9769 77.7954C23.9588 77.7454 23.9559 77.6912 23.9686 77.6396C23.9813 77.5879 24.009 77.5413 24.0482 77.5054C24.0874 77.4695 24.1364 77.446 24.1889 77.4379C24.2415 77.4298 24.2952 77.4375 24.3434 77.4599C24.3755 77.4749 24.4044 77.496 24.4283 77.5222C24.4523 77.5483 24.4708 77.5789 24.4829 77.6123C24.4949 77.6456 24.5003 77.681 24.4986 77.7164C24.497 77.7518 24.4883 77.7866 24.4732 77.8186Z" fill="white"/>
<path d="M23.5764 79.735C23.5537 79.783 23.5173 79.8233 23.4717 79.8507C23.4262 79.8781 23.3736 79.8914 23.3205 79.8889C23.2674 79.8864 23.2162 79.8683 23.1734 79.8367C23.1306 79.8052 23.0982 79.7617 23.0801 79.7117C23.062 79.6617 23.0591 79.6075 23.0718 79.5559C23.0845 79.5043 23.1122 79.4576 23.1514 79.4217C23.1906 79.3858 23.2396 79.3623 23.2921 79.3543C23.3446 79.3462 23.3984 79.3538 23.4466 79.3762C23.4787 79.3912 23.5076 79.4124 23.5315 79.4385C23.5555 79.4647 23.574 79.4953 23.5861 79.5286C23.5981 79.562 23.6035 79.5973 23.6018 79.6328C23.6002 79.6682 23.5915 79.7029 23.5764 79.735Z" fill="white"/>
<path d="M23.7487 76.2422C23.726 76.2902 23.6896 76.3305 23.644 76.3579C23.5985 76.3853 23.5459 76.3986 23.4928 76.3961C23.4397 76.3936 23.3885 76.3755 23.3457 76.3439C23.3029 76.3124 23.2705 76.2689 23.2524 76.2189C23.2343 76.1689 23.2314 76.1147 23.2441 76.0631C23.2568 76.0115 23.2845 75.9648 23.3237 75.9289C23.3629 75.893 23.4119 75.8695 23.4644 75.8615C23.5169 75.8534 23.5707 75.861 23.6189 75.8834C23.651 75.8984 23.6799 75.9196 23.7038 75.9457C23.7278 75.9719 23.7463 76.0025 23.7584 76.0358C23.7704 76.0692 23.7758 76.1045 23.7741 76.14C23.7725 76.1754 23.7638 76.2101 23.7487 76.2422Z" fill="white"/>
<path d="M25.6414 75.6451C25.6187 75.6931 25.5823 75.7334 25.5368 75.7608C25.4912 75.7882 25.4386 75.8015 25.3855 75.799C25.3324 75.7965 25.2812 75.7784 25.2384 75.7468C25.1957 75.7153 25.1632 75.6718 25.1451 75.6218C25.127 75.5718 25.1241 75.5176 25.1368 75.466C25.1495 75.4144 25.1772 75.3677 25.2164 75.3318C25.2556 75.2959 25.3046 75.2725 25.3571 75.2644C25.4096 75.2563 25.4634 75.2639 25.5116 75.2864C25.5437 75.3013 25.5726 75.3225 25.5965 75.3486C25.6205 75.3748 25.639 75.4054 25.6511 75.4387C25.6631 75.4721 25.6685 75.5075 25.6668 75.5429C25.6652 75.5783 25.6565 75.613 25.6414 75.6451Z" fill="white"/>
<path d="M15.2055 80.5822C15.7341 83.1782 21.5019 85.9772 21.8961 85.9654C22.2902 85.9536 26.1181 76.4782 26.1181 76.4782C26.1181 76.4782 21.4524 74.9442 19.352 72.216C19.352 72.216 15.0403 79.768 15.2055 80.5822Z" fill="#455A64"/>
<path d="M59.7292 102.094H37.406C36.0466 96.9016 34.7982 92.3208 34.0029 89.4275C33.5026 87.6079 33.1816 86.4539 33.1202 86.2368C33.1169 86.224 33.113 86.2114 33.1084 86.199H56.3238L57.0318 89.4534C57.3126 90.7703 57.669 92.4318 58.0796 94.3316C58.1126 94.4968 58.1504 94.6643 58.1858 94.839C58.6531 97.0149 59.1794 99.4811 59.7292 102.094Z" fill="#455A64"/>
<path d="M40.7902 102.094H40.3702C39.2279 97.8849 38.1132 93.6684 37.026 89.444L36.9364 89.0876C36.9151 88.9909 37.0591 88.946 37.0874 89.0428C37.1275 89.1773 37.1676 89.3095 37.2054 89.444C38.4373 93.6495 39.622 97.8692 40.7902 102.094Z" fill="#263238"/>
<path d="M54.516 86.2368C54.334 87.34 54.0689 88.4279 53.723 89.4912C53.4634 90.3361 53.1496 91.2494 52.7956 92.191C52.72 92.4058 52.6351 92.6135 52.5596 92.8259C51.4338 95.6933 49.9636 98.615 48.4437 100.003H48.4319C48.2537 100.173 48.0593 100.326 47.8514 100.458L46.5581 101.258C46.5595 101.264 46.5595 101.271 46.5581 101.277C46.5581 101.355 46.4991 101.636 46.4259 102.089H24.636C24.0791 97.0432 25.2402 92.3232 26.2526 89.3638C26.607 88.2939 27.0295 87.2479 27.5176 86.232L54.516 86.2368Z" fill="#455A64"/>
<path d="M51.92 98.7731C50.5508 99.525 49.1404 100.199 47.6956 100.793C47.3109 100.958 46.9262 101.121 46.5345 101.279C46.5109 101.279 46.4873 101.301 46.4637 101.308C46.127 101.448 45.7895 101.582 45.4512 101.711C45.1208 101.839 44.7928 101.971 44.4577 102.094H43.7213C44.2287 101.839 44.7597 101.622 45.2766 101.386C45.994 101.071 46.7138 100.756 47.436 100.442C47.764 100.3 48.0921 100.156 48.4177 100.01H48.4295C49.5553 99.5094 50.6763 99.0091 51.835 98.5937C51.9507 98.5371 52.0262 98.7117 51.92 98.7731Z" fill="#263238"/>
<path d="M46.5463 101.296C46.5463 101.466 46.5321 101.747 46.4991 102.094H46.2631C46.3386 101.768 46.407 101.501 46.4731 101.308C46.4724 101.301 46.4724 101.294 46.4731 101.286C46.4849 101.256 46.5274 101.253 46.5368 101.286C46.5368 101.286 46.5463 101.289 46.5463 101.296Z" fill="#263238"/>
<path d="M29.6251 87.5938C29.3301 88.1838 29.0634 88.7738 28.8156 89.3921C27.3126 93.0877 26.7452 97.0971 27.1636 101.065C27.2037 101.409 27.2533 101.751 27.3052 102.094H26.9276C26.7785 101.097 26.6918 100.092 26.668 99.0846C26.5901 95.7524 27.2392 92.4432 28.5701 89.3874C28.8486 88.7525 29.1578 88.1295 29.4953 87.523C29.4999 87.5144 29.5062 87.5069 29.5137 87.5008C29.5213 87.4947 29.53 87.4902 29.5393 87.4874C29.5486 87.4847 29.5584 87.4838 29.568 87.4849C29.5777 87.4859 29.587 87.4888 29.5956 87.4935C29.6041 87.4981 29.6116 87.5044 29.6177 87.512C29.6238 87.5195 29.6283 87.5282 29.6311 87.5375C29.6338 87.5468 29.6347 87.5566 29.6337 87.5662C29.6326 87.5759 29.6297 87.5852 29.6251 87.5938Z" fill="#263238"/>
<path d="M45.9988 95.2213C46.02 94.3811 46.079 93.5433 46.1215 92.7055C46.2182 90.7278 46.2961 88.7384 46.4802 86.7678C46.4802 86.7515 46.4867 86.7359 46.4982 86.7244C46.5097 86.7129 46.5253 86.7064 46.5416 86.7064C46.5578 86.7064 46.5734 86.7129 46.5849 86.7244C46.5964 86.7359 46.6029 86.7515 46.6029 86.7678C46.6265 88.297 46.5675 89.8358 46.5368 91.3627C46.5203 92.1273 46.4991 92.8943 46.4778 93.6589C46.4365 94.3891 46.4318 95.1208 46.4637 95.8514C46.5038 96.4036 46.6241 97.4751 47.344 97.5412C48.0236 97.6049 48.5593 96.8733 48.7293 96.3376C49.1588 94.9735 49.3122 93.5055 49.4514 92.0896C49.534 91.2517 49.6308 87.8416 49.5859 86.9872C49.5859 86.933 49.6662 86.9353 49.6709 86.9872C49.7181 87.851 49.8361 88.71 49.8644 89.5832C49.8927 90.4564 49.8951 91.3108 49.8408 92.1792C49.7866 93.0052 49.7181 93.8312 49.593 94.6549C49.5091 95.4036 49.3307 96.1387 49.062 96.8426C48.8119 97.4232 48.3823 97.9565 47.731 98.0839C47.653 98.0972 47.5741 98.1051 47.495 98.1075C47.495 98.2845 47.4619 98.4639 47.4501 98.6385C47.4313 98.917 47.3959 99.1908 47.3581 99.4669C47.32 99.7378 47.264 100.006 47.1906 100.269C47.1313 100.536 47.036 100.793 46.9073 101.034C46.9024 101.041 46.8953 101.047 46.8869 101.05C46.8785 101.053 46.8694 101.054 46.8607 101.052C46.8521 101.049 46.8444 101.044 46.8388 101.037C46.8332 101.03 46.8299 101.022 46.8295 101.013C46.8231 100.748 46.8453 100.483 46.8956 100.222C46.9333 99.9531 46.9711 99.6793 47.0253 99.415C47.0796 99.1507 47.1292 98.8887 47.1835 98.6268C47.2189 98.4521 47.2425 98.2704 47.2755 98.0934C47.0653 98.0564 46.8674 97.9678 46.6998 97.8356C46.5322 97.7034 46.4 97.5317 46.315 97.3358C46.0058 96.6821 45.9822 95.9198 45.9988 95.2213Z" fill="#263238"/>
<path d="M45.5976 57.2772C48.413 60.8054 59.4531 73.3252 65.5891 74.4934C69.7215 75.284 82.9965 68.5273 85.904 66.08C87.084 65.0794 80.4453 55.1744 78.824 55.5733C77.0682 56.0052 67.5149 62.3559 66.2735 62.2828C65.0322 62.2096 55.2547 56.7132 49.324 54.28C45.7604 52.8074 44.0116 55.2924 45.5976 57.2772Z" fill="#AD6359"/>
<path d="M82.2578 68.44C84.8113 67.4559 92.5545 62.0255 93.8407 60.6142C95.1269 59.203 98.5347 54.8818 97.5529 53.7868C96.5712 52.6917 95.4761 53.8788 95.4761 53.8788C95.4761 53.8788 96.7671 51.6486 95.5399 50.8108C94.5605 50.1429 92.925 51.7312 92.925 51.7312C92.925 51.7312 94.2112 49.2131 92.8872 48.5405C91.6813 47.9269 90.3526 50.0839 90.3526 50.0839C90.3526 50.0839 91.214 47.8679 89.9396 47.5021C88.4056 47.0584 86.9117 50.8934 85.3753 52.3448C85.0261 52.6728 74.7199 57.7303 74.7199 57.7303L82.2578 68.44Z" fill="#AD6359"/>
<path d="M90.2959 49.973C88.8799 52.7318 88.2191 53.8316 85.8119 55.5969C85.7647 55.6299 85.8119 55.7078 85.8591 55.6771C88.3655 54.162 89.2481 52.9136 90.4281 50.0131C90.4918 49.8786 90.362 49.8456 90.2959 49.973Z" fill="#263238"/>
<path d="M92.8967 51.7312C91.4925 54.5632 90.4187 55.6276 88.0422 57.6595C88.0068 57.6878 88.0422 57.7492 88.0894 57.7232C90.5886 55.9226 91.9668 54.7638 92.9982 51.7548C93.0454 51.6203 92.9604 51.6038 92.8967 51.7312Z" fill="#263238"/>
<path d="M95.3582 53.9803C93.8006 56.6188 92.7126 57.9168 90.1496 59.5924C90.1365 59.5999 90.1269 59.6123 90.1229 59.6269C90.1189 59.6415 90.1209 59.6571 90.1284 59.6702C90.1359 59.6834 90.1483 59.693 90.1629 59.697C90.1775 59.701 90.1931 59.699 90.2063 59.6915C92.984 58.2354 94.3575 56.6235 95.4337 54.0275C95.5068 53.8599 95.4549 53.808 95.3582 53.9803Z" fill="#263238"/>
<path d="M105.641 61.7706C98.8651 63.7483 92.1887 65.7284 85.6987 67.706C81.8118 58.974 81.2383 50.242 78.5762 41.51C85.3612 39.53 92.0282 37.5523 98.5442 35.5723C102.424 44.3019 102.986 53.0363 105.641 61.7706Z" fill="white"/>
<path d="M105.641 61.7706C102.263 62.7744 98.9162 63.7766 95.6012 64.7773C92.2862 65.7779 88.9956 66.7778 85.7294 67.7768L85.6633 67.7981L85.6302 67.7273C81.7268 58.9953 81.1462 50.2633 78.4629 41.5313C78.4511 41.4935 78.4417 41.4558 78.4299 41.418L78.5408 41.385C85.3258 39.4167 91.9928 37.4485 98.5088 35.485L98.5866 35.4614L98.622 35.5416C100.557 39.9194 101.659 44.2972 102.61 48.675C103.562 53.0528 104.333 57.407 105.641 61.7706ZM105.641 61.7706C104.293 57.4023 103.467 53.0386 102.49 48.6632C101.513 44.2878 100.409 39.9477 98.4781 35.5912L98.589 35.6478C92.0825 37.6373 85.406 39.6291 78.621 41.6186L78.6989 41.4723C81.3492 50.2043 81.9085 58.9481 85.7789 67.6848L85.6822 67.6352C88.9295 66.6566 92.217 65.678 95.5446 64.6994C98.8722 63.7208 102.238 62.7445 105.641 61.7706Z" fill="#263238"/>
<path d="M81.7834 45.312C85.6114 44.2107 89.4165 43.1093 93.1988 42.008C93.2648 42.2322 93.3309 42.4564 93.3946 42.6806C89.6045 43.7819 85.7884 44.8833 81.9463 45.9846C81.892 45.7698 81.8377 45.548 81.7834 45.312Z" fill="#DBDBDB"/>
<path d="M82.1894 47.0206C86.0362 45.9193 89.8657 44.818 93.6778 43.7166L93.8548 44.3892C90.0379 45.4906 86.2006 46.5919 82.3428 47.6932C82.2932 47.469 82.2413 47.2448 82.1894 47.0206Z" fill="#DBDBDB"/>
<path d="M82.5717 48.7198C86.4326 47.6185 90.2802 46.5172 94.1144 45.4158C94.1687 45.6518 94.2253 45.8642 94.2773 46.0884C90.4399 47.1898 86.5852 48.2911 82.7133 49.3924C82.6708 49.1682 82.6212 48.944 82.5717 48.7198Z" fill="#DBDBDB"/>
<path d="M82.9398 50.4167C88.6038 48.8056 94.2505 47.1937 99.8799 45.581L100.043 46.256C94.4165 47.8655 88.7501 49.4774 83.0838 51.0893C83.0342 50.8651 82.987 50.6409 82.9398 50.4167Z" fill="#DBDBDB"/>
<path d="M83.308 52.1159C88.972 50.5032 94.6321 48.8913 100.288 47.2802C100.34 47.5044 100.392 47.7286 100.442 47.9528C94.7917 49.5655 89.1277 51.1774 83.4496 52.7885C83.3953 52.5643 83.3481 52.3401 83.308 52.1159Z" fill="#DBDBDB"/>
<path d="M83.6644 53.808L100.656 48.9747C100.706 49.2107 100.755 49.4231 100.803 49.6473C95.1387 51.2592 89.4747 52.8687 83.8107 54.4806C83.7611 54.2611 83.7139 54.044 83.6644 53.808Z" fill="#DBDBDB"/>
<path d="M84.0396 55.5119C89.6863 53.8993 95.3503 52.2874 101.032 50.6763C101.081 50.9123 101.128 51.1247 101.176 51.3489C95.5115 52.96 89.8523 54.5719 84.1977 56.1845C84.1411 55.9603 84.0891 55.7361 84.0396 55.5119Z" fill="#DBDBDB"/>
<path d="M84.4337 57.2088C90.0576 55.5969 95.7216 53.9874 101.388 52.3755C101.438 52.5997 101.485 52.8239 101.532 53.0481C95.8679 54.6607 90.2236 56.2718 84.5989 57.8814C84.5423 57.6572 84.488 57.433 84.4337 57.2088Z" fill="#DBDBDB"/>
<path d="M84.8585 58.908C90.4517 57.2953 96.0835 55.6834 101.754 54.0723C101.803 54.2965 101.851 54.5207 101.9 54.7449C96.2455 56.3576 90.6248 57.9695 85.0379 59.5806C84.9765 59.3564 84.9175 59.1322 84.8585 58.908Z" fill="#DBDBDB"/>
<path d="M85.3211 60.6048C90.8718 58.9953 96.4752 57.3842 102.131 55.7715C102.183 56.0075 102.233 56.2199 102.287 56.4441C96.6514 58.056 91.0488 59.6679 85.517 61.2798C85.4509 61.0532 85.3848 60.829 85.3211 60.6048Z" fill="#DBDBDB"/>
<path d="M85.8285 62.304C91.3352 60.6929 96.9024 59.081 102.53 57.4684C102.584 57.7044 102.639 57.9168 102.695 58.141C97.0881 59.7536 91.5381 61.3655 86.0456 62.9766C85.9725 62.7524 85.904 62.54 85.8285 62.304Z" fill="#DBDBDB"/>
<path d="M86.3925 64.0032C91.8394 62.3921 97.3618 60.7802 102.96 59.1676C103.019 59.3918 103.078 59.616 103.139 59.8402C97.5695 61.4512 92.0675 63.0631 86.6332 64.6758L86.3925 64.0032Z" fill="#DBDBDB"/>
<path d="M95.1481 45.5244C94.8956 43.6907 94.5864 41.857 94.1734 40.0232C95.4644 41.3378 96.6986 42.6523 97.8999 43.9668L97.5459 44.2901C96.7057 43.365 95.849 42.4399 94.9664 41.5148C95.2236 42.8246 95.4384 44.132 95.6154 45.4418L95.1481 45.5244Z" fill="#006D77"/>
<path d="M94.8106 44.571L94.5369 44.1957C95.377 43.5664 96.2093 42.9371 97.0337 42.3077L97.3169 42.683C96.4909 43.3154 95.6555 43.9448 94.8106 44.571Z" fill="#006D77"/>
<path d="M94.0743 39.3034C93.686 39.591 93.3418 39.9337 93.0524 40.3206C92.482 41.1045 92.1837 42.0535 92.2028 43.0228C92.2068 43.4929 92.3097 43.9569 92.5049 44.3845C92.7057 44.7971 92.9977 45.1587 93.3587 45.442C93.7196 45.7253 94.1403 45.923 94.5888 46.02C95.4903 46.197 96.4555 45.8737 97.2627 45.3403C98.089 44.8466 98.7156 44.078 99.0327 43.1691C99.1816 42.7233 99.228 42.2496 99.1683 41.7833C99.1087 41.3171 98.9445 40.8703 98.6881 40.4764C98.4056 40.0868 98.0405 39.7645 97.619 39.5324C97.198 39.2888 96.7296 39.1384 96.2455 39.091C95.7646 39.0424 95.2791 39.1095 94.8295 39.2869C94.3833 39.4708 93.9721 39.7303 93.6141 40.0539C93.7797 39.8753 93.9579 39.7089 94.1475 39.556C94.3447 39.4092 94.5557 39.2819 94.7776 39.176C95.2335 38.9545 95.7365 38.8475 96.2431 38.8645C96.7756 38.8906 97.2963 39.0304 97.7702 39.2747C98.244 39.5189 98.66 39.8619 98.9902 40.2805C99.3065 40.713 99.51 41.2175 99.5825 41.7484C99.6572 42.2725 99.6161 42.8066 99.4622 43.3131C99.1181 44.3305 98.425 45.1933 97.5057 45.7486C97.0613 46.0416 96.5741 46.2637 96.0614 46.407C95.547 46.5533 95.0054 46.5767 94.4802 46.4755C93.9676 46.3674 93.4903 46.132 93.0925 45.7911C92.6986 45.4561 92.3828 45.0388 92.1674 44.5686C91.7891 43.5945 91.795 42.513 92.1839 41.5431C92.5397 40.6025 93.2068 39.8121 94.0743 39.3034Z" fill="#006D77"/>
<path d="M96.6632 41.064C96.3926 40.6927 96.1165 40.3222 95.8349 39.9524L96.2054 39.6787C96.4886 40.0484 96.7671 40.4189 97.0408 40.7902L96.6632 41.064Z" fill="#006D77"/>
<path d="M96.052 40.9484L95.7711 40.5613L96.8331 39.7967C96.9299 39.9265 97.0243 40.0563 97.1211 40.1837L96.052 40.9484Z" fill="#006D77"/>
<path d="M74.7199 57.7327C74.7199 57.7327 77.2286 55.1626 78.3567 53.8859C79.4848 52.6091 82.1799 48.557 83.6431 48.6538C85.2951 48.7623 84.1009 53.0316 82.102 55.3255C82.102 55.3255 84.757 59.5593 82.9422 61.8556C82.5481 62.3512 79.6877 63.923 78.9774 63.7766L74.7199 57.7327Z" fill="#AD6359"/>
<path d="M81.9817 55.6323C83.0744 57.2418 83.8343 59.6938 83.0508 61.4709C83.0471 61.481 83.0471 61.4921 83.0509 61.5022C83.0547 61.5122 83.0619 61.5206 83.0714 61.5258C83.0808 61.5309 83.0918 61.5325 83.1023 61.5302C83.1128 61.5279 83.1222 61.522 83.1286 61.5134C84.226 59.7222 83.3646 56.876 82.3121 55.4954C82.1068 55.224 81.6985 55.224 81.9817 55.6323Z" fill="#263238"/>
<path d="M74.7199 57.7327L82.2578 68.44C82.2799 69.1199 82.0935 69.7902 81.7235 70.361C81.3535 70.9318 80.8177 71.3757 80.1881 71.6331C77.939 72.6172 68.6359 75.9731 64.9519 74.7294C61.268 73.4857 50.7589 64.428 46.2253 58.4076C41.6918 52.3873 48.3918 53.5838 49.6686 54.1596C50.9453 54.7355 65.9337 61.799 66.467 61.7872C67.0004 61.7754 70.479 59.1298 72.131 58.3085C73.783 57.4872 74.7199 57.7327 74.7199 57.7327Z" fill="#006D77"/>
<path opacity="0.1" d="M70.328 74.6468C68.204 75.0362 66.2381 75.1636 64.9566 74.7294C61.2703 73.4833 50.7612 64.4304 46.2277 58.4053C45.9397 58.0253 45.699 57.6713 45.4961 57.3504L70.328 74.6468Z" fill="black"/>
<path d="M79.3219 70.6513C78.6305 69.8041 78.0546 68.8624 77.4528 67.9562C76.851 67.05 76.2728 66.1673 75.6899 65.2658C74.5099 63.451 73.2898 61.6479 72.2349 59.7646C72.2316 59.756 72.2313 59.7465 72.2342 59.7378C72.2371 59.729 72.2429 59.7215 72.2506 59.7165C72.2584 59.7115 72.2676 59.7094 72.2768 59.7104C72.286 59.7114 72.2945 59.7156 72.3009 59.7222C73.6627 61.4379 74.8497 63.2928 76.0439 65.1171C76.6433 66.0312 77.2294 66.9532 77.8021 67.883C78.3836 68.7644 78.9155 69.6776 79.3951 70.6183C79.4164 70.6631 79.3503 70.6867 79.3219 70.6513Z" fill="#263238"/>
<g opacity="0.1">
<path d="M76.9053 72.8697L76.0533 73.16C76.0087 72.8473 75.9874 72.5318 75.9896 72.216C75.9896 71.6189 76.0368 71.036 76.0297 70.4672C76.0317 69.8983 75.9764 69.3306 75.8645 68.7728C75.7505 68.226 75.559 67.6983 75.2958 67.2057C75.2321 67.083 75.1589 66.9697 75.0905 66.8517C75.022 66.7337 74.9441 66.6346 74.8663 66.526C74.6987 66.3113 74.5241 66.0894 74.3423 65.8723L73.2567 64.5531C72.8886 64.1094 72.5251 63.6634 72.1664 63.2079C71.8077 62.7524 71.4584 62.2804 71.1351 61.7919C70.7995 61.2869 70.5096 60.753 70.269 60.1965C70.1862 59.9931 70.1153 59.7851 70.0566 59.5735C70.361 59.3729 70.6607 59.1794 70.9439 59C71.0374 59.2546 71.1453 59.5036 71.2673 59.7458C71.5278 60.2228 71.8154 60.6845 72.1287 61.1287C72.7611 62.0491 73.4267 62.9766 74.0945 63.9135C74.4273 64.3855 74.7695 64.8575 75.081 65.346C75.2368 65.5938 75.3925 65.844 75.5318 66.1154C75.6002 66.2523 75.6687 66.3868 75.73 66.5378C75.7914 66.6889 75.8362 66.8258 75.8787 66.9721C76.228 68.1332 76.2799 69.3038 76.4144 70.4484C76.5055 71.2685 76.6698 72.0788 76.9053 72.8697Z" fill="black"/>
<path d="M73.927 73.7925C73.691 73.8586 73.4692 73.9223 73.2355 73.9836C72.9523 73.0066 72.9358 72.0437 72.9146 71.0926V69.62C72.9146 69.384 72.9146 69.1362 72.8957 68.8978C72.8905 68.6667 72.8677 68.4363 72.8272 68.2087C72.8189 68.1572 72.8055 68.1066 72.7871 68.0577L72.7281 67.8972L72.6573 67.7414C72.6314 67.6895 72.6007 67.64 72.5747 67.588C72.4549 67.3846 72.3124 67.1954 72.1499 67.024C71.8107 66.6793 71.4255 66.3831 71.0053 66.1437C70.7953 66.0163 70.5782 65.9077 70.3587 65.7921L69.6955 65.4546C69.2209 65.2335 68.7924 64.9244 68.4329 64.5436C68.3439 64.4371 68.2649 64.3225 68.1969 64.2014C68.1615 64.1401 68.1308 64.074 68.1002 64.0103L68.027 63.8215C67.942 63.5724 67.8781 63.3166 67.8358 63.0568C67.7557 62.5544 67.7256 62.0453 67.7462 61.537C67.7462 61.3883 67.7603 61.2396 67.7721 61.091L68.2441 60.7794C68.2441 61.032 68.2441 61.2821 68.2654 61.5323C68.2847 62.0075 68.3384 62.4808 68.4258 62.9483C68.4715 63.1726 68.5331 63.3934 68.6099 63.6091L68.6713 63.7648C68.6949 63.8097 68.7114 63.8569 68.7374 63.9041C68.7867 63.9969 68.8427 64.086 68.9049 64.1708C69.1934 64.5341 69.5301 64.8564 69.9056 65.1289C70.2902 65.4239 70.708 65.6906 71.121 65.962C71.5477 66.2217 71.9541 66.5136 72.3364 66.8352C72.5325 67.0023 72.7119 67.188 72.8721 67.3898C72.9527 67.4934 73.0276 67.6013 73.0963 67.7131L73.193 67.8854C73.225 67.9487 73.2526 68.0142 73.2756 68.0813C73.3578 68.33 73.4155 68.5861 73.4479 68.8459C73.488 69.0961 73.5093 69.3462 73.5305 69.594C73.5706 70.0896 73.5942 70.5805 73.6273 71.0667C73.6603 71.5528 73.6957 72.039 73.7429 72.5157C73.7753 72.945 73.8369 73.3715 73.927 73.7925Z" fill="black"/>
</g>
<path d="M25.1245 90.9214C25.1481 90.952 57.3551 89.4464 57.5651 89.2481C57.6619 89.1561 58.0796 87.3224 57.5863 84.7759C56.1066 77.1413 51.6722 61.5464 47.7617 54.9479C46.7846 53.2959 42.3809 50.8674 39.1854 53.9874C32.7072 60.3122 27.6214 76.4074 25.6178 85.2479C24.636 89.5691 24.9924 90.7373 25.1245 90.9214Z" fill="#006D77"/>
<g opacity="0.1">
<path d="M57.4424 84.0467C57.3456 84.0467 57.2489 84.0467 57.1545 84.0608C56.2389 84.1484 55.3294 84.291 54.431 84.488C52.5784 84.8656 50.6928 85.2904 48.793 85.7128C47.849 85.9229 46.8908 86.1447 45.9114 86.3052C45.4205 86.3831 44.9273 86.461 44.4152 86.4987C44.1556 86.5152 43.9007 86.5341 43.6222 86.5294C43.3437 86.5247 43.1077 86.5034 42.8505 86.4728C40.8091 86.2533 38.9518 85.5618 37.0756 85.0166C35.1994 84.4715 33.2642 84.0986 31.5414 84.1057C31.1166 84.1057 30.6587 84.1411 30.1985 84.1836C29.7383 84.226 29.2781 84.2945 28.8132 84.3629C27.8857 84.5116 26.9488 84.698 26.0143 84.901L25.6768 84.9765C25.7901 84.4809 25.9128 83.9617 26.0473 83.426C26.8573 83.1584 27.6814 82.9354 28.5159 82.7581C29.0067 82.6511 29.5055 82.5662 30.0121 82.5032C30.267 82.4726 30.5219 82.4466 30.7791 82.4324C31.0463 82.4147 31.3143 82.4147 31.5815 82.4324C32.6242 82.5032 33.6458 82.7606 34.5976 83.1924C35.5274 83.5794 36.3959 84.0372 37.2927 84.4078C38.1784 84.7868 39.1004 85.0747 40.0445 85.2668C40.9727 85.45 41.9223 85.5001 42.8647 85.4155C43.1007 85.399 43.3367 85.3636 43.5514 85.3329C43.7662 85.3022 43.9833 85.2456 44.2051 85.1936C44.6535 85.0733 45.1114 84.9576 45.5669 84.8113L48.3446 83.9877C49.2744 83.7068 50.2137 83.4331 51.1601 83.1758C52.1064 82.9186 53.0693 82.6897 54.0534 82.508C55.0394 82.3209 56.04 82.2214 57.0435 82.2106C57.1899 82.8525 57.322 83.4685 57.4424 84.0467Z" fill="black"/>
<path d="M56.0382 78.0594C55.3824 77.8263 54.7124 77.6355 54.0322 77.4882C53.6526 77.4096 53.2676 77.3591 52.8805 77.3372H52.5997C52.5124 77.3372 52.4274 77.3372 52.3401 77.349C52.1623 77.3662 51.9857 77.3945 51.8114 77.434C51.0554 77.6445 50.3314 77.9565 49.6591 78.3614C48.9511 78.7674 48.2431 79.2394 47.5587 79.709C46.8715 80.2018 46.1481 80.6421 45.3946 81.0259C45.0049 81.2205 44.5981 81.3785 44.1792 81.4979C43.9648 81.5555 43.7473 81.6012 43.5278 81.6348L43.188 81.656C43.0678 81.6643 42.9471 81.6643 42.8269 81.656C42.3852 81.6207 41.948 81.5417 41.5218 81.42C41.1065 81.3162 40.7029 81.184 40.3041 81.0542C39.504 80.7899 38.7229 80.5043 37.9441 80.2329C37.1653 79.9615 36.3841 79.6972 35.61 79.4565C34.8577 79.2098 34.0877 79.0204 33.3067 78.8901C32.9418 78.8351 32.5714 78.8272 32.2046 78.8665C31.8183 78.9103 31.4358 78.9821 31.06 79.0812C30.278 79.2899 29.5102 79.5484 28.7613 79.8553C28.0864 80.1291 27.4145 80.4217 26.7459 80.7332C26.819 80.4618 26.8946 80.1881 26.9819 79.9096C27.4539 79.6217 27.933 79.3495 28.4191 79.093C29.178 78.6908 29.967 78.3483 30.7791 78.0688C31.2 77.9292 31.6307 77.8212 32.0677 77.7455C32.525 77.6658 32.991 77.6484 33.453 77.6936C35.2466 77.8729 36.8254 78.5054 38.3783 79.1261L40.6817 80.0701C41.0616 80.2282 41.444 80.3769 41.8216 80.5208C42.1846 80.6638 42.5577 80.7797 42.9378 80.8678C43.025 80.8861 43.1133 80.8987 43.2022 80.9055L43.4901 80.9173H43.7804C43.8795 80.9173 43.9762 80.8984 44.073 80.889C44.4689 80.837 44.8576 80.7404 45.2318 80.6011C45.9907 80.2973 46.7051 79.8924 47.3558 79.3975C47.6885 79.1615 48.0048 78.8854 48.3281 78.6234L49.291 77.8092C49.9447 77.2758 50.648 76.733 51.5448 76.4451C51.7703 76.3702 52.0027 76.318 52.2386 76.2894C52.359 76.2728 52.4746 76.2705 52.602 76.2634H52.9442C53.3883 76.2949 53.8289 76.3643 54.2611 76.4711C54.7706 76.5923 55.2706 76.75 55.7574 76.9431L56.0382 78.0594Z" fill="black"/>
</g>
<path d="M35.8036 54.752C25.2898 59.21 17.1265 63.0922 18.3112 67.1326C18.7832 68.7185 21.5208 72.9972 25.0467 72.9924C27.8173 72.9924 32.7568 68.5462 38.3854 60.77C41.3 56.7462 42.4422 51.9342 35.8036 54.752Z" fill="#006D77"/>
<path d="M37.668 62.9034C37.2196 63.274 36.7735 63.6539 36.3369 64.041L36.6178 63.7153C37.3706 62.8232 38.114 61.924 38.8574 61.0249C38.8716 61.006 38.8409 60.9824 38.8244 61.0013C37.4084 62.507 35.9924 63.9985 34.5598 65.4994C33.1273 67.0004 29.3914 70.8024 28.4828 71.5481C28.464 71.5646 28.4828 71.5953 28.5064 71.5812C29.3277 70.9392 31.6334 69.0088 32.3698 68.289C33.4821 67.2002 34.5512 66.0768 35.577 64.9189C36.3255 64.3019 37.0401 63.6449 37.7175 62.9506C37.7435 62.9247 37.6986 62.8775 37.668 62.9034Z" fill="#263238"/>
<path d="M22.0707 70.5475C17.4734 68.6595 14.4951 54.7142 13.367 45.3285C13.1523 43.542 27.2745 41.8216 27.291 43.745C27.3477 54.7237 27.1069 72.6101 22.0707 70.5475Z" fill="#AD6359"/>
<path d="M11.5923 38.0125C11.6749 41.0074 14.2402 48.5051 15.4226 49.7299C16.605 50.9548 25.5706 46.6619 26.0638 45.0099C26.5571 43.3579 26.9819 33.5356 25.0066 31.2039C23.0312 28.8722 11.505 34.9115 11.5923 38.0125Z" fill="#AD6359"/>
<path d="M27.3264 35.4C26.5429 36.7806 25.3653 35.0672 25.3653 35.0672C25.3653 35.0672 26.4674 37.9417 25.1104 39.0533C23.7982 40.12 22.446 38.0007 22.3492 37.8497C22.4058 38.0031 23.3498 40.6817 21.8772 41.6469C20.3385 42.6594 19.3473 40.2994 19.2812 40.146C19.2812 40.3088 19.3685 42.4375 18.0752 42.9237C15.8545 43.7591 15.5052 38.317 14.0113 37.1086C14.0113 37.1086 11.6773 38.1942 11.5947 38.2462C11.5947 38.2462 11.1581 34.2908 12.8974 32.365C13.1458 32.0807 13.4841 31.89 13.8559 31.8248C14.2278 31.7595 14.6108 31.8236 14.9412 32.0063C14.9412 32.0063 14.6178 30.3543 15.7577 29.5496C16.343 29.1366 17.5254 29.71 17.5254 29.71C17.5254 29.71 17.32 28.3766 18.3773 27.7229C19.2222 27.199 20.2653 27.8551 20.2653 27.8551C20.2653 27.8551 20.6618 26.4839 21.6978 26.2267C23.7912 25.7004 28.9997 32.4358 27.3264 35.4Z" fill="#AD6359"/>
<path d="M20.4518 27.9259C20.4492 27.9215 20.4482 27.9165 20.4488 27.9114C20.4493 27.9064 20.4515 27.9017 20.4549 27.8981C20.4583 27.8944 20.4629 27.8919 20.4678 27.8909C20.4728 27.89 20.4779 27.8907 20.4824 27.8928C22.7362 29.6888 24.662 32.3532 25.4384 35.1451C25.4644 35.2372 25.3252 35.3198 25.278 35.223C23.928 32.4972 22.512 30.1844 20.4518 27.9259Z" fill="#263238"/>
<path d="M17.5065 29.6581C17.4852 29.6345 17.5254 29.5968 17.5537 29.618C19.8665 31.4824 21.9527 34.5433 22.4672 37.878C22.4861 37.9913 22.387 38.114 22.3563 37.9818C21.8465 35.787 19.3709 31.683 17.5065 29.6581Z" fill="#263238"/>
<path d="M19.234 40.3843C18.6157 37.2148 17.0439 34.5622 15.0379 32.07C15.0119 32.037 15.0615 32.004 15.0898 32.0252C16.4043 32.9692 17.5159 34.6991 18.2687 36.1127C18.9932 37.4087 19.3666 38.8714 19.352 40.356C19.352 40.4221 19.2458 40.4528 19.234 40.3843Z" fill="#263238"/>
<path d="M25.3653 35.0602C25.5256 35.6304 25.633 36.2142 25.6862 36.8042C25.759 37.3761 25.6775 37.9571 25.4502 38.4869C25.3355 38.725 25.1361 38.9119 24.8909 39.0108C24.6427 39.1079 24.3737 39.1396 24.1098 39.1028C23.8496 39.0457 23.6045 38.9341 23.3906 38.7755C23.1767 38.6168 22.9987 38.4147 22.8684 38.1824L22.184 37.0756L22.4436 38.3524C22.5625 38.9186 22.5888 39.5005 22.5215 40.0752C22.4483 40.6345 22.2265 41.1726 21.7993 41.4558C21.6017 41.6075 21.3581 41.6869 21.1091 41.6809C20.86 41.6749 20.6206 41.5838 20.4305 41.4227C20.0124 41.053 19.6956 40.5827 19.5101 40.0563L18.9461 38.6214L19.0074 40.1554C19.0267 40.5823 18.9902 41.0099 18.8989 41.4274C18.8285 41.8264 18.6421 42.1957 18.3632 42.4894C18.2316 42.6159 18.0674 42.7033 17.889 42.7416C17.7106 42.78 17.525 42.7678 17.3531 42.7066C16.9898 42.5121 16.6894 42.2182 16.487 41.8593C16.0424 41.0881 15.6589 40.2832 15.34 39.4521C15.163 39.0368 14.9836 38.6214 14.7854 38.2131C14.6084 37.7923 14.3447 37.4135 14.0113 37.1016C14.3037 37.4424 14.5273 37.8367 14.6698 38.2627C14.835 38.6804 14.9813 39.1076 15.1276 39.5347C15.4002 40.4065 15.755 41.2505 16.1872 42.0552C16.4144 42.4955 16.7645 42.8603 17.195 43.1054C17.4437 43.2123 17.7183 43.2442 17.9849 43.1973C18.2515 43.1503 18.4987 43.0265 18.6959 42.8411C19.0569 42.4884 19.3036 42.0353 19.4039 41.5407C19.5125 41.0769 19.5601 40.6009 19.5455 40.1247L19.0452 40.2238C19.2547 40.8505 19.625 41.4111 20.119 41.8499C20.3993 42.0859 20.7532 42.217 21.1196 42.2204C21.4792 42.2114 21.8278 42.0947 22.1203 41.8853C22.7174 41.4699 22.9628 40.7643 23.0336 40.1389C23.0996 39.5075 23.0606 38.8695 22.918 38.2509L22.4908 38.4232C22.6636 38.705 22.8959 38.9457 23.1715 39.1283C23.4471 39.311 23.7593 39.4311 24.0862 39.4804C24.415 39.5102 24.746 39.4541 25.0467 39.3176C25.3536 39.173 25.597 38.9212 25.7311 38.6096C25.9907 38.0078 25.9364 37.3753 25.8538 36.7853C25.7561 36.1938 25.5922 35.6151 25.3653 35.0602Z" fill="#263238"/>
<path d="M26.3423 45.6424C26.3423 45.6424 33.6253 32.3084 26.8143 32.1314C25.1623 32.0889 18.5991 34.751 19.0735 36.0797C19.6871 37.7978 22.6135 37.2715 24.4165 36.6484C24.4165 36.6484 22.2619 40.4433 24.4567 42.7325C25.2744 43.5659 25.9157 44.5555 26.3423 45.6424Z" fill="#AD6359"/>
<path d="M27.2863 32.1243C26.6377 32.099 25.9889 32.169 25.3605 32.332C24.7277 32.4773 24.1056 32.6657 23.4985 32.896C22.2732 33.3372 21.0887 33.8844 19.9585 34.5315C19.6598 34.7035 19.3865 34.9164 19.1467 35.164C19.01 35.308 18.9068 35.4805 18.8446 35.669C18.8094 35.7731 18.7926 35.8825 18.795 35.9924C18.798 36.1002 18.8179 36.2069 18.854 36.3086C18.9892 36.6741 19.2491 36.98 19.588 37.1724C19.9033 37.3385 20.2451 37.4487 20.5981 37.498C21.2669 37.5785 21.9445 37.5442 22.6017 37.3966C23.2433 37.2643 23.8743 37.0852 24.4897 36.8608L24.223 36.5328C23.9934 36.9751 23.8061 37.4381 23.6637 37.9158C23.5177 38.3876 23.4205 38.8731 23.3734 39.3648C23.3323 39.8582 23.3625 40.355 23.4631 40.8398C23.5643 41.3191 23.7557 41.7748 24.0271 42.1826C23.8156 41.7515 23.6776 41.2881 23.6189 40.8115C23.5675 40.3399 23.5802 39.8636 23.6566 39.3955C23.7283 38.9292 23.8469 38.4714 24.0106 38.029C24.171 37.5883 24.3717 37.1633 24.6101 36.7594L24.9098 36.2661L24.3434 36.4337C23.7429 36.6264 23.1303 36.7793 22.5097 36.8915C21.9063 37.0142 21.2872 37.0389 20.6759 36.9647C20.1025 36.8774 19.5125 36.6083 19.352 36.1387C19.1726 35.7375 19.7178 35.2867 20.2252 34.9587C20.7589 34.6209 21.3103 34.3121 21.8772 34.0336C22.4459 33.7409 23.0194 33.4577 23.6047 33.2052C24.7989 32.7261 26.0001 32.2258 27.2863 32.1243Z" fill="#263238"/>
<path d="M27.848 46.4566L13.1617 49.6662C13.1617 49.6662 12.1941 52.451 13.0484 55.342C14.6698 60.8266 19.5054 72.6007 23.4065 72.334C27.6309 72.039 28.6575 57.322 28.5985 50.1146C28.556 47.672 27.848 46.4566 27.848 46.4566Z" fill="#006D77"/>
<g opacity="0.1">
<path d="M28.582 52.1843C28.582 52.4935 28.5819 52.8121 28.5607 53.1283C28.2067 53.3053 27.8527 53.4729 27.4704 53.6168C27.1943 53.7254 26.9111 53.8245 26.6231 53.9095C26.4768 53.952 26.3305 53.9944 26.1818 54.0275C26.0263 54.0643 25.8687 54.0919 25.7098 54.1101C25.0945 54.1693 24.4735 54.1181 23.8761 53.959C23.2979 53.8245 22.7457 53.6404 22.1864 53.513C21.6341 53.3773 21.0696 53.2982 20.5013 53.277C19.9446 53.2609 19.3884 53.3236 18.8493 53.4634C18.7172 53.4965 18.5826 53.539 18.4576 53.5791C18.3325 53.6192 18.2216 53.6711 18.0894 53.723C17.8416 53.8363 17.5867 53.959 17.3318 54.0794L15.7955 54.8299C15.281 55.0824 14.7594 55.3349 14.2332 55.5756C13.9146 55.7267 13.5889 55.8659 13.2585 56.0004C13.1853 55.7644 13.1169 55.545 13.0532 55.3302C13.0036 55.1674 12.9611 55.0045 12.9281 54.8417C13.7328 54.5254 14.547 54.195 15.3636 53.8623C15.8993 53.6499 16.4303 53.4257 16.9873 53.2369C17.2658 53.1448 17.5442 53.0504 17.8392 52.9796C17.9879 52.9442 18.1366 52.9088 18.3112 52.8852C18.4859 52.8616 18.6133 52.8498 18.7644 52.8428C19.9774 52.772 21.1244 52.9938 22.2713 53.1283C23.3712 53.282 24.4872 53.282 25.5871 53.1283C25.8231 53.0858 26.0969 53.0221 26.3612 52.9513C26.6255 52.8805 26.8875 52.7979 27.1518 52.7153C27.612 52.5548 28.1005 52.3755 28.582 52.1843Z" fill="black"/>
<path d="M28.5017 54.752C28.5017 54.9219 28.4876 55.0918 28.4781 55.2641C28.2846 55.427 28.0887 55.5851 27.8858 55.7361C27.4838 56.0428 27.0594 56.3189 26.6161 56.5621C26.3878 56.6833 26.1512 56.7882 25.9081 56.876C25.6489 56.9657 25.3792 57.0213 25.1057 57.0412C24.0413 57.1096 23.0619 56.8949 22.0943 56.6848L20.6594 56.3544C20.4234 56.3001 20.1874 56.2506 19.9514 56.2034C19.7259 56.1555 19.4971 56.124 19.267 56.109C19.2152 56.1054 19.1631 56.1054 19.1113 56.109L18.9414 56.1302L18.7714 56.1633C18.7172 56.1633 18.6605 56.194 18.6039 56.2081C18.3704 56.2807 18.1462 56.3805 17.936 56.5055C17.5212 56.7547 17.1431 57.0605 16.8126 57.4141C16.6404 57.5887 16.4822 57.7752 16.3194 57.9592L15.8474 58.528C15.5226 58.9386 15.122 59.2831 14.6674 59.5428C14.6197 59.5694 14.57 59.5923 14.5187 59.6112C14.4456 59.4201 14.3748 59.2313 14.304 59.0425C14.3394 59.0283 14.3771 59.0165 14.4125 59C14.8324 58.8033 15.2237 58.5509 15.576 58.2495C15.9536 57.9427 16.31 57.6005 16.6687 57.2607C17.0216 56.9058 17.4011 56.5784 17.8038 56.2813C18.0113 56.1303 18.2326 55.9991 18.4646 55.8895C18.585 55.8352 18.7006 55.7904 18.8328 55.7479L19.024 55.6936C19.09 55.6795 19.1679 55.6653 19.234 55.6582C19.4946 55.6333 19.7569 55.6333 20.0175 55.6582C20.27 55.6795 20.5178 55.7149 20.7633 55.7526C21.2542 55.8305 21.738 55.9202 22.2194 56.0028C22.7008 56.0854 23.1799 56.1633 23.6543 56.227C24.1166 56.2977 24.5837 56.3332 25.0514 56.3332C25.2701 56.3293 25.4874 56.2975 25.698 56.2388C25.9182 56.1759 26.1336 56.097 26.3423 56.0028C26.7783 55.8059 27.2009 55.5804 27.6073 55.3278C27.9094 55.15 28.2075 54.9581 28.5017 54.752Z" fill="black"/>
</g>
<path d="M27.6663 50.4096C20.4022 52.4486 15.1583 53.395 14.1364 53.5531C14.1307 53.5531 14.1253 53.5509 14.1214 53.5469C14.1174 53.5429 14.1151 53.5375 14.1151 53.5319C14.1151 53.5262 14.1174 53.5208 14.1214 53.5169C14.1253 53.5129 14.1307 53.5106 14.1364 53.5106C19.1844 51.9625 27.1707 50.3624 27.6615 50.3223C27.6716 50.324 27.6807 50.3291 27.6875 50.3367C27.6942 50.3442 27.6982 50.3539 27.6987 50.3641C27.6993 50.3742 27.6964 50.3842 27.6905 50.3925C27.6846 50.4008 27.676 50.4068 27.6663 50.4096Z" fill="#263238"/>
<path d="M28.3813 59.1416C28.2091 60.5175 27.8173 62.7005 27.5011 64.0504C27.4798 64.1354 27.4586 64.2203 27.4397 64.3053C27.5293 64.7894 27.5744 65.2808 27.5742 65.7732C27.5742 66.349 27.5247 66.9178 27.4657 67.4889C27.4657 67.5125 27.4255 67.5102 27.4279 67.4889C27.4657 66.9206 27.4609 66.3503 27.4137 65.7826C27.3878 65.4452 27.3595 65.1053 27.3311 64.7655C27.022 66.054 26.6963 67.3426 26.2951 68.6052C26.2951 68.6288 26.2526 68.6052 26.2597 68.591C26.5618 67.2199 26.8851 65.8511 27.1376 64.4705C27.3901 63.0899 27.9683 59.8496 28.2091 58.4784C28.4002 57.3905 28.4356 58.7097 28.3813 59.1416Z" fill="#263238"/>
<path d="M41.772 53.4092C41.9443 53.9118 44.7267 57.0152 47.0678 56.6754C47.8325 56.5621 47.4053 52.3731 47.4053 52.3731L47.4454 52.0569L47.9929 47.6248L41.8027 44.4931C41.8027 44.4931 41.6988 53.1944 41.772 53.4092Z" fill="#AD6359"/>
<path d="M47.9882 47.6272L47.436 52.0545L47.3982 52.3731C47.3982 52.3731 47.4738 53.133 47.5044 54.011C44.2524 53.8481 42.5484 51.5825 41.746 49.9824C41.7602 47.469 41.7956 44.4931 41.7956 44.4931L47.9882 47.6272Z" fill="#263238"/>
<path d="M54.8912 40.0728C57.1521 49.3665 51.8398 51.769 49.8338 52.2551C48.0142 52.6941 41.7626 53.9614 38.5553 44.9509C35.3481 35.9404 38.9542 31.952 43.0629 30.7248C47.1717 29.4976 52.628 30.7768 54.8912 40.0728Z" fill="#AD6359"/>
<path d="M52.2221 40.3395C52.0015 40.3427 51.7809 40.334 51.5613 40.3135C51.3278 40.3376 51.0929 40.2836 50.8934 40.1601C50.8381 40.1089 50.8013 40.0408 50.7889 39.9665C50.7765 39.8922 50.7892 39.8158 50.8249 39.7495C50.9139 39.6285 51.0339 39.5337 51.1722 39.4752C51.3105 39.4166 51.462 39.3964 51.6108 39.4167C51.9184 39.4084 52.2181 39.5153 52.451 39.7164C52.5013 39.7654 52.5363 39.8279 52.5519 39.8964C52.5674 39.9648 52.5628 40.0363 52.5386 40.1022C52.5144 40.1681 52.4716 40.2256 52.4155 40.2677C52.3593 40.3098 52.2921 40.3347 52.2221 40.3395Z" fill="#263238"/>
<path d="M45.6094 41.7555C45.8185 41.6872 46.0241 41.6084 46.2253 41.5195C46.4531 41.4647 46.6564 41.3361 46.8035 41.1537C46.8394 41.0872 46.8519 41.0106 46.8391 40.9361C46.8262 40.8617 46.7888 40.7937 46.7327 40.743C46.6085 40.6587 46.464 40.6092 46.3141 40.5996C46.1643 40.5901 46.0147 40.6209 45.8808 40.6888C45.5878 40.7835 45.3405 40.9836 45.1869 41.2504C45.1577 41.3131 45.1469 41.3827 45.1559 41.4513C45.1648 41.5198 45.1931 41.5843 45.2375 41.6373C45.2818 41.6904 45.3403 41.7296 45.4062 41.7506C45.4721 41.7715 45.5426 41.7732 45.6094 41.7555Z" fill="#263238"/>
<path d="M48.4083 48.1747C48.5806 48.3092 48.7576 48.5004 48.9936 48.4956C49.2342 48.4657 49.4659 48.3853 49.6733 48.2596C49.6776 48.2579 49.6823 48.2575 49.6868 48.2584C49.6913 48.2594 49.6955 48.2616 49.6987 48.2649C49.702 48.2681 49.7042 48.2723 49.7052 48.2768C49.7061 48.2813 49.7057 48.286 49.704 48.2903C49.6252 48.4274 49.5107 48.5406 49.3728 48.6179C49.2348 48.6952 49.0785 48.7337 48.9204 48.7293C48.7846 48.7098 48.6577 48.6502 48.5559 48.5581C48.4542 48.466 48.3822 48.3457 48.3493 48.2124C48.3352 48.1747 48.38 48.144 48.4083 48.1747Z" fill="#263238"/>
<path d="M50.7542 46.6289C50.585 47.0547 50.3096 47.4301 49.9541 47.7192C49.7546 47.8677 49.5137 47.9502 49.265 47.9552C48.7198 47.9694 48.5735 47.5068 48.557 47.082C48.5477 46.8556 48.5659 46.629 48.6113 46.407C49.2837 46.7075 50.0345 46.7852 50.7542 46.6289Z" fill="white"/>
<path d="M50.4285 47.2307C50.4025 47.2661 50.3742 47.3062 50.3435 47.3416C50.1718 47.3617 49.9984 47.3617 49.8267 47.3416C50.032 47.3038 50.2326 47.2684 50.4285 47.2307Z" fill="#DBDBDB"/>
<path d="M49.2792 47.2968C49.1466 47.2979 49.0143 47.2837 48.885 47.2543C48.7723 47.2251 48.6625 47.1856 48.557 47.1363C48.557 47.1221 48.557 47.1032 48.557 47.0891C48.557 47.0749 48.557 47.0419 48.557 47.0183C48.7916 47.1262 49.0328 47.2192 49.2792 47.2968Z" fill="#DBDBDB"/>
<path d="M50.7093 45.4064C50.7093 45.4064 50.9996 46.3504 51.0751 46.7964C51.0751 46.8389 50.976 46.8767 50.825 46.9097C50.825 46.9097 50.8132 46.9097 50.8061 46.9097C50.4294 47.0449 50.0228 47.0739 49.6307 46.9936C49.2386 46.9132 48.8762 46.7267 48.583 46.4542C48.573 46.4467 48.5663 46.4355 48.5646 46.4232C48.5628 46.4108 48.566 46.3982 48.5735 46.3882C48.581 46.3781 48.5922 46.3715 48.6046 46.3698C48.617 46.368 48.6296 46.3712 48.6396 46.3787C49.2828 46.6779 50.0057 46.7607 50.6999 46.6147C50.6999 46.4849 50.1429 45.0099 50.2161 45.0099C50.5252 45.0099 51.0775 45.0548 51.2828 45.0713C51.1058 44.4577 50.5205 42.742 50.2019 41.6233C50.183 41.5549 50.2892 41.5124 50.3152 41.5761C50.8976 42.8097 51.3974 44.0806 51.8114 45.3804C51.8421 45.489 50.9028 45.4512 50.7093 45.4064Z" fill="#263238"/>
<path d="M46.1262 43.4948C46.1293 43.3278 46.1774 43.1647 46.2654 43.0228C46.3175 42.9487 46.3841 42.886 46.4612 42.8385C46.5383 42.791 46.6242 42.7598 46.7138 42.7467C46.8056 42.7358 46.8987 42.7466 46.9855 42.7782C47.0724 42.8097 47.1507 42.8612 47.2141 42.9284C47.3238 43.0477 47.4045 43.1906 47.4501 43.3461C47.4747 43.4393 47.4936 43.5339 47.5068 43.6293C47.5347 43.8282 47.5169 44.0307 47.4549 44.2217C47.4441 44.0768 47.4172 43.9335 47.3746 43.7945C47.3384 43.6696 47.2934 43.5474 47.2401 43.4287C47.1245 43.1927 46.9498 42.9968 46.7492 43.0346C46.5486 43.0724 46.4047 43.2517 46.3527 43.5066C46.3087 43.7812 46.2913 44.0594 46.3008 44.3373C46.1796 44.0733 46.1199 43.7852 46.1262 43.4948Z" fill="#263238"/>
<path d="M52.5548 42.244C52.4896 42.0928 52.3843 41.9623 52.2504 41.8664C52.1745 41.8169 52.0893 41.7836 51.9999 41.7686C51.9106 41.7536 51.8191 41.7571 51.7312 41.7791C51.6421 41.8032 51.5599 41.848 51.4914 41.91C51.4229 41.9719 51.37 42.0492 51.3371 42.1354C51.2801 42.2858 51.2599 42.4477 51.2781 42.6074C51.2889 42.7031 51.3071 42.7978 51.3324 42.8906C51.3792 43.086 51.4723 43.2673 51.6038 43.4193C51.5578 43.2817 51.5285 43.1391 51.5164 42.9945C51.5059 42.8641 51.5059 42.7331 51.5164 42.6027C51.5306 42.336 51.6203 42.0953 51.8209 42.0552C52.0215 42.0151 52.2221 42.1236 52.3684 42.3502C52.5126 42.5882 52.6335 42.8395 52.7295 43.1007C52.7405 42.8053 52.6806 42.5115 52.5548 42.244Z" fill="#263238"/>
<path d="M37.6349 45.784C40.4787 45.8147 41.7578 42.3502 40.9389 39.674C40.9389 39.674 48.5287 40.2262 48.531 34.161C49.1083 34.9468 49.8701 35.5785 50.7492 36.0004C51.6284 36.4223 52.5978 36.6213 53.572 36.58L54.5467 38.7583C55.3066 38.4892 55.9981 36.2472 54.0062 34.6354C54.0062 34.6354 53.6994 31.6311 51.3701 29.9531C50.7396 29.4693 49.9827 29.1781 49.1905 29.1145C48.3983 29.0508 47.6047 29.2175 46.905 29.5944C45.538 28.7237 43.8859 28.419 42.2983 28.7448C39.556 29.264 38.5624 31.86 38.5624 31.86C38.5624 31.86 34.8737 32.804 34.397 35.4802C34.2432 36.2435 34.253 37.0306 34.4259 37.7897C34.5988 38.5489 34.9308 39.2627 35.4 39.884C35.4 39.884 34.5268 40.9814 35.1357 43.214C35.518 44.637 36.783 45.784 37.6349 45.784Z" fill="#263238"/>
<path d="M48.3281 33.6394C48.4143 34.1261 48.4492 34.6205 48.4319 35.1144C48.4286 35.6018 48.3652 36.0869 48.2431 36.5588C48.0105 37.4926 47.434 38.3042 46.6289 38.8314C45.8477 39.4002 44.8471 39.5394 43.8936 39.6905C43.4051 39.7046 42.9142 39.7542 42.421 39.74C41.9278 39.7259 41.4345 39.6881 40.9342 39.6787C41.4227 39.766 41.916 39.8344 42.4116 39.9147C42.9072 39.9949 43.4098 39.9454 43.9149 39.9619C44.9061 39.8628 45.9492 39.7259 46.82 39.1241C47.687 38.5424 48.2918 37.6445 48.5051 36.6225C48.6982 35.6291 48.6374 34.603 48.3281 33.6394Z" fill="#263238"/>
<path d="M38.5624 31.86C37.606 31.9241 36.6731 32.1852 35.8224 32.627C34.9347 33.0646 34.23 33.8019 33.833 34.7085C33.6664 35.17 33.5748 35.6553 33.5616 36.1458C33.5306 36.6326 33.5833 37.1211 33.7173 37.5901C33.9695 38.5393 34.5704 39.3584 35.4 39.884C34.6849 39.2803 34.1875 38.4587 33.984 37.5452C33.7848 36.6506 33.847 35.7175 34.1634 34.8572C34.3267 34.4388 34.5668 34.0546 34.8714 33.7244C35.1946 33.3994 35.5569 33.1156 35.9499 32.8795C36.7612 32.4034 37.643 32.0593 38.5624 31.86Z" fill="#263238"/>
<path d="M46.9144 29.6038C47.6094 29.3029 48.3479 29.1149 49.1021 29.0469C49.8373 28.9754 50.5784 29.094 51.2545 29.3914C51.9156 29.7167 52.4839 30.2038 52.9065 30.8074C53.3426 31.4269 53.6861 32.1066 53.926 32.8252C53.8127 32.0557 53.5411 31.318 53.1283 30.6588C52.7286 29.9631 52.1234 29.4082 51.3958 29.0702C50.6682 28.7322 49.8538 28.6276 49.0644 28.7708C48.2959 28.8896 47.5624 29.1739 46.9144 29.6038Z" fill="#263238"/>
<path d="M52.4179 36.9033C51.576 36.6717 50.7784 36.3016 50.0579 35.8083C49.7059 35.5622 49.3884 35.2702 49.1139 34.9398C48.8367 34.5989 48.5992 34.2276 48.4059 33.833C48.4715 34.2834 48.6324 34.7146 48.8779 35.0979C49.1241 35.4881 49.4449 35.8257 49.8219 36.0915C50.1958 36.3567 50.6092 36.5614 51.0468 36.698C51.4885 36.8451 51.9525 36.9146 52.4179 36.9033Z" fill="#263238"/>
<path d="M46.4354 47.0301C45.8114 47.074 45.1876 46.9419 44.6349 46.6488C44.0823 46.3557 43.623 45.9134 43.3094 45.3722C42.9957 44.8309 42.8403 44.2126 42.8607 43.5874C42.8812 42.9621 43.0767 42.3552 43.425 41.8357C43.7734 41.3161 44.2606 40.9047 44.8311 40.6483C45.4017 40.392 46.0328 40.3009 46.6526 40.3855C47.2724 40.4701 47.856 40.727 48.337 41.1269C48.8181 41.5268 49.1772 42.0536 49.3736 42.6476C49.6499 43.4891 49.5815 44.4059 49.1834 45.1972C48.7853 45.9885 48.09 46.5898 47.2496 46.8696C46.9856 46.9558 46.7122 47.0097 46.4354 47.0301ZM45.9988 40.8091C45.758 40.8265 45.5202 40.8733 45.2908 40.9484C44.5919 41.1793 44.0073 41.668 43.656 42.3149C43.3048 42.9618 43.2133 43.7182 43.4002 44.4302C43.5871 45.1421 44.0383 45.7561 44.6619 46.147C45.2856 46.538 46.0348 46.6766 46.7571 46.5345C47.4793 46.3925 48.1203 45.9805 48.5494 45.3825C48.9786 44.7845 49.1637 44.0454 49.067 43.3157C48.9704 42.586 48.5993 41.9205 48.0292 41.4548C47.4592 40.9892 46.7331 40.7582 45.9988 40.8091Z" fill="#006D77"/>
<path d="M53.6711 45.5858C52.3944 45.6754 51.1483 44.4506 50.8226 42.7372C50.6552 41.9212 50.7459 41.0733 51.0822 40.3112C51.2074 39.9752 51.4172 39.6773 51.6913 39.4462C51.9654 39.2152 52.2945 39.0589 52.6468 38.9924C52.9991 38.9259 53.3626 38.9516 53.7021 39.0668C54.0415 39.1821 54.3455 39.3831 54.5844 39.6504C55.1758 40.236 55.5694 40.9918 55.7102 41.8121C56.0524 43.6222 55.2382 45.3026 53.8882 45.5574C53.8165 45.5715 53.744 45.581 53.6711 45.5858ZM52.897 39.412C52.8404 39.412 52.7861 39.412 52.7295 39.4332C52.4516 39.4994 52.1937 39.6312 51.9773 39.8176C51.7609 40.0041 51.5923 40.2397 51.4858 40.5047C51.1882 41.1811 51.1098 41.9337 51.2616 42.657C51.5589 44.224 52.6964 45.3309 53.8056 45.1208C54.9148 44.9108 55.5686 43.4688 55.2712 41.8994C55.149 41.1703 54.8016 40.4977 54.2776 39.976C54.0997 39.7908 53.8849 39.6449 53.6471 39.5477C53.4093 39.4506 53.1538 39.4043 52.897 39.412Z" fill="#006D77"/>
<path d="M49.3665 43.0417L49.0738 42.8057C49.4278 42.3738 50.3081 41.7177 51.1223 42.3124L50.8863 42.6145C50.1712 42.0788 49.3995 43.0039 49.3665 43.0417Z" fill="#006D77"/>
<path d="M36.1457 46.2843L35.7847 46.1758C35.8366 46.0082 36.2991 44.5238 37.0992 44.2335C37.8497 43.9644 42.8953 43.4924 43.1101 43.4712L43.1455 43.8464C41.6988 43.981 37.8072 44.3774 37.229 44.5875C36.7003 44.781 36.2685 45.8784 36.1457 46.2843Z" fill="#006D77"/>
<path d="M40.5283 45.3781C40.5283 45.3781 38.0125 42.7443 36.7877 43.6836C35.5628 44.6229 37.7671 48.6656 39.4285 49.0101C39.6381 49.0692 39.8574 49.0853 40.0733 49.0575C40.2893 49.0297 40.4974 48.9586 40.6852 48.8484C40.873 48.7382 41.0365 48.5912 41.1661 48.4162C41.2957 48.2412 41.3886 48.0419 41.4392 47.8301L40.5283 45.3781Z" fill="#AD6359"/>
<path d="M37.4485 44.8258C37.4438 44.8274 37.4396 44.8304 37.4367 44.8344C37.4338 44.8384 37.4323 44.8433 37.4323 44.8483C37.4323 44.8532 37.4338 44.8581 37.4367 44.8621C37.4396 44.8661 37.4438 44.8691 37.4485 44.8707C38.6285 45.1468 39.3554 46.0814 39.9241 47.0796C39.5347 46.7209 39.0533 46.5652 38.5671 47.0395C38.5412 47.0655 38.5671 47.1056 38.6072 47.0938C38.7916 47.0028 38.9997 46.971 39.2028 47.0026C39.406 47.0343 39.5945 47.128 39.7424 47.2708C39.9873 47.5127 40.2057 47.7801 40.3938 48.0685C40.4598 48.1582 40.6298 48.0685 40.5755 47.9717L40.5613 47.9458C40.3725 46.5368 38.9801 44.7362 37.4485 44.8258Z" fill="#263238"/>
<path d="M37.9063 54.044C37.5193 53.572 40.0091 52.156 40.6557 52.6894C41.3024 53.2227 44.5757 61.5252 43.5137 70.5333C42.4517 79.5414 25.016 89.2481 24.367 87.9006C24.098 87.3342 24.4425 85.7553 24.8673 85.2503C25.4644 84.5423 38.055 76.726 39.2987 71.1398C40.4032 66.172 38.8881 55.2712 37.9063 54.044Z" fill="#455A64"/>
<path d="M47.7215 53.8552C47.1976 52.8616 49.8951 53.6617 50.1901 54.1974C50.4851 54.7331 54.0912 63.34 54.7142 68.9663C54.9502 71.2201 55.8352 77.2876 55.8352 77.2876C55.8352 77.2876 53.2015 69.148 51.0303 62.3323C50.1074 59.4396 49.0023 56.6082 47.7215 53.8552Z" fill="#455A64"/>
<path d="M98.7684 89.3874C98.7684 89.3874 101.53 79.4258 103.724 76.0439C105.919 72.662 110.04 68.945 110.04 68.945C110.04 68.945 109.952 84.3016 98.7684 89.3874Z" fill="#006D77"/>
<path d="M98.9666 89.208C99.8957 87.6517 100.735 86.0435 101.48 84.3912C101.797 82.6111 102.255 80.8591 102.851 79.152C102.863 79.1214 102.908 79.1379 102.901 79.1709C102.535 80.7427 102.108 82.3026 101.721 83.872C102.835 81.4483 103.894 78.9939 105.221 76.7024C105.527 75.5949 105.957 74.5254 106.502 73.514C106.516 73.4857 106.563 73.4998 106.549 73.5305C106.213 74.3098 105.926 75.109 105.688 75.9236C106.313 74.9009 107.015 73.9266 107.786 73.009C107.835 72.9523 107.932 73.009 107.883 73.0774C106.108 75.3548 104.883 77.9437 103.717 80.5657C104.972 79.1974 106.13 77.7433 107.182 76.2138C107.182 76.1997 107.215 76.2138 107.205 76.2304C106.109 77.9452 104.868 79.563 103.495 81.066C102.646 82.987 101.81 84.9152 100.798 86.7442C102.823 85.0237 104.38 82.7982 105.922 80.6506C105.925 80.6457 105.929 80.6414 105.934 80.6382C105.939 80.6349 105.945 80.6326 105.951 80.6315C105.957 80.6304 105.963 80.6305 105.969 80.6318C105.975 80.633 105.98 80.6354 105.985 80.6388C105.99 80.6422 105.994 80.6466 105.998 80.6516C106.001 80.6567 106.003 80.6623 106.004 80.6682C106.005 80.6742 106.005 80.6802 106.004 80.6861C106.003 80.692 106 80.6976 105.997 80.7026C104.454 83.0626 102.858 85.2786 100.64 87.0226C100.19 87.8258 99.6956 88.6027 99.1578 89.3496C99.139 89.3749 99.1109 89.3918 99.0797 89.3964C99.0485 89.4011 99.0167 89.3931 98.9914 89.3744C98.966 89.3556 98.9492 89.3275 98.9445 89.2963C98.9399 89.2651 98.9478 89.2333 98.9666 89.208Z" fill="#263238"/>
<path d="M97.9117 90.2842C97.9117 90.2842 102.868 81.099 101.433 72.1948C99.9979 63.2905 98.4474 60.1186 98.4474 60.1186C98.4474 60.1186 90.6476 73.9695 97.9117 90.2842Z" fill="#006D77"/>
<path d="M95.875 75.8457C96.2952 78.3688 96.9365 80.85 97.7913 83.2608C97.8055 79.9922 97.8668 76.726 97.9542 73.4574C97.3937 71.4744 97.0767 69.4305 97.0102 67.3709C97.0102 67.3119 97.0975 67.3143 97.1022 67.3709C97.2593 69.1361 97.5504 70.8868 97.973 72.6078C98.0486 69.9126 98.1351 67.2175 98.2326 64.5224C98.2326 64.513 98.2364 64.504 98.243 64.4974C98.2496 64.4907 98.2587 64.487 98.268 64.487C98.2774 64.487 98.2864 64.4907 98.2931 64.4974C98.2997 64.504 98.3034 64.513 98.3034 64.5224C98.3034 68.7326 98.3034 72.9429 98.2751 77.1555C98.8805 75.5272 99.3586 73.8545 99.7053 72.1523C99.7065 72.1492 99.7086 72.1466 99.7114 72.1447C99.7141 72.1429 99.7173 72.1419 99.7206 72.1419C99.7239 72.1419 99.7271 72.1429 99.7299 72.1447C99.7326 72.1466 99.7347 72.1492 99.736 72.1523C99.5849 74.1182 98.9902 76.0203 98.2704 77.8446C98.2515 80.5374 98.2232 83.2278 98.1618 85.9205C99.002 83.0578 99.8988 80.2872 100.142 77.2617C100.142 77.2577 100.143 77.2537 100.144 77.2499C100.146 77.2462 100.148 77.2428 100.151 77.24C100.154 77.2371 100.157 77.2349 100.161 77.2333C100.165 77.2318 100.169 77.231 100.173 77.231C100.177 77.231 100.181 77.2318 100.184 77.2333C100.188 77.2349 100.191 77.2371 100.194 77.24C100.197 77.2428 100.199 77.2462 100.201 77.2499C100.202 77.2537 100.203 77.2577 100.203 77.2617C100.14 80.5964 99.2828 83.9806 98.1902 87.117C98.178 87.148 98.1586 87.1755 98.1335 87.1973C98.1099 88.179 98.0816 89.1624 98.0486 90.1473C98.0486 90.1761 98.0371 90.2037 98.0168 90.224C97.9964 90.2444 97.9688 90.2558 97.94 90.2558C97.9112 90.2558 97.8836 90.2444 97.8632 90.224C97.8429 90.2037 97.8314 90.1761 97.8314 90.1473C97.7905 88.135 97.774 86.1227 97.7819 84.1104C96.668 81.5144 96.0732 78.6376 95.8254 75.8504C95.8302 75.8244 95.8726 75.8197 95.875 75.8457Z" fill="#263238"/>
<path d="M96.2149 74.425C96.3893 75.2241 96.5053 76.035 96.5618 76.851C96.5618 76.8794 96.5217 76.8817 96.5146 76.851C96.3216 76.0553 96.1852 75.247 96.1063 74.432C96.0992 74.3754 96.2031 74.3636 96.2149 74.425Z" fill="#263238"/>
<path d="M99.12 67.7108C99.12 67.6824 99.1672 67.6919 99.1672 67.7108C99.161 68.2773 99.0768 68.8404 98.917 69.384C98.9052 69.4288 98.8415 69.4076 98.851 69.3651C98.9572 68.82 99.0232 68.2654 99.12 67.7108Z" fill="#263238"/>
<path d="M96.1039 90.9874C96.1039 90.9874 96.3045 81.3988 93.5693 76.6339C90.8341 71.8691 86.2958 69.4406 86.2958 69.4406C86.2958 69.4406 88.1248 86.3406 96.1039 90.9874Z" fill="#006D77"/>
<path d="M91.1173 82.7888C92.2666 84.4526 93.4112 86.0574 94.8201 87.5088C94.2726 85.5484 93.6432 83.6211 92.9321 81.7268C91.3981 80.3745 89.8783 78.9727 88.9366 77.1224C88.9225 77.0941 88.9649 77.0682 88.9815 77.0965C89.9939 78.7343 91.3415 80.0465 92.7693 81.3067C91.6725 78.452 90.4012 75.6675 88.9626 72.9688C88.9577 72.9554 88.9577 72.9407 88.9625 72.9272C88.9673 72.9137 88.9767 72.9024 88.989 72.8951C89.0014 72.8878 89.0158 72.8851 89.03 72.8873C89.0441 72.8896 89.057 72.8967 89.0664 72.9075C89.9412 74.3224 90.7385 75.7838 91.4547 77.2853C91.1975 76.2587 90.9827 75.2108 90.7302 74.1937C90.7287 74.1881 90.7294 74.182 90.7323 74.1769C90.7351 74.1719 90.7399 74.1681 90.7456 74.1665C90.7512 74.165 90.7572 74.1657 90.7623 74.1686C90.7674 74.1715 90.7711 74.1762 90.7727 74.1819C91.2589 75.4634 91.7403 76.8794 91.8961 78.2482C92.8542 80.375 93.6594 82.5675 94.3056 84.809C94.2348 83.3717 94.1451 81.9416 93.9988 80.5067C93.9988 80.4807 94.0413 80.4736 94.046 80.5067C94.3497 82.0977 94.4881 83.7158 94.459 85.3352C94.8531 86.763 95.1859 88.2097 95.4526 89.6658C95.4526 89.706 95.403 89.7225 95.3936 89.6824C95.2449 89.0711 95.0821 88.467 94.9216 87.8628C94.9216 87.8628 94.9003 87.8628 94.8909 87.8628C93.423 86.3831 92.0306 84.7004 91.1149 82.8148C91.096 82.7864 91.1102 82.7794 91.1173 82.7888Z" fill="#263238"/>
<path d="M87.9478 74.9866C88.2522 75.317 88.5307 75.6663 88.8257 76.0062C89.1117 76.2939 89.3753 76.6032 89.6139 76.9313C89.6139 76.9454 89.6139 76.962 89.5927 76.9525C89.2483 76.6962 88.9416 76.3927 88.6817 76.051C88.3938 75.7296 88.1333 75.3846 87.9029 75.0197C87.8864 74.9937 87.9265 74.963 87.9478 74.9866Z" fill="#263238"/>
<path d="M104.232 89.8169L103.887 92.8849L102.846 102.188H93.7841L92.748 92.8896L92.4011 89.8216H104.234L104.232 89.8169Z" fill="#455A64"/>
<path d="M104.232 89.8169L103.887 92.8849H92.748L92.4011 89.8169H104.234H104.232Z" fill="#37474F"/>
<path d="M91.594 91.0677H105.037V87.5867H91.594V91.0677Z" fill="#455A64"/>
<path d="M91.9574 98.9808H64.841V102.19H91.9574V98.9808Z" fill="#37474F"/>
<path d="M71.2649 98.9808H70.1605V102.19H71.2649V98.9808Z" fill="#455A64"/>
<path d="M88.7667 98.9808H86.1164V102.19H88.7667V98.9808Z" fill="#455A64"/>
<path d="M90.0057 89.5974H62.3087V93.8383H90.0057V89.5974Z" fill="#37474F"/>
<path d="M85.1063 90.9733H78.4535V92.4624H85.1063V90.9733Z" fill="#006D77"/>
<path d="M88.441 91.7167C88.4524 91.8928 88.4105 92.0684 88.3208 92.2204C88.2312 92.3725 88.0978 92.4941 87.9382 92.5694C87.7785 92.6448 87.5999 92.6703 87.4255 92.6429C87.2511 92.6154 87.089 92.5361 86.9603 92.4153C86.8315 92.2945 86.7421 92.1378 86.7035 91.9655C86.665 91.7932 86.6791 91.6133 86.7441 91.4492C86.8091 91.2851 86.922 91.1443 87.068 91.0451C87.2141 90.9459 87.3866 90.8929 87.5631 90.893C87.7887 90.886 88.0078 90.9688 88.1724 91.1233C88.337 91.2777 88.4336 91.4911 88.441 91.7167Z" fill="#006D77"/>
<path d="M74.9654 85.845H60.973V89.588H74.9654V85.845Z" fill="#263238"/>
<path d="M87.8982 85.845H74.9654V89.5879H87.8982V85.845Z" fill="#263238"/>
<path d="M74.9654 86.2344H60.973V89.2009H74.9654V86.2344Z" fill="white"/>
<path d="M62.1907 86.848C63.6571 86.8291 65.1234 86.815 66.5898 86.8055L68.5793 86.7914L72.9759 86.8055C74.4415 86.8055 73.4999 86.8267 74.9654 86.848C73.4999 86.8692 74.4415 86.8834 72.9759 86.8928L68.5793 86.9046L66.5898 86.8928C65.1234 86.8802 63.6571 86.8653 62.1907 86.848Z" fill="#DBDBDB"/>
<path d="M62.1907 87.4262C63.6571 87.4057 65.1234 87.3916 66.5898 87.3837L68.5793 87.3696L72.9759 87.3814C74.4415 87.3814 73.4999 87.405 74.9654 87.4262C73.4999 87.4474 74.4415 87.4616 72.9759 87.4687L68.5793 87.4828L66.5898 87.4687C65.1234 87.4624 63.6571 87.4482 62.1907 87.4262Z" fill="#DBDBDB"/>
<path d="M62.1907 88.0068C63.6571 87.9879 65.1234 87.9737 66.5898 87.9643L68.5793 87.9525L72.9759 87.9643C74.4415 87.9643 73.4999 87.9879 74.9654 88.0068C73.4999 88.028 74.4415 88.0445 72.9759 88.0516H68.5793H66.5898C65.1234 88.0437 63.6571 88.0288 62.1907 88.0068Z" fill="#DBDBDB"/>
<path d="M62.1907 88.5897C63.6571 88.5692 65.1234 88.5551 66.5898 88.5472L68.5793 88.533L72.9759 88.5472C74.4415 88.5472 73.4999 88.5684 74.9654 88.5897C73.4999 88.6109 74.4415 88.6251 72.9759 88.6322L68.5793 88.6463L66.5898 88.6322C65.1234 88.6259 63.6571 88.6117 62.1907 88.5897Z" fill="#DBDBDB"/>
<path d="M79.6524 85.845H77.8304V89.5879H79.6524V85.845Z" fill="#455A64"/>
<path d="M87.2303 85.845H86.0055V89.5879H87.2303V85.845Z" fill="#455A64"/>
<path d="M73.1081 98.9784H88.8658V93.8336H73.1081V98.9784Z" fill="#006D77"/>
<path d="M61.1429 98.9784H73.1081V93.8336H61.1429V98.9784Z" fill="#006D77"/>
<path d="M73.1081 98.445H88.8658V94.3693H73.1081V98.445Z" fill="white"/>
<path d="M87.8439 97.6072C86.6167 97.6293 85.3887 97.6434 84.16 97.6497L80.476 97.6639L76.792 97.6497C75.5633 97.6497 74.3345 97.6356 73.1057 97.6072C74.3361 97.5868 75.5648 97.5726 76.792 97.5648L80.476 97.5506L84.16 97.5648C85.3887 97.5726 86.6167 97.5868 87.8439 97.6072Z" fill="#DBDBDB"/>
<path d="M87.8439 96.8072C86.6167 96.8292 85.3887 96.8434 84.16 96.8497L80.476 96.8638L76.792 96.852C75.5633 96.8426 74.3345 96.8277 73.1057 96.8072C74.3361 96.7867 75.5648 96.7726 76.792 96.7647L80.476 96.76L84.16 96.7742C85.3887 96.7757 86.6167 96.7867 87.8439 96.8072Z" fill="#DBDBDB"/>
<path d="M87.8439 96.0072C86.6167 96.0276 85.3887 96.0426 84.16 96.052L80.476 96.0638L76.792 96.052C75.5633 96.0426 74.3345 96.0276 73.1057 96.0072C74.3361 95.9867 75.5648 95.9725 76.792 95.9647L80.476 95.9505L84.16 95.9647C85.3887 95.9725 86.6167 95.9867 87.8439 96.0072Z" fill="#DBDBDB"/>
<path d="M87.8439 95.2071C86.6167 95.2276 85.3887 95.2425 84.16 95.2519L80.476 95.2637L76.792 95.2519C75.5633 95.2519 74.3345 95.237 73.1057 95.2071C74.3361 95.1851 75.5648 95.1709 76.792 95.1646L80.476 95.1505L84.16 95.1646C85.3895 95.1717 86.612 95.1882 87.8439 95.2071Z" fill="#DBDBDB"/>
<path d="M65.287 93.836H63.0474V98.9808H65.287V93.836Z" fill="#455A64"/>
<path d="M74.3211 24.4638C74.3207 26.0253 73.8866 27.5561 73.0671 28.8853C72.2477 30.2146 71.0751 31.2901 69.6802 31.992C68.2853 32.6938 66.7228 32.9945 65.167 32.8603C63.6113 32.7262 62.1233 32.1625 60.8691 31.2322L56.7391 32.2872L58.4596 28.4404C57.8544 27.31 57.515 26.0566 57.4672 24.7753C57.4193 23.4941 57.6642 22.2188 58.1834 21.0465C58.7025 19.8741 59.4821 18.8356 60.4629 18.0099C61.4437 17.1841 62.5999 16.5929 63.8436 16.2812C65.0872 15.9695 66.3856 15.9455 67.6399 16.2111C68.8943 16.4766 70.0715 17.0247 71.0822 17.8136C72.0929 18.6025 72.9103 19.6116 73.4724 20.7639C74.0345 21.9163 74.3263 23.1816 74.3259 24.4638H74.3211Z" fill="white"/>
<path d="M74.3211 24.4638C74.3189 26.0257 73.8861 27.5568 73.0703 28.8888C72.8655 29.2162 72.6417 29.5315 72.4001 29.8328C72.1488 30.1293 71.8792 30.4099 71.593 30.6729C71.4533 30.8078 71.3068 30.9354 71.154 31.0552L70.682 31.4069C70.5262 31.5225 70.354 31.6146 70.1888 31.7208L69.941 31.8742C69.856 31.9214 69.7663 31.9615 69.6814 32.004C69.5044 32.0889 69.3321 32.1786 69.1551 32.2588L68.6076 32.4642C68.4254 32.5339 68.2385 32.5907 68.0482 32.6341C67.8594 32.6789 67.6754 32.7426 67.4818 32.771C67.0988 32.8464 66.7107 32.8938 66.3207 32.9126C65.928 32.9437 65.5334 32.9437 65.1407 32.9126C64.3606 32.8487 63.5928 32.6788 62.8586 32.4075C62.1248 32.1308 61.4317 31.7561 60.7983 31.2936L60.8691 31.3078L56.7438 32.3792L56.5362 32.4335L56.6235 32.2376L58.3345 28.3861V28.4876C57.7224 27.345 57.3847 26.0757 57.348 24.78C57.3009 23.4818 57.5516 22.19 58.081 21.0037C58.6103 19.8174 59.4042 18.768 60.4018 17.936C61.3955 17.1096 62.5653 16.5218 63.8215 16.2179C65.0694 15.9155 66.3696 15.8998 67.6244 16.1721C68.8793 16.4444 70.0561 16.9975 71.0664 17.79C72.0767 18.5825 72.8942 19.5937 73.4575 20.7475C74.0208 21.9014 74.3153 23.1679 74.3188 24.452L74.3211 24.4638ZM74.3211 24.4638C74.3144 23.184 74.0174 21.9225 73.4524 20.7742C72.8875 19.6259 72.0693 18.6208 71.0596 17.8345C70.0473 17.0579 68.874 16.5176 67.6258 16.2533C66.3756 16.0015 65.0846 16.0362 63.8498 16.3548C62.6203 16.6686 61.4788 17.2595 60.5128 18.0823C59.5552 18.9104 58.7907 19.9383 58.2731 21.0937C57.7639 22.2508 57.5242 23.5084 57.5721 24.7717C57.6199 26.0349 57.954 27.2708 58.5492 28.3861L58.5752 28.4356L58.554 28.4876L56.8288 32.332L56.7084 32.188L60.8455 31.152H60.8833L60.9163 31.1756C62.1508 32.1112 63.6221 32.6834 65.1643 32.8276C65.5487 32.8638 65.9354 32.8693 66.3207 32.8441C66.7062 32.8284 67.0902 32.7866 67.47 32.719C67.6612 32.6931 67.8453 32.6294 68.0341 32.5869C68.2235 32.5475 68.4097 32.4938 68.591 32.4264L69.1362 32.2305L69.6601 31.9827C69.7474 31.9402 69.8371 31.9025 69.9221 31.8553L70.1581 31.7066C70.3209 31.6051 70.4956 31.5154 70.6513 31.4022L71.1233 31.0552C71.2762 30.9364 71.4228 30.8096 71.5623 30.6753C71.8478 30.4141 72.1174 30.1359 72.3694 29.8422C72.6125 29.5415 72.8372 29.2262 73.042 28.8982C73.8694 27.5664 74.3121 26.0316 74.3211 24.4638Z" fill="#263238"/>
<path d="M64.5224 29.4811L60.744 25.6556L62.0137 24.4L64.2203 26.635L68.8082 19.4464L70.3115 20.4046L64.5224 29.4811Z" fill="#006D77"/>
</svg>
