<svg width="153" height="153" viewBox="0 0 153 153" fill="none" xmlns="http://www.w3.org/2000/svg">
<path d="M76.5 130.833C109.267 130.833 135.83 129.283 135.83 127.369C135.83 125.456 109.267 123.906 76.5 123.906C43.7327 123.906 17.1696 125.456 17.1696 127.369C17.1696 129.283 43.7327 130.833 76.5 130.833Z" fill="#F5F5F5"/>
<path d="M126.051 71.861L125.466 71.8335C125.466 71.8335 124.469 79.052 123.808 79.6181C123.147 80.1842 113.449 78.3085 112.883 77.8984C112.864 77.8815 112.85 77.8591 112.844 77.8342C112.418 76.7723 114.101 64.7955 114.719 64.2386C115.337 63.6817 117.225 64.2386 117.225 64.2386C117.225 64.2386 121.311 65.1964 123.651 65.8328C124.184 65.9588 124.707 66.1245 125.215 66.3286C125.827 66.6896 126.051 71.861 126.051 71.861Z" fill="#263238"/>
<path opacity="0.2" d="M123.878 71.3164C123.878 71.3164 122.877 78.5349 122.219 79.101C121.705 79.5416 115.751 78.5104 112.844 77.8342C112.418 76.7723 114.101 64.7955 114.719 64.2386C115.337 63.6817 117.225 64.2386 117.225 64.2386C117.225 64.2386 121.311 65.1964 123.651 65.8328C124.236 66.3194 123.878 71.3164 123.878 71.3164Z" fill="white"/>
<path d="M106.87 52.3933L106.372 50.3615L108.642 50.8327C108.642 50.8327 108.979 52.6687 108.03 52.8064L106.87 52.3933Z" fill="#EEC1BB"/>
<path d="M106.996 48.3878L108.811 49.4557L108.642 50.8327L106.372 50.3615L106.996 48.3878Z" fill="#EEC1BB"/>
<path d="M114.863 64.4467C114.508 64.6191 114.144 64.7703 113.771 64.8995C113.501 64.7986 113.238 64.6945 112.978 64.5935C112.847 64.5385 112.712 64.4864 112.583 64.4283C112.106 64.2325 111.638 64.0213 111.173 63.7979L110.619 63.5287C110.466 63.4491 110.313 63.3726 110.157 63.29C109.808 63.1003 109.459 62.9136 109.113 62.7086C108.875 62.5709 108.636 62.424 108.4 62.271C108.165 62.118 107.917 61.9436 107.672 61.76L107.528 61.6529C107.215 61.4192 106.922 61.1592 106.653 60.8756C106.49 60.7101 106.342 60.5309 106.21 60.3401C106.128 60.2267 106.055 60.1082 105.989 59.9852C105.971 59.9485 105.949 59.9087 105.931 59.8658C105.885 59.7618 105.842 59.6547 105.815 59.5598C105.682 59.1359 105.613 58.6945 105.61 58.2502C105.602 57.6489 105.645 57.0481 105.738 56.4539C105.738 56.3499 105.769 56.2428 105.784 56.1479C105.911 55.4063 106.078 54.6719 106.283 53.9478C106.436 53.4052 106.61 52.8646 106.806 52.326L108.312 52.6565C108.287 53.1522 108.257 53.6479 108.238 54.1436C108.205 54.8903 108.18 55.6308 108.18 56.353V56.659C108.18 57.0843 108.208 57.5005 108.254 57.883C108.254 57.935 108.269 57.9901 108.275 58.0421C108.301 58.2314 108.351 58.4165 108.425 58.5929C108.44 58.6235 108.425 58.5929 108.443 58.6112C108.462 58.6296 108.443 58.6265 108.486 58.6541C108.529 58.6816 108.59 58.7612 108.67 58.8285C109.076 59.1581 109.511 59.45 109.97 59.7006H109.998C110.49 59.976 111.011 60.2483 111.549 60.5023L111.662 60.5543C112.415 60.9154 113.192 61.2673 113.985 61.5978C114.291 61.7263 114.597 61.8548 114.882 61.9742C114.882 61.9742 115.876 62.2465 116.228 62.932C116.513 63.5072 115.643 64.0703 114.863 64.4467Z" fill="#006D77"/>
<path opacity="0.2" d="M114.863 64.4467C114.508 64.6191 114.144 64.7703 113.771 64.8995C113.502 64.7986 113.238 64.6945 112.978 64.5935C112.847 64.5385 112.712 64.4864 112.584 64.4283C112.106 64.2325 111.638 64.0213 111.173 63.7979C112.85 63.0054 114.162 63.8071 114.863 64.4467Z" fill="black"/>
<path d="M103.967 123.664L102.036 122.963L103.097 118.309L105.031 119.01L103.967 123.664Z" fill="#EEC1BB"/>
<path d="M119.205 126.231H117.155L116.571 121.482H118.621L119.205 126.231Z" fill="#EEC1BB"/>
<path d="M116.892 125.992H119.392C119.433 125.993 119.472 126.007 119.504 126.032C119.535 126.058 119.557 126.094 119.566 126.133L119.992 127.969C120 128.014 119.999 128.06 119.988 128.104C119.976 128.148 119.955 128.189 119.926 128.224C119.896 128.259 119.86 128.287 119.818 128.306C119.777 128.325 119.731 128.334 119.686 128.333C118.881 128.318 118.293 128.272 117.281 128.272C116.669 128.272 114.777 128.336 113.915 128.336C113.052 128.336 112.935 127.486 113.303 127.418C114.878 127.073 116.057 126.595 116.565 126.139C116.652 126.053 116.769 126 116.892 125.992Z" fill="#263238"/>
<path d="M101.965 122.571L104.159 123.04C104.199 123.049 104.235 123.071 104.261 123.103C104.287 123.134 104.302 123.173 104.303 123.214L104.334 125.081C104.334 125.126 104.325 125.171 104.306 125.212C104.288 125.253 104.26 125.29 104.226 125.319C104.191 125.348 104.15 125.37 104.107 125.381C104.063 125.393 104.017 125.395 103.973 125.387C103.183 125.203 102.048 124.909 101.053 124.698C99.8906 124.447 99.1684 124.212 97.8037 123.921C96.9775 123.743 96.9193 122.862 97.2804 122.859C98.9236 122.859 99.9181 123.165 101.448 122.633C101.611 122.563 101.791 122.541 101.965 122.571Z" fill="#263238"/>
<path opacity="0.2" d="M103.097 118.309L102.55 120.708L104.484 121.412L105.031 119.013L103.097 118.309Z" fill="black"/>
<path opacity="0.2" d="M118.624 121.482H116.571L116.874 123.93H118.924L118.624 121.482Z" fill="black"/>
<path d="M101.984 120.001L105.264 121.176C105.264 121.176 107.819 109.924 109.178 103.685C109.775 101.22 110.512 98.7903 111.384 96.4084C112.626 92.9077 114.107 89.1378 115.304 86.191C116.568 83.0882 117.507 80.8972 117.507 80.8972L110.432 79.4651C110.432 79.4651 105.038 94.9946 103.823 101.133C102.574 107.516 101.984 120.001 101.984 120.001Z" fill="#263238"/>
<g opacity="0.3">
<path d="M101.984 120.001L105.264 121.176C105.264 121.176 107.819 109.924 109.178 103.685C109.775 101.22 110.512 98.7903 111.384 96.4084C112.626 92.9077 114.107 89.1378 115.304 86.191C116.568 83.0882 117.507 80.8972 117.507 80.8972L110.432 79.4651C110.432 79.4651 105.038 94.9946 103.823 101.133C102.574 107.516 101.984 120.001 101.984 120.001Z" fill="white"/>
</g>
<path opacity="0.2" d="M111.384 96.4084C112.626 92.9077 114.107 89.1378 115.304 86.191L114.756 84.4988C112.746 86.3716 111.482 92.8251 111.384 96.4084Z" fill="black"/>
<path d="M114.26 80.2393C114.26 80.2393 113 97.9445 112.923 103.964C112.837 110.552 115.919 123.456 115.919 123.456H119.677C119.677 123.456 118.174 111.812 118.676 105.285C119.233 97.9843 121.204 81.6439 121.204 81.6439L114.26 80.2393Z" fill="#263238"/>
<g opacity="0.3">
<path d="M114.26 80.2393C114.26 80.2393 113 97.9445 112.923 103.964C112.837 110.552 115.919 123.456 115.919 123.456H119.677C119.677 123.456 118.174 111.812 118.676 105.285C119.233 97.9843 121.204 81.6439 121.204 81.6439L114.26 80.2393Z" fill="white"/>
</g>
<path d="M115.472 123.538H119.894L119.882 122.216L115.264 121.95L115.472 123.538Z" fill="#263238"/>
<path d="M101.546 119.958L105.463 121.317L105.891 120.053L101.607 118.492L101.546 119.958Z" fill="#263238"/>
<path d="M116.21 126.35C116.07 126.362 115.931 126.325 115.815 126.246C115.779 126.215 115.75 126.175 115.732 126.13C115.714 126.086 115.707 126.037 115.711 125.989C115.71 125.961 115.718 125.933 115.732 125.909C115.747 125.884 115.768 125.864 115.793 125.852C116.017 125.735 116.684 126.158 116.76 126.188C116.768 126.194 116.774 126.201 116.778 126.21C116.782 126.218 116.783 126.228 116.782 126.237C116.781 126.247 116.777 126.256 116.77 126.263C116.763 126.27 116.755 126.275 116.745 126.277C116.57 126.321 116.39 126.346 116.21 126.35ZM115.904 125.928C115.884 125.923 115.862 125.923 115.842 125.928C115.827 125.928 115.812 125.947 115.812 125.983C115.808 126.016 115.812 126.049 115.823 126.08C115.835 126.111 115.854 126.139 115.879 126.161C116.108 126.266 116.369 126.279 116.607 126.197C116.392 126.062 116.151 125.971 115.901 125.928H115.904Z" fill="#006D77"/>
<path d="M116.736 126.28H116.711C116.497 126.164 116.084 125.714 116.124 125.488C116.131 125.452 116.15 125.42 116.178 125.396C116.206 125.373 116.241 125.36 116.277 125.359C116.314 125.354 116.351 125.357 116.387 125.368C116.423 125.379 116.456 125.396 116.485 125.42C116.724 125.616 116.791 126.207 116.791 126.234C116.792 126.243 116.791 126.251 116.787 126.259C116.783 126.267 116.777 126.273 116.77 126.277C116.765 126.28 116.759 126.283 116.753 126.283C116.747 126.284 116.741 126.283 116.736 126.28ZM116.314 125.46H116.28C116.219 125.46 116.213 125.497 116.21 125.509C116.185 125.647 116.451 125.986 116.662 126.145C116.646 125.911 116.56 125.687 116.415 125.503C116.387 125.478 116.351 125.463 116.314 125.46Z" fill="#006D77"/>
<path d="M101.708 122.804C101.372 122.804 100.79 122.755 100.601 122.513C100.573 122.478 100.555 122.437 100.548 122.393C100.54 122.349 100.544 122.304 100.558 122.262C100.564 122.237 100.577 122.213 100.595 122.195C100.613 122.176 100.636 122.162 100.662 122.155C100.934 122.07 101.659 122.651 101.739 122.718C101.747 122.724 101.753 122.733 101.756 122.743C101.759 122.753 101.758 122.764 101.754 122.773C101.751 122.783 101.745 122.791 101.737 122.797C101.728 122.803 101.718 122.805 101.708 122.804ZM100.705 122.244H100.674C100.664 122.246 100.655 122.252 100.648 122.259C100.64 122.267 100.636 122.276 100.634 122.287C100.624 122.314 100.621 122.344 100.625 122.373C100.63 122.401 100.641 122.429 100.659 122.452C100.76 122.59 101.087 122.678 101.546 122.7C101.286 122.483 100.867 122.223 100.705 122.244Z" fill="#006D77"/>
<path d="M101.708 122.804C101.703 122.807 101.697 122.808 101.691 122.808C101.686 122.808 101.68 122.807 101.675 122.804C101.454 122.645 101.063 122.106 101.145 121.886C101.167 121.834 101.219 121.776 101.35 121.791C101.399 121.796 101.446 121.811 101.488 121.835C101.531 121.858 101.568 121.89 101.598 121.929C101.735 122.185 101.789 122.479 101.751 122.767C101.751 122.776 101.748 122.784 101.743 122.791C101.739 122.798 101.732 122.804 101.724 122.807L101.708 122.804ZM101.289 121.886C101.278 121.886 101.268 121.89 101.258 121.896C101.249 121.902 101.242 121.91 101.237 121.92C101.188 122.051 101.445 122.464 101.662 122.663C101.686 122.43 101.637 122.194 101.522 121.99C101.501 121.961 101.474 121.937 101.442 121.92C101.411 121.902 101.377 121.892 101.341 121.889L101.289 121.886Z" fill="#006D77"/>
<path d="M125.197 64.2753C124.883 65.0362 124.594 65.8022 124.331 66.5734C124.26 66.7784 124.193 66.9803 124.126 67.1854C123.918 67.8249 123.725 68.4644 123.547 69.0979C123.486 69.3212 123.425 69.5446 123.367 69.7649C123.272 70.1138 123.183 70.4596 123.098 70.8023C123.052 70.9951 123.006 71.1848 122.963 71.3714C122.856 71.8243 122.758 72.268 122.657 72.7056C122.556 73.1432 122.486 73.5379 122.409 73.9296C122.333 74.3213 122.244 74.7833 122.174 75.1934C122.103 75.6034 122.036 75.9982 121.975 76.3837C121.913 76.7693 121.843 77.2222 121.788 77.6077C121.718 78.1004 121.653 78.5624 121.598 78.9847C121.421 80.2546 121.292 81.1879 121.197 81.6316L110.441 79.4529C110.441 78.6083 110.441 77.7974 110.478 77.0049C110.5 76.4816 110.524 75.9706 110.561 75.4749C110.579 75.1475 110.604 74.8262 110.631 74.511C110.674 74.0306 110.72 73.5655 110.772 73.1126C110.83 72.6046 110.894 72.115 110.968 71.6438C111.096 70.7717 111.246 69.9638 111.405 69.2141C111.601 68.2961 111.809 67.4852 112.017 66.7508C112.284 65.8328 112.556 65.0434 112.807 64.3977C113.104 63.5902 113.47 62.81 113.902 62.066C114.78 62.0178 115.66 62.024 116.537 62.0843C116.721 62.0843 116.91 62.118 117.1 62.1364C118.646 62.354 120.179 62.6605 121.69 63.0544C121.975 63.1278 122.265 63.2104 122.547 63.293C123.964 63.752 125.197 64.2753 125.197 64.2753Z" fill="#006D77"/>
<path d="M122.223 57.834C121.65 59.2477 120.842 61.8854 121.684 63.0758C121.138 63.458 120.516 63.7177 119.861 63.8371C119.205 63.9565 118.532 63.9327 117.887 63.7673C116.626 63.4828 116.733 62.5831 117.109 62.1517C118.826 62.0905 119.019 60.8634 118.945 59.6639L122.223 57.834Z" fill="#EEC1BB"/>
<path opacity="0.2" d="M120.888 58.5929L118.954 59.67C118.972 59.9504 118.967 60.2319 118.939 60.5115C119.582 60.5482 120.576 60.0341 120.775 59.3915C120.862 59.1346 120.9 58.8638 120.888 58.5929Z" fill="black"/>
<path d="M118.489 52.7269C117.929 53.3389 117.369 54.8689 118.59 54.8536C119.811 54.8383 119.45 51.6773 118.489 52.7269Z" fill="#263238"/>
<path d="M123.193 56.0959C122.446 57.987 122.103 59.1314 120.809 59.7955C118.86 60.793 116.77 59.107 116.938 57.0415C117.088 55.1657 118.287 52.3903 120.423 52.2587C120.894 52.2307 121.365 52.3222 121.791 52.5245C122.218 52.7269 122.586 53.0337 122.862 53.4164C123.138 53.7991 123.313 54.2454 123.371 54.7138C123.429 55.1822 123.368 55.6576 123.193 56.0959Z" fill="#EEC1BB"/>
<path d="M123.486 52.4576H122.094L122.761 53.7152C122.988 53.7489 122.538 54.517 122.734 54.52C122.734 54.52 121.816 56.1908 122.388 57.3199C124.444 57.1547 125.898 55.539 124.964 54.3731C125.561 53.3511 124.518 52.5922 123.486 52.4576Z" fill="#263238"/>
<path d="M123.413 57.9472C123.265 58.1523 123.078 58.3259 122.863 58.4578C122.648 58.5897 122.408 58.6772 122.158 58.7153C121.491 58.8132 121.24 58.192 121.488 57.6014C121.718 57.069 122.339 56.3774 122.978 56.5519C123.118 56.592 123.245 56.6661 123.348 56.7674C123.452 56.8688 123.528 56.9942 123.571 57.1325C123.614 57.2708 123.622 57.4177 123.595 57.5599C123.567 57.7021 123.505 57.8351 123.413 57.9472Z" fill="#EEC1BB"/>
<path d="M118.86 55.3217C118.515 55.722 118.117 56.0721 117.675 56.3621C117.76 56.4708 117.866 56.5604 117.987 56.6253C118.108 56.6901 118.242 56.7287 118.379 56.7385L118.86 55.3217Z" fill="#D4827D"/>
<path d="M120.83 55.2636C120.813 55.2602 120.796 55.2521 120.783 55.2403C120.769 55.2285 120.759 55.2133 120.754 55.1963C120.717 55.0797 120.654 54.9732 120.569 54.8855C120.484 54.7978 120.38 54.7313 120.264 54.6914C120.252 54.6882 120.24 54.6825 120.23 54.6748C120.219 54.6671 120.211 54.6574 120.204 54.6463C120.198 54.6352 120.193 54.6229 120.192 54.6102C120.19 54.5975 120.191 54.5845 120.194 54.572C120.197 54.5596 120.203 54.5479 120.21 54.5376C120.218 54.5273 120.228 54.5187 120.239 54.5121C120.25 54.5056 120.262 54.5013 120.275 54.4995C120.288 54.4977 120.301 54.4984 120.313 54.5017C120.458 54.5519 120.588 54.6354 120.695 54.7454C120.801 54.8554 120.88 54.9889 120.925 55.1351C120.934 55.1594 120.933 55.1863 120.922 55.2098C120.911 55.2333 120.891 55.2516 120.867 55.2605C120.855 55.2632 120.843 55.2642 120.83 55.2636Z" fill="#263238"/>
<path d="M117.758 54.1865C117.739 54.1836 117.721 54.1738 117.709 54.1589C117.691 54.1406 117.681 54.1159 117.681 54.0901C117.681 54.0643 117.691 54.0396 117.709 54.0212C117.813 53.9074 117.942 53.8201 118.086 53.7669C118.231 53.7136 118.386 53.6959 118.538 53.7152C118.564 53.7204 118.587 53.7355 118.602 53.7572C118.617 53.7789 118.622 53.8056 118.618 53.8315C118.613 53.8565 118.598 53.8785 118.577 53.8928C118.556 53.9071 118.53 53.9125 118.505 53.908C118.384 53.8911 118.26 53.9043 118.145 53.9465C118.031 53.9887 117.928 54.0585 117.847 54.1498C117.837 54.1635 117.823 54.1742 117.808 54.1807C117.792 54.1871 117.775 54.1892 117.758 54.1865Z" fill="#263238"/>
<path d="M118.156 57.1118C118.299 57.4353 118.419 57.7687 118.514 58.1094L118.697 58.088C119.536 57.9839 119.891 57.6596 120.032 57.3322C120.097 57.1703 120.122 56.9949 120.105 56.8211C120.098 56.7228 120.078 56.626 120.044 56.5335C119.634 56.8395 118.86 57.0078 118.44 57.0751C118.266 57.1027 118.156 57.1118 118.156 57.1118Z" fill="#263238"/>
<path d="M118.44 57.0751L118.554 57.3658C119.343 57.2679 119.885 57.0904 120.105 56.8211C120.098 56.7228 120.078 56.626 120.044 56.5335C119.646 56.8517 118.86 57.0078 118.44 57.0751Z" fill="white"/>
<path d="M118.697 58.088C119.536 57.9839 119.891 57.6596 120.032 57.3322C119.71 57.3786 119.399 57.4822 119.114 57.6382C118.932 57.7418 118.787 57.8989 118.697 58.088Z" fill="#DE5753"/>
<path d="M124.588 52.8707C124.588 52.8707 123.388 51.0163 120.567 50.9C117.746 50.7838 117.66 52.6626 118.615 53.3083L118.697 53.0329C118.926 53.3092 119.213 53.5309 119.539 53.6816V53.3083C119.937 53.6762 120.396 53.9732 120.894 54.1865V53.7152C120.894 53.7152 121.629 54.3272 123.156 54.4986C124.683 54.67 125.286 54.0488 124.588 52.8707Z" fill="#263238"/>
<path d="M120.108 55.7593C120.093 55.7596 120.078 55.755 120.065 55.7462C120.052 55.7374 120.043 55.7249 120.038 55.7104C120.027 55.6669 120.007 55.6263 119.979 55.5914C119.951 55.5565 119.916 55.5282 119.875 55.5084C119.825 55.4873 119.767 55.4873 119.716 55.5084C119.699 55.5177 119.678 55.52 119.659 55.5149C119.64 55.5098 119.623 55.4976 119.612 55.4809C119.605 55.4636 119.605 55.4446 119.611 55.4271C119.618 55.4097 119.63 55.3951 119.646 55.386C119.689 55.361 119.736 55.3456 119.785 55.3408C119.834 55.3361 119.884 55.3421 119.931 55.3585C119.994 55.3862 120.05 55.4283 120.095 55.4813C120.14 55.5344 120.171 55.5971 120.188 55.6645C120.194 55.6836 120.192 55.7043 120.184 55.7224C120.175 55.7406 120.16 55.7548 120.142 55.7624L120.108 55.7593Z" fill="#263238"/>
<path d="M118.37 55.3034C118.355 55.3032 118.34 55.2984 118.327 55.2897C118.315 55.281 118.305 55.2687 118.3 55.2544C118.289 55.2109 118.269 55.1703 118.241 55.1354C118.213 55.1005 118.178 55.0722 118.137 55.0525C118.085 55.0373 118.029 55.0428 117.981 55.0678C117.963 55.078 117.942 55.0808 117.922 55.0756C117.902 55.0705 117.885 55.0578 117.874 55.0402C117.866 55.0224 117.864 55.0022 117.869 54.9831C117.874 54.964 117.885 54.9474 117.902 54.9362C117.945 54.9119 117.992 54.897 118.041 54.8922C118.09 54.8875 118.14 54.8931 118.186 54.9086C118.25 54.9364 118.306 54.9785 118.351 55.0315C118.395 55.0846 118.427 55.1473 118.443 55.2146C118.449 55.2337 118.448 55.2544 118.44 55.2726C118.431 55.2908 118.416 55.305 118.397 55.3126L118.37 55.3034Z" fill="#263238"/>
<path d="M123.394 63.4675C123.394 63.4675 121.375 69.6762 122.886 75.4015L122.498 75.7625C122.498 75.7625 119.992 69.6731 122.1 63.2012L123.394 63.4675Z" fill="#263238"/>
<path d="M116.28 62.0599C116.28 62.0599 111.598 68.0422 110.723 73.6052L110.809 72.3139C110.809 72.3139 110.778 67.3506 114.879 61.9956L116.28 62.0599Z" fill="#263238"/>
<path d="M122.746 74.8201L123.538 76.1879L123.012 77.9719C122.635 77.0464 122.377 76.0768 122.244 75.0863L122.746 74.8201Z" fill="#263238"/>
<path d="M125.882 80.1934L120.793 78.0514L120.466 82.3354C120.466 82.3354 126.201 82.4425 126.28 82.4762C126.36 82.5098 125.882 80.1934 125.882 80.1934Z" fill="#263238"/>
<path opacity="0.4" d="M125.882 80.1934L120.793 78.0514L120.466 82.3354C120.466 82.3354 126.201 82.4425 126.28 82.4762C126.36 82.5098 125.882 80.1934 125.882 80.1934Z" fill="white"/>
<path d="M120.787 82.0845L121.124 78.4094L121.987 77.0294L125.39 79.9853L124.799 82.0141L120.787 82.0845Z" fill="#263238"/>
<path opacity="0.7" d="M120.787 82.0845L121.124 78.4094L121.987 77.0294L125.39 79.9853L124.799 82.0141L120.787 82.0845Z" fill="white"/>
<path d="M121.678 76.6285L121.617 81.3532L120.466 82.3538L127.226 85.1751L128.395 83.9664L128.443 79.7038L121.678 76.6285Z" fill="#263238"/>
<path opacity="0.5" d="M121.678 76.6285L121.617 81.3532L120.466 82.3538L127.226 85.1751L128.395 83.9664L128.443 79.7038L121.678 76.6285Z" fill="white"/>
<path d="M125.928 81.3134L125.745 83.3942L123.749 82.213C123.749 82.213 124.028 80.377 124.973 80.5484L125.928 81.3134Z" fill="#EEC1BB"/>
<path d="M124.514 85.0619L123.144 83.4615L123.749 82.213L125.745 83.3942L124.514 85.0619Z" fill="#EEC1BB"/>
<path opacity="0.2" d="M124.126 67.1854C123.918 67.8249 123.725 68.4644 123.547 69.0979C123.486 69.3212 123.425 69.5446 123.367 69.7649C122.938 68.8775 123.144 67.3812 123.144 67.3812L124.126 67.1854Z" fill="black"/>
<path d="M126.47 65.2055C127.082 65.821 127.641 66.4874 128.141 67.1976C128.892 68.2472 129.561 69.3531 130.142 70.5055C130.542 71.2787 130.874 72.0856 131.133 72.9167C131.233 73.2314 131.292 73.5573 131.311 73.8868C131.332 74.5783 130.699 75.7564 129.857 76.9865C129.383 77.6873 128.844 78.4064 128.327 79.0643C127.192 80.5055 126.185 81.65 126.185 81.65L124.655 80.579C124.655 80.579 125.411 79.202 126.185 77.7148C126.598 76.9284 127.014 76.1083 127.32 75.4474C127.536 75.0463 127.701 74.6196 127.81 74.1775C127.814 74.0421 127.804 73.9067 127.779 73.7735C127.663 73.1279 125.769 69.107 123.168 67.3812L124.086 64.0152C124.726 63.8347 125.582 64.3334 126.47 65.2055Z" fill="#006D77"/>
<path d="M95.4016 72.9718C96.647 73.7858 94.2082 77.2558 91.3838 76.7693C88.5594 76.2827 88.896 74.0306 89.4071 73.1983C89.9181 72.3659 92.5191 71.0869 95.4016 72.9718Z" fill="#006D77"/>
<path opacity="0.3" d="M95.4016 72.9718C96.647 73.7858 94.2082 77.2558 91.3838 76.7693C88.5594 76.2827 88.896 74.0306 89.4071 73.1983C89.9181 72.3659 92.5191 71.0869 95.4016 72.9718Z" fill="black"/>
<path d="M91.6684 72.1579C91.6684 72.1579 95.0161 74.6242 95.3802 76.7693C95.7443 78.9143 91.5674 80.5973 88.5411 80.2393C85.5147 79.8813 82.8495 74.5385 82.8495 74.5385C82.8495 74.5385 88.74 74.664 91.6684 72.1579Z" fill="#006D77"/>
<path opacity="0.2" d="M91.6684 72.1579C91.6684 72.1579 95.0161 74.6242 95.3802 76.7693C95.7443 78.9143 91.5674 80.5973 88.5411 80.2393C85.5147 79.8813 82.8495 74.5385 82.8495 74.5385C82.8495 74.5385 88.74 74.664 91.6684 72.1579Z" fill="black"/>
<path d="M91.188 73.5838C91.188 73.5838 90.9921 70.6034 95.4077 72.9718C95.4077 72.9718 93.382 71.5948 91.4787 71.8519C89.5753 72.1089 87.5925 74.1377 85.4994 73.9388C83.4064 73.7399 84.5019 76.2215 84.5019 76.2215C84.5019 76.2215 89.1653 75.8635 91.188 73.5838Z" fill="#006D77"/>
<path d="M82.2314 59.4313C83.2198 57.2326 84.0542 54.9679 84.7283 52.6534C84.9272 51.8272 84.814 50.9551 84.7283 50.0708C84.5968 48.96 84.3948 47.7941 84.1867 46.6589L85.6127 46.1417C86.5198 47.8148 87.1404 49.6279 87.4487 51.5059C87.5518 52.2325 87.5217 52.9719 87.3599 53.6877C86.8789 56.1323 86.0882 58.5056 85.0068 60.7502L82.2528 59.4313H82.2314Z" fill="#FFB573"/>
<path d="M81.09 59.6149C82.4517 58.6633 83.6053 56.1326 83.6053 56.1326L86.4052 57.8493C86.4052 57.8493 85.1108 60.7655 84.8293 62.6566C84.6702 63.8041 81.09 59.6149 81.09 59.6149Z" fill="#263238"/>
<path opacity="0.2" d="M83.4462 62.0752C84.1592 62.7178 84.7742 63.1156 84.8446 62.6535C84.8992 62.2974 84.9748 61.9449 85.071 61.5978C84.6596 61.1477 84.1703 60.7756 83.6267 60.4993C83.4847 61.0119 83.4238 61.5437 83.4462 62.0752Z" fill="black"/>
<path d="M79.7436 117.476L81.7571 117.59L82.8372 112.975L80.8268 112.862L79.7436 117.476Z" fill="#FFB573"/>
<path d="M81.7815 117.131L80.1169 115.601C80.0875 115.575 80.0501 115.562 80.0113 115.562C79.9726 115.562 79.9352 115.575 79.9058 115.601L78.5012 116.745C78.4673 116.775 78.4401 116.812 78.4215 116.854C78.4029 116.895 78.3933 116.94 78.3933 116.985C78.3933 117.031 78.4029 117.076 78.4215 117.117C78.4401 117.158 78.4673 117.195 78.5012 117.226C79.0887 117.752 79.4009 117.975 80.1322 118.651C80.5851 119.065 81.8336 120.304 82.4578 120.879C83.082 121.454 83.6818 120.879 83.4707 120.573C82.5527 119.251 82.0386 118.153 81.9407 117.464C81.9294 117.338 81.8729 117.219 81.7815 117.131Z" fill="#263238"/>
<g opacity="0.2">
<path d="M82.8372 112.975L82.2803 115.356L80.2668 115.243L80.8238 112.865L82.8372 112.975Z" fill="black"/>
</g>
<path d="M82.926 59.8077C82.926 59.8077 85.7504 63.3298 85.8911 72.0293C82.7393 72.8188 79.4651 73.0208 77.9351 73.4063C77.2589 70.1413 76.7846 68.1401 73.5777 61.8946C74.6209 61.3886 75.6999 60.96 76.806 60.6125C77.9842 60.2211 79.1888 59.9143 80.4107 59.6945C81.2464 59.5348 82.108 59.5736 82.926 59.8077Z" fill="#FFB573"/>
<path d="M76.1542 56.4662C76.6714 57.5678 77.4333 59.6363 76.8152 60.6125C76.8152 60.6125 77.4272 61.711 79.5692 61.1694C81.9407 60.5758 80.4076 59.7098 80.4076 59.7098C79.0368 59.7251 78.8287 58.7581 78.8287 57.8003L76.1542 56.4662Z" fill="#FFB573"/>
<path d="M76.806 60.6155C77.9838 60.2228 79.1885 59.916 80.4107 59.6975L80.6524 59.6639C81.0778 60.1351 81.3593 60.9552 80.9799 62.3597C80.9799 62.3597 77.4976 61.8793 76.3378 60.7532C76.5 60.7135 76.6591 60.6614 76.806 60.6155Z" fill="#FFB573"/>
<path opacity="0.2" d="M77.2497 57.0109L78.8409 57.7973C78.8353 58.0217 78.8517 58.2462 78.8899 58.4674C78.3758 58.5194 77.5618 58.1614 77.3782 57.6412C77.2982 57.4404 77.2547 57.2269 77.2497 57.0109Z" fill="black"/>
<path d="M85.9064 72.2405C85.9064 72.2405 87.2804 87.7853 87.0631 93.9298C86.8367 100.319 82.6598 114.845 82.6598 114.845L79.9333 114.805C79.9333 114.805 82.1947 100.628 82.0417 94.349C81.8734 87.5007 79.8997 72.1579 79.8997 72.1579L85.9064 72.2405Z" fill="#006D77"/>
<path opacity="0.2" d="M85.9064 72.2405C85.9064 72.2405 87.2804 87.7853 87.0631 93.9298C86.8367 100.319 82.6598 114.845 82.6598 114.845L79.9333 114.805C79.9333 114.805 82.1947 100.628 82.0417 94.349C81.8734 87.5007 79.8997 72.1579 79.8997 72.1579L85.9064 72.2405Z" fill="white"/>
<path d="M79.6946 114.9L82.8923 114.946L83.1432 113.927L79.563 113.755L79.6946 114.9Z" fill="#006D77"/>
<path opacity="0.2" d="M82.314 76.0532C84.2663 80.1261 82.5588 87.4793 81.8091 90.2149C81.5031 86.087 80.9584 81.0349 80.53 77.3323C80.8727 75.2454 81.4205 74.1744 82.314 76.0532Z" fill="black"/>
<path d="M62.4546 99.2633L63.1094 101.17L67.7637 100.356L67.1119 98.4494L62.4546 99.2633Z" fill="#FFB573"/>
<path d="M63.648 101.237L63.5195 98.9757C63.5171 98.935 63.5014 98.8962 63.4749 98.8653C63.4483 98.8344 63.4124 98.8129 63.3726 98.8043L61.555 98.4157C61.5112 98.4055 61.4657 98.406 61.4222 98.4172C61.3787 98.4284 61.3385 98.4499 61.3052 98.48C61.2718 98.51 61.2462 98.5477 61.2306 98.5898C61.2149 98.6319 61.2097 98.6772 61.2153 98.7217C61.2704 99.5112 61.3408 99.8937 61.3958 100.888C61.4295 101.5 61.4632 103.254 61.5121 104.098C61.5611 104.943 62.4026 105.047 62.4607 104.71C62.7116 103.159 63.1217 102.082 63.5409 101.583C63.5809 101.535 63.6111 101.48 63.6295 101.421C63.6479 101.361 63.6542 101.299 63.648 101.237Z" fill="#263238"/>
<g opacity="0.2">
<path d="M67.7637 100.356L65.3646 100.775L64.7098 98.8686L67.1088 98.4494L67.7637 100.356Z" fill="black"/>
</g>
<path d="M83.642 72.216C83.642 72.216 81.194 88.2076 79.5845 94.2143C77.9229 100.46 66.1603 100.833 66.1603 100.833L64.9975 98.3668C64.9975 98.3668 71.8855 96.6379 74.9057 92.5528C76.2797 85.8208 77.6597 72.1334 77.6597 72.1334L83.642 72.216Z" fill="#006D77"/>
<path opacity="0.2" d="M83.642 72.216C83.642 72.216 81.194 88.2076 79.5845 94.2143C77.9229 100.46 66.1603 100.833 66.1603 100.833L64.9975 98.3668C64.9975 98.3668 71.8855 96.6379 74.9057 92.5528C76.2797 85.8208 77.6597 72.1334 77.6597 72.1334L83.642 72.216Z" fill="white"/>
<path d="M64.8628 98.1281L65.8696 101.164L66.9559 101.191L65.9491 97.767L64.8628 98.1281Z" fill="#006D77"/>
<path d="M63.342 101.965C63.3369 102.143 63.3895 102.318 63.4919 102.464C63.5216 102.498 63.5584 102.525 63.5997 102.543C63.6409 102.561 63.6856 102.569 63.7306 102.568C63.7562 102.568 63.7815 102.562 63.8036 102.549C63.8257 102.536 63.8438 102.517 63.8561 102.495C63.9785 102.259 63.5195 101.427 63.4675 101.332C63.4623 101.323 63.4546 101.315 63.4454 101.311C63.4362 101.306 63.4258 101.304 63.4154 101.304C63.4064 101.305 63.3978 101.309 63.3912 101.315C63.3845 101.321 63.3801 101.329 63.3787 101.338C63.3466 101.545 63.3343 101.756 63.342 101.965ZM63.7796 102.357C63.7885 102.385 63.7885 102.415 63.7796 102.443C63.7756 102.452 63.7687 102.46 63.7598 102.465C63.7509 102.47 63.7407 102.472 63.7306 102.47C63.7014 102.473 63.6719 102.468 63.6448 102.457C63.6176 102.446 63.5935 102.428 63.5746 102.406C63.4552 102.274 63.4185 101.944 63.4675 101.488C63.62 101.758 63.7266 102.052 63.7826 102.357H63.7796Z" fill="#006D77"/>
<path d="M63.3818 101.347C63.3803 101.354 63.3803 101.362 63.3818 101.369C63.5042 101.616 63.9693 102.121 64.1957 102.103C64.2508 102.103 64.3151 102.063 64.3212 101.932C64.3234 101.883 64.3159 101.833 64.2991 101.787C64.2823 101.741 64.2565 101.699 64.2233 101.662C63.9984 101.468 63.722 101.344 63.4277 101.304C63.4198 101.303 63.4116 101.303 63.4041 101.306C63.3965 101.309 63.3898 101.313 63.3848 101.32C63.3822 101.324 63.3805 101.328 63.38 101.333C63.3795 101.338 63.3801 101.343 63.3818 101.347ZM64.2294 101.898V101.926C64.2294 102.011 64.1896 102.014 64.1804 102.014C64.0427 102.014 63.6817 101.681 63.5164 101.427C63.7544 101.466 63.9763 101.572 64.156 101.733C64.1978 101.778 64.2235 101.836 64.2294 101.898Z" fill="#006D77"/>
<path d="M82.0998 117.905C82.2168 118.032 82.373 118.116 82.5435 118.144C82.5867 118.144 82.6294 118.134 82.6678 118.114C82.7062 118.095 82.7392 118.066 82.7638 118.03C82.7814 118.011 82.7933 117.987 82.7981 117.961C82.803 117.935 82.8006 117.908 82.7913 117.883C82.7026 117.617 81.8336 117.372 81.7326 117.348C81.7231 117.345 81.7129 117.345 81.7035 117.348C81.6941 117.352 81.6861 117.358 81.6806 117.366C81.6754 117.375 81.6727 117.384 81.6727 117.394C81.6727 117.404 81.6754 117.413 81.6806 117.421C81.8054 117.595 81.9457 117.757 82.0998 117.905ZM82.6475 117.841C82.6717 117.859 82.6898 117.885 82.6995 117.914C82.7053 117.923 82.7084 117.933 82.7084 117.943C82.7084 117.953 82.7053 117.964 82.6995 117.972C82.6834 117.995 82.6619 118.015 82.6369 118.028C82.6119 118.041 82.5841 118.048 82.5557 118.049C82.3905 118.049 82.1334 117.834 81.855 117.48C82.1376 117.554 82.4056 117.676 82.6475 117.841Z" fill="#006D77"/>
<path d="M81.702 117.428C81.7043 117.429 81.7069 117.43 81.7096 117.43C81.7123 117.43 81.715 117.429 81.7173 117.428C81.9682 117.513 82.6139 117.513 82.7393 117.32C82.7699 117.274 82.7883 117.201 82.6996 117.1C82.668 117.064 82.6295 117.035 82.5864 117.015C82.5432 116.994 82.4964 116.983 82.4486 116.981C82.1673 117.021 81.906 117.15 81.702 117.348C81.6985 117.355 81.6967 117.363 81.6967 117.371C81.6967 117.379 81.6985 117.387 81.702 117.394C81.6997 117.399 81.6985 117.405 81.6985 117.411C81.6985 117.416 81.6997 117.422 81.702 117.428ZM82.62 117.152C82.6279 117.158 82.6351 117.166 82.6414 117.174C82.6995 117.238 82.6781 117.268 82.672 117.278C82.5955 117.394 82.1273 117.428 81.8458 117.369C82.0152 117.214 82.2293 117.115 82.4578 117.088C82.5093 117.094 82.5575 117.117 82.5955 117.152H82.62Z" fill="#006D77"/>
<path d="M77.5649 72.3996L77.4914 73.1095C77.4731 73.1677 77.5526 73.2166 77.6475 73.2105L86.0472 72.5985C86.1206 72.5985 86.1757 72.5526 86.1726 72.5098L86.1114 71.809C86.1114 71.7601 86.0349 71.7233 85.9554 71.7295L77.6934 72.3415C77.6686 72.338 77.6434 72.3416 77.6207 72.3519C77.5979 72.3621 77.5786 72.3787 77.5649 72.3996Z" fill="#006D77"/>
<path opacity="0.7" d="M77.5649 72.3996L77.4914 73.1095C77.4731 73.1677 77.5526 73.2166 77.6475 73.2105L86.0472 72.5985C86.1206 72.5985 86.1757 72.5526 86.1726 72.5098L86.1114 71.809C86.1114 71.7601 86.0349 71.7233 85.9554 71.7295L77.6934 72.3415C77.6686 72.338 77.6434 72.3416 77.6207 72.3519C77.5979 72.3621 77.5786 72.3787 77.5649 72.3996Z" fill="white"/>
<path d="M78.2809 73.2227L78.0606 73.238C78.0147 73.238 77.978 73.2227 77.9749 73.1952L77.9045 72.2772C77.9045 72.2497 77.9351 72.2252 77.981 72.2221H78.2014C78.2442 72.2221 78.284 72.2221 78.284 72.265L78.3574 73.183C78.3605 73.1952 78.336 73.2197 78.2809 73.2227Z" fill="#006D77"/>
<g opacity="0.2">
<path d="M78.2809 73.2227L78.0606 73.238C78.0147 73.238 77.978 73.2227 77.9749 73.1952L77.9045 72.2772C77.9045 72.2497 77.9351 72.2252 77.981 72.2221H78.2014C78.2442 72.2221 78.284 72.2221 78.284 72.265L78.3574 73.183C78.3605 73.1952 78.336 73.2197 78.2809 73.2227Z" fill="#006D77"/>
</g>
<path d="M84.8752 72.7362L84.6519 72.7546C84.609 72.7546 84.5723 72.7362 84.5692 72.7117L84.4958 71.7937C84.4958 71.7662 84.5294 71.7417 84.5723 71.7386L84.7957 71.7233C84.8385 71.7233 84.8783 71.7386 84.8783 71.7631L84.9517 72.6811C84.9517 72.7087 84.9181 72.7331 84.8752 72.7362Z" fill="#006D77"/>
<path opacity="0.2" d="M84.8752 72.7362L84.6519 72.7546C84.609 72.7546 84.5723 72.7362 84.5692 72.7117L84.4958 71.7937C84.4958 71.7662 84.5294 71.7417 84.5723 71.7386L84.7957 71.7233C84.8385 71.7233 84.8783 71.7386 84.8783 71.7631L84.9517 72.6811C84.9517 72.7087 84.9181 72.7331 84.8752 72.7362Z" fill="#006D77"/>
<path d="M81.5765 72.981L81.3562 72.9963C81.3134 72.9963 81.2736 72.981 81.2736 72.9535L81.2001 72.0355C81.2001 72.0079 81.2338 71.9834 81.2766 71.9804L81.497 71.9651C81.5429 71.9651 81.5796 71.9804 81.5826 72.0079L81.653 72.9259C81.6561 72.9535 81.6224 72.9779 81.5765 72.981Z" fill="#006D77"/>
<path opacity="0.2" d="M81.5765 72.981L81.3562 72.9963C81.3134 72.9963 81.2736 72.981 81.2736 72.9535L81.2001 72.0355C81.2001 72.0079 81.2338 71.9834 81.2766 71.9804L81.497 71.9651C81.5429 71.9651 81.5796 71.9804 81.5826 72.0079L81.653 72.9259C81.6561 72.9535 81.6224 72.9779 81.5765 72.981Z" fill="#006D77"/>
<g opacity="0.2">
<path d="M78.2809 73.2227L78.0606 73.238C78.0147 73.238 77.978 73.2227 77.9749 73.1952L77.9045 72.2772C77.9045 72.2497 77.9351 72.2252 77.981 72.2221H78.2014C78.2442 72.2221 78.284 72.2221 78.284 72.265L78.3574 73.183C78.3605 73.1952 78.336 73.2197 78.2809 73.2227Z" fill="white"/>
<g opacity="0.2">
<path d="M78.2809 73.2227L78.0606 73.238C78.0147 73.238 77.978 73.2227 77.9749 73.1952L77.9045 72.2772C77.9045 72.2497 77.9351 72.2252 77.981 72.2221H78.2014C78.2442 72.2221 78.284 72.2221 78.284 72.265L78.3574 73.183C78.3605 73.1952 78.336 73.2197 78.2809 73.2227Z" fill="white"/>
</g>
<path d="M84.8752 72.7362L84.6519 72.7546C84.609 72.7546 84.5723 72.7362 84.5692 72.7117L84.4958 71.7937C84.4958 71.7662 84.5294 71.7417 84.5723 71.7386L84.7957 71.7233C84.8385 71.7233 84.8783 71.7386 84.8783 71.7631L84.9517 72.6811C84.9517 72.7087 84.9181 72.7331 84.8752 72.7362Z" fill="white"/>
<path opacity="0.2" d="M84.8752 72.7362L84.6519 72.7546C84.609 72.7546 84.5723 72.7362 84.5692 72.7117L84.4958 71.7937C84.4958 71.7662 84.5294 71.7417 84.5723 71.7386L84.7957 71.7233C84.8385 71.7233 84.8783 71.7386 84.8783 71.7631L84.9517 72.6811C84.9517 72.7087 84.9181 72.7331 84.8752 72.7362Z" fill="white"/>
<path d="M81.5765 72.981L81.3562 72.9963C81.3134 72.9963 81.2736 72.981 81.2736 72.9535L81.2001 72.0355C81.2001 72.0079 81.2338 71.9834 81.2766 71.9804L81.497 71.9651C81.5429 71.9651 81.5796 71.9804 81.5826 72.0079L81.653 72.9259C81.6561 72.9535 81.6224 72.9779 81.5765 72.981Z" fill="white"/>
<path opacity="0.2" d="M81.5765 72.981L81.3562 72.9963C81.3134 72.9963 81.2736 72.981 81.2736 72.9535L81.2001 72.0355C81.2001 72.0079 81.2338 71.9834 81.2766 71.9804L81.497 71.9651C81.5429 71.9651 81.5796 71.9804 81.5826 72.0079L81.653 72.9259C81.6561 72.9535 81.6224 72.9779 81.5765 72.981Z" fill="white"/>
</g>
<path d="M75.1995 50.7623C73.9296 51.4998 71.8763 53.599 74.0857 55.9949C76.295 58.3909 80.7779 55.8664 80.0068 52.9135C79.2356 49.9606 77.0141 49.7097 75.1995 50.7623Z" fill="#263238"/>
<path d="M74.3978 54.774C75.3158 56.5519 75.6646 57.326 76.9988 57.8585C79.0092 58.6571 80.9921 57.1424 80.6249 55.1259C80.2975 53.3113 78.8532 50.7103 76.7448 50.7685C76.2799 50.7796 75.8255 50.9094 75.4248 51.1454C75.0241 51.3815 74.6904 51.716 74.4552 52.1173C74.2201 52.5185 74.0914 52.9732 74.0814 53.4382C74.0713 53.9031 74.1802 54.363 74.3978 54.774Z" fill="#FFB573"/>
<path d="M74.7527 52.8676C75.5698 53.2195 75.7472 55.1993 75.0587 55.9949C73.6358 55.998 72.317 51.815 74.7527 52.8676Z" fill="#263238"/>
<path d="M78.8073 53.7275C79.0894 54.0082 79.4085 54.2492 79.7559 54.4435C79.7044 54.5315 79.634 54.6071 79.5499 54.6648C79.4658 54.7224 79.37 54.7608 79.2693 54.7771L78.8073 53.7275Z" fill="#ED893E"/>
<path d="M74.6395 56.662C74.9107 56.9388 75.2803 57.0971 75.6677 57.1027C76.1787 57.1027 76.3011 56.6131 76.0441 56.1847C75.787 55.7563 75.2729 55.3646 74.8201 55.5727C74.7194 55.6165 74.6314 55.6848 74.5639 55.7714C74.4964 55.8579 74.4517 55.96 74.4337 56.0683C74.4158 56.1766 74.4252 56.2876 74.4612 56.3913C74.4971 56.495 74.5584 56.5881 74.6395 56.662Z" fill="#FFB573"/>
<path d="M76.702 53.9264C76.7214 53.9207 76.7387 53.9091 76.7513 53.8932C76.7639 53.8773 76.7712 53.8579 76.7723 53.8376C76.8 53.6841 76.8594 53.5381 76.9469 53.409C77.0344 53.2799 77.148 53.1705 77.2803 53.0879C77.3014 53.0741 77.3162 53.0525 77.3213 53.0279C77.3265 53.0032 77.3216 52.9775 77.3078 52.9564C77.294 52.9353 77.2724 52.9205 77.2478 52.9153C77.2231 52.9102 77.1974 52.915 77.1763 52.9288C77.0155 53.0258 76.8775 53.1565 76.7719 53.3117C76.6663 53.467 76.5954 53.6433 76.5643 53.8285C76.5634 53.8539 76.5725 53.8787 76.5897 53.8976C76.6068 53.9164 76.6306 53.9279 76.6561 53.9294L76.702 53.9264Z" fill="#263238"/>
<path d="M79.3733 52.2342C79.3891 52.2291 79.4034 52.2204 79.4151 52.2087C79.4268 52.197 79.4356 52.1826 79.4406 52.1669C79.4472 52.1421 79.4439 52.1158 79.4313 52.0935C79.4187 52.0712 79.3979 52.0547 79.3733 52.0475C79.2284 52.0035 79.075 51.9947 78.926 52.0218C78.777 52.049 78.6366 52.1113 78.5165 52.2036C78.5071 52.2118 78.4993 52.2219 78.4938 52.2331C78.4882 52.2443 78.4849 52.2565 78.484 52.269C78.4832 52.2815 78.4848 52.2941 78.4888 52.3059C78.4928 52.3178 78.4991 52.3288 78.5073 52.3382C78.5156 52.3477 78.5256 52.3554 78.5368 52.361C78.548 52.3666 78.5602 52.3699 78.5728 52.3707C78.5853 52.3716 78.5978 52.3699 78.6097 52.366C78.6216 52.362 78.6325 52.3557 78.642 52.3474C78.7378 52.2754 78.8494 52.2272 78.9676 52.207C79.0857 52.1867 79.207 52.195 79.3213 52.2311C79.3381 52.2367 79.356 52.2377 79.3733 52.2342Z" fill="#263238"/>
<path d="M79.5233 55.2575C79.4586 55.5427 79.4136 55.8321 79.3886 56.1235H79.2356C78.538 56.1724 78.1983 55.9643 78.0331 55.7195C77.9553 55.5979 77.9081 55.4594 77.8954 55.3156C77.883 55.2345 77.883 55.152 77.8954 55.0708C78.3387 55.2316 78.8113 55.2963 79.2815 55.2605C79.4315 55.2667 79.5233 55.2575 79.5233 55.2575Z" fill="#263238"/>
<path d="M79.2846 55.2728L79.2387 55.5268C78.5839 55.5696 78.1126 55.5115 77.8954 55.3279C77.883 55.2467 77.883 55.1642 77.8954 55.0831C78.3397 55.2443 78.8133 55.309 79.2846 55.2728Z" fill="white"/>
<path d="M79.2357 56.1357C78.538 56.1847 78.1983 55.9766 78.0331 55.7318C78.2989 55.7188 78.565 55.7519 78.8195 55.8297C78.9868 55.8857 79.1323 55.9927 79.2357 56.1357Z" fill="#DE5753"/>
<path d="M77.8555 53.7275L78.0575 53.5592C78.0575 53.5592 78.0085 53.8438 77.8219 53.8346C77.7214 53.8108 77.6156 53.8264 77.5262 53.8782C77.4369 53.93 77.3708 54.014 77.3415 54.113C77.3323 53.6173 77.724 53.6877 77.8555 53.7275Z" fill="#263238"/>
<path d="M79.4406 53.042L79.6426 52.8737C79.6426 52.8737 79.5936 53.1583 79.407 53.1491C79.3065 53.1261 79.2011 53.142 79.1119 53.1937C79.0227 53.2454 78.9565 53.329 78.9266 53.4276C78.9174 52.938 79.306 53.0023 79.4406 53.042Z" fill="#263238"/>
<path d="M75.38 54.3089C75.38 54.3089 76.0226 53.042 75.4535 51.9313C75.7799 52.2802 75.9802 52.7283 76.0226 53.2042C76.2772 52.8782 76.5735 52.5871 76.9039 52.3382C76.8322 51.919 76.6816 51.5172 76.4602 51.154C76.6397 51.2841 76.7903 51.4499 76.9025 51.6411C77.0147 51.8323 77.086 52.0447 77.112 52.2648C77.1385 51.869 77.0424 51.4747 76.8366 51.1357C77.1728 51.3587 77.4223 51.6903 77.5435 52.0751L78.2258 51.8211C78.2258 51.8211 78.0728 51.1907 77.7546 51.0194C78.0595 51.1886 78.3353 51.4055 78.5716 51.662C78.5716 51.662 79.2112 51.6161 79.358 51.8058C79.2248 51.5102 79.0252 51.2492 78.7747 51.0433C78.5242 50.8374 78.2295 50.692 77.9137 50.6185C78.4704 50.6643 79.0058 50.853 79.4682 51.1663C79.4682 51.1663 78.6083 49.7434 76.2644 50.3492C73.9204 50.9551 73.44 52.632 73.4125 53.3358C73.3849 54.0396 75.38 54.3089 75.38 54.3089Z" fill="#263238"/>
<path d="M74.0857 52.02C73.5571 51.647 72.9406 51.4181 72.2967 51.3559C71.6528 51.2936 71.0038 51.4002 70.4137 51.665C68.2349 52.5524 69.3641 57.2159 71.8672 59.1223C74.3702 61.0286 75.7289 59.8567 75.7289 59.8567C75.7289 59.8567 74.3764 60.4136 73.1218 58.905C73.4969 59.1664 73.9241 59.3436 74.3741 59.4244C74.8241 59.5052 75.2863 59.4878 75.7289 59.3732L75.0098 59.1926L75.7289 58.9264C75.4136 58.9784 75.091 58.9659 74.7807 58.8896C74.4704 58.8134 74.1788 58.6749 73.9235 58.4827C73.9235 58.4827 74.765 58.7245 75.3127 58.4827C75.3127 58.4827 72.5128 58.3603 71.7448 55.7807C70.9767 53.2012 73.7429 53.5837 73.7429 53.5837L74.0857 52.02Z" fill="#263238"/>
<path d="M84.0429 46.3437L83.1494 44.933L85.1904 45.1228C85.1904 45.1228 85.7106 46.307 85.1904 46.9588L84.9945 46.9343C84.8021 46.9123 84.6169 46.848 84.4524 46.7458C84.2878 46.6437 84.148 46.5064 84.0429 46.3437Z" fill="#FFB573"/>
<path d="M83.0515 43.4398L84.7681 43.3357L85.1904 45.1228L83.1494 44.933L83.0515 43.4398Z" fill="#FFB573"/>
<path d="M86.5215 70.4351L77.4363 72.9718C76.9191 71.0562 76.2771 69.1764 75.5146 67.3445C75.0893 66.2949 74.6793 65.3647 74.3427 64.5905C74.3427 64.5599 74.3182 64.5293 74.3029 64.4987C73.6909 63.0513 73.3237 62.1272 73.5807 61.9038C74.1927 61.3744 76.3531 60.5819 76.3531 60.5819C76.3531 60.5819 79.0153 62.1364 80.5759 61.4785C81.6193 61.0378 80.8819 59.6425 80.8819 59.6425C82.063 58.6908 82.5771 58.752 83.1555 59.4221C83.4799 59.8354 83.7475 60.2903 83.9511 60.7747C85.1934 63.5287 86.1849 68.593 86.4541 70.0465C86.4725 70.1413 86.4878 70.2239 86.497 70.2851C86.497 70.3188 86.497 70.3463 86.497 70.3678C86.497 70.3892 86.5215 70.4351 86.5215 70.4351Z" fill="#263238"/>
<path opacity="0.7" d="M86.5215 70.4351L77.4363 72.9718C76.9191 71.0562 76.2771 69.1764 75.5146 67.3445C75.0893 66.2949 74.6793 65.3647 74.3427 64.5905C74.34 64.5554 74.3307 64.5211 74.3151 64.4895L75.582 64.566L75.9063 64.5844C75.9063 64.5844 76.0501 61.8793 76.5703 61.1694C76.5703 61.1694 79.1346 62.4179 80.6218 61.7814C82.1089 61.1449 81.4174 59.8628 81.4174 59.8628C82.3178 59.9645 83.1811 60.2792 83.9358 60.7808H83.9511C85.3342 63.7704 86.3103 69.2723 86.4817 70.2668C86.4817 70.3004 86.4817 70.328 86.4817 70.3494C86.4817 70.3708 86.5215 70.4351 86.5215 70.4351Z" fill="white"/>
<path opacity="0.2" d="M75.5147 67.3445C75.0893 66.2949 74.6793 65.3647 74.3427 64.5905C74.3427 64.5599 74.3182 64.5293 74.3029 64.4987C74.6656 64.2906 75.0823 64.1957 75.4994 64.2263C75.4994 64.2263 75.5361 64.3549 75.5789 64.5782C75.7676 65.4933 75.7456 66.4392 75.5147 67.3445Z" fill="black"/>
<path d="M75.888 64.1131C74.4865 66.3316 72.7117 68.3604 70.3004 69.5201C70.0866 69.6234 69.8541 69.6822 69.6169 69.6927C69.3797 69.7033 69.1428 69.6655 68.9207 69.5816C68.6985 69.4978 68.4958 69.3696 68.3248 69.2049C68.1537 69.0402 68.018 68.8424 67.9259 68.6236C67.4485 67.6291 67.3506 66.6988 67.2098 65.7013C67.076 64.5139 67.0259 63.3185 67.0599 62.1241L68.5654 61.9558C68.8714 63.0574 69.1774 64.1743 69.4834 65.2423C69.7007 65.9338 69.9118 66.7417 70.2637 67.2925C70.2821 67.3139 70.2882 67.3139 70.279 67.2925C70.1234 67.1248 69.9178 67.012 69.6928 66.9706C69.4679 66.9293 69.2356 66.9616 69.0305 67.063C70.7258 66.0287 72.1334 64.1804 73.2778 62.5127L75.891 64.107L75.888 64.1131Z" fill="#FFB573"/>
<path d="M73.7613 61.812C72.9535 62.0996 71.5397 64.3059 71.5397 64.3059L74.104 67.2588C74.104 67.2588 76.0073 65.5024 75.9186 64.3885C75.8299 63.2747 74.6793 61.4754 73.7613 61.812Z" fill="#263238"/>
<path d="M75.481 60.8206C75.481 60.8206 87.5099 64.8414 92.0295 72.7546L91.6256 73.9388C91.6256 73.9388 89.2204 66.5948 75.0098 61.1174L75.481 60.8206Z" fill="#006D77"/>
<path opacity="0.3" d="M75.481 60.8206C75.481 60.8206 87.5099 64.8414 92.0295 72.7546L91.6256 73.9388C91.6256 73.9388 89.2204 66.5948 75.0098 61.1174L75.481 60.8206Z" fill="black"/>
<path d="M66.604 58.1308L72.167 60.3004L71.9008 65.4259L65.5054 62.9228L65.9858 58.2593L66.604 58.1308Z" fill="#006D77"/>
<path opacity="0.2" d="M66.604 58.1308L72.167 60.3004L71.9008 65.4259L65.5054 62.9228L65.9858 58.2593L66.604 58.1308Z" fill="black"/>
<path d="M71.9131 60.5115L71.5306 64.9516L70.2086 65.3371L70.0618 60.4136L71.9131 60.5115Z" fill="#006D77"/>
<path opacity="0.7" d="M71.9131 60.5115L71.5306 64.9516L70.2086 65.3371L70.0618 60.4136L71.9131 60.5115Z" fill="white"/>
<path d="M72.167 60.3004L71.2888 60.7257L70.8574 65.5177L65.0556 63.1829L65.9858 58.2593L66.604 58.1308L72.167 60.3004Z" fill="#006D77"/>
<path d="M69.8751 66.4663C69.7343 66.0807 69.5997 65.6645 69.4773 65.2423C69.1713 64.1743 68.8653 63.0574 68.5593 61.9558L67.0538 62.1241C67.0198 63.3185 67.0699 64.5139 67.2037 65.7013C67.2739 66.3196 67.3833 66.9328 67.5311 67.5373C67.6197 67.9088 67.75 68.2691 67.9198 68.6113C67.9831 68.7363 68.0578 68.8551 68.1431 68.9663C68.2802 69.1527 68.4503 69.3124 68.645 69.4375L68.749 69.4987L68.8806 69.563L69.0183 69.615C69.0726 69.6331 69.1277 69.6484 69.1835 69.6609C69.4144 69.7114 69.6534 69.7114 69.8843 69.6609C69.989 69.6374 70.0914 69.6046 70.1903 69.563L70.3004 69.511L70.4198 69.4559C70.533 69.4008 70.6401 69.3427 70.7472 69.2876C70.7441 69.2968 70.1719 66.2276 69.8751 66.4663Z" fill="#FFB573"/>
<path d="M67.0477 62.372L66.8457 59.9546L68.7613 61.1357C68.7613 61.1357 68.6939 62.5556 67.8616 62.9503L67.0477 62.372Z" fill="#FFB573"/>
<path d="M67.7606 58.3358L69.3121 59.413L68.7613 61.1357L66.8457 59.9576L67.7606 58.3358Z" fill="#FFB573"/>
<path d="M51.0439 78.336C51.0439 78.336 46.1203 80.3434 43.657 79.9792C41.1937 79.6151 40.5113 85.7932 43.657 87.1641C46.8027 88.535 50.4563 88.1923 51.7691 87.3355C53.0818 86.4787 51.0439 78.336 51.0439 78.336Z" fill="#006D77"/>
<path opacity="0.2" d="M51.0439 78.336C51.0439 78.336 46.1203 80.3434 43.657 79.9792C41.1937 79.6151 40.5113 85.7932 43.657 87.1641C46.8027 88.535 50.4563 88.1923 51.7691 87.3355C53.0818 86.4787 51.0439 78.336 51.0439 78.336Z" fill="black"/>
<path d="M51.0439 78.336C51.0439 78.336 55.1167 81.9162 55.3615 83.0056C55.6063 84.0949 52.6565 87.565 51.2458 87.3232C49.8352 87.0815 50.3278 78.7032 50.3278 78.7032L51.0439 78.336Z" fill="#006D77"/>
<path opacity="0.2" d="M51.0439 78.336C51.0439 78.336 55.1167 81.9162 55.3615 83.0056C55.6063 84.0949 52.6565 87.565 51.2458 87.3232C49.8352 87.0815 50.3278 78.7032 50.3278 78.7032L51.0439 78.336Z" fill="white"/>
<path d="M41.1264 65.533C43.3327 63.8775 45.7164 62.2955 47.8921 60.637C48.5041 59.8475 48.7183 58.8469 48.9814 57.8554C49.2874 56.5916 49.523 55.2483 49.7189 53.9325L51.151 53.957C51.2825 55.3748 51.2825 56.8017 51.151 58.2196C50.9612 59.7343 50.7073 61.5305 49.5353 62.678C47.398 64.5368 45.1576 66.2735 42.8247 67.88L41.1417 65.5238L41.1264 65.533Z" fill="#DC897C"/>
<path d="M42.534 69.5569C44.4251 69.6334 48.4215 64.9087 48.4215 64.9087L45.7654 62.3047C44.2672 63.0919 42.8767 64.0689 41.6283 65.2117C39.78 67.014 40.4318 69.462 42.534 69.5569Z" fill="#263238"/>
<path opacity="0.2" d="M42.534 69.5569C44.4251 69.6334 48.4215 64.9087 48.4215 64.9087L45.7654 62.3047C44.2672 63.0919 42.8767 64.0689 41.6283 65.2117C39.78 67.014 40.4318 69.462 42.534 69.5569Z" fill="white"/>
<path opacity="0.1" d="M42.7696 69.5477C42.1882 68.9112 42.228 67.9901 43.3816 66.7233C44.5281 65.5484 45.8531 64.5622 47.3076 63.801L48.4398 64.9087C48.4398 64.9087 44.7341 69.309 42.7696 69.5477Z" fill="black"/>
<path d="M49.6699 55.386L49.1803 52.6014L51.6497 52.5677C51.6497 52.5677 52.2617 54.4649 50.9918 55.5053L49.6699 55.386Z" fill="#E4897B"/>
<path d="M49.8015 50.6981L51.6497 51.1112V52.5769L49.1803 52.6106L49.8015 50.6981Z" fill="#E4897B"/>
<path d="M37.6717 124.343L35.0982 124.386C35.0563 124.387 35.0159 124.401 34.9836 124.428C34.9513 124.455 34.9291 124.492 34.9207 124.533L34.5321 126.424C34.5232 126.464 34.5227 126.506 34.5305 126.547C34.5383 126.588 34.5542 126.626 34.5774 126.661C34.6006 126.695 34.6305 126.724 34.6653 126.747C34.7001 126.769 34.7391 126.784 34.78 126.791C34.8033 126.794 34.827 126.794 34.8504 126.791C35.6827 126.764 36.2855 126.705 37.332 126.687C37.9746 126.687 39.9177 126.715 40.8082 126.687C41.6986 126.66 41.7966 125.794 41.4202 125.72C39.7831 125.39 38.5468 124.915 38.0175 124.456C37.9199 124.378 37.7969 124.337 37.6717 124.343Z" fill="#263238"/>
<path d="M59.364 124.343L56.7936 124.386C56.7512 124.386 56.71 124.4 56.6771 124.427C56.6442 124.454 56.6216 124.491 56.6131 124.533L56.2275 126.424C56.2186 126.464 56.218 126.506 56.2255 126.546C56.2331 126.587 56.2488 126.625 56.2717 126.66C56.2946 126.694 56.3241 126.723 56.3586 126.746C56.3931 126.768 56.4317 126.784 56.4723 126.791C56.4957 126.794 56.5193 126.794 56.5427 126.791C57.375 126.764 57.9809 126.705 59.0243 126.687C59.6669 126.687 61.61 126.715 62.5005 126.687C63.391 126.66 63.4919 125.794 63.1125 125.72C61.4754 125.39 60.2392 124.915 59.7098 124.456C59.6122 124.378 59.4892 124.337 59.364 124.343Z" fill="#263238"/>
<path d="M34.526 124.475H38.0297C38.0297 124.475 42.4912 109.768 42.8737 106.017C43.2562 102.265 43.3969 92.8588 43.3969 92.8588V92.8771C43.5499 93.0791 44.8719 94.9396 46.3957 97.103C48.3878 99.9335 50.7256 103.281 51.2183 104.101C52.6626 106.519 56.2 124.462 56.2 124.462H59.7006C59.7006 124.462 58.8193 108.401 57.0201 103.107C55.2208 97.8129 47.4423 86.2522 47.1057 85.631C46.6742 84.8385 45.6154 82.3232 45.6154 82.3232L35.1166 83.7828C35.1166 83.7828 34.9452 85.5607 34.9575 87.1151C35.0064 92.9475 36.108 100.83 36.2855 102.951C36.6313 106.993 34.526 124.475 34.526 124.475Z" fill="#006D77"/>
<path d="M43.146 65.3891C43.146 65.3891 46.2886 70.992 45.6215 82.3354L35.1258 83.795C34.8198 82.1947 34.7494 74.1928 32.1392 66.8151C33.2689 66.4354 34.4218 66.1288 35.5909 65.8971C37.0649 65.6066 38.5546 65.4022 40.0524 65.2851C41.0847 65.2396 42.119 65.2744 43.146 65.3891Z" fill="#263238"/>
<path opacity="0.2" d="M45.6307 82.3354L35.1319 83.795C34.9452 82.7944 34.8442 79.2815 34.1557 74.9822C33.9721 73.8347 33.7457 72.6291 33.4611 71.4051C33.1085 69.8518 32.6692 68.3194 32.1453 66.8151C33.2745 66.4338 34.4276 66.1271 35.597 65.8971C37.072 65.6064 38.5627 65.4021 40.0615 65.2851C41.0945 65.2487 42.1286 65.2907 43.1552 65.4106C43.1552 65.4106 46.2948 70.992 45.6307 82.3354Z" fill="white"/>
<path d="M34.9758 60.79C35.5664 62.1455 36.4171 64.6762 35.6337 65.839C37.1178 66.1174 38.1827 66.2888 39.5597 67.063C39.777 66.1021 40.034 64.8628 40.034 64.8628C38.3724 64.8353 38.1521 63.6388 38.198 62.4944L34.9758 60.79Z" fill="#E4897B"/>
<path opacity="0.2" d="M36.2855 61.4876L38.1827 62.4974C38.1732 62.7683 38.1855 63.0395 38.2194 63.3083C37.6074 63.3542 36.6251 62.8769 36.4201 62.2588C36.3275 62.0124 36.2818 61.7508 36.2855 61.4876Z" fill="black"/>
<path opacity="0.5" d="M34.526 124.475H38.0297C38.0297 124.475 42.4912 109.768 42.8737 106.017C43.2562 102.265 43.3969 92.8588 43.3969 92.8588V92.8771C43.5499 93.0791 44.8719 94.9396 46.3957 97.103C48.3878 99.9335 50.7256 103.281 51.2183 104.101C52.6626 106.519 56.2 124.462 56.2 124.462H59.7006C59.7006 124.462 58.8193 108.401 57.0201 103.107C55.2208 97.8129 47.4423 86.2522 47.1057 85.631C46.6742 84.8385 45.6154 82.3232 45.6154 82.3232L35.1166 83.7828C35.1166 83.7828 34.9452 85.5607 34.9575 87.1151C35.0064 92.9475 36.108 100.83 36.2855 102.951C36.6313 106.993 34.526 124.475 34.526 124.475Z" fill="white"/>
<path d="M34.2842 66.1786L35.1563 65.0893L37.9807 65.6339L39.4159 67.2772L39.5964 65.38L40.1258 64.7465L41.2855 65.2453V66.4326L40.4593 66.1633L39.7463 67.8218L37.4911 66.8947L36.9893 67.5342L34.2842 66.1786Z" fill="#263238"/>
<path opacity="0.3" d="M34.2842 66.1786L35.1563 65.0893L37.9807 65.6339L39.4159 67.2772L39.5964 65.38L40.1258 64.7465L41.2855 65.2453V66.4326L40.4593 66.1633L39.7463 67.8218L37.4911 66.8947L36.9893 67.5342L34.2842 66.1786Z" fill="white"/>
<path opacity="0.1" d="M39.7464 67.8218L40.0187 65.839L41.2855 66.4326L40.4593 66.1633L39.7464 67.8218Z" fill="black"/>
<path opacity="0.1" d="M39.7463 67.8218L37.6564 66.2827L36.9893 67.5342L37.4911 66.8947L39.7463 67.8218Z" fill="black"/>
<path opacity="0.1" d="M34.1557 74.97C33.9721 73.8225 33.7457 72.6169 33.4611 71.3929C33.7999 70.9727 34.2812 70.6917 34.8136 70.6034C34.8136 70.6034 35.1013 73.3941 34.1557 74.97Z" fill="black"/>
<path opacity="0.2" d="M43.3969 92.8649V92.8832C43.5499 93.0852 44.8719 94.9457 46.3957 97.1091C46.5465 95.9382 46.3474 94.7489 45.8236 93.6909C45.2998 92.6329 44.4746 91.7535 43.452 91.1635L43.3969 92.8649Z" fill="black"/>
<path d="M38.0848 55.0953C39.1374 55.3646 40.1625 58.0084 39.0273 58.8193C37.892 59.6302 36.108 54.5904 38.0848 55.0953Z" fill="#263238"/>
<path d="M34.168 58.8469C34.9269 60.6829 35.2757 61.8089 36.564 62.4852C36.9806 62.7089 37.4504 62.8144 37.9226 62.7905C38.3949 62.7666 38.8516 62.6141 39.2435 62.3495C39.6353 62.0849 39.9474 61.7182 40.1461 61.2891C40.3448 60.86 40.4224 60.3848 40.3706 59.9148C40.2023 58.1002 38.9936 55.386 36.8761 55.2024C36.4191 55.1497 35.9562 55.2182 35.534 55.4009C35.1118 55.5836 34.7451 55.8742 34.4708 56.2435C34.1964 56.6127 34.0239 57.0477 33.9708 57.5046C33.9177 57.9616 33.9857 58.4245 34.168 58.8469Z" fill="#E4897B"/>
<path d="M35.5695 56.1724L35.1472 54.517C34.7611 54.794 34.2973 54.9418 33.8222 54.9392C31.7536 54.8444 30.4746 56.3989 31.6037 57.3352C30.7438 57.9166 31.4997 59.1008 32.28 59.8016C33.3601 60.7747 34.3852 61.1357 34.9299 60.5023C35.4471 60.1168 35.1717 58.1216 34.8442 57.4209C34.3546 56.3713 35.5695 56.1724 35.5695 56.1724Z" fill="#263238"/>
<path d="M34.0823 60.9277C34.4587 61.2483 34.9344 61.4288 35.4287 61.4387C36.0407 61.4387 36.0897 60.8481 35.6857 60.3616C35.3216 59.924 34.5597 59.3977 34.0456 59.6363C33.5315 59.875 33.6049 60.5268 34.0823 60.9277Z" fill="#E4897B"/>
<path d="M37.231 58.5011C37.2831 58.6541 37.4085 58.7551 37.5095 58.7245C37.6105 58.6939 37.6503 58.5439 37.5983 58.3909C37.5462 58.2379 37.4208 58.14 37.3198 58.1706C37.2188 58.2012 37.179 58.3481 37.231 58.5011Z" fill="#263238"/>
<path d="M38.9814 57.9748C39.0334 58.1278 39.1588 58.2257 39.2598 58.1951C39.3608 58.1645 39.4006 58.0145 39.3486 57.8615C39.2965 57.7085 39.1711 57.6106 39.0701 57.6412C38.9691 57.6718 38.9293 57.834 38.9814 57.9748Z" fill="#263238"/>
<path d="M38.452 58.2165C38.7965 58.6298 39.1947 58.9952 39.6362 59.3028C39.5545 59.4101 39.4502 59.498 39.3307 59.5605C39.2111 59.6229 39.0793 59.6582 38.9446 59.6639L38.452 58.2165Z" fill="#DE5753"/>
<path d="M36.4997 58.1063C36.4847 58.1108 36.4688 58.1108 36.4538 58.1063C36.4419 58.1022 36.4309 58.0958 36.4215 58.0874C36.4121 58.079 36.4044 58.0688 36.399 58.0574C36.3936 58.046 36.3905 58.0336 36.3899 58.021C36.3894 58.0084 36.3913 57.9958 36.3957 57.9839C36.4416 57.8423 36.5213 57.714 36.628 57.61C36.7346 57.5061 36.8649 57.4296 37.0077 57.3872C37.0199 57.3845 37.0326 57.3843 37.0449 57.3866C37.0573 57.3888 37.0691 57.3935 37.0796 57.4003C37.0901 57.4071 37.0992 57.416 37.1063 57.4264C37.1134 57.4367 37.1183 57.4484 37.1209 57.4607C37.1256 57.4849 37.121 57.5101 37.1079 57.5311C37.0949 57.5521 37.0744 57.5674 37.0505 57.5739C36.938 57.6081 36.8354 57.6691 36.7517 57.7517C36.668 57.8344 36.6057 57.9361 36.5701 58.0482C36.5642 58.063 36.5546 58.0761 36.5423 58.0863C36.53 58.0965 36.5154 58.1033 36.4997 58.1063Z" fill="#263238"/>
<path d="M39.5322 57.1516C39.5167 57.1535 39.5011 57.152 39.4863 57.1473C39.4715 57.1425 39.4579 57.1346 39.4465 57.1241C39.3638 57.0348 39.2618 56.9656 39.1484 56.9216C39.0349 56.8776 38.9129 56.86 38.7916 56.8701C38.7669 56.8746 38.7414 56.869 38.7207 56.8547C38.7001 56.8403 38.686 56.8184 38.6815 56.7936C38.6779 56.7685 38.6842 56.743 38.699 56.7225C38.7139 56.7019 38.7361 56.6879 38.761 56.6834C38.9121 56.6669 39.065 56.6859 39.2074 56.739C39.3498 56.7922 39.4778 56.8779 39.5811 56.9894C39.59 56.9983 39.5971 57.0087 39.6019 57.0203C39.6067 57.0319 39.6092 57.0442 39.6092 57.0568C39.6092 57.0693 39.6067 57.0817 39.6019 57.0932C39.5971 57.1048 39.59 57.1153 39.5811 57.1241C39.5682 57.1383 39.551 57.148 39.5322 57.1516Z" fill="#263238"/>
<path d="M33.7426 55.1749C33.7426 55.1749 34.8045 52.3015 37.4789 52.5249C37.2316 52.6114 37.0031 52.7443 36.8057 52.9166C36.8057 52.9166 39.0548 52.4331 39.9636 53.9417L39.4954 53.7428C39.4954 53.7428 40.239 54.9913 39.6699 55.949L39.4893 55.5268C39.4893 55.5268 38.7029 56.7967 37.2708 56.6437L37.7206 56.3377C37.7206 56.3377 35.3185 56.5641 34.6606 56.0317C34.3234 55.7815 34.0155 55.4941 33.7426 55.1749Z" fill="#263238"/>
<path d="M39.4036 60.1504C38.588 60.0891 37.7684 60.1044 36.9556 60.1963C37.2096 60.7226 37.638 61.1327 38.5591 61.0501C38.675 61.0512 38.79 61.0283 38.8966 60.9828C39.0033 60.9372 39.0993 60.8701 39.1787 60.7855C39.2581 60.701 39.3191 60.6009 39.3578 60.4916C39.3965 60.3822 39.4121 60.2661 39.4036 60.1504Z" fill="#263238"/>
<path d="M38.0939 60.6584C38.4465 60.6094 38.8054 60.6737 39.119 60.842C38.9572 60.9675 38.7606 61.0401 38.556 61.0501C38.2044 61.1005 37.846 61.0361 37.534 60.8665C37.6947 60.741 37.8903 60.6683 38.0939 60.6584Z" fill="#A02724"/>
<path d="M39.321 60.1412C39.3113 60.2117 39.2817 60.278 39.2356 60.3322C39.1895 60.3864 39.1289 60.4263 39.0609 60.4472C38.5273 60.4904 37.9911 60.4904 37.4575 60.4472C37.3721 60.4466 37.2883 60.4248 37.2135 60.3836C37.1387 60.3425 37.0753 60.2834 37.0291 60.2116C37.7902 60.1311 38.5564 60.1076 39.321 60.1412Z" fill="white"/>
<path d="M37.3718 75.276L34.8534 72.3629L33.0786 78.287C33.0786 78.287 34.0517 80.4596 34.0884 80.3525C34.1251 80.2454 37.3718 75.276 37.3718 75.276Z" fill="#006D77"/>
<path d="M37.0413 75.3341L34.8534 72.8892L33.608 72.5985L33.25 77.6995L34.6912 78.7032L37.0413 75.3341Z" fill="#006D77"/>
<path opacity="0.7" d="M37.0413 75.3341L34.8534 72.8892L33.608 72.5985L33.25 77.6995L34.6912 78.7032L37.0413 75.3341Z" fill="white"/>
<path d="M33.5682 72.0385L35.8173 74.918L37.3718 75.2607L35.0033 83.1249L32.7573 83.3636L31.3375 80.0955L33.5682 72.0385Z" fill="#006D77"/>
<path opacity="0.2" d="M33.5682 72.0385L35.8173 74.918L37.3718 75.2607L35.0033 83.1249L32.7573 83.3636L31.3375 80.0955L33.5682 72.0385Z" fill="white"/>
<path d="M35.7316 75.3892L32.9776 72.6842L31.6741 78.7307C31.6741 78.7307 32.8185 80.8177 32.8461 80.7075C32.8736 80.5973 35.7316 75.3892 35.7316 75.3892Z" fill="#006D77"/>
<path opacity="0.4" d="M35.7316 75.3892L32.9776 72.6842L31.6741 78.7307C31.6741 78.7307 32.8185 80.8177 32.8461 80.7075C32.8736 80.5973 35.7316 75.3892 35.7316 75.3892Z" fill="black"/>
<path d="M35.4103 75.4902L33.0358 73.2227L31.772 73.033L31.8148 78.1463L33.3326 79.0337L35.4103 75.4902Z" fill="#006D77"/>
<path opacity="0.7" d="M35.4103 75.4902L33.0358 73.2227L31.772 73.033L31.8148 78.1463L33.3326 79.0337L35.4103 75.4902Z" fill="white"/>
<path d="M31.6894 72.4761L34.1588 75.172L35.7316 75.3892L33.9936 83.4187L31.772 83.8287L30.0982 80.6861L31.6894 72.4761Z" fill="#006D77"/>
<path opacity="0.2" d="M31.6894 72.4761L34.1588 75.172L35.7316 75.3892L33.9936 83.4187L31.772 83.8287L30.0982 80.6861L31.6894 72.4761Z" fill="black"/>
<path d="M33.6325 69.462C31.9005 71.2766 29.9788 73.0789 28.5651 75.1475C28.507 75.2423 28.4458 75.3556 28.4213 75.4015C28.4317 75.3438 28.4317 75.2847 28.4213 75.227C28.4213 75.1689 28.3785 75.1597 28.3876 75.1873C28.5009 75.4688 28.9996 75.8207 29.3056 76.0318C30.3198 76.6547 31.3807 77.1979 32.4789 77.6567L32.13 79.0306C30.7895 78.8751 29.4786 78.5267 28.2377 77.9963C26.5486 77.2864 25.1471 75.7748 26.2518 73.8623C27.0099 72.5362 27.913 71.2985 28.9446 70.1719C29.8044 69.1958 30.6796 68.2747 31.6251 67.372L33.6417 69.4467L33.6325 69.462Z" fill="#DC897C"/>
<path d="M33.6049 66.6101C30.6092 65.9981 26.977 71.6652 26.977 71.6652L29.988 74.052C31.5328 73.0756 32.9979 71.9788 34.3699 70.7717C36.2641 69.0214 35.597 67.014 33.6049 66.6101Z" fill="#263238"/>
<path opacity="0.2" d="M33.6049 66.6101C30.6092 65.9981 26.977 71.6652 26.977 71.6652L29.988 74.052C31.5328 73.0756 32.9979 71.9788 34.3699 70.7717C36.2641 69.0214 35.597 67.014 33.6049 66.6101Z" fill="white"/>
<path d="M31.7108 77.3629L34.5229 77.0569L34.3852 79.5263C34.3852 79.5263 32.4513 80.0098 31.4997 78.6634L31.7108 77.3629Z" fill="#E4897B"/>
<path d="M36.3895 77.8219L35.8448 79.6365L34.3852 79.5355L34.5229 77.0661L36.3895 77.8219Z" fill="#E4897B"/>
<path d="M40.9153 65.0495C40.9153 65.0495 47.121 70.9002 50.4013 78.8899L51.0316 78.336C51.0316 78.336 47.124 70.0128 41.9893 64.921L40.9153 65.0495Z" fill="#006D77"/>
</svg>
